<svg width="145" height="48" viewBox="0 0 145 48" fill="none" xmlns="http://www.w3.org/2000/svg"><path d="M0 8C0 3.58172 3.58172 0 8 0H137C141.418 0 145 3.58172 145 8V40C145 44.4183 141.418 48 137 48H8C3.58173 48 0 44.4183 0 40V8Z" fill="#212529"></path><path d="M37.6653 22.5606L34.4138 20.6826L31.085 24.0114L34.4135 27.34L37.6763 25.4557C38.1851 25.1466 38.4887 24.6066 38.4887 24.0114C38.4887 23.4162 38.1849 22.8762 37.6653 22.5606Z" fill="#FFCE00"></path><path d="M31.0846 24.0111L22.0176 14.8789C21.7023 15.1943 21.5107 15.6222 21.5107 16.0952V31.8992C21.5107 32.3723 21.7023 32.8002 22.0176 33.1158L31.0846 24.0111Z" fill="#01DAFF"></path><path d="M31.0855 24.0112L34.4143 20.6824L34.4196 20.6772L29.9594 18.1092L24.0799 14.6536C23.5505 14.327 22.9085 14.3157 22.3678 14.6198C22.2439 14.6985 22.1311 14.7775 22.0186 14.8788L31.0855 24.0112Z" fill="#00F076"></path><path d="M22.0186 33.1156C22.1311 33.2169 22.2439 33.2959 22.3678 33.3746C22.638 33.521 22.9198 33.5999 23.2013 33.5999C23.5054 33.5999 23.7982 33.51 24.0686 33.3523L29.9592 29.9133L34.4194 27.3453L34.4141 27.34L31.0855 24.0112L22.0186 33.1156Z" fill="#F63448"></path><path d="M74.5745 21.4497C72.3901 21.4497 70.6608 23.1538 70.6608 25.5207C70.6608 27.7929 72.3901 29.5917 74.5745 29.5917C76.7589 29.5917 78.4882 27.8876 78.4882 25.5207C78.4882 23.0592 76.7589 21.4497 74.5745 21.4497ZM74.5745 27.8876C73.3913 27.8876 72.3901 26.8462 72.3901 25.426C72.3901 24.0059 73.3913 22.9645 74.5745 22.9645C75.7577 22.9645 76.7589 23.9112 76.7589 25.426C76.7589 26.8462 75.7577 27.8876 74.5745 27.8876ZM66.1099 21.4497C63.9255 21.4497 62.1962 23.1538 62.1962 25.5207C62.1962 27.7929 63.9255 29.5917 66.1099 29.5917C68.2943 29.5917 70.0236 27.8876 70.0236 25.5207C70.0236 23.0592 68.2943 21.4497 66.1099 21.4497ZM66.1099 27.8876C64.9267 27.8876 63.9255 26.8462 63.9255 25.426C63.9255 24.0059 64.9267 22.9645 66.1099 22.9645C67.2931 22.9645 68.2943 23.9112 68.2943 25.426C68.2943 26.8462 67.2931 27.8876 66.1099 27.8876ZM56.0071 22.6805V24.3846H59.9208C59.8298 25.3314 59.4657 26.0888 59.0106 26.5621C58.4645 27.1302 57.5544 27.7929 56.0071 27.7929C53.5496 27.7929 51.7293 25.8047 51.7293 23.2485C51.7293 20.6923 53.6407 18.7041 56.0071 18.7041C57.2813 18.7041 58.2825 19.2722 59.0106 19.9349L60.1939 18.7041C59.1927 17.7574 57.9184 17 56.0981 17C52.8215 17 50 19.8402 50 23.2485C50 26.6568 52.8215 29.497 56.0981 29.497C57.9184 29.497 59.1927 28.929 60.2849 27.6982C61.3771 26.5621 61.7411 24.9527 61.7411 23.7219C61.7411 23.3432 61.7411 22.9645 61.6501 22.6805H56.0071ZM97.3286 24.0059C96.9645 23.0592 96.0544 21.4497 94.052 21.4497C92.0496 21.4497 90.4114 23.0592 90.4114 25.5207C90.4114 27.7929 92.0496 29.5917 94.234 29.5917C95.9634 29.5917 97.0556 28.4556 97.4196 27.7929L96.1454 26.8462C95.6903 27.5089 95.1442 27.9822 94.234 27.9822C93.3239 27.9822 92.7778 27.6035 92.3227 26.7515L97.5106 24.4793L97.3286 24.0059ZM92.0496 25.3314C92.0496 23.8166 93.2329 22.9645 94.052 22.9645C94.6891 22.9645 95.3262 23.3432 95.5083 23.8166L92.0496 25.3314ZM87.7719 29.213H89.5012V17.3787H87.7719V29.213ZM85.0414 22.3018C84.5863 21.8284 83.8582 21.355 82.948 21.355C81.0366 21.355 79.2163 23.1538 79.2163 25.426C79.2163 27.6982 80.9456 29.4024 82.948 29.4024C83.8582 29.4024 84.5863 28.929 84.9504 28.4556H85.0414V29.0237C85.0414 30.5385 84.2222 31.3905 82.948 31.3905C81.9468 31.3905 81.2187 30.6331 81.0366 29.9704L79.5804 30.6331C80.0355 31.6746 81.1277 33 83.039 33C85.0414 33 86.6797 31.7692 86.6797 28.8343V21.6391H85.0414V22.3018ZM83.039 27.8876C81.8558 27.8876 80.8546 26.8462 80.8546 25.426C80.8546 24.0059 81.8558 22.9645 83.039 22.9645C84.2222 22.9645 85.1324 24.0059 85.1324 25.426C85.1324 26.8462 84.2222 27.8876 83.039 27.8876ZM105.247 17.3787H101.151V29.213H102.881V24.7633H105.247C107.158 24.7633 108.979 23.3432 108.979 21.071C108.979 18.7988 107.158 17.3787 105.247 17.3787ZM105.338 23.0592H102.881V18.9882H105.338C106.612 18.9882 107.34 20.1243 107.34 20.9763C107.249 22.0178 106.521 23.0592 105.338 23.0592ZM115.805 21.355C114.531 21.355 113.257 21.9231 112.801 23.1538L114.349 23.8166C114.713 23.1538 115.259 22.9645 115.896 22.9645C116.806 22.9645 117.625 23.5325 117.716 24.4793V24.574C117.443 24.3846 116.715 24.1006 115.987 24.1006C114.349 24.1006 112.71 25.0473 112.71 26.7515C112.71 28.3609 114.076 29.4024 115.532 29.4024C116.715 29.4024 117.261 28.8343 117.716 28.2663H117.807V29.213H119.446V24.6686C119.264 22.5858 117.716 21.355 115.805 21.355ZM115.623 27.8876C115.077 27.8876 114.258 27.6035 114.258 26.8462C114.258 25.8994 115.259 25.6154 116.078 25.6154C116.806 25.6154 117.17 25.8047 117.625 25.9941C117.443 27.1302 116.533 27.8876 115.623 27.8876ZM125.18 21.6391L123.268 26.7515H123.177L121.175 21.6391H119.355L122.358 28.8343L120.629 32.8106H122.358L127 21.6391H125.18ZM109.889 29.213H111.618V17.3787H109.889V29.213Z" fill="white"></path></svg>