<svg width="155" height="121" viewBox="0 0 155 121" fill="none" xmlns="http://www.w3.org/2000/svg"><path d="M54.3369 98.4192C39.2685 98.7489 15.9104 98.2272 1.39635 97.5823C0.711588 104.781 1.58113 109.499 5.45421 114.256C8.58456 118.096 11.7258 119.372 16.8597 119.458C19.4792 119.502 29.2289 116.151 31.8086 115.614C39.8554 113.941 50.0037 114.767 54.3369 98.4192Z" fill="white"></path><path d="M16.907 120.277C16.8853 120.277 16.8635 120.277 16.8454 120.277C11.2695 120.183 8.00872 118.691 4.81678 114.774C0.976306 110.06 -0.172213 105.379 0.577767 97.5027C0.617621 97.0679 0.987176 96.7165 1.43282 96.76C15.9831 97.4085 39.4608 97.923 54.319 97.5969C54.5763 97.6005 54.8226 97.7092 54.9821 97.9085C55.1415 98.1114 55.1958 98.3759 55.1306 98.6259C51.2503 113.274 42.7759 114.633 35.3014 115.828C34.1421 116.013 33.0443 116.191 31.9718 116.412C31.1132 116.589 29.3741 117.107 27.3633 117.709C23.3416 118.919 18.7838 120.277 16.907 120.277ZM2.14294 98.4375C1.58499 105.358 2.68278 109.557 6.08848 113.738C8.96522 117.27 11.7876 118.549 16.8708 118.636C16.8853 118.636 16.8998 118.636 16.9143 118.636C18.541 118.636 23.3634 117.198 26.8923 116.144C28.9393 115.531 30.7074 115.002 31.6385 114.81C32.7472 114.578 33.9138 114.394 35.0406 114.212C42.1672 113.071 49.5329 111.89 53.2466 99.2635C38.5876 99.5353 16.4034 99.0534 2.14294 98.4375Z" fill="black"></path><path d="M112.202 1.55617C117.828 32.0879 114.876 62.1994 113.499 93.2602C113.151 101.097 111.256 109.086 105.234 114.904C100.934 119.06 95.1696 120.6 88.5937 119.944C64.4458 117.542 33.28 119.394 15.6138 119.394C20.3564 118.104 20.2223 117.781 23.2585 113.434C26.2946 109.086 26.5591 103.296 27.2077 97.9484C28.6388 86.1009 30.9829 74.1049 30.6061 62.1668C29.9503 41.613 29.3127 19.7694 27.8997 0.900391C46.4752 0.907637 87.4995 2.41484 112.202 1.55617Z" fill="white"></path><path d="M91.4884 120.915C90.5247 120.915 89.532 120.864 88.5139 120.763C70.9999 119.024 49.7541 119.524 32.6821 119.93C26.3888 120.078 20.4433 120.22 15.6173 120.22C15.2043 120.22 14.8565 119.915 14.8022 119.506C14.7478 119.1 15.005 118.712 15.4 118.604C19.4542 117.502 19.5919 117.303 21.8817 113.984C22.0991 113.673 22.3309 113.332 22.5882 112.966C25.1171 109.347 25.6461 104.561 26.1569 99.9303C26.233 99.2347 26.3091 98.539 26.3924 97.8543C26.7475 94.9159 27.1641 91.9196 27.5699 89.0212C28.7981 80.2171 30.0662 71.1122 29.7836 62.1994L29.6641 58.4061C29.0445 38.8667 28.4068 18.6644 27.0808 0.965616C27.0627 0.737361 27.1424 0.51273 27.2982 0.346068C27.454 0.179406 27.6714 0.0852051 27.8996 0.0852051C34.2726 0.0852051 43.1238 0.259114 53.3699 0.462007C72.344 0.835185 95.963 1.29894 112.173 0.737362C112.586 0.719247 112.937 1.00909 113.01 1.41126C117.759 27.1932 116.444 52.1599 115.053 78.5903C114.799 83.4017 114.539 88.3763 114.318 93.3C113.883 103.122 111.097 110.387 105.803 115.499C102.075 119.1 97.2709 120.915 91.4884 120.915ZM58.0908 117.894C68.5362 117.894 79.1446 118.18 88.6733 119.129C95.2927 119.788 100.673 118.169 104.662 114.314C109.64 109.506 112.26 102.608 112.676 93.2239C112.894 88.2929 113.158 83.3148 113.412 78.4997C114.785 52.4062 116.086 27.7475 111.521 2.40036C95.2927 2.92571 72.0578 2.4692 53.3373 2.10327C43.5659 1.91124 35.0697 1.74458 28.7837 1.73009C30.0662 19.2477 30.6966 39.124 31.3053 58.3553L31.4249 62.1487C31.7147 71.2028 30.4322 80.3765 29.1967 89.2494C28.7945 92.1406 28.3779 95.1297 28.0228 98.0535C27.9395 98.7347 27.8634 99.4231 27.7873 100.111C27.2547 104.945 26.7004 109.944 23.9323 113.908C23.6787 114.274 23.4468 114.607 23.2295 114.919C21.9288 116.803 21.1897 117.825 20.1462 118.542C23.9541 118.491 28.2112 118.39 32.6386 118.285C40.4971 118.1 49.2324 117.894 58.0908 117.894Z" fill="black"></path><path d="M142.863 8.74809C143.838 7.11407 144.813 5.48006 145.791 3.84605C146.258 3.06346 146.787 2.22653 147.646 1.88958C148.45 1.57437 149.367 1.77364 150.193 2.0345C151.189 2.34971 152.283 2.90042 152.501 3.90764C152.704 4.8424 152.048 5.72281 151.425 6.45105C149.979 8.14303 148.494 9.80603 146.968 11.4364C146.642 11.7842 146.302 12.1393 145.856 12.3168C145.487 12.4618 145.074 12.4726 144.682 12.4147C143.758 12.277 142.871 11.7299 142.465 10.9038C142.063 10.0741 142.222 8.97996 142.863 8.74809Z" fill="white"></path><path d="M145.113 13.27C144.936 13.27 144.755 13.2555 144.566 13.2302C143.32 13.0454 142.233 12.2954 141.73 11.2664C141.371 10.5382 141.324 9.65779 141.599 8.97302C141.748 8.60709 141.98 8.31724 142.277 8.12884L145.084 3.42607C145.523 2.69058 146.186 1.5783 147.349 1.12541C148.418 0.705132 149.566 0.973241 150.447 1.25584C152.102 1.78481 153.066 2.61812 153.309 3.73766C153.617 5.16153 152.559 6.397 152.052 6.98757C150.599 8.6868 149.095 10.3715 147.574 11.9983C147.244 12.3497 146.795 12.8316 146.164 13.0816C145.845 13.2048 145.494 13.27 145.113 13.27ZM143.164 9.51286C143.07 9.62155 142.987 10.0998 143.208 10.5418C143.472 11.0817 144.099 11.4983 144.806 11.6034C145.106 11.6469 145.367 11.6287 145.559 11.5527C145.845 11.4367 146.128 11.1396 146.374 10.8751C147.878 9.26649 149.371 7.59987 150.805 5.91876C151.342 5.29196 151.823 4.63256 151.704 4.08185C151.57 3.45506 150.675 3.04927 149.95 2.82102C149.327 2.62175 148.541 2.4261 147.95 2.65798C147.363 2.88623 146.947 3.5239 146.501 4.27025L143.574 9.17229C143.476 9.32446 143.335 9.44765 143.164 9.51286Z" fill="black"></path><path d="M115.998 43.0154C109.093 52.8158 103.517 61.8953 95.7961 72.8551C95.028 74.3587 94.1114 75.7971 93.5425 77.384C92.9737 78.9709 92.7745 80.768 93.4592 82.3186C94.144 83.8693 95.8831 85.0396 97.5606 84.7026C98.9591 84.42 99.959 83.2462 100.836 82.1411C109.542 71.1994 117.527 59.3845 125.705 48.0551L115.998 43.0154Z" fill="white"></path><path d="M96.9773 85.5827C95.2346 85.5827 93.4919 84.4197 92.7093 82.6516C91.8325 80.6589 92.26 78.5358 92.7745 77.1083C93.1984 75.9344 93.7926 74.8439 94.3687 73.7932C94.6078 73.3584 94.8433 72.9236 95.0679 72.4852C95.0861 72.4526 95.1042 72.4164 95.1295 72.3874C99.0932 66.7644 102.499 61.616 105.796 56.6415C108.97 51.8481 111.97 47.3193 115.332 42.5477C115.567 42.2107 116.017 42.102 116.383 42.2904L126.089 47.3301C126.303 47.4388 126.455 47.6381 126.509 47.87C126.563 48.1018 126.516 48.3482 126.375 48.5402C124.045 51.7684 121.69 55.0944 119.408 58.3153C113.662 66.4274 107.72 74.8185 101.481 82.6589C100.691 83.6552 99.4917 85.1588 97.7237 85.5139C97.4773 85.5573 97.2273 85.5827 96.9773 85.5827ZM96.5027 73.2823C96.278 73.7171 96.0426 74.1482 95.8071 74.5794C95.2346 75.6228 94.6984 76.6083 94.318 77.6626C93.9049 78.8111 93.5535 80.4923 94.2129 81.9886C94.7093 83.1154 96.0679 84.1661 97.4012 83.898C98.4918 83.677 99.3468 82.6987 100.195 81.6299C106.401 73.8258 112.332 65.4564 118.067 57.3588C120.169 54.3952 122.335 51.3373 124.484 48.3446L116.256 44.073C113.075 48.6127 110.198 52.9532 107.158 57.54C103.872 62.5145 100.466 67.6557 96.5027 73.2823Z" fill="black"></path><path d="M125.531 50.917C123.632 49.7648 116.64 45.1671 113.763 42.6273C118.462 36.7869 120.332 32.9465 124.661 26.6894C126.346 24.2583 132.549 15.6136 133.85 13.7658C139.034 6.40008 144.498 8.929 147.302 11.5594C152.306 16.2549 144.886 22.8453 143.436 24.7764C136.86 33.5515 131.458 41.0803 125.531 50.917Z" fill="#ACD4F7"></path><path d="M125.531 51.7398C125.382 51.7398 125.234 51.6999 125.103 51.6202C123.259 50.5007 116.18 45.8559 113.216 43.2436C112.886 42.9538 112.843 42.4538 113.118 42.1132C116.042 38.4793 117.824 35.6859 119.886 32.4505C121.103 30.5375 122.364 28.5593 123.984 26.2224C125.038 24.7007 127.864 20.7406 130.136 17.5632C131.509 15.6393 132.686 13.9872 133.175 13.2952C135.389 10.1467 137.886 8.40764 140.592 8.13229C143.929 7.79172 146.577 9.75906 147.86 10.9619C152.718 15.5161 147.313 21.5993 145.005 24.1971C144.617 24.6355 144.28 25.0123 144.088 25.2659C137.139 34.5374 131.991 41.7763 126.23 51.3376C126.118 51.5224 125.937 51.6601 125.723 51.7108C125.661 51.7289 125.596 51.7398 125.531 51.7398ZM114.901 42.519C117.683 44.8124 122.973 48.3341 125.259 49.7797C130.868 40.5372 136.146 33.1352 142.78 24.284C143.012 23.9761 143.353 23.592 143.784 23.1065C147.237 19.2189 149.987 15.2009 146.74 12.1575C145.661 11.1467 143.451 9.4837 140.762 9.76268C138.552 9.99093 136.451 11.4945 134.52 14.2372C134.031 14.9328 132.849 16.5886 131.473 18.5161C129.205 21.6899 126.382 25.6427 125.335 27.1571C123.734 29.4687 122.484 31.4324 121.274 33.3345C119.386 36.2946 117.596 39.0988 114.901 42.519Z" fill="black"></path><path d="M133.657 50.0149C132.838 50.0149 132.041 49.7287 131.469 49.2033C129.976 47.8266 130.045 45.5839 130.741 44.0803C131.454 42.5369 132.741 41.4137 133.878 40.421L144.537 31.106C146.664 29.2474 148.867 27.3235 150.461 25.0047C152.189 22.4976 152.939 19.802 152.573 17.4216C152.16 14.7224 150.124 12.4399 147.733 11.987C147.287 11.9036 146.994 11.4725 147.077 11.0269C147.161 10.5812 147.588 10.2841 148.037 10.3711C151.139 10.958 153.671 13.7514 154.197 17.168C154.624 19.965 153.78 23.0809 151.813 25.9322C150.099 28.4213 147.82 30.4104 145.617 32.3379L134.958 41.6528C133.947 42.5369 132.799 43.5405 132.23 44.7651C131.762 45.7759 131.733 47.207 132.581 47.9896C132.958 48.3338 133.617 48.4606 134.186 48.2903C134.422 48.2215 134.835 48.0403 134.94 47.6237C135.052 47.1853 135.498 46.9208 135.94 47.0331C136.378 47.1454 136.643 47.5947 136.53 48.0331C136.306 48.9099 135.621 49.5765 134.65 49.8664C134.328 49.9678 133.991 50.0149 133.657 50.0149Z" fill="black"></path><path d="M91.4338 89.9124C91.278 89.9124 91.1222 89.8689 90.9845 89.7784C90.6041 89.5284 90.499 89.0211 90.749 88.6407L94.0025 83.6735C94.2525 83.293 94.7598 83.188 95.1402 83.438C95.5206 83.688 95.6257 84.1952 95.3757 84.5756L92.1221 89.5429C91.9664 89.782 91.7019 89.9124 91.4338 89.9124Z" fill="black"></path><path d="M47.957 99.8507C44.9969 99.8507 42.0405 99.8399 39.0876 99.8145C38.9355 99.8145 38.8159 99.6913 38.8159 99.5391C38.8159 99.387 38.9463 99.2529 39.0913 99.2674C58.5074 99.4268 78.1844 99.0609 97.5752 98.1877C97.7237 98.1587 97.8541 98.2964 97.8614 98.4486C97.8686 98.6008 97.7527 98.7276 97.6005 98.7348C81.1517 99.4739 64.4891 99.8507 47.957 99.8507Z" fill="black"></path><path d="M43.276 51.8012C43.131 51.8012 43.0078 51.6853 43.0042 51.5367C42.997 51.3845 43.1165 51.2577 43.2687 51.2541L101.85 49.1418C102.006 49.1527 102.129 49.2542 102.133 49.4063C102.14 49.5585 102.021 49.6853 101.869 49.6889L43.2868 51.8012C43.2832 51.8012 43.2796 51.8012 43.276 51.8012Z" fill="black"></path><path d="M42.1924 68.2136C42.0511 68.2136 41.9315 68.1049 41.9206 67.96C41.9098 67.8078 42.0221 67.6774 42.1743 67.6665C59.5144 66.4129 77.1153 65.6593 94.4917 65.4238H94.4953C94.6438 65.4238 94.767 65.5434 94.7706 65.6956C94.7743 65.8477 94.6511 65.9709 94.4989 65.9745C77.1334 66.21 59.5434 66.9636 42.2141 68.2172C42.2032 68.2136 42.1996 68.2136 42.1924 68.2136Z" fill="black"></path><path d="M41.283 84.8873C41.1453 84.8873 41.0294 84.7859 41.0113 84.6446C40.9931 84.496 41.1018 84.3584 41.2504 84.3403C55.9927 82.5686 70.9814 82.1519 85.7999 83.1048C85.952 83.1156 86.0644 83.2461 86.0571 83.3946C86.0462 83.5468 85.923 83.67 85.7673 83.6519C70.9851 82.699 56.0253 83.1156 41.3156 84.8837C41.3047 84.8873 41.2939 84.8873 41.283 84.8873Z" fill="black"></path><path d="M64.7784 18.1281L60.3691 22.512L73.3905 38.7217L85.9735 18.1136L81.3142 13.947L72.5246 27.8742L64.7784 18.1281Z" fill="#ACD4F7"></path><path d="M73.3907 39.544C73.1443 39.544 72.9052 39.4317 72.7494 39.236L59.728 23.0263C59.4636 22.7002 59.4925 22.2256 59.7896 21.9285L64.1989 17.5482C64.3656 17.3852 64.5938 17.2946 64.8257 17.3127C65.0576 17.3272 65.275 17.4395 65.4199 17.6207L72.4487 26.461L80.6188 13.5085C80.7492 13.302 80.9593 13.1679 81.1985 13.1317C81.4376 13.0991 81.6803 13.1715 81.8615 13.3346L86.5244 17.5047C86.8215 17.7692 86.8831 18.2076 86.6766 18.5446L74.0936 39.1527C73.9523 39.3809 73.7132 39.5259 73.4451 39.544C73.4269 39.544 73.4088 39.544 73.3907 39.544ZM61.4707 22.5734L73.3001 37.2977L84.9194 18.2728L81.4919 15.2077L73.2204 28.3124C73.0791 28.537 72.8364 28.682 72.5719 28.6965C72.3038 28.7073 72.0502 28.595 71.8835 28.3885L64.7062 19.3598L61.4707 22.5734Z" fill="black"></path></svg>