<svg width="119" height="103" viewBox="0 0 119 103" fill="none" xmlns="http://www.w3.org/2000/svg"><path d="M14.2185 87.5282C14.3864 58.8559 14.1186 30.1797 13.4189 1.51151C40.488 1.18769 67.881 1.12373 95.3498 1.24766C95.118 21.2606 95.1419 41.2776 95.4218 61.2906C95.5897 73.188 95.5617 86.037 88.5336 95.6397C87.6181 96.887 86.5907 98.0704 85.3513 98.9978C81.6574 101.772 76.6081 101.972 71.6629 100.949C61.3885 99.1218 50.7944 100.161 40.472 98.63C35.7866 97.9344 31.1972 96.7151 26.6357 95.4518C22.0342 94.1805 17.1769 92.6853 14.2185 87.5282Z" fill="white"></path><path d="M76.8123 102.204C75.1572 102.204 73.3902 102.012 71.5232 101.624C66.1742 100.673 60.5973 100.505 55.2042 100.341C50.3269 100.193 45.2857 100.041 40.3684 99.3137C35.623 98.6101 30.8896 97.3508 26.4481 96.1195C22.1584 94.9322 16.8214 93.449 13.6231 87.872C13.5632 87.7681 13.5312 87.6482 13.5312 87.5242C13.6991 58.9919 13.4312 30.0599 12.7316 1.53159C12.7276 1.34769 12.7956 1.16779 12.9235 1.03586C13.0514 0.903935 13.2273 0.827978 13.4112 0.82398C39.177 0.512152 65.9783 0.428203 95.3541 0.56013C95.538 0.56013 95.7139 0.636086 95.8419 0.764015C95.9698 0.895943 96.0417 1.07184 96.0377 1.25574C95.8059 21.1768 95.8299 41.3737 96.1097 61.2827C96.2656 72.2846 96.4575 85.9811 89.0896 96.0475C87.9742 97.5707 86.9188 98.6861 85.7674 99.5496C83.4207 101.313 80.3784 102.204 76.8123 102.204ZM14.9104 87.3443C17.8408 92.3016 22.8141 93.6808 26.8159 94.7882C31.2174 96.0076 35.9029 97.2589 40.5723 97.9505C45.4096 98.6661 50.4109 98.818 55.2482 98.9659C60.6892 99.1298 66.3181 99.3018 71.7871 100.273C75.633 101.069 81.022 101.397 84.9438 98.4502C85.9833 97.6666 86.9507 96.6472 87.9822 95.236C95.0783 85.5413 94.8904 72.1047 94.7385 61.3067C94.4626 41.6175 94.4346 21.6485 94.6585 1.93937C65.8304 1.81544 39.4729 1.89939 14.1308 2.19922C14.8105 30.4517 15.0743 59.0919 14.9104 87.3443Z" fill="black"></path><path d="M84.7803 99.4377C83.2052 100.329 81.1463 100.001 79.6431 98.994C78.14 97.9865 77.1125 96.4074 76.333 94.7763C74.7338 91.4221 74.0302 87.6442 73.8543 83.8383C49.6716 82.9708 24.7813 82.7109 0.810547 82.7109C0.810547 98.1944 8.84213 101.265 11.4287 101.269C23.7179 101.281 50.6791 101.625 70.1084 101.8C75.0657 101.844 80.2108 101.852 84.7803 99.4377Z" fill="white"></path><path d="M72.0112 102.5C71.3635 102.5 70.7239 102.496 70.0962 102.488C63.4998 102.428 56.0359 102.348 48.5681 102.272C34.2959 102.12 19.5361 101.964 11.4205 101.956C8.27825 101.952 0.114746 98.4901 0.114746 82.7108C0.114746 82.331 0.422577 82.0232 0.802368 82.0232C28.8869 82.0232 52.7897 82.391 73.8701 83.1506C74.2299 83.1626 74.5178 83.4504 74.5338 83.8062C74.7217 87.9239 75.5332 91.514 76.9444 94.4803C77.832 96.3433 78.8354 97.6346 80.0147 98.4222C81.35 99.3177 83.0131 99.5136 84.2284 98.9419C84.3004 98.9059 84.3723 98.8699 84.4443 98.8299C84.7761 98.654 85.1919 98.778 85.3718 99.1098C85.5517 99.4416 85.4358 99.8534 85.1079 100.041C85.016 100.093 84.924 100.141 84.8321 100.185C80.7423 102.26 76.2048 102.5 72.0112 102.5ZM1.50598 83.4024C1.73385 97.3947 8.89391 100.581 11.4285 100.581C19.548 100.589 34.3119 100.745 48.5881 100.897C56.0519 100.977 63.5158 101.053 70.1122 101.113C73.4784 101.145 77.1643 101.177 80.6544 100.277C80.1747 100.101 79.7029 99.8654 79.2592 99.5695C77.8679 98.638 76.7086 97.1708 75.7091 95.076C74.2899 92.1016 73.4464 88.5476 73.1985 84.5058C52.4619 83.7662 28.9948 83.4064 1.50598 83.4024Z" fill="black"></path><path d="M4.24062 89.7311C4.18065 89.7311 4.12468 89.7071 4.07671 89.6632C3.98875 89.5752 3.98875 89.4273 4.07671 89.3393L8.21043 85.2056C8.29838 85.1177 8.4463 85.1177 8.53425 85.2056C8.6222 85.2936 8.6222 85.4415 8.53425 85.5294L4.40053 89.6632C4.36055 89.7071 4.30058 89.7311 4.24062 89.7311Z" fill="black"></path><path d="M5.84755 94.5525C5.79158 94.5525 5.73161 94.5325 5.68763 94.4885C5.59568 94.4005 5.59569 94.2566 5.68364 94.1647L14.4108 85.2096C14.4988 85.1177 14.6467 85.1177 14.7347 85.2056C14.8266 85.2936 14.8266 85.4415 14.7387 85.5294L6.01146 94.4845C5.96748 94.5285 5.90751 94.5525 5.84755 94.5525Z" fill="black"></path><path d="M9.11806 97.5027C9.05809 97.5027 9.00212 97.4787 8.95415 97.4347C8.8662 97.3467 8.8662 97.1988 8.95415 97.1109L21.0115 85.0535C21.0995 84.9656 21.2474 84.9656 21.3353 85.0535C21.4233 85.1415 21.4233 85.2894 21.3353 85.3773L9.27797 97.4347C9.23799 97.4827 9.17803 97.5027 9.11806 97.5027Z" fill="black"></path><path d="M16.2658 98.5301C16.2139 98.5301 16.1619 98.5102 16.1179 98.4742C16.022 98.3902 16.01 98.2463 16.0899 98.1504C19.9838 93.5809 24.1135 89.1113 28.3632 84.8697C28.4511 84.7817 28.599 84.7817 28.687 84.8697C28.775 84.9576 28.775 85.1055 28.687 85.1935C24.4453 89.4272 20.3236 93.8847 16.4417 98.4462C16.3938 98.5022 16.3298 98.5301 16.2658 98.5301Z" fill="black"></path><path d="M22.9023 98.6302C22.8503 98.6302 22.7944 98.6102 22.7504 98.5742C22.6544 98.4902 22.6464 98.3463 22.7264 98.2504L34.256 84.9777C34.34 84.8817 34.4839 84.8737 34.5799 84.9537C34.6758 85.0376 34.6838 85.1816 34.6039 85.2775L23.0742 98.5502C23.0302 98.6022 22.9663 98.6302 22.9023 98.6302Z" fill="black"></path><path d="M29.3905 98.726C29.3385 98.726 29.2865 98.71 29.2466 98.674C29.1466 98.5941 29.1346 98.4502 29.2146 98.3502C32.8286 93.9287 36.5865 89.5311 40.3844 85.2734C40.4684 85.1775 40.6123 85.1695 40.7083 85.2534C40.8042 85.3374 40.8122 85.4813 40.7282 85.5773C36.9343 89.8309 33.1804 94.2245 29.5704 98.6421C29.5224 98.698 29.4585 98.726 29.3905 98.726Z" fill="black"></path><path d="M35.0836 98.7901C35.0317 98.7901 34.9797 98.7741 34.9357 98.7381C34.8398 98.6581 34.8238 98.5142 34.9037 98.4143C38.5497 93.9967 42.3037 89.5472 46.0536 85.1976C46.1375 85.1016 46.2815 85.0896 46.3774 85.1736C46.4734 85.2575 46.4854 85.4014 46.4014 85.4974C42.6515 89.847 38.9015 94.2885 35.2595 98.7061C35.2156 98.7621 35.1476 98.7901 35.0836 98.7901Z" fill="black"></path><path d="M41.0242 98.946C40.9723 98.946 40.9243 98.93 40.8803 98.894C40.7804 98.814 40.7644 98.6701 40.8443 98.5702L51.4305 85.4174C51.5105 85.3175 51.6544 85.3015 51.7543 85.3814C51.8543 85.4614 51.8703 85.6053 51.7903 85.7053L41.2041 98.858C41.1562 98.918 41.0922 98.946 41.0242 98.946Z" fill="black"></path><path d="M46.8931 99.1699C46.8411 99.1699 46.7851 99.1499 46.7452 99.1139C46.6492 99.03 46.6372 98.8861 46.7212 98.7901L57.959 85.7293C58.0429 85.6334 58.1869 85.6214 58.2828 85.7053C58.3788 85.7893 58.3908 85.9332 58.3068 86.0291L47.069 99.0899C47.021 99.1459 46.957 99.1699 46.8931 99.1699Z" fill="black"></path><path d="M53.1415 99.098C53.0895 99.098 53.0375 99.082 52.9975 99.046C52.8976 98.966 52.8856 98.8221 52.9656 98.7222C56.6355 94.2366 60.5414 89.851 64.5752 85.6893C64.6631 85.5974 64.811 85.5974 64.899 85.6853C64.9909 85.7733 64.9909 85.9172 64.903 86.0092C60.8812 90.1629 56.9834 94.5365 53.3174 99.014C53.2774 99.07 53.2094 99.098 53.1415 99.098Z" fill="black"></path><path d="M59.3418 99.018C59.2938 99.018 59.2419 99.002 59.2019 98.9701C59.1019 98.8901 59.0859 98.7462 59.1619 98.6462C62.7039 94.1367 66.4659 89.6952 70.3357 85.4495C70.4197 85.3576 70.5676 85.3496 70.6596 85.4335C70.7515 85.5175 70.7595 85.6654 70.6756 85.7573C66.8137 89.995 63.0598 94.4246 59.5257 98.9301C59.4737 98.986 59.4058 99.018 59.3418 99.018Z" fill="black"></path><path d="M64.5592 99.1098C64.5032 99.1098 64.4473 99.0898 64.4033 99.0498C64.3074 98.9659 64.3034 98.818 64.3873 98.726L71.1876 91.2461C71.2715 91.1542 71.4194 91.1462 71.5114 91.2302C71.6073 91.3141 71.6113 91.462 71.5274 91.554L64.7271 99.0339C64.6832 99.0858 64.6192 99.1098 64.5592 99.1098Z" fill="black"></path><path d="M70.3721 99.6017C70.3242 99.6017 70.2762 99.5857 70.2322 99.5537C70.1323 99.4778 70.1123 99.3339 70.1882 99.2299C71.0318 98.1185 71.9353 97.0311 72.8788 96.0037C72.9667 95.9118 73.1106 95.9038 73.2026 95.9877C73.2945 96.0717 73.3025 96.2196 73.2186 96.3115C72.2871 97.327 71.3916 98.4024 70.556 99.5058C70.5081 99.5697 70.4401 99.6017 70.3721 99.6017Z" fill="black"></path><g opacity="0.1294"><path d="M80.4667 99.0618C80.1109 98.694 79.5752 98.6461 79.1074 98.4941C77.6522 97.9145 76.1251 97.5706 74.5539 97.6346C70.6641 97.5946 66.7742 97.7186 62.8844 97.6626C58.4708 97.5267 54.0572 97.3828 49.6397 97.2788C46.0137 97.3428 42.3916 97.3268 38.7656 97.3068C34.6359 97.3788 30.5102 97.4387 26.3845 97.2468C20.1959 97.4067 14.0113 97.2068 7.82669 97.3188C5.57992 97.3628 5.52795 100.709 7.82669 100.777C15.4345 100.797 23.0423 101.041 30.6541 101.145C35.9432 101.085 41.2283 100.953 46.5174 100.929C52.0223 100.805 57.5273 101.085 63.0323 101.133C64.1796 101.137 65.327 101.109 66.4744 101.077C66.4504 101.417 66.5583 101.76 66.8342 102.02C67.3179 102.516 68.0295 102.376 68.6572 102.408C71.1878 102.492 73.7064 102.292 76.225 102.056C76.9446 101.96 77.8081 102.148 78.3598 101.572C78.4518 101.484 78.5237 101.389 78.5837 101.285C78.6317 101.293 78.6797 101.297 78.7276 101.305C78.6757 101.297 78.6317 101.293 78.5837 101.285C79.3033 101.381 79.2074 101.429 79.6791 101.373C80.0309 101.353 80.3747 101.149 80.5706 100.857C81.0144 100.349 80.9344 99.5296 80.4667 99.0618Z" fill="black"></path></g><path d="M118.198 45.8872L99.1362 17.5388L80.0747 45.8872H90.8048V79.4047H107.468V45.8872H118.198Z" fill="#ACD4F7"></path><path d="M107.468 80.0923H90.8049C90.4251 80.0923 90.1173 79.7845 90.1173 79.4047V46.5748H80.0748C79.819 46.5748 79.5871 46.4348 79.4671 46.211C79.3472 45.9871 79.3632 45.7152 79.5031 45.5034L98.5646 17.155C98.8205 16.7752 99.4521 16.7752 99.708 17.155L118.77 45.5034C118.909 45.7152 118.925 45.9871 118.805 46.211C118.686 46.4348 118.454 46.5748 118.198 46.5748H108.155V79.4047C108.155 79.7845 107.848 80.0923 107.468 80.0923ZM91.4965 78.7171H106.78V45.8871C106.78 45.5073 107.088 45.1995 107.468 45.1995H116.903L99.1363 18.7741L81.3701 45.1995H90.8049C91.1847 45.1995 91.4925 45.5073 91.4925 45.8871V78.7171H91.4965Z" fill="black"></path><path d="M29.9142 73.6999C29.5344 73.6999 29.2266 73.392 29.2266 73.0122V43.0048C29.2266 42.625 29.5344 42.3171 29.9142 42.3171C30.294 42.3171 30.6018 42.625 30.6018 43.0048V73.0122C30.6018 73.392 30.294 73.6999 29.9142 73.6999Z" fill="black"></path><path d="M43.9987 73.6997C43.6189 73.6997 43.311 73.3919 43.311 73.0121V29.3961C43.311 29.0163 43.6189 28.7085 43.9987 28.7085C44.3784 28.7085 44.6863 29.0163 44.6863 29.3961V73.0121C44.6863 73.3919 44.3784 73.6997 43.9987 73.6997Z" fill="black"></path><path d="M58.0826 73.6999C57.7028 73.6999 57.395 73.3921 57.395 73.0123V40.4022C57.395 40.0224 57.7028 39.7146 58.0826 39.7146C58.4624 39.7146 58.7703 40.0224 58.7703 40.4022V73.0123C58.7703 73.3921 58.4624 73.6999 58.0826 73.6999Z" fill="black"></path><path d="M72.1671 73.6998C71.7873 73.6998 71.4795 73.392 71.4795 73.0122V22.4401C71.4795 22.0603 71.7873 21.7524 72.1671 21.7524C72.5469 21.7524 72.8547 22.0603 72.8547 22.4401V73.0082C72.8587 73.392 72.5469 73.6998 72.1671 73.6998Z" fill="black"></path><g opacity="0.1294"><path d="M91.1365 47.0666C90.9566 46.3909 90.3049 45.8872 89.6013 45.8992C89.3535 45.9312 89.1016 45.9032 88.8497 45.9152C86.623 45.9432 84.3922 45.9272 82.1654 45.8352C81.4458 45.8912 80.6303 45.5394 79.9626 45.8352C78.4635 46.4109 78.9392 48.7216 80.5383 48.7017C82.985 49.0095 88.2621 49.0455 89.1776 49.0175C90.3209 49.3693 91.4923 48.2059 91.1365 47.0666Z" fill="black"></path></g><g opacity="0.1294"><path d="M93.4875 80.1002C93.0957 79.6964 92.54 79.7004 92.0203 79.7444C91.3807 79.8043 90.6251 79.6524 90.1373 80.1641C89.3218 80.9277 89.9375 82.4149 91.0568 82.3789C91.7205 82.287 92.4441 82.3989 93.0797 82.175C93.9073 81.8912 94.1192 80.6918 93.4875 80.1002Z" fill="black"></path></g></svg>