<svg xmlns="http://www.w3.org/2000/svg" xmlns:xlink="http://www.w3.org/1999/xlink" width="500" zoomAndPan="magnify" viewBox="0 0 375 374.999991" height="500" preserveAspectRatio="xMidYMid meet" version="1.0"><defs><g/><clipPath id="5a88f9d03e"><path d="M 63.988281 63.957031 L 311.011719 63.957031 L 311.011719 311.941406 L 63.988281 311.941406 Z M 63.988281 63.957031 " clip-rule="nonzero"/></clipPath><clipPath id="6a95b720a5"><path d="M 311.011719 130.707031 L 311.011719 244.316406 C 311.011719 281.179688 281.125 311.066406 244.261719 311.066406 L 130.738281 311.066406 C 93.871094 311.066406 63.988281 281.179688 63.988281 244.316406 L 63.988281 130.707031 C 63.988281 93.839844 93.871094 63.957031 130.738281 63.957031 L 244.261719 63.957031 C 281.125 63.957031 311.011719 93.839844 311.011719 130.707031 Z M 311.011719 130.707031 " clip-rule="nonzero"/></clipPath><clipPath id="e4f8f2a840"><path d="M 0.988281 0.957031 L 248.011719 0.957031 L 248.011719 248 L 0.988281 248 Z M 0.988281 0.957031 " clip-rule="nonzero"/></clipPath><clipPath id="344316d5c3"><path d="M 248.011719 67.707031 L 248.011719 181.316406 C 248.011719 218.179688 218.125 248.066406 181.261719 248.066406 L 67.738281 248.066406 C 30.871094 248.066406 0.988281 218.179688 0.988281 181.316406 L 0.988281 67.707031 C 0.988281 30.839844 30.871094 0.957031 67.738281 0.957031 L 181.261719 0.957031 C 218.125 0.957031 248.011719 30.839844 248.011719 67.707031 Z M 248.011719 67.707031 " clip-rule="nonzero"/></clipPath><clipPath id="c8ca1e686a"><rect x="0" width="249" y="0" height="249"/></clipPath><clipPath id="721a3d362c"><rect x="0" width="218" y="0" height="71"/></clipPath></defs><g clip-path="url(#5a88f9d03e)"><g clip-path="url(#6a95b720a5)"><g transform="matrix(1, 0, 0, 1, 63, 63)"><g clip-path="url(#c8ca1e686a)"><g clip-path="url(#e4f8f2a840)"><g clip-path="url(#344316d5c3)"><path fill="#50b8e7" d="M 0.988281 0.957031 L 248.011719 0.957031 L 248.011719 247.976562 L 0.988281 247.976562 Z M 0.988281 0.957031 " fill-opacity="1" fill-rule="nonzero"/></g></g></g></g></g></g><g transform="matrix(1, 0, 0, 1, 79, 134)"><g clip-path="url(#721a3d362c)"><g fill="#ffffff" fill-opacity="1"><g transform="translate(0.703478, 58.482506)"><g><path d="M 22.5 -41.28125 C 20.8125 -41.28125 19.59375 -40.984375 18.84375 -40.390625 C 18.09375 -39.804688 17.625 -38.8125 17.4375 -37.40625 L 24.828125 -37.40625 C 26.273438 -37.40625 27 -36.679688 27 -35.234375 L 27 -30.9375 C 27 -29.488281 26.273438 -28.765625 24.828125 -28.765625 L 17.375 -28.765625 L 17.375 -2.1875 C 17.375 -0.726562 16.644531 0 15.1875 0 L 8.71875 0 C 7.269531 0 6.546875 -0.726562 6.546875 -2.1875 L 6.546875 -28.765625 L 3.65625 -28.765625 C 2.207031 -28.765625 1.484375 -29.488281 1.484375 -30.9375 L 1.484375 -35.234375 C 1.484375 -36.679688 2.207031 -37.40625 3.65625 -37.40625 L 6.546875 -37.40625 C 6.773438 -41.71875 8.003906 -44.878906 10.234375 -46.890625 C 12.460938 -48.910156 15.875 -49.921875 20.46875 -49.921875 C 22.15625 -49.921875 23.890625 -49.804688 25.671875 -49.578125 C 27.117188 -49.429688 27.726562 -48.609375 27.5 -47.109375 L 26.9375 -43.03125 C 26.695312 -41.625 25.921875 -40.992188 24.609375 -41.140625 C 23.578125 -41.234375 22.875 -41.28125 22.5 -41.28125 Z M 22.5 -41.28125 "/></g></g></g><g fill="#ffffff" fill-opacity="1"><g transform="translate(28.961217, 58.482506)"><g><path d="M 12.875 -42.46875 L 6.46875 -42.46875 C 4.96875 -42.46875 4.21875 -43.195312 4.21875 -44.65625 L 4.21875 -47.046875 C 4.21875 -48.492188 4.96875 -49.21875 6.46875 -49.21875 L 12.875 -49.21875 C 14.320312 -49.21875 15.046875 -48.492188 15.046875 -47.046875 L 15.046875 -44.65625 C 15.046875 -43.195312 14.320312 -42.46875 12.875 -42.46875 Z M 12.875 0 L 6.46875 0 C 4.96875 0 4.21875 -0.726562 4.21875 -2.1875 L 4.21875 -36.359375 C 4.21875 -37.859375 4.96875 -38.609375 6.46875 -38.609375 L 12.875 -38.609375 C 14.320312 -38.609375 15.046875 -37.859375 15.046875 -36.359375 L 15.046875 -2.1875 C 15.046875 -0.726562 14.320312 0 12.875 0 Z M 12.875 0 "/></g></g></g><g fill="#ffffff" fill-opacity="1"><g transform="translate(48.291759, 58.482506)"><g><path d="M 12.875 0 L 6.46875 0 C 4.96875 0 4.21875 -0.726562 4.21875 -2.1875 L 4.21875 -36.359375 C 4.21875 -37.859375 4.96875 -38.609375 6.46875 -38.609375 L 12.3125 -38.609375 C 13.8125 -38.609375 14.5625 -37.859375 14.5625 -36.359375 L 14.5625 -35.4375 C 14.5625 -33.894531 14.421875 -32.703125 14.140625 -31.859375 L 13.859375 -30.875 L 14.84375 -30.875 L 15.328125 -32.203125 C 16.171875 -34.410156 17.566406 -36.144531 19.515625 -37.40625 C 21.460938 -38.675781 23.769531 -39.3125 26.4375 -39.3125 C 35.0625 -39.3125 39.375 -34.269531 39.375 -24.1875 L 39.375 -2.1875 C 39.375 -0.726562 38.648438 0 37.203125 0 L 30.796875 0 C 29.296875 0 28.546875 -0.726562 28.546875 -2.1875 L 28.546875 -22.15625 C 28.546875 -24.726562 28.03125 -26.625 27 -27.84375 C 25.96875 -29.0625 24.351562 -29.671875 22.15625 -29.671875 C 20.039062 -29.671875 18.328125 -28.921875 17.015625 -27.421875 C 15.703125 -25.921875 15.046875 -23.90625 15.046875 -21.375 L 15.046875 -2.1875 C 15.046875 -0.726562 14.320312 0 12.875 0 Z M 12.875 0 "/></g></g></g><g fill="#ffffff" fill-opacity="1"><g transform="translate(91.310992, 58.482506)"><g><path d="M 18.140625 -39.3125 C 24.285156 -39.3125 28.703125 -38.140625 31.390625 -35.796875 C 34.085938 -33.453125 35.4375 -29.65625 35.4375 -24.40625 L 35.4375 -2.1875 C 35.4375 -0.726562 34.710938 0 33.265625 0 L 28.90625 0 C 27.445312 0 26.71875 -0.726562 26.71875 -2.1875 L 26.71875 -3.09375 C 26.71875 -4.40625 26.859375 -5.507812 27.140625 -6.40625 L 27.421875 -7.390625 L 26.375 -7.390625 L 25.8125 -6.046875 C 23.789062 -1.546875 19.804688 0.703125 13.859375 0.703125 C 10.054688 0.703125 7.097656 -0.328125 4.984375 -2.390625 C 2.878906 -4.453125 1.828125 -7.382812 1.828125 -11.1875 C 1.828125 -19.289062 6.515625 -23.34375 15.890625 -23.34375 L 24.75 -23.34375 L 24.75 -23.421875 C 24.75 -25.898438 24.160156 -27.644531 22.984375 -28.65625 C 21.816406 -29.664062 19.78125 -30.171875 16.875 -30.171875 C 14.15625 -30.171875 11.460938 -29.703125 8.796875 -28.765625 C 7.296875 -28.203125 6.378906 -28.644531 6.046875 -30.09375 L 4.921875 -35.09375 C 4.597656 -36.539062 5.113281 -37.453125 6.46875 -37.828125 C 10.03125 -38.816406 13.921875 -39.3125 18.140625 -39.3125 Z M 17.578125 -8.015625 C 19.828125 -8.015625 21.582031 -8.597656 22.84375 -9.765625 C 24.113281 -10.941406 24.75 -12.585938 24.75 -14.703125 L 24.75 -15.96875 L 17.9375 -15.96875 C 15.914062 -15.96875 14.503906 -15.671875 13.703125 -15.078125 C 12.910156 -14.492188 12.515625 -13.453125 12.515625 -11.953125 C 12.515625 -10.546875 12.898438 -9.535156 13.671875 -8.921875 C 14.453125 -8.316406 15.753906 -8.015625 17.578125 -8.015625 Z M 17.578125 -8.015625 "/></g></g></g><g fill="#ffffff" fill-opacity="1"><g transform="translate(130.323531, 58.482506)"><g><path d="M 12.875 0 L 6.46875 0 C 4.96875 0 4.21875 -0.726562 4.21875 -2.1875 L 4.21875 -36.359375 C 4.21875 -37.859375 4.96875 -38.609375 6.46875 -38.609375 L 12.3125 -38.609375 C 13.8125 -38.609375 14.5625 -37.859375 14.5625 -36.359375 L 14.5625 -35.4375 C 14.5625 -33.894531 14.421875 -32.703125 14.140625 -31.859375 L 13.859375 -30.875 L 14.84375 -30.875 L 15.328125 -32.203125 C 16.171875 -34.410156 17.566406 -36.144531 19.515625 -37.40625 C 21.460938 -38.675781 23.769531 -39.3125 26.4375 -39.3125 C 35.0625 -39.3125 39.375 -34.269531 39.375 -24.1875 L 39.375 -2.1875 C 39.375 -0.726562 38.648438 0 37.203125 0 L 30.796875 0 C 29.296875 0 28.546875 -0.726562 28.546875 -2.1875 L 28.546875 -22.15625 C 28.546875 -24.726562 28.03125 -26.625 27 -27.84375 C 25.96875 -29.0625 24.351562 -29.671875 22.15625 -29.671875 C 20.039062 -29.671875 18.328125 -28.921875 17.015625 -27.421875 C 15.703125 -25.921875 15.046875 -23.90625 15.046875 -21.375 L 15.046875 -2.1875 C 15.046875 -0.726562 14.320312 0 12.875 0 Z M 12.875 0 "/></g></g></g><g fill="#ffffff" fill-opacity="1"><g transform="translate(173.342763, 58.482506)"><g><path d="M 16.53125 0.703125 C 7.90625 0.703125 3.59375 -4.3125 3.59375 -14.34375 L 3.59375 -36.359375 C 3.59375 -37.859375 4.34375 -38.609375 5.84375 -38.609375 L 12.234375 -38.609375 C 13.734375 -38.609375 14.484375 -37.859375 14.484375 -36.359375 L 14.484375 -16.453125 C 14.484375 -11.390625 16.59375 -8.859375 20.8125 -8.859375 C 22.96875 -8.859375 24.691406 -9.617188 25.984375 -11.140625 C 27.273438 -12.671875 27.921875 -14.703125 27.921875 -17.234375 L 27.921875 -36.359375 C 27.921875 -37.859375 28.671875 -38.609375 30.171875 -38.609375 L 36.5625 -38.609375 C 38.019531 -38.609375 38.75 -37.859375 38.75 -36.359375 L 38.75 -2.1875 C 38.75 -0.726562 38.019531 0 36.5625 0 L 30.734375 0 C 29.234375 0 28.484375 -0.726562 28.484375 -2.1875 L 28.484375 -3.171875 C 28.484375 -4.710938 28.625 -5.882812 28.90625 -6.6875 L 29.1875 -7.671875 L 28.125 -7.671875 L 27.640625 -6.40625 C 26.796875 -4.195312 25.410156 -2.457031 23.484375 -1.1875 C 21.566406 0.0703125 19.25 0.703125 16.53125 0.703125 Z M 16.53125 0.703125 "/></g></g></g></g></g></svg>