<svg width="109" height="103" viewBox="0 0 109 103" fill="none" xmlns="http://www.w3.org/2000/svg"><path d="M28.9484 30.8702C22.1297 38.9798 17.8766 49.3086 17.3559 59.9125C16.8351 70.5164 20.1115 81.3304 27.01 89.9327C29.7504 91.9801 32.525 93.9741 35.3376 95.9184C37.3673 97.3203 39.4273 98.7069 41.6774 99.7153C44.988 101.205 48.6254 101.843 52.2476 102.061C65.083 102.828 78.1541 98.1644 87.6828 89.4628C98.1959 77.8161 102.13 60.5351 97.736 45.6225C100.849 43.9494 104.087 42.5169 107.421 41.3443C106.85 40.7598 106.037 40.5001 105.258 40.2632C103.122 39.6139 100.978 38.9874 98.7204 38.4297C99.5262 35.8704 100.332 33.3111 101.138 30.7518C100.819 30.4577 100.309 30.599 99.9063 30.7595C97.2799 31.8137 94.7106 33.0132 92.2058 34.2737C88.3099 29.8351 83.7831 25.9541 78.728 22.9211C82.0576 18.0432 85.3871 13.1653 88.7128 8.29114C86.5007 8.73424 84.2924 9.17734 82.0804 9.62044C81.8979 9.65864 81.6965 9.6892 81.5368 9.59753C81.3658 9.49821 81.2936 9.29193 81.2404 9.10476C80.4954 6.56457 80.1077 3.92124 80.0925 1.27026C79.2639 2.13355 78.6444 3.17637 78.0325 4.20773C75.771 8.02375 73.5095 11.836 71.248 15.652C71.0921 15.9155 70.9363 16.1791 70.8375 16.4656C70.5182 17.3862 70.8223 18.3946 71.0807 19.3038C60.0241 15.9843 47.5763 17.6841 37.717 24.0174C35.4897 20.5528 33.346 17.0348 31.2783 13.4708C31.0351 13.6542 30.9325 13.9674 30.8488 14.2577C30.1761 16.5764 29.625 18.9294 29.3551 21.4658C26.896 20.7553 24.3798 20.232 21.8409 19.9111C22.2665 20.9692 22.9089 21.9242 23.5474 22.8677C25.3832 25.6065 27.2228 28.3339 28.9484 30.8702Z" fill="white"></path><path d="M74.3232 20.4267C74.2548 20.4267 74.1902 20.3809 74.1712 20.3083L72.6964 14.357C72.6774 14.273 72.7269 14.1889 72.8105 14.1698C72.8941 14.1507 72.9777 14.2004 72.9967 14.2844L74.4714 20.2358C74.4904 20.3198 74.441 20.4038 74.3574 20.4229C74.346 20.4229 74.3346 20.4267 74.3232 20.4267Z" fill="black"></path><path d="M75.9269 17.4359C75.8623 17.4359 75.8053 17.3977 75.7825 17.3327L73.9543 12.3058C73.9239 12.2256 73.9657 12.1339 74.0455 12.1072C74.1253 12.0766 74.2165 12.1186 74.2431 12.1988L76.0751 17.2258C76.1056 17.306 76.0637 17.3977 75.9839 17.4244C75.9649 17.432 75.9459 17.4359 75.9269 17.4359Z" fill="black"></path><path d="M77.5268 15.2739C77.466 15.2739 77.4052 15.2357 77.3824 15.1746L75.2995 9.83063C75.2691 9.75041 75.3071 9.65874 75.3869 9.62818C75.4668 9.59762 75.558 9.63581 75.5884 9.71603L77.6712 15.06C77.7016 15.1402 77.6636 15.2319 77.5838 15.2624C77.5648 15.2701 77.5458 15.2739 77.5268 15.2739Z" fill="black"></path><path d="M78.9637 13.2799C78.8953 13.2799 78.8345 13.2379 78.8155 13.1691C78.1351 10.9116 77.5498 8.88326 76.9873 6.92368C76.9645 6.83964 77.0101 6.75561 77.0937 6.73269C77.1773 6.70977 77.261 6.75561 77.2838 6.83964C77.8349 8.7572 78.405 10.7359 79.0664 12.9361C81.5597 12.2409 84.1253 11.7329 86.6946 11.4196C86.7783 11.4082 86.8581 11.4693 86.8657 11.5533C86.8771 11.6374 86.8163 11.7176 86.7327 11.7252C84.1291 12.0423 81.5293 12.5618 79.0055 13.2723C78.9903 13.2799 78.9789 13.2799 78.9637 13.2799Z" fill="black"></path><path d="M78.1545 15.5678C78.0823 15.5678 78.0177 15.5143 78.0025 15.4418C77.9873 15.3577 78.0443 15.2775 78.1279 15.2584C80.2183 14.8726 82.3468 14.5479 84.4601 14.2958C84.5399 14.2844 84.6235 14.3455 84.6311 14.4333C84.6425 14.5174 84.5817 14.5976 84.4943 14.6052C82.3886 14.8573 80.264 15.182 78.1811 15.564C78.1735 15.5678 78.1659 15.5678 78.1545 15.5678Z" fill="black"></path><path d="M76.6643 17.963C76.592 17.963 76.5236 17.9096 76.5122 17.8332C76.497 17.7491 76.554 17.6689 76.6377 17.6536C78.6863 17.2984 80.773 17.0654 82.8406 16.9623C82.9356 16.9546 83.0003 17.0234 83.0041 17.1112C83.0079 17.1991 82.9432 17.2717 82.8558 17.2755C80.7958 17.3786 78.7243 17.6116 76.6871 17.963C76.6795 17.963 76.6719 17.963 76.6643 17.963Z" fill="black"></path><path d="M75.0794 20.8316C75.0072 20.8316 74.9426 20.7782 74.9274 20.7056C74.9122 20.6216 74.9654 20.5413 75.049 20.5222C76.9646 20.1555 78.9221 19.8881 80.8681 19.7277C80.9517 19.7239 81.0277 19.785 81.0353 19.869C81.0429 19.9531 80.9783 20.0295 80.8947 20.0371C78.9601 20.1937 77.014 20.4611 75.1098 20.8278C75.0984 20.8316 75.087 20.8316 75.0794 20.8316Z" fill="black"></path><path d="M47.1165 57.7736C47.0785 57.7736 47.0443 57.7621 47.0139 57.7354C46.9493 57.6781 46.9455 57.5788 47.0025 57.5138C50.2598 53.8315 53.8896 50.4548 57.8007 47.4753C57.8691 47.4218 57.9641 47.4371 58.0173 47.5058C58.0705 47.5746 58.0553 47.6701 57.9869 47.7236C54.0949 50.6878 50.4765 54.0492 47.2343 57.7201C47.2039 57.7545 47.1621 57.7736 47.1165 57.7736Z" fill="black"></path><path d="M47.1282 62.021C47.0902 62.021 47.056 62.0096 47.0256 61.979C46.961 61.9217 46.9572 61.8224 47.0142 61.7575C51.3852 56.8872 56.1856 52.3339 61.2826 48.2314C61.3472 48.1779 61.446 48.1894 61.4992 48.2543C61.5524 48.3231 61.541 48.4186 61.4764 48.472C56.3947 52.5631 51.6056 57.1049 47.2461 61.9637C47.2118 62.0057 47.17 62.021 47.1282 62.021Z" fill="black"></path><path d="M48.1353 65.2374C48.0973 65.2374 48.0555 65.2221 48.0251 65.1915C47.9643 65.1304 47.9643 65.0311 48.0251 64.97C52.9738 59.9354 58.1163 54.962 63.3045 50.1834C63.3691 50.1261 63.4641 50.1299 63.5249 50.1948C63.5819 50.2598 63.5781 50.3552 63.5135 50.4164C58.3292 55.1874 53.1904 60.157 48.2456 65.1915C48.2151 65.2183 48.1771 65.2374 48.1353 65.2374Z" fill="black"></path><path d="M50.6282 68.1864C50.594 68.1864 50.5598 68.175 50.5332 68.1521C50.4648 68.0986 50.4533 67.9993 50.5066 67.9343C52.2663 65.7035 54.1592 63.5339 56.128 61.4826C56.1888 61.4215 56.2838 61.4177 56.3485 61.4788C56.4093 61.5399 56.4131 61.6354 56.3523 61.7003C54.391 63.7401 52.5058 65.906 50.7498 68.1291C50.7194 68.1673 50.6738 68.1864 50.6282 68.1864Z" fill="black"></path><path d="M59.1422 58.2013C59.1042 58.2013 59.0623 58.186 59.0319 58.1555C58.9711 58.0944 58.9711 57.995 59.0319 57.9339L65.1817 51.6694C65.2425 51.6083 65.3413 51.6083 65.4022 51.6694C65.463 51.7305 65.463 51.8298 65.4022 51.8909L59.2524 58.1555C59.222 58.186 59.1802 58.2013 59.1422 58.2013Z" fill="black"></path><path d="M53.8022 69.8518C53.7641 69.8518 53.7299 69.8403 53.6995 69.8136C53.6349 69.7563 53.6311 69.657 53.6843 69.5921C56.7288 66.1313 59.9861 62.7851 63.3575 59.6452C63.4221 59.5879 63.5171 59.5917 63.5779 59.6528C63.6349 59.7178 63.6311 59.8133 63.5703 59.8744C60.2066 63.0066 56.9569 66.3452 53.92 69.7983C53.8896 69.8365 53.8478 69.8518 53.8022 69.8518Z" fill="black"></path><path d="M57.8616 70.2528C57.8236 70.2528 57.7856 70.2413 57.759 70.2108C57.6944 70.1535 57.6906 70.0542 57.7476 69.9892C61.2976 66.0281 64.916 62.0478 68.504 58.1477C68.561 58.0866 68.6522 58.079 68.713 58.1324C68.7776 58.1821 68.789 58.2738 68.7434 58.3425L68.5154 58.6825C68.4812 58.7322 68.4242 58.7551 68.371 58.7513C64.9046 62.5214 61.4078 66.3718 57.9795 70.1955C57.9453 70.2337 57.9034 70.2528 57.8616 70.2528Z" fill="black"></path><path d="M62.7912 69.4736C62.7532 69.4736 62.7152 69.4583 62.6848 69.4316C62.6239 69.3705 62.6202 69.275 62.681 69.2101L67.356 64.3168C67.4168 64.2557 67.5118 64.2519 67.5764 64.313C67.6373 64.3741 67.6411 64.4696 67.5802 64.5346L62.9052 69.4278C62.871 69.4545 62.833 69.4736 62.7912 69.4736Z" fill="black"></path><g opacity="0.1294"><path d="M99.4958 64.8555C99.5301 63.9081 99.5529 62.9646 99.5529 62.0211C99.5567 60.5123 99.4921 59.0035 99.4464 57.4946C99.4046 57.6627 99.3704 57.827 99.34 57.9759C98.4772 61.2037 97.9299 64.5308 96.7326 67.6592C96.0599 69.8556 93.099 75.2645 92.0538 76.9835C89.5871 81.2655 87.8007 84.0043 84.2165 87.022C81.8067 88.9625 80.0774 90.1734 77.2229 92.0184C76.0523 92.6907 74.8512 93.3133 73.6387 93.9054C73.6045 93.9207 73.5741 93.9321 73.5475 93.9436C70.6703 95.0704 69.8949 95.3684 67.2305 96.3845C64.4863 97.3127 61.305 97.943 59.9557 98.0843C60.142 98.0576 60.3282 98.0346 60.5144 98.0079C58.0363 98.2906 57.812 98.2333 56.0941 98.3249C54.8588 98.3708 55.064 98.4243 53.0116 98.3708C47.7056 97.8093 45.9192 97.7443 41.4266 96.8314C39.5186 96.4188 37.4509 96.1209 36.4589 95.4219C36.1929 95.2653 35.9344 95.1086 35.6721 94.9444C34.5281 94.635 33.403 94.2683 32.3046 93.8328C32.0119 94.2415 31.9701 94.8412 32.392 95.2271C33.8021 96.3615 35.2426 97.5304 36.9378 98.2065C39.4996 99.0774 42.1488 99.7192 44.7828 100.338C47.4852 100.9 51.7041 101.874 52.9014 102.053C55.3491 102.462 56.63 102.466 57.7284 102.466C64.4293 102.252 70.6817 99.383 76.5274 96.3081C79.1614 94.9444 81.6851 93.3821 83.9428 91.4454C84.3951 91.052 84.8588 90.6738 85.3187 90.2918C84.893 90.8342 84.4711 91.4148 84.0606 92.0528C83.8554 92.3774 83.6502 92.7098 83.4525 93.0421C83.4449 93.0536 83.4373 93.065 83.4297 93.0765C83.4221 93.0879 83.4183 93.0994 83.4107 93.107C83.4145 93.1032 83.4145 93.0994 83.4183 93.0956C83.3043 93.2828 83.2359 93.4967 83.2359 93.7182C83.2321 93.8481 83.2587 93.9741 83.3005 94.0964C83.8706 93.6342 84.4445 93.1758 85.0032 92.7021C87.6752 90.437 90.1686 87.9311 92.1564 85.0319C94.1823 82.0715 95.6342 78.7864 97.1051 75.5243C97.261 74.9399 97.413 74.3516 97.5574 73.7595C98.0249 71.8534 98.4696 69.9397 98.8877 68.0221C99.0207 67.4033 99.1462 66.7807 99.2716 66.1619C99.1614 66.0358 99.1158 65.8563 99.207 65.6385C99.3172 65.3788 99.4084 65.119 99.4958 64.8555Z" fill="black"></path></g><g opacity="0.1294"><path d="M99.3133 38.5557C98.8116 38.5786 98.4163 38.9606 97.945 39.1058C96.6907 39.7819 95.4023 40.3969 94.1442 41.0615C92.5858 42.1082 90.9781 43.0708 89.2487 43.808C88.5607 44.1289 88.5151 44.1518 87.5687 44.4727C87.2761 44.5949 86.915 44.5758 86.6641 44.7821C85.9952 45.2557 86.5463 46.3635 87.3293 46.1267C87.4319 46.1076 87.5345 46.0846 87.6409 46.0617C87.8576 46.4322 88.3061 46.6576 88.842 46.375C90.6018 45.5842 92.2894 44.6446 93.9617 43.682C95.3566 43.0479 96.7174 42.345 98.04 41.5619C98.633 41.2334 99.2069 40.882 99.7504 40.4771C99.9557 40.2823 99.9975 40.458 100.275 39.8239C100.461 39.2089 99.9557 38.5481 99.3133 38.5557Z" fill="black"></path></g><g opacity="0.1294"><path d="M59.4656 61.2648C59.0171 60.6918 59.1539 60.9821 58.9069 60.7262C58.8993 60.7033 58.8917 60.6804 58.8841 60.6536C58.8841 60.6154 58.8803 60.5772 58.8841 60.539C58.8917 60.5085 58.8955 60.4817 58.9031 60.4512C58.9867 60.0883 59.2072 59.7216 59.1159 59.3434C59.0019 58.0408 57.0521 57.9186 56.7366 59.1792C56.4325 60.0119 56.2653 60.9745 56.7214 61.7843C57.1129 62.4489 57.9909 63.1021 58.7929 62.9264C59.4922 62.7469 59.8343 61.8798 59.4656 61.2648Z" fill="black"></path></g><g opacity="0.1294"><path d="M63.7415 43.3421C63.6161 42.941 63.312 42.601 62.8977 42.4941C62.8749 42.4864 62.8559 42.4788 62.8331 42.4711C62.7533 42.4368 62.6431 42.3909 62.5405 42.3604C62.5329 42.3565 62.5252 42.3527 62.5214 42.3489C62.4872 42.3145 62.453 42.284 62.4188 42.2458C62.3884 42.1885 62.3162 42.07 62.2554 41.9402C62.0577 41.436 61.9209 40.8783 61.4192 40.5918C60.2409 39.8698 58.827 41.2908 59.5454 42.475C59.8875 43.3191 60.3398 44.1862 61.1873 44.6102C62.2402 45.2329 64.0646 44.8815 63.7415 43.3421Z" fill="black"></path></g><g opacity="0.1294"><path d="M47.5881 46.2757C47.4475 44.8356 45.3342 44.7058 44.9693 46.0962C44.5968 46.9556 44.8933 46.4285 44.4486 47.2421C44.3764 47.3185 44.3042 47.3987 44.2282 47.4675C44.0419 47.5897 43.4832 47.9985 43.4034 48.2162C42.5672 49.6868 44.4866 51.1689 45.6801 49.981C46.4479 49.3507 46.9762 48.4989 47.2916 47.563C47.4209 47.1466 47.6945 46.7265 47.5881 46.2757Z" fill="black"></path></g><g opacity="0.1294"><path d="M81.4421 9.49056C79.5151 12.5197 77.6222 15.5717 75.7902 18.6582C75.2049 19.6322 74.5702 20.5719 73.9886 21.5498C73.8024 21.8478 73.6428 22.1877 73.7226 22.543C73.5135 22.5773 73.3159 22.6843 73.1525 22.8791C73.1525 22.8753 73.1525 22.8715 73.1525 22.8715C72.9814 23.0319 72.8978 23.2458 72.8712 23.4635C72.8674 23.4788 72.8674 23.4865 72.8674 23.4979C72.8332 23.941 73.0802 24.4032 73.5249 24.5522C73.544 24.5598 73.5591 24.5675 73.5782 24.5751C73.5858 24.5789 73.5934 24.5828 73.601 24.5866L73.5972 24.5828C73.9582 24.6974 74.3801 24.6286 74.6652 24.3345C74.9655 23.983 75.0263 23.6316 74.9503 23.3337C75.0491 23.3108 75.1441 23.2802 75.2315 23.2267C75.4862 23.0892 75.6154 22.8295 75.756 22.5888C76.0449 22.1037 76.3756 21.6491 76.6758 21.1716C79.0057 17.5886 81.3585 13.9521 83.1981 10.1094C83.3843 9.09329 81.9362 8.59671 81.4421 9.49056Z" fill="black"></path></g><path d="M92.3884 34.9269C92.2478 34.9269 92.1072 34.862 92.0159 34.7398C90.8149 33.1278 89.4428 31.5769 87.9338 30.1216C85.2276 27.5126 81.9399 25.0946 78.4279 23.1274C78.2037 23.0014 78.1239 22.7187 78.2493 22.4933C78.3747 22.268 78.656 22.1877 78.8802 22.3138C82.4606 24.3192 85.813 26.7868 88.5762 29.4493C90.1193 30.939 91.5256 32.5281 92.7571 34.1821C92.9129 34.3883 92.8711 34.6825 92.6659 34.8352C92.5823 34.8964 92.4834 34.9269 92.3884 34.9269Z" fill="black"></path><path d="M55.1934 102.5C51.7536 102.5 48.4317 102.091 45.372 101.255C32.6696 97.7863 22.2933 87.9579 18.941 76.2119C17.6259 71.6013 17.375 66.8723 17.3028 63.2702C17.2192 59.118 17.4016 55.7642 17.8767 52.7122C19.1538 44.4957 22.8977 36.8445 28.6977 30.5914C28.8726 30.4043 29.1652 30.3928 29.3553 30.5685C29.5415 30.7442 29.5529 31.0384 29.3781 31.2294C23.7034 37.3449 20.0432 44.8242 18.7965 52.8573C18.329 55.8521 18.1504 59.1562 18.234 63.2549C18.3062 66.8036 18.5495 71.4523 19.838 75.9597C23.1029 87.3964 33.2207 96.9765 45.6191 100.361C63.8631 105.338 90.735 94.612 96.0866 74.9971L96.2083 74.554C97.7362 68.9733 100.914 57.3609 97.4663 45.6493C97.3941 45.401 97.5347 45.1412 97.7818 45.0687C98.0288 44.9961 98.2873 45.1374 98.3595 45.3857C101.883 57.3533 98.656 69.1375 97.1052 74.8023L96.9836 75.2454C94.4485 84.5353 86.8354 92.7365 76.0942 97.752C69.3819 100.873 62.0501 102.5 55.1934 102.5Z" fill="black"></path><path d="M37.5002 24.3079C37.3443 24.3079 37.1923 24.2277 37.1049 24.0863C36.9719 23.8648 37.0403 23.5783 37.2607 23.4446C45.1171 18.6202 54.4367 16.4887 63.4979 17.4398C65.5618 17.3672 68.2338 17.8638 71.2212 18.8723C71.4645 18.9525 71.5937 19.2199 71.5139 19.4643C71.4341 19.7088 71.168 19.8425 70.9248 19.7585C68.0665 18.792 65.4288 18.2993 63.4979 18.3757C63.4751 18.3757 63.4523 18.3757 63.4333 18.3719C54.5621 17.4322 45.4401 19.514 37.7472 24.243C37.6674 24.285 37.5838 24.3079 37.5002 24.3079Z" fill="black"></path><path d="M72.0346 25.2322C71.9358 25.2322 71.8408 25.2016 71.7609 25.1405C71.6621 25.0679 71.5937 24.9572 71.5785 24.8349C71.1794 22.2107 70.7423 19.5674 70.2786 16.966C70.2596 16.8553 70.2786 16.7407 70.3356 16.6452C71.8712 14.063 73.3877 11.5304 74.8814 9.03604C76.5994 6.17116 78.2186 3.46289 79.8415 0.727881C79.948 0.544528 80.1646 0.460491 80.366 0.517788C80.5675 0.575086 80.7081 0.762259 80.7043 0.972351C80.6739 3.86779 80.9552 6.53404 81.5367 8.90999C83.3649 8.63878 85.2007 8.27589 86.9795 7.92065C87.6561 7.78695 88.3326 7.65326 89.0053 7.52338C89.1878 7.48901 89.3778 7.56922 89.4804 7.72583C89.5831 7.88245 89.5831 8.08872 89.4767 8.24151C86.2611 13.0545 82.9354 18.028 79.2714 23.0434C79.222 23.1122 79.1536 23.1656 79.0776 23.2C76.6564 24.2161 74.3759 24.8769 72.103 25.2284C72.0802 25.2284 72.0574 25.2322 72.0346 25.2322ZM71.2212 16.9737C71.6469 19.3687 72.0498 21.8058 72.4223 24.2276C74.4291 23.88 76.4588 23.2764 78.6024 22.3864C81.989 17.7491 85.0905 13.1347 88.0855 8.65406C87.7777 8.71518 87.4698 8.77629 87.1619 8.83741C85.2349 9.21939 83.2471 9.61284 81.2554 9.89169C81.0236 9.92225 80.8031 9.77709 80.7423 9.5479C80.1912 7.45081 79.8719 5.13216 79.7959 2.63016C78.4542 4.88769 77.1011 7.14904 75.6796 9.51734C74.2125 11.962 72.7264 14.4449 71.2212 16.9737Z" fill="black"></path><path d="M92.9587 48.285C92.9131 48.285 92.8637 48.2774 92.8181 48.2621C91.7463 47.9221 90.5186 47.6165 89.3289 47.3186C87.4969 46.8602 85.7637 46.4324 84.8629 45.9243C84.6501 45.8059 84.5665 45.5462 84.6653 45.3246C85.6991 43.0251 86.2616 41.0426 86.98 37.1578C87.0066 37.0165 87.094 36.898 87.2157 36.8331C88.5041 36.1379 89.8268 35.4083 91.1077 34.7016C94.2776 32.9521 97.5539 31.1415 100.971 29.5257C101.134 29.4493 101.328 29.4723 101.469 29.5907C101.606 29.7091 101.666 29.8963 101.617 30.072C100.891 32.7459 100.146 35.5038 99.3251 38.1891C102.563 38.8041 105.27 39.614 107.801 40.7255C107.968 40.7981 108.078 40.9624 108.078 41.1457C108.082 41.3291 107.976 41.4971 107.812 41.5735C105.889 42.4903 103.536 43.4987 101.26 44.4766C97.9112 45.9167 94.7451 47.2766 93.1906 48.2124C93.126 48.2659 93.0423 48.285 92.9587 48.285ZM85.6991 45.2979C86.5809 45.676 88.0328 46.0351 89.557 46.4171C90.6858 46.6998 91.8527 46.9901 92.9017 47.3148C94.5627 46.3522 97.6452 45.0267 100.902 43.6248C102.807 42.8073 104.764 41.967 106.471 41.1801C104.145 40.248 101.632 39.5528 98.6524 39.0142C98.5232 38.9913 98.4053 38.9111 98.3369 38.7965C98.2685 38.6819 98.2495 38.5444 98.2913 38.4145C99.0667 35.9125 99.7774 33.3341 100.462 30.8092C97.3943 32.2989 94.4334 33.9338 91.56 35.5229C90.3437 36.1952 89.0857 36.8904 87.8542 37.5551C87.1852 41.1495 86.6341 43.1358 85.6991 45.2979Z" fill="black"></path><path d="M78.5379 39.969C73.1787 33.9718 63.7146 30.5149 59.5451 30.6027C48.7735 30.8243 39.0015 34.8809 33.7222 44.3198C32.2284 46.986 31.2098 49.9006 30.4572 52.8648C28.3402 61.1615 28.4656 70.627 33.5131 77.5257C34.6648 79.0956 36.0407 80.4937 37.5344 81.739C44.4595 87.5146 54.0909 89.8752 62.8784 87.9156C71.6659 85.9561 79.4083 79.7106 83.1825 71.498C87.8765 61.2837 86.0179 48.3382 78.5379 39.969ZM68.0247 66.9867C64.2733 72.1817 56.5272 74.0229 50.94 70.9135C45.3527 67.8042 42.8138 60.0652 45.6112 54.2972C48.1045 49.1595 54.0985 45.3626 59.7123 46.287C61.1832 46.5315 64.0301 47.8111 66.2383 49.6981C71.0616 53.8274 71.7458 61.8299 68.0247 66.9867Z" fill="#ACD4F7"></path><path d="M36.7554 33.055C36.744 33.055 36.7326 33.055 36.725 33.055C34.2316 32.8832 31.286 32.5317 29.5604 32.2032C29.4464 32.1803 29.3438 32.1154 29.2753 32.0237C26.1282 27.7493 23.5285 23.876 21.3316 20.1936C21.2328 20.0294 21.2442 19.8193 21.3658 19.6665C21.4836 19.5137 21.6851 19.4526 21.8675 19.5099C24.5205 20.335 26.915 20.7513 29.1613 20.7819C29.3894 17.8597 29.9367 15.2278 30.7957 12.9474C30.8603 12.7755 31.0237 12.6571 31.2062 12.6456C31.4 12.6418 31.5634 12.7373 31.6471 12.9054C34.2316 18.1424 36.4133 21.8132 38.7242 24.808C38.8078 24.915 38.8383 25.0525 38.8117 25.1862C38.3137 27.692 37.7968 30.2857 37.2115 32.7074C37.1545 32.9099 36.9682 33.055 36.7554 33.055ZM29.9101 31.317C31.5292 31.615 34.11 31.9244 36.3943 32.0963C36.9188 29.8693 37.3939 27.5048 37.85 25.2053C35.695 22.3862 33.6501 18.9866 31.2974 14.3034C30.6398 16.37 30.2179 18.7077 30.0469 21.2746C30.0317 21.5191 29.8303 21.7063 29.587 21.7101C27.4395 21.7368 25.197 21.4083 22.7379 20.7322C24.7675 24.0402 27.1203 27.5163 29.9101 31.317Z" fill="black"></path><path d="M56.7365 89.3598C49.7239 89.3598 42.6505 86.8998 37.2609 82.4077C35.638 81.0554 34.2583 79.6077 33.1636 78.1103C27.0215 69.7143 28.5646 58.8087 30.0317 53.056C30.8945 49.6716 31.9778 46.8373 33.3423 44.4002C38.2378 35.6489 47.5498 30.6908 59.5605 30.4425C63.9999 30.3623 73.5172 33.93 78.9068 39.9654C86.4666 48.4263 88.4089 61.601 83.6274 72.0024C79.8114 80.3029 71.9094 86.6935 63.0002 88.6798C60.9516 89.1344 58.8459 89.3598 56.7365 89.3598ZM59.5795 31.3745C47.9109 31.6152 38.8801 36.4014 34.1519 44.8548C32.8254 47.2231 31.7725 49.981 30.9287 53.2852C29.5034 58.8774 27.9945 69.466 33.9086 77.5526C34.9614 78.9889 36.2879 80.3793 37.8501 81.6857C44.646 87.3505 54.2051 89.6845 62.7988 87.7669C71.4305 85.8417 79.0892 79.6497 82.7836 71.609C87.413 61.536 85.5316 48.7777 78.215 40.588C73.1371 34.9041 63.9657 31.3745 59.7277 31.3745C59.6783 31.3745 59.6289 31.3745 59.5795 31.3745Z" fill="black"></path><path d="M56.9684 73.1828C54.7867 73.1828 52.6316 72.6824 50.735 71.6281C44.9121 68.3889 42.3351 60.3367 45.2162 54.3968C47.949 48.7625 54.2204 45.2101 59.8076 46.1307C61.3887 46.3904 64.2926 47.7121 66.5579 49.6487C71.518 53.8888 72.3732 62.0938 68.4203 67.5676C65.8319 71.1583 61.3545 73.1828 56.9684 73.1828ZM58.0706 46.929C53.3614 46.929 48.3138 50.1491 46.0523 54.8093C43.3766 60.3214 45.7787 67.8006 51.1873 70.8107C56.5047 73.7672 64.0531 72.033 67.6715 67.0176C71.2861 62.0136 70.4841 54.2287 65.9573 50.3592C63.8973 48.5983 61.1379 47.2957 59.6594 47.0512C59.1348 46.971 58.6027 46.929 58.0706 46.929Z" fill="black"></path><path d="M61.7457 43.3193C61.6659 43.3193 61.5861 43.3002 61.5101 43.2543C61.2896 43.1244 61.2136 42.838 61.3429 42.6164L83.8742 3.90992C84.0035 3.68837 84.2885 3.61198 84.509 3.74185C84.7294 3.87173 84.8054 4.15821 84.6762 4.37976L62.1486 43.0862C62.0612 43.2352 61.9054 43.3193 61.7457 43.3193Z" fill="black"></path><path d="M58.3099 60.791C58.1427 60.791 57.983 60.6993 57.8994 60.5427C57.7816 60.3135 57.8652 60.0308 58.0932 59.9124C73.4486 51.7952 88.9181 43.3572 104.068 34.8275C104.292 34.7014 104.574 34.7816 104.699 35.007C104.825 35.2324 104.745 35.515 104.521 35.6411C89.3628 44.1708 73.8857 52.6127 58.5227 60.7375C58.4581 60.7719 58.3821 60.791 58.3099 60.791Z" fill="black"></path><path d="M44.9538 48.2849C44.7865 48.2849 44.6231 48.1932 44.5395 48.0289C39.4578 38.04 33.6881 28.2803 27.3863 19.0248C27.2419 18.8109 27.2951 18.5206 27.5079 18.3755C27.7208 18.2303 28.0096 18.2838 28.1541 18.4977C34.4749 27.7876 40.2673 37.5816 45.3681 47.6049C45.4859 47.8341 45.3947 48.1168 45.1666 48.2314C45.0982 48.2696 45.026 48.2849 44.9538 48.2849Z" fill="black"></path><path d="M15.1895 85.0813C15.0071 85.0813 14.8323 84.9706 14.76 84.791C11.5103 76.7541 9.43887 68.3008 8.61029 59.6641C8.58748 59.4082 8.77372 59.179 9.02838 59.1561C9.28304 59.1293 9.51109 59.3203 9.53389 59.5762C10.3549 68.1212 12.4035 76.4867 15.6228 84.4396C15.7179 84.6803 15.6038 84.9515 15.3682 85.047C15.3074 85.0699 15.2466 85.0813 15.1895 85.0813Z" fill="black"></path><path d="M5.83562 88.2022C5.64178 88.2022 5.46314 88.08 5.39853 87.889L0.947743 75.1116C0.864124 74.8672 0.989552 74.6036 1.23281 74.5157C1.47606 74.4317 1.73832 74.5578 1.82574 74.8022L6.27652 87.5796C6.36014 87.8241 6.23471 88.0877 5.99146 88.1755C5.93825 88.1946 5.88503 88.2022 5.83562 88.2022Z" fill="black"></path></svg>