<svg width="69" height="120" viewBox="0 0 69 120" fill="none" xmlns="http://www.w3.org/2000/svg"><path d="M0.5 6.8993V112.593C0.5 115.289 1.65676 118.17 3.08392 118.17L65.714 119C67.6765 119 68.6667 114.69 68.6667 111.994L68.4823 6.93781C68.4823 4.24144 67.3255 1.00579 65.8984 1.00579L3.54591 0C2.11875 0 0.5 2.86757 0.5 6.8993Z" fill="white"></path><path d="M65.5221 120L3.27621 119.169C1.68879 119.169 0.5 115.967 0.5 113.103V7.38468C0.5 3.03093 2.20488 0 3.73536 0L65.7055 1.00603C67.2413 1.00603 68.4799 4.51643 68.4799 7.42749L68.6667 112.504C68.6667 115.569 67.5474 120 65.5221 120ZM3.73714 0.97178C2.40776 0.97178 0.921772 3.71161 0.921772 7.38468V113.103C0.921772 115.458 1.95217 118.193 3.27977 118.193L65.5257 119.024C67.4264 119.024 68.2503 114.704 68.2503 112.504L68.067 7.42321C68.067 4.95309 67.0153 1.97781 65.709 1.97781L3.73714 0.97178Z" fill="black"></path><path d="M68.6222 106L1.04295 104.898C0.926585 104.894 0.833496 104.693 0.833496 104.445C0.835286 104.197 0.928376 104 1.04474 104H1.04653L68.624 105.102C68.7404 105.106 68.8335 105.307 68.8335 105.555C68.8317 105.803 68.7368 106 68.6222 106Z" fill="black"></path><path d="M12.1428 110.517C12.6127 110.431 13.1084 110.677 13.3455 111.043C13.5438 111.354 13.574 111.754 13.3972 112.078C13.2205 112.401 12.8412 112.634 12.4317 112.642C11.8368 112.655 11.3109 112.168 11.298 111.647C11.2894 111.121 11.7377 110.591 12.1428 110.517Z" fill="black"></path><path d="M23.3587 110.517C23.8285 110.431 24.3242 110.677 24.5613 111.043C24.7596 111.354 24.7898 111.754 24.613 112.078C24.4363 112.401 24.057 112.634 23.6475 112.642C23.0526 112.655 22.5267 112.168 22.5138 111.647C22.5052 111.121 22.9535 110.591 23.3587 110.517Z" fill="black"></path><path d="M34.5745 110.517C35.0443 110.431 35.5401 110.677 35.7771 111.043C35.9754 111.354 36.0056 111.754 35.8289 112.078C35.6521 112.401 35.2728 112.634 34.8633 112.642C34.2684 112.655 33.7425 112.168 33.7296 111.647C33.721 111.121 34.1693 110.591 34.5745 110.517Z" fill="black"></path><path d="M45.7903 110.517C46.2602 110.431 46.7559 110.677 46.993 111.043C47.1912 111.354 47.2214 111.754 47.0447 112.078C46.868 112.401 46.4886 112.634 46.0791 112.642C45.4843 112.655 44.9584 112.168 44.9454 111.647C44.9368 111.121 45.3851 110.591 45.7903 110.517Z" fill="black"></path><path d="M57.0061 110.517C57.476 110.431 57.9717 110.677 58.2088 111.043C58.4071 111.354 58.4372 111.754 58.2605 112.078C58.0838 112.401 57.7044 112.634 57.2949 112.642C56.7001 112.655 56.1742 112.168 56.1613 111.647C56.1526 111.121 56.5966 110.591 57.0061 110.517Z" fill="black"></path><path d="M48.806 76.0043L21.0846 75.8276C20.9898 75.8276 20.9165 75.7543 20.9165 75.6638C20.9165 75.5733 20.9941 75.5 21.0846 75.5L48.806 75.6767C48.9008 75.6767 48.9741 75.75 48.9741 75.8405C48.9741 75.931 48.9008 76.0043 48.806 76.0043Z" fill="black"></path><path d="M46.0946 81.3459L23.7917 81.1692C23.6968 81.1692 23.6235 81.0959 23.6235 81.0054C23.6235 80.9148 23.7011 80.8416 23.7917 80.8416L46.0903 81.0183C46.1851 81.0183 46.2584 81.0916 46.2584 81.1821C46.2627 81.2769 46.1894 81.3459 46.0946 81.3459Z" fill="black"></path><path d="M48.806 86.6909L21.0846 86.5141C20.9898 86.5141 20.9165 86.4409 20.9165 86.3503C20.9165 86.2598 20.9941 86.1865 21.0846 86.1865L48.806 86.3633C48.9008 86.3633 48.9741 86.4365 48.9741 86.5271C48.9741 86.6176 48.9008 86.6909 48.806 86.6909Z" fill="black"></path><path d="M51.4327 26.4193C44.8414 26.1721 36.2097 21.2577 34.8623 18.437C32.6232 21.9314 28.9689 25.261 17.3565 26.6907C16.8815 33.1754 17.4243 39.7328 18.9607 46.0625C19.363 47.7151 19.8379 49.3678 20.6861 50.8557C23.6086 55.9592 29.6038 57.7621 34.5376 61.6733C39.0497 56.7491 45.2485 58.0335 48.5151 50.0173C51.3746 42.9897 51.4327 35.0898 51.4327 26.4193Z" fill="#ACD4F7"></path><path d="M34.5327 62.2255C34.4067 62.2255 34.2758 62.1867 34.1741 62.0995C32.4874 60.7618 30.6506 59.6616 28.8719 58.5954C25.4211 56.5259 22.1643 54.5776 20.1869 51.122C19.2951 49.5614 18.8007 47.8312 18.4033 46.1882C16.8524 39.7859 16.3048 33.2139 16.7846 26.6517C16.804 26.3899 17.0124 26.1767 17.2789 26.1428C28.7023 24.7324 32.2451 21.4658 34.3728 18.1459C34.4842 17.9715 34.6878 17.8745 34.8914 17.8842C35.0998 17.8987 35.2839 18.0199 35.376 18.2041C36.6361 20.8406 45.0594 25.6242 51.4521 25.8665C51.7574 25.8762 51.9997 26.1234 51.9997 26.419C51.9997 34.5516 51.9997 42.9604 49.0385 50.2205C46.9835 55.261 43.7606 56.7973 40.6491 58.2755C38.6038 59.2497 36.67 60.1705 34.9592 62.0413C34.8477 62.1625 34.6926 62.2255 34.5327 62.2255ZM17.8896 27.1799C17.4728 33.4805 18.0204 39.7859 19.5132 45.9362C19.8912 47.4967 20.3565 49.1446 21.1804 50.584C23.0124 53.7827 26.1481 55.6632 29.468 57.6552C31.1304 58.6536 32.8509 59.681 34.4745 60.9169C36.2435 59.1382 38.2258 58.1931 40.145 57.282C43.1984 55.828 46.0869 54.4564 47.9771 49.8086C50.7978 42.8925 50.856 35.138 50.856 26.9328C44.662 26.482 37.1499 22.3431 34.8477 19.4497C32.5505 22.7017 28.6199 25.7841 17.8896 27.1799Z" fill="black"></path><path d="M28.4888 34.5378L25.4258 37.4797L34.4598 48.3748L43.1933 34.5281L39.9558 31.7268L33.8637 41.0855L28.4888 34.5378Z" fill="white"></path><path d="M34.4598 48.9225C34.2853 48.9225 34.1254 48.845 34.0139 48.7141L24.9799 37.8239C24.7957 37.6058 24.8151 37.2859 25.0235 37.0872L28.0817 34.1453C28.198 34.0339 28.3579 33.9757 28.5179 33.9854C28.6778 33.9951 28.828 34.0678 28.9298 34.1938L33.8055 40.1308L39.4711 31.4313C39.5583 31.2956 39.7086 31.2035 39.8734 31.1792C40.0382 31.1598 40.2078 31.2083 40.3338 31.3149L43.5665 34.1163C43.77 34.2956 43.8185 34.5864 43.6731 34.8142L34.9444 48.6608C34.8475 48.8159 34.6779 48.9128 34.4937 48.9225C34.484 48.9225 34.4743 48.9225 34.4598 48.9225ZM26.1915 37.5234L34.3968 47.4152L42.4566 34.6348L40.0769 32.575L34.3386 41.3813C34.2417 41.5315 34.072 41.6284 33.8879 41.6381C33.6989 41.6478 33.5244 41.5703 33.4129 41.4297L28.4355 35.3667L26.1915 37.5234Z" fill="black"></path></svg>