<svg width="20" height="21" viewBox="0 0 20 21" fill="none" xmlns="http://www.w3.org/2000/svg"><path d="M9.29 13.9796C9.247 14.0271 9.20693 14.0772 9.17 14.1296C9.13216 14.1853 9.10189 14.2459 9.08 14.3096C9.05117 14.3663 9.03095 14.4269 9.02001 14.4896C9.0151 14.5562 9.0151 14.623 9.02001 14.6896C9.01663 14.8208 9.04402 14.9509 9.10001 15.0696C9.14492 15.1937 9.21657 15.3064 9.30989 15.3997C9.40321 15.493 9.51591 15.5647 9.64001 15.6096C9.75971 15.6625 9.88913 15.6898 10.02 15.6898C10.1509 15.6898 10.2803 15.6625 10.4 15.6096C10.5241 15.5647 10.6368 15.493 10.7301 15.3997C10.8234 15.3064 10.8951 15.1937 10.94 15.0696C10.9844 14.948 11.0048 14.8189 11 14.6896C11.0008 14.558 10.9755 14.4275 10.9258 14.3057C10.876 14.1838 10.8027 14.073 10.71 13.9796C10.617 13.8858 10.5064 13.8115 10.3846 13.7607C10.2627 13.7099 10.132 13.6838 10 13.6838C9.86799 13.6838 9.73729 13.7099 9.61543 13.7607C9.49357 13.8115 9.38297 13.8858 9.29 13.9796ZM10 0.689575C8.02219 0.689575 6.08879 1.27606 4.4443 2.37488C2.79981 3.47369 1.51809 5.03548 0.761209 6.86274C0.00433284 8.69 -0.193701 10.7007 0.192152 12.6405C0.578004 14.5803 1.53041 16.3621 2.92894 17.7606C4.32746 19.1592 6.10929 20.1116 8.0491 20.4974C9.98891 20.8833 11.9996 20.6852 13.8268 19.9284C15.6541 19.1715 17.2159 17.8898 18.3147 16.2453C19.4135 14.6008 20 12.6674 20 10.6896C20 9.37636 19.7413 8.076 19.2388 6.86274C18.7363 5.64948 17.9997 4.54709 17.0711 3.61851C16.1425 2.68992 15.0401 1.95333 13.8268 1.45078C12.6136 0.948233 11.3132 0.689575 10 0.689575ZM10 18.6896C8.41775 18.6896 6.87104 18.2204 5.55544 17.3413C4.23985 16.4623 3.21447 15.2129 2.60897 13.751C2.00347 12.2892 1.84504 10.6807 2.15372 9.12885C2.4624 7.577 3.22433 6.15154 4.34315 5.03272C5.46197 3.9139 6.88743 3.15197 8.43928 2.84329C9.99113 2.53461 11.5997 2.69304 13.0615 3.29854C14.5233 3.90404 15.7727 4.92942 16.6518 6.24501C17.5308 7.56061 18 9.10732 18 10.6896C18 12.8113 17.1572 14.8461 15.6569 16.3464C14.1566 17.8467 12.1217 18.6896 10 18.6896ZM10 5.68958C9.47307 5.68924 8.95534 5.8277 8.49891 6.09102C8.04249 6.35434 7.66347 6.73323 7.4 7.18958C7.32765 7.30339 7.27907 7.43067 7.25718 7.56375C7.23529 7.69683 7.24055 7.83297 7.27263 7.96396C7.30472 8.09496 7.36297 8.21811 7.44389 8.32601C7.52481 8.43391 7.62671 8.52433 7.74348 8.59182C7.86024 8.65931 7.98945 8.70249 8.12334 8.71875C8.25722 8.73502 8.39301 8.72403 8.52254 8.68645C8.65207 8.64887 8.77266 8.58548 8.87705 8.50009C8.98145 8.4147 9.06749 8.30908 9.13 8.18958C9.21811 8.03697 9.34497 7.91036 9.49775 7.82255C9.65053 7.73475 9.82379 7.68888 10 7.68958C10.2652 7.68958 10.5196 7.79493 10.7071 7.98247C10.8946 8.17 11 8.42436 11 8.68958C11 8.95479 10.8946 9.20915 10.7071 9.39668C10.5196 9.58422 10.2652 9.68958 10 9.68958C9.73479 9.68958 9.48043 9.79493 9.2929 9.98247C9.10536 10.17 9 10.4244 9 10.6896V11.6896C9 11.9548 9.10536 12.2091 9.2929 12.3967C9.48043 12.5842 9.73479 12.6896 10 12.6896C10.2652 12.6896 10.5196 12.5842 10.7071 12.3967C10.8946 12.2091 11 11.9548 11 11.6896V11.5096C11.6614 11.2696 12.2174 10.8048 12.5708 10.1964C12.9242 9.58809 13.0525 8.87487 12.9334 8.18147C12.8143 7.48806 12.4552 6.85859 11.919 6.40309C11.3828 5.94759 10.7035 5.69503 10 5.68958Z" fill="#34ACE3"></path></svg>