<svg width="193" height="89" viewBox="0 0 193 89" fill="none" xmlns="http://www.w3.org/2000/svg"><path d="M39.9484 8.34592C32.9607 27.8659 25.9663 47.4261 21.2407 67.9127C24.8386 69.1276 28.5976 69.8526 32.3901 70.0539C33.8266 65.033 35.263 60.0053 36.6995 54.9844C36.6995 54.9844 36.4914 54.83 36.2162 54.7763C39.0824 55.3334 41.6802 56.8907 43.8684 58.8239C46.0567 60.7571 47.869 63.0729 49.8828 65.7378C49.6747 68.5772 51.7556 71.2958 54.4338 72.2691C57.1121 73.2424 60.1931 72.6517 62.6902 70.9669C62.4418 72.2154 62.4418 73.5109 62.6834 74.7594C62.7908 75.3031 62.9452 75.8401 63.2003 76.3369C63.7306 77.3706 64.677 78.1358 65.7108 78.6728C67.456 79.579 69.5167 79.8609 71.6244 79.5052C71.4096 81.8747 73.1952 84.1301 75.4304 84.9557C77.6657 85.7813 80.1963 85.3853 82.5255 84.5194C82.8812 85.3383 83.2706 86.1774 83.9284 86.7748C84.6735 87.4528 85.6937 87.7481 86.6872 87.8622C89.0768 88.1374 91.5672 87.4595 93.8091 86.1237C96.2592 87.4662 99.3737 87.5132 101.871 86.2579C102.529 85.929 103.146 85.5061 103.643 84.9691C104.65 83.8817 105.113 82.3781 105.2 80.8947C105.287 79.4112 105.032 77.9344 104.938 76.4241C106.173 77.8606 107.469 79.2836 109.087 80.2771C110.698 81.2705 112.691 81.7941 114.517 81.3041C116.034 80.8946 117.323 79.8005 118.162 78.4714C119.001 77.1424 119.424 75.5783 119.545 73.7995C120.156 74.8064 120.827 75.773 121.558 76.6993C122.243 77.5653 122.981 78.411 123.901 79.0286C124.814 79.6461 125.928 80.0287 127.022 79.9079C128.721 79.7133 130.097 78.3305 130.775 76.7664C131.453 75.1957 131.56 73.4505 131.661 71.7388C131.714 70.7521 131.775 69.7653 131.735 68.7517C132.627 70.4366 133.533 72.1348 134.722 73.6317C135.91 75.1286 137.42 76.4174 139.219 77.0551C139.662 77.2162 140.125 77.3303 140.582 77.4444C141.32 77.6324 142.172 77.7935 142.797 77.3572C143.3 77.0081 143.501 76.3637 143.575 75.7596C143.642 75.1554 143.616 74.5245 143.958 73.9136C150.798 71.3428 157.531 68.4765 164.048 65.3955C164.699 67.7919 165.431 70.1681 166.398 72.4638C171.278 71.3293 176.017 69.5841 180.393 67.322C184.259 65.8452 188.059 64.2007 191.516 62.0258C190.959 42.6938 187.669 23.1067 178.829 5.90929C178.272 4.82858 177.688 3.74786 176.802 2.83496C167.102 6.21135 157.658 10.3261 148.583 15.1256C148.838 15.6156 149.093 16.1123 149.079 16.656C139.675 17.3205 130.473 14.1522 121.585 11.0041C118.766 10.0039 115.907 8.99704 112.919 8.79567C110.268 8.61443 107.623 9.07759 104.663 9.33938C101.515 7.42631 97.9977 6.21135 94.4468 5.22461C92.3055 4.6272 90.1106 4.10362 87.8887 4.13047C85.8481 4.15732 83.8411 4.64062 81.8878 5.21118C71.3559 8.29222 61.5088 13.971 50.5742 14.9913C50.6614 14.2529 50.7487 13.5213 50.836 12.7896C50.8829 12.3936 50.9165 11.9505 50.7017 11.6283C47.1575 10.1919 43.5597 8.74196 39.9484 8.34592Z" fill="white"></path><path d="M186.454 61.5573C186.42 61.5573 186.387 61.5505 186.36 61.5371L176.721 57.9057C176.58 57.852 176.506 57.6976 176.56 57.5566C176.613 57.4156 176.774 57.3418 176.909 57.3955L186.548 61.027C186.689 61.0807 186.762 61.235 186.709 61.376C186.669 61.4901 186.568 61.5573 186.454 61.5573Z" fill="black"></path><path d="M189.717 57.9451C189.69 57.9451 189.656 57.9384 189.629 57.9317C184.327 56.126 179.071 53.9915 174.01 51.5884C173.875 51.5213 173.815 51.3602 173.882 51.2259C173.949 51.0917 174.11 51.0312 174.245 51.0984C179.286 53.4947 184.521 55.6159 189.804 57.4148C189.945 57.4618 190.026 57.6162 189.972 57.7639C189.932 57.8713 189.824 57.9451 189.717 57.9451Z" fill="black"></path><path d="M190.534 52.2593C190.508 52.2593 190.481 52.2526 190.447 52.2459C184.554 50.3194 178.667 48.1177 172.948 45.7079C172.807 45.6475 172.746 45.4864 172.8 45.3521C172.861 45.2112 173.022 45.1508 173.156 45.2045C178.855 47.6075 184.728 49.8025 190.608 51.729C190.749 51.776 190.83 51.9304 190.783 52.0714C190.756 52.1855 190.649 52.2593 190.534 52.2593Z" fill="black"></path><path d="M190.535 46.803C190.501 46.803 190.468 46.7963 190.441 46.7828C183.574 44.2052 178.258 41.9834 170.928 38.8957C170.787 38.8352 170.726 38.6741 170.78 38.5399C170.841 38.3989 171.002 38.3385 171.136 38.3922C178.459 41.48 183.769 43.6951 190.629 46.2727C190.77 46.3264 190.844 46.4808 190.79 46.6218C190.75 46.7359 190.642 46.803 190.535 46.803Z" fill="black"></path><path d="M188.823 40.6416C188.789 40.6416 188.755 40.6349 188.722 40.6214L169.041 32.5933C168.9 32.5396 168.833 32.3785 168.893 32.2375C168.954 32.0966 169.108 32.0294 169.249 32.0899L188.93 40.118C189.071 40.1717 189.138 40.3328 189.078 40.4738C189.037 40.5745 188.937 40.6416 188.823 40.6416Z" fill="black"></path><path d="M188.193 34.7472C188.153 34.7472 188.119 34.7405 188.085 34.7271L166.706 25.2558C166.565 25.1954 166.505 25.0343 166.565 24.8933C166.626 24.7523 166.787 24.6919 166.928 24.7523L188.307 34.2237C188.448 34.2841 188.508 34.4452 188.448 34.5862C188.394 34.6868 188.294 34.7472 188.193 34.7472Z" fill="black"></path><path d="M186.105 27.3374C186.064 27.3374 186.031 27.3306 185.991 27.3105L164.423 17.6177C164.282 17.5572 164.222 17.3961 164.289 17.2552C164.35 17.1142 164.511 17.0538 164.652 17.1209L186.219 26.8138C186.36 26.8742 186.42 27.0353 186.353 27.1763C186.313 27.2769 186.212 27.3374 186.105 27.3374Z" fill="black"></path><path d="M181.258 17.6428C181.224 17.6428 181.191 17.6361 181.157 17.6226C175.807 15.5619 170.343 13.575 164.913 11.7223C164.772 11.6753 164.692 11.521 164.745 11.3733C164.792 11.2323 164.947 11.1518 165.094 11.2055C170.531 13.0648 176.002 15.0517 181.359 17.1125C181.5 17.1662 181.567 17.3273 181.513 17.4682C181.473 17.5756 181.365 17.6428 181.258 17.6428Z" fill="black"></path><path d="M180.828 10.8243C180.794 10.8243 180.754 10.8176 180.72 10.8042L173.021 7.58891C172.88 7.52849 172.813 7.36739 172.873 7.23314C172.934 7.09218 173.095 7.02505 173.229 7.08547L180.928 10.3008C181.069 10.3612 181.136 10.5223 181.076 10.6565C181.036 10.7572 180.935 10.8243 180.828 10.8243Z" fill="black"></path><path d="M17.6152 1.15698C25.2271 3.71445 32.9196 6.03026 40.2496 8.22525C39.048 13.2999 35.9603 17.6899 33.8794 22.4759C32.7786 25.0132 31.9664 27.6646 31.1542 30.3094C27.3751 42.7141 23.7638 55.1658 20.2934 67.6443C13.5071 65.3218 8.24457 64.127 0.968262 62.8382C7.68072 41.9958 13.7219 21.9792 17.6152 1.15698Z" fill="#ACD4F7"></path><g opacity="0.1294"><path d="M161.317 62.8132C160.129 63.1622 158.967 63.5918 157.833 64.0684C157.571 64.0617 157.316 64.0818 157.061 64.1355C156.484 64.2362 155.947 64.4711 155.403 64.6859C154.799 64.8873 154.228 65.082 153.651 65.3371C153.423 65.4243 152.718 65.6928 152.45 65.76C152.362 65.7868 152.302 65.8069 152.242 65.8271C152.067 65.8808 151.899 65.9412 151.718 65.9815C151.611 65.9815 151.51 65.9882 151.402 65.9815C151.288 65.9613 151.174 65.9345 151.06 65.8942C151.06 65.8942 151.053 65.8942 151.053 65.8875C150.805 65.6593 150.577 65.4042 150.362 65.1424C150.073 64.7799 150.396 65.1894 150.503 65.3304C150.315 65.0753 150.114 64.8269 149.899 64.5987C149.832 64.5249 149.785 64.4645 149.738 64.4108C149.536 64.1355 149.362 63.8469 149.181 63.565C148.422 62.4171 147.744 61.2223 147.113 60.0006C145.777 57.4163 144.556 54.7783 143.133 52.241C142.307 50.5159 141.609 48.7169 140.575 47.0992C137.615 42.575 134.735 39.0308 130.305 35.0771C127.513 32.2444 124.284 29.8145 120.834 27.8545C118.491 26.5589 116.035 25.2769 113.316 25.0822C111.41 24.6526 110.953 27.4651 112.913 27.5994C114.699 27.6934 116.605 28.5056 118.652 29.6802C118.464 30.1434 118.505 30.7006 118.968 31.1839C120.861 32.8351 123.049 34.0971 125.023 35.641C124.929 35.5805 126.029 36.5069 126.251 36.7418C126.479 36.9633 126.707 37.1915 126.922 37.4265C126.748 37.5943 126.627 37.8292 126.633 38.0977C126.768 38.9167 127.681 39.8833 128.104 40.6485C130.272 43.9578 132.829 47.0254 134.675 50.536C137.118 55.3422 138.884 60.1416 139.703 66.5856C140.126 68.6128 140.36 72.3114 139.703 73.3719C139.649 73.4391 139.589 73.4995 139.521 73.5532C139.468 73.5867 139.427 73.6136 139.394 73.6337C139.307 73.6606 139.226 73.6941 139.139 73.721C139.099 73.7344 139.058 73.7478 139.011 73.7613C138.998 73.7613 138.984 73.768 138.971 73.768C138.79 73.7747 138.582 73.7613 138.454 73.7545C138.387 73.7411 138.32 73.7344 138.253 73.721C137.514 73.533 137.917 73.6941 136.81 73.1034C135.105 72.1435 133.641 74.6607 135.306 75.6743C139.508 78.7017 142.455 77.6277 143.294 73.5263C143.71 71.0494 143.435 68.5188 142.998 66.062C143.119 66.4312 143.247 66.8071 143.368 67.1763C143.609 68.6396 143.811 70.0157 144.005 71.2575C143.978 71.2911 143.945 71.3246 143.918 71.3649C143.441 72.1234 143.791 73.0564 144.462 73.4995C144.764 73.9761 145.402 74.1976 145.945 74.0499C146.422 73.9089 146.677 73.6203 146.811 73.2578C151.402 71.4522 155.967 69.5055 160.189 66.9414C161.189 66.3305 161.189 66.2634 162.015 65.9211C162.444 65.7465 162.961 65.4982 163.216 65.1088C163.424 64.9612 163.612 64.7934 163.767 64.5718C164.532 62.9407 162.599 62.1151 161.317 62.8132Z" fill="black"></path></g><g opacity="0.1294"><path d="M190.702 58.0658C190.46 58.0658 190.232 58.133 190.01 58.2202C188.943 58.5357 187.983 59.2204 186.936 59.603C185.077 60.5025 184.352 60.6703 181.862 61.8718C177.572 64.1541 170.444 66.3894 166.611 67.9936C164.094 68.7522 165.107 72.4843 167.678 71.86C171.699 70.5645 175.491 68.685 179.371 67.027C181.419 66.0806 185.305 64.6844 188.527 63.0935C190.031 62.3014 191.91 61.3751 192.098 60.9119C193.031 59.8379 192.105 58.0256 190.702 58.0658Z" fill="black"></path></g><g opacity="0.1294"><path d="M48.5744 16.723C46.95 22.6233 44.0637 26.9797 41.9559 33.4707C40.6739 37.2565 39.7073 41.1431 38.9689 45.0699C38.5057 46.8084 38.15 48.5738 37.7942 50.3325C37.5257 51.8898 37.0626 53.4874 37.3512 55.0715C37.7472 56.6154 39.4589 57.3538 40.8417 56.8571C41.721 57.7767 42.6473 58.6493 43.5871 59.5219C43.5871 59.4816 43.5871 59.4414 43.5871 59.4011C43.52 57.6625 43.5401 55.924 43.6475 54.1922C43.2783 52.9705 43.1508 52.1717 43.0702 51.1783C43.426 49.2585 43.8891 47.3589 44.1174 45.4189C45.037 39.1629 46.8091 33.0814 48.8362 27.1072C49.447 25.3217 49.9169 23.4892 50.6956 21.7708C51.246 20.2202 52.1455 18.6361 52.1522 16.9714C51.9575 15.0382 49.051 14.8435 48.5744 16.723Z" fill="black"></path></g><g opacity="0.1294"><path d="M50.4193 64.5379C50.3186 64.9138 49.9561 65.2091 49.5601 65.1823C49.8688 65.3568 50.2179 65.4374 50.5871 65.33C51.1576 65.1823 51.5402 64.605 51.5067 64.0344C51.1442 64.2089 50.7817 64.3768 50.4193 64.5379Z" fill="black"></path></g><g opacity="0.1294"><path d="M37.3506 55.0715C37.317 54.8366 37.2902 54.6016 37.2566 54.3667C37.2499 54.6218 37.2902 54.8567 37.3506 55.0715Z" fill="black"></path></g><g opacity="0.1294"><path d="M61.2187 69.3304C60.5273 69.8003 59.5943 69.6526 57.7953 69.6258C56.6072 69.5116 55.0768 69.5989 53.741 69.176C52.8684 68.9746 52.0427 68.2967 51.1231 68.4108C49.4047 68.5652 49.2436 71.1428 50.9083 71.559C52.1166 72.0288 53.3315 72.4383 54.6002 72.7135C55.6675 72.9619 56.7616 73.2035 57.8423 72.9417C59.1848 72.6598 60.4736 72.0893 61.6751 71.4314C62.1584 71.1159 62.8229 70.8609 63.0109 70.2702C63.2727 69.1894 61.9973 68.639 61.2187 69.3304Z" fill="black"></path></g><g opacity="0.1294"><path d="M79.4382 71.6658C78.8408 71.8672 78.72 72.1894 77.7803 72.6861C75.9075 73.6997 75.102 73.9011 72.6049 74.3777C70.2287 74.9885 70.4368 74.8543 67.8055 75.0355C66.9866 75.0691 66.161 75.0288 65.3488 74.9281C64.8118 74.8408 64.2748 74.626 63.7378 74.7334C61.5831 74.9482 61.3817 78.13 63.4693 78.6804C68.7788 80.2243 73.1554 78.6804 76.9143 76.3981C78.0488 75.7202 79.1832 75.0019 80.143 74.089C80.6733 73.4983 80.8076 73.6057 80.9217 72.7935C80.9418 72.0417 80.1632 71.4577 79.4382 71.6658Z" fill="black"></path></g><g opacity="0.1294"><path d="M101.735 82.6007C100.62 82.7551 100.895 82.8961 100.305 83.0773C99.8349 83.1982 99.7745 83.4197 98.0964 83.8157C96.9485 84.0171 96.9888 84.0104 96.6868 84.0372C96.9083 83.7553 97.0022 83.366 96.9284 83.0169C96.8814 82.292 96.1833 81.7415 95.4785 81.7348C94.6059 81.7885 93.9414 82.5068 93.1493 82.8223C91.4846 83.5539 91.8873 83.4331 89.585 84.2117C87.4974 84.8024 86.4167 84.742 85.6246 84.789C84.8661 84.7622 84.121 84.2722 83.4229 84.1849C84.8191 83.6412 86.1482 82.8961 87.4236 82.1107C88.8802 81.2247 90.169 80.1305 91.3638 78.9223C91.6256 78.6941 91.7934 78.3517 91.7867 77.996C91.7934 77.5664 91.545 77.177 91.1893 76.9488C90.7328 76.6736 90.0951 76.7542 89.7192 77.1368C89.7998 77.0764 90.0011 76.922 89.8803 76.9958C89.2829 77.365 88.6922 77.7342 88.0881 78.0899C84.6178 80.3185 80.0466 81.6274 77.0662 82.0839C76.3614 82.1644 75.6499 82.245 74.9451 82.1779C74.8847 82.1711 74.8511 82.1711 74.831 82.1644C74.8041 82.1577 74.7773 82.1577 74.7504 82.151C74.2134 82.104 73.6832 81.8355 73.1462 81.9026C71.8641 82.0168 71.7433 83.9432 72.9851 84.2587C74.106 84.6548 75.2472 85.0307 76.4353 85.1448C77.6905 85.279 78.9524 85.1045 80.1942 84.9568C80.8722 84.9031 81.53 84.7756 82.1677 84.5943C81.5636 85.2522 81.5837 86.4806 82.4832 86.9572C85.7186 88.5883 89.2024 88.2527 92.4243 86.7893C93.015 86.5611 93.5789 86.2725 94.1226 85.957C94.1427 86.937 94.9012 87.9036 95.9954 87.87C98.0091 87.615 100.184 87.5009 101.889 86.2792C102.392 85.8899 103.057 85.5609 103.278 84.93C103.815 83.8962 102.902 82.5806 101.735 82.6007Z" fill="black"></path></g><g opacity="0.1294"><path d="M118.04 75.0957C116.798 75.7266 117.1 75.8475 116.294 76.3442C115.1 77.1766 115.261 77.0759 113.536 77.5189C112.119 77.7605 112.972 77.7135 111.75 77.7337C111.609 77.727 111.468 77.7136 111.327 77.7068C111.173 77.68 110.978 77.6397 110.83 77.5994C109.803 77.4316 108.709 76.6664 107.702 77.2772C106.373 77.9955 106.655 80.1569 108.125 80.5127C109.474 80.9154 110.871 81.3047 112.294 81.2108C113.992 81.0899 115.65 80.4657 117.073 79.5326C117.758 79.0493 118.402 78.5123 119.026 77.9619C119.476 77.5927 119.932 77.1363 119.906 76.512C119.932 75.5656 118.946 74.8339 118.04 75.0957Z" fill="black"></path></g><g opacity="0.1294"><path d="M132.048 70.1886C132.055 69.4435 131.552 68.7186 130.813 68.5306C130.773 68.5239 130.733 68.5172 130.692 68.5105C130.686 67.1143 130.719 65.6979 130.377 64.342C129.86 62.2142 128.699 60.3481 127.739 58.4015C126.853 56.3474 125.712 54.374 124.235 52.6958C123.611 52.1454 122.55 52.6824 122.57 53.508C122.624 54.2128 123.275 54.7163 123.597 55.3137C125.416 57.9651 126.027 59.9453 126.893 63.1203C127.954 66.4565 128.142 68.0675 127.826 71.511C127.819 71.5512 127.819 71.5848 127.813 71.6117C127.786 71.766 127.752 71.9272 127.719 72.0815C127.705 72.1621 127.672 72.2762 127.625 72.4172C127.45 72.6991 127.262 72.981 127.074 73.2495C126.833 73.5381 126.343 74.1221 126.061 74.3772C126 74.4175 125.94 74.451 125.88 74.4846C125.329 74.5383 124.92 74.5182 123.456 74.0416C123.04 73.8872 122.96 73.8402 123.416 74.0349C122.678 73.7798 122.006 73.2697 121.241 73.1354C119.509 72.8199 118.67 75.317 120.194 76.1627C120.731 76.4379 121.322 76.7064 121.845 76.9347C121.953 77.4985 122.268 78.0221 122.819 78.3309C122.946 78.4047 123.08 78.4517 123.215 78.5121C123.262 79.2035 123.671 79.8613 124.557 80.1231C125.296 80.3245 126.067 80.5191 126.833 80.358C127.094 80.3111 127.618 80.0828 127.699 80.0426C128.464 79.7136 129.263 79.2572 129.592 78.4786C129.779 78.0892 129.786 77.6865 129.679 77.3307C129.974 77.0354 130.135 76.646 130.175 76.2366C130.927 75.2364 131.478 74.0684 131.766 72.8669C131.934 72.0278 132.028 71.1686 132.048 70.3161C132.048 70.2893 132.048 70.2557 132.048 70.2289C132.048 70.2087 132.048 70.1886 132.048 70.1752V70.1886Z" fill="black"></path></g><path d="M31.8392 70.9607C31.7922 70.9607 31.7385 70.954 31.6915 70.9473C26.2007 69.9472 20.5354 68.9201 14.9506 67.3964C12.7825 66.6782 10.6949 66.2016 8.47981 65.6981C6.07675 65.1477 3.58643 64.5839 1.04912 63.6911C0.619521 63.5434 0.39801 63.0736 0.545684 62.644C0.693358 62.2144 1.16323 61.9928 1.59283 62.1405C4.04287 62.9997 6.48621 63.5569 8.84228 64.0939C10.997 64.5839 13.2255 65.094 15.4205 65.8257C20.6428 67.2487 26.006 68.2489 31.2216 69.1953C33.4636 60.1066 36.5177 51.2394 39.4712 42.6474C41.2232 37.5526 43.0355 32.2833 44.6935 26.9536C44.7002 26.9334 44.7069 26.9133 44.7136 26.8932C45.2641 25.5104 45.8615 24.1612 46.4388 22.8455C48.0028 19.2879 49.4795 15.9182 50.2044 12.0115C50.1709 11.9444 50.0769 11.8572 50.0165 11.8504C49.9158 11.8504 49.8218 11.8303 49.7279 11.7967C44.868 9.94409 39.7934 8.6016 34.8799 7.29937C29.0803 5.76221 23.0794 4.17135 17.253 1.71458C16.8368 1.54005 16.6422 1.05675 16.8167 0.640571C16.9912 0.224396 17.4745 0.023025 17.8907 0.204263C23.6097 2.61405 29.5569 4.19148 35.3028 5.71522C40.2163 7.01745 45.2909 8.36666 50.1977 10.226C51.0838 10.3267 51.849 11.1456 51.849 12.0451C51.849 12.0921 51.8423 12.1458 51.8356 12.1928C51.0838 16.3411 49.4795 19.986 47.9356 23.5101C47.3718 24.7989 46.7878 26.1279 46.2441 27.4771C44.5861 32.8203 42.7738 38.0896 41.0218 43.1844C37.8602 52.3805 34.8665 61.0665 32.6312 70.3365C32.544 70.7124 32.2083 70.9607 31.8392 70.9607Z" fill="black"></path><path d="M20.589 68.1287C20.5219 68.1287 20.4548 68.122 20.3877 68.1019C19.9514 67.9945 19.6829 67.5448 19.7903 67.1084C24.8984 46.736 32.0875 25.0949 39.5182 7.71623C39.6994 7.30005 40.176 7.10539 40.5922 7.28663C41.0083 7.46787 41.203 7.94445 41.0218 8.36062C33.6246 25.6587 26.4692 47.2126 21.3811 67.5045C21.2871 67.8804 20.9515 68.1287 20.589 68.1287Z" fill="black"></path><path d="M166.29 73.551C166.163 73.551 166.035 73.5174 165.914 73.4637C165.713 73.363 165.565 73.1818 165.498 72.9603C161.967 60.8107 158.235 48.6745 154.281 35.8267C152.234 29.1679 150.113 22.2876 148.005 15.32C147.891 14.9441 148.059 14.5481 148.401 14.3602C157.403 9.48688 166.867 5.31842 176.54 1.9756C176.97 1.82792 177.433 2.05614 177.58 2.48574C177.728 2.91534 177.5 3.37851 177.07 3.52618C167.693 6.76832 158.51 10.7891 149.771 15.4879C151.818 22.2272 153.865 28.8927 155.852 35.3434C159.719 47.9025 163.377 59.7837 166.834 71.6648C175.124 68.7046 183.36 65.3215 191.334 61.6027C191.744 61.4081 192.234 61.5893 192.422 61.9988C192.616 62.4082 192.435 62.8983 192.026 63.0862C183.742 66.9526 175.177 70.4565 166.565 73.504C166.471 73.5376 166.384 73.551 166.29 73.551Z" fill="black"></path><path d="M176.983 68.8997C176.621 68.8997 176.285 68.6581 176.191 68.2889C171.002 48.7689 165.089 29.1751 158.611 10.0512C158.463 9.6216 158.698 9.15843 159.128 9.01076C159.558 8.86308 160.021 9.09802 160.168 9.52762C166.659 28.6918 172.58 48.3192 177.782 67.8727C177.896 68.309 177.634 68.7587 177.198 68.8796C177.124 68.893 177.05 68.8997 176.983 68.8997Z" fill="black"></path><path d="M78.6119 42.447C76.5914 42.447 74.2219 41.5677 73.168 39.5204C71.2751 35.8486 74.8462 31.707 76.0208 30.3444C80.8941 24.6925 85.9351 18.8526 92.2046 14.4425C99.2661 9.48194 106.979 7.23326 113.926 8.11259C117.484 8.56233 120.867 9.81757 124.136 11.0258C125.196 11.4151 126.29 11.8246 127.364 12.1938C134.204 14.5365 141.34 15.7783 148.576 15.8857C149.032 15.8924 149.388 16.2683 149.381 16.718C149.375 17.1678 148.985 17.537 148.549 17.5235C141.145 17.4161 133.835 16.1407 126.834 13.7444C125.74 13.3685 124.632 12.959 123.565 12.563C120.377 11.3816 117.081 10.1666 113.718 9.73702C107.18 8.90467 99.8702 11.0527 93.1443 15.7783C87.0427 20.0676 82.0688 25.8336 77.2627 31.405C74.5575 34.5397 73.6916 36.9495 74.6247 38.7552C75.4167 40.2923 77.3432 40.8763 78.9206 40.7823C80.6994 40.6749 82.3775 39.8963 84.2235 38.97C85.4518 38.3524 86.6735 37.7483 87.8952 37.1374C95.3729 33.4187 102.434 29.9014 109.14 25.1758C109.509 24.914 110.019 25.0012 110.281 25.3704C110.543 25.7396 110.456 26.2498 110.08 26.5116C103.273 31.311 96.1582 34.8485 88.6201 38.6008C87.4052 39.2049 86.1835 39.8157 84.9551 40.4333C83.0152 41.4066 81.1089 42.2927 79.0146 42.4202C78.8804 42.4403 78.7461 42.447 78.6119 42.447Z" fill="black"></path><path d="M144.341 74.834C144.018 74.834 143.71 74.6393 143.582 74.3238C143.407 73.9076 143.609 73.4243 144.025 73.2498C150.409 70.6185 156.866 67.8798 163.203 65.1075C163.619 64.9263 164.102 65.1143 164.283 65.5304C164.464 65.9466 164.277 66.4299 163.86 66.6112C157.51 69.3834 151.046 72.1288 144.649 74.7668C144.549 74.8138 144.441 74.834 144.341 74.834Z" fill="black"></path><path d="M141.856 78.3997C141.675 78.3997 141.5 78.3863 141.353 78.3729C138.419 78.0574 135.54 76.1108 133.439 73.0297C132.089 71.0495 131.156 68.8411 130.25 66.6998C129.962 66.0219 129.68 65.3506 129.384 64.6861C126.968 59.2825 123.706 54.3354 119.678 49.9924C119.369 49.6568 119.389 49.1399 119.725 48.8311C120.054 48.5224 120.578 48.5425 120.886 48.8781C125.035 53.3554 128.398 58.4502 130.888 64.0148C131.19 64.6928 131.479 65.3775 131.767 66.0622C132.64 68.1229 133.546 70.2575 134.801 72.1034C136.627 74.7884 139.084 76.4732 141.534 76.735C141.675 76.7485 142.118 76.7954 142.333 76.6612C142.581 76.5068 142.695 76.0168 142.668 75.2113C142.346 64.8942 138.95 54.5301 133.11 46.0186C127.27 37.5072 118.812 30.6201 109.301 26.6128C108.884 26.4382 108.69 25.9549 108.864 25.5388C109.039 25.1226 109.522 24.9212 109.938 25.1025C119.738 29.2306 128.451 36.3258 134.466 45.0923C140.487 53.8588 143.984 64.5384 144.313 75.1643C144.333 75.755 144.38 77.3123 143.212 78.0507C142.762 78.3326 142.279 78.3997 141.856 78.3997Z" fill="black"></path><path d="M97.4811 88.1383C96.2594 88.1383 94.6686 87.9436 92.9502 86.6817C92.5877 86.4132 92.5072 85.903 92.7757 85.5339C93.0441 85.1714 93.5543 85.0908 93.9235 85.3593C95.5949 86.5877 97.0582 86.5273 98.2396 86.4736L98.3738 86.4669C100.233 86.393 102.24 85.4399 103.361 84.1041C103.851 83.5201 104.402 82.5871 104.254 81.4594C104.247 81.4258 104.247 81.3855 104.247 81.3452C104.254 79.4389 103.985 77.5124 103.757 76.0424C103.704 75.6866 103.885 75.3308 104.214 75.1764C104.543 75.0221 104.932 75.0959 105.174 75.3644C106.523 76.8546 107.919 78.3985 109.624 79.4188C111.409 80.486 113.396 80.7881 114.94 80.2243C117.055 79.4523 119.229 75.7671 118.746 73.7668C118.639 73.3238 118.914 72.8808 119.35 72.7801C119.793 72.6727 120.236 72.9479 120.337 73.3842C121.062 76.3981 118.135 80.8082 115.497 81.7681C113.47 82.5065 111.02 82.1642 108.778 80.8284C107.624 80.1437 106.637 79.2778 105.717 78.3582C105.818 79.2979 105.885 80.2981 105.885 81.305C106.046 82.6475 105.61 83.9833 104.616 85.1647C103.193 86.8629 100.77 88.0175 98.441 88.1115L98.3134 88.1182C98.0516 88.1316 97.7764 88.1383 97.4811 88.1383Z" fill="black"></path><path d="M126.699 80.8619C125.974 80.8619 125.283 80.6673 124.625 80.4122C121.289 79.1167 119.517 75.4718 117.798 71.941C116.597 69.4843 115.362 66.9402 113.663 65.4299C113.328 65.1279 113.294 64.611 113.596 64.2686C113.898 63.933 114.415 63.8995 114.757 64.2015C116.697 65.9266 118.006 68.6184 119.275 71.2228C120.926 74.6193 122.49 77.8212 125.222 78.8818C126.41 79.3449 127.887 79.9155 129.84 76.6129C130.371 75.7135 130.518 74.5791 130.592 73.4916C130.787 70.7059 130.042 67.8464 129.317 65.0742C129.209 64.6513 129.095 64.2284 128.995 63.8122C128.88 63.3759 129.149 62.9261 129.592 62.8187C130.035 62.7046 130.478 62.9731 130.585 63.4162C130.693 63.8323 130.8 64.2485 130.908 64.6714C131.659 67.5712 132.438 70.565 132.23 73.6125C132.143 74.9013 131.961 76.2639 131.25 77.4587C129.693 80.0833 128.142 80.8619 126.699 80.8619Z" fill="black"></path><path d="M68.9255 80.3314C68.8449 80.3314 68.7711 80.3314 68.6905 80.3314C65.3947 80.2508 62.5352 78.2908 61.7431 75.5655C61.4277 74.4848 61.4478 73.384 61.6089 72.3368C59.7898 73.5048 57.4941 74.0015 55.3059 73.6122C52.0302 73.0282 49.2848 70.3365 48.768 67.2219C48.6001 66.2016 48.7881 65.4162 49.3251 64.8859C49.6473 64.5704 50.1641 64.5704 50.4863 64.8926C50.8018 65.2148 50.8018 65.7317 50.4796 66.0539C50.3521 66.1814 50.3185 66.5171 50.3924 66.9534C50.8018 69.4034 52.9901 71.5246 55.6012 71.9945C58.152 72.4509 60.8705 71.4306 62.3674 69.4504C62.5956 69.1484 63.0051 69.041 63.3541 69.1953C63.683 69.0141 63.9851 68.9 64.1865 68.8194C67.7306 67.43 71.4561 66.5842 75.2553 66.2888C78.2893 66.0539 80.2964 66.7789 81.2361 68.4503C81.6858 69.2491 81.8402 70.2291 81.6993 71.3635C81.518 72.8201 80.8871 74.2297 79.9205 75.344C78.9874 76.418 77.7859 77.1765 76.6314 77.841C74.5841 79.0023 71.8722 80.3314 68.9255 80.3314ZM63.5756 71.0346C63.1796 72.5516 62.9648 73.8673 63.3273 75.1024C63.9918 77.3846 66.5493 78.6331 68.7375 78.6868C71.3688 78.754 73.9061 77.4987 75.8192 76.4046C76.8529 75.8139 77.9134 75.1426 78.6854 74.2566C79.4372 73.3907 79.9272 72.2898 80.0749 71.1554C80.142 70.6184 80.1487 69.8532 79.8131 69.2491C79.068 67.9267 76.9938 67.7991 75.3828 67.92C71.7447 68.2019 68.1804 69.0141 64.7839 70.3432C64.3744 70.5043 63.8643 70.7325 63.5756 71.0346Z" fill="black"></path><path d="M77.6441 86.3388C76.2681 86.3388 74.9793 86.0166 73.8852 85.3722C71.7506 84.117 70.4618 81.6132 70.6833 79.143C70.7236 78.6933 71.1196 78.3577 71.5761 78.3979C72.0258 78.4382 72.3614 78.8342 72.3212 79.2907C72.1601 81.1098 73.1401 83.0296 74.7175 83.9559C76.2412 84.8487 78.3087 84.9426 80.3895 84.1975C82.3429 83.5061 84.0411 82.2442 85.7528 80.9084C88.1961 78.9954 90.4851 76.8541 90.6999 74.1422C90.7133 73.9744 90.72 73.7327 90.6596 73.5851C90.5992 73.4441 90.4247 73.2897 90.136 73.1152C88.8338 72.3366 87.0819 72.1419 85.1957 72.5648C83.5377 72.9407 82.1885 73.6388 80.6245 74.4443L80.356 74.5852C79.9532 74.7933 79.4565 74.6322 79.2484 74.2295C79.0403 73.8267 79.2014 73.33 79.6042 73.1219L79.8727 72.9809C81.4635 72.1553 82.9738 71.3767 84.8332 70.9605C87.1288 70.4436 89.3104 70.7054 90.9751 71.6989C91.351 71.9271 91.888 72.2963 92.1565 72.9205C92.3646 73.3971 92.3579 73.8871 92.331 74.2563C92.0692 77.5991 89.4983 80.0425 86.7597 82.1905C85.0077 83.5599 83.1215 84.9628 80.94 85.7347C79.8324 86.1442 78.7114 86.3388 77.6441 86.3388Z" fill="black"></path><path d="M88.0156 88.8624C86.7536 88.8624 85.4984 88.5738 84.3707 88.0099C83.0685 87.3655 81.7126 86.0768 81.82 84.3919C81.8468 83.9422 82.2361 83.5998 82.6926 83.6267C83.1423 83.6535 83.4846 84.0429 83.4578 84.4993C83.4041 85.3787 84.3036 86.1506 85.0956 86.5466C86.3173 87.1575 87.7403 87.3656 89.0828 87.1373C91.2174 86.7749 93.0566 85.3854 94.5803 84.0697C96.3054 82.5728 97.0438 81.3377 96.8961 80.1631C96.7283 78.787 95.2382 77.8607 93.9494 77.7868C92.674 77.7197 91.3516 78.2433 89.8212 79.4448C89.4654 79.7267 88.9486 79.6596 88.6667 79.3038C88.3847 78.9481 88.4519 78.4312 88.8076 78.1493C89.9823 77.2297 91.7947 76.0214 94.0433 76.149C96.0369 76.2564 98.2588 77.713 98.5273 79.9617C98.8092 82.2775 97.0237 84.1234 95.6543 85.3048C93.9628 86.7681 91.8954 88.3254 89.3581 88.7483C88.915 88.8289 88.4653 88.8624 88.0156 88.8624Z" fill="black"></path><path d="M63.1268 70.1822C62.7375 70.1822 62.3885 69.9002 62.3213 69.5042C61.9991 67.6516 59.9787 66.5507 58.804 66.054C55.3874 64.6175 52.4138 64.6645 49.9704 66.2016C49.6012 66.4299 49.1179 66.3359 48.8696 65.9868C45.4664 61.2612 41.2174 57.7707 36.2502 55.6026C35.834 55.4214 35.646 54.9381 35.8273 54.5219C36.0085 54.1057 36.4918 53.9178 36.908 54.099C41.9423 56.294 46.2651 59.7644 49.769 64.4296C52.5547 62.9662 55.8035 63.0065 59.4551 64.5437C60.9386 65.1679 63.496 66.6111 63.9525 69.229C64.033 69.6787 63.731 70.1016 63.2812 70.1755C63.2208 70.1755 63.1671 70.1822 63.1268 70.1822Z" fill="black"></path><path d="M50.2849 16.0585C49.909 16.0585 49.5734 15.8034 49.4861 15.4208C49.3854 14.9778 49.6606 14.5415 50.1036 14.4341C59.9374 12.1585 68.9791 9.03724 76.5239 6.28511L77.1884 6.04346C80.0546 4.9896 83.0215 3.90217 86.1428 3.55983C93.3251 2.76776 99.9571 5.86222 105.81 8.58749C106.22 8.78216 106.401 9.26546 106.206 9.67493C106.018 10.0844 105.528 10.2656 105.119 10.071C99.467 7.43295 93.0567 4.44588 86.3241 5.19097C83.4041 5.51317 80.5312 6.56703 77.759 7.58062L77.0877 7.82227C69.4959 10.5945 60.3938 13.736 50.4728 16.0317C50.4057 16.0518 50.3453 16.0585 50.2849 16.0585Z" fill="black"></path><path d="M186.454 61.5573C186.42 61.5573 186.387 61.5505 186.36 61.5371L176.721 57.9057C176.58 57.852 176.506 57.6976 176.56 57.5566C176.613 57.4156 176.774 57.3418 176.909 57.3955L186.548 61.027C186.689 61.0807 186.762 61.235 186.709 61.376C186.669 61.4901 186.568 61.5573 186.454 61.5573Z" fill="black"></path><path d="M189.717 57.9451C189.69 57.9451 189.656 57.9384 189.629 57.9317C184.327 56.126 179.071 53.9915 174.01 51.5884C173.875 51.5213 173.815 51.3602 173.882 51.2259C173.949 51.0917 174.11 51.0312 174.245 51.0984C179.286 53.4947 184.521 55.6159 189.804 57.4148C189.945 57.4618 190.026 57.6162 189.972 57.7639C189.932 57.8713 189.824 57.9451 189.717 57.9451Z" fill="black"></path><path d="M190.534 52.2593C190.508 52.2593 190.481 52.2526 190.447 52.2459C184.554 50.3194 178.667 48.1177 172.948 45.7079C172.807 45.6475 172.746 45.4864 172.8 45.3521C172.861 45.2112 173.022 45.1508 173.156 45.2045C178.855 47.6075 184.728 49.8025 190.608 51.729C190.749 51.776 190.83 51.9304 190.783 52.0714C190.756 52.1855 190.649 52.2593 190.534 52.2593Z" fill="black"></path><path d="M190.535 46.803C190.501 46.803 190.468 46.7963 190.441 46.7828C183.574 44.2052 178.258 41.9834 170.928 38.8957C170.787 38.8352 170.726 38.6741 170.78 38.5399C170.841 38.3989 171.002 38.3385 171.136 38.3922C178.459 41.48 183.769 43.6951 190.629 46.2727C190.77 46.3264 190.844 46.4808 190.79 46.6218C190.75 46.7359 190.642 46.803 190.535 46.803Z" fill="black"></path><path d="M188.823 40.6416C188.789 40.6416 188.755 40.6349 188.722 40.6214L169.041 32.5933C168.9 32.5396 168.833 32.3785 168.893 32.2375C168.954 32.0966 169.108 32.0294 169.249 32.0899L188.93 40.118C189.071 40.1717 189.138 40.3328 189.078 40.4738C189.037 40.5745 188.937 40.6416 188.823 40.6416Z" fill="black"></path><path d="M188.193 34.7472C188.153 34.7472 188.119 34.7405 188.085 34.7271L166.706 25.2558C166.565 25.1954 166.505 25.0343 166.565 24.8933C166.626 24.7523 166.787 24.6919 166.928 24.7523L188.307 34.2237C188.448 34.2841 188.508 34.4452 188.448 34.5862C188.394 34.6868 188.294 34.7472 188.193 34.7472Z" fill="black"></path><path d="M186.105 27.3374C186.064 27.3374 186.031 27.3306 185.991 27.3105L164.423 17.6177C164.282 17.5572 164.222 17.3961 164.289 17.2552C164.35 17.1142 164.511 17.0538 164.652 17.1209L186.219 26.8138C186.36 26.8742 186.42 27.0353 186.353 27.1763C186.313 27.2769 186.212 27.3374 186.105 27.3374Z" fill="black"></path><path d="M181.258 17.6428C181.224 17.6428 181.191 17.6361 181.157 17.6226C175.807 15.5619 170.343 13.575 164.913 11.7223C164.772 11.6753 164.692 11.521 164.745 11.3733C164.792 11.2323 164.947 11.1518 165.094 11.2055C170.531 13.0648 176.002 15.0517 181.359 17.1125C181.5 17.1662 181.567 17.3273 181.513 17.4682C181.473 17.5756 181.365 17.6428 181.258 17.6428Z" fill="black"></path><path d="M180.828 10.8243C180.794 10.8243 180.754 10.8176 180.72 10.8042L173.021 7.58891C172.88 7.52849 172.813 7.36739 172.873 7.23314C172.934 7.09218 173.095 7.02505 173.229 7.08547L180.928 10.3008C181.069 10.3612 181.136 10.5223 181.076 10.6565C181.036 10.7572 180.935 10.8243 180.828 10.8243Z" fill="black"></path><path d="M17.6152 1.15698C25.2271 3.71445 32.9196 6.03026 40.2496 8.22525C39.048 13.2999 35.9603 17.6899 33.8794 22.4759C32.7786 25.0132 31.9664 27.6646 31.1542 30.3094C27.3751 42.7141 23.7638 55.1658 20.2934 67.6443C13.5071 65.3218 8.24457 64.127 0.968262 62.8382C7.68072 41.9958 13.7219 21.9792 17.6152 1.15698Z" fill="#ACD4F7"></path><g opacity="0.1294"><path d="M161.317 62.8132C160.129 63.1622 158.967 63.5918 157.833 64.0684C157.571 64.0617 157.316 64.0818 157.061 64.1355C156.484 64.2362 155.947 64.4711 155.403 64.6859C154.799 64.8873 154.228 65.082 153.651 65.3371C153.423 65.4243 152.718 65.6928 152.45 65.76C152.362 65.7868 152.302 65.8069 152.242 65.8271C152.067 65.8808 151.899 65.9412 151.718 65.9815C151.611 65.9815 151.51 65.9882 151.402 65.9815C151.288 65.9613 151.174 65.9345 151.06 65.8942C151.06 65.8942 151.053 65.8942 151.053 65.8875C150.805 65.6593 150.577 65.4042 150.362 65.1424C150.073 64.7799 150.396 65.1894 150.503 65.3304C150.315 65.0753 150.114 64.8269 149.899 64.5987C149.832 64.5249 149.785 64.4645 149.738 64.4108C149.536 64.1355 149.362 63.8469 149.181 63.565C148.422 62.4171 147.744 61.2223 147.113 60.0006C145.777 57.4163 144.556 54.7783 143.133 52.241C142.307 50.5159 141.609 48.7169 140.575 47.0992C137.615 42.575 134.735 39.0308 130.305 35.0771C127.513 32.2444 124.284 29.8145 120.834 27.8545C118.491 26.5589 116.035 25.2769 113.316 25.0822C111.41 24.6526 110.953 27.4651 112.913 27.5994C114.699 27.6934 116.605 28.5056 118.652 29.6802C118.464 30.1434 118.505 30.7006 118.968 31.1839C120.861 32.8351 123.049 34.0971 125.023 35.641C124.929 35.5805 126.029 36.5069 126.251 36.7418C126.479 36.9633 126.707 37.1915 126.922 37.4265C126.748 37.5943 126.627 37.8292 126.633 38.0977C126.768 38.9167 127.681 39.8833 128.104 40.6485C130.272 43.9578 132.829 47.0254 134.675 50.536C137.118 55.3422 138.884 60.1416 139.703 66.5856C140.126 68.6128 140.36 72.3114 139.703 73.3719C139.649 73.4391 139.589 73.4995 139.521 73.5532C139.468 73.5867 139.427 73.6136 139.394 73.6337C139.307 73.6606 139.226 73.6941 139.139 73.721C139.099 73.7344 139.058 73.7478 139.011 73.7613C138.998 73.7613 138.984 73.768 138.971 73.768C138.79 73.7747 138.582 73.7613 138.454 73.7545C138.387 73.7411 138.32 73.7344 138.253 73.721C137.514 73.533 137.917 73.6941 136.81 73.1034C135.105 72.1435 133.641 74.6607 135.306 75.6743C139.508 78.7017 142.455 77.6277 143.294 73.5263C143.71 71.0494 143.435 68.5188 142.998 66.062C143.119 66.4312 143.247 66.8071 143.368 67.1763C143.609 68.6396 143.811 70.0157 144.005 71.2575C143.978 71.2911 143.945 71.3246 143.918 71.3649C143.441 72.1234 143.791 73.0564 144.462 73.4995C144.764 73.9761 145.402 74.1976 145.945 74.0499C146.422 73.9089 146.677 73.6203 146.811 73.2578C151.402 71.4522 155.967 69.5055 160.189 66.9414C161.189 66.3305 161.189 66.2634 162.015 65.9211C162.444 65.7465 162.961 65.4982 163.216 65.1088C163.424 64.9612 163.612 64.7934 163.767 64.5718C164.532 62.9407 162.599 62.1151 161.317 62.8132Z" fill="black"></path></g><g opacity="0.1294"><path d="M190.702 58.0658C190.46 58.0658 190.232 58.133 190.01 58.2202C188.943 58.5357 187.983 59.2204 186.936 59.603C185.077 60.5025 184.352 60.6703 181.862 61.8718C177.572 64.1541 170.444 66.3894 166.611 67.9936C164.094 68.7522 165.107 72.4843 167.678 71.86C171.699 70.5645 175.491 68.685 179.371 67.027C181.419 66.0806 185.305 64.6844 188.527 63.0935C190.031 62.3014 191.91 61.3751 192.098 60.9119C193.031 59.8379 192.105 58.0256 190.702 58.0658Z" fill="black"></path></g><g opacity="0.1294"><path d="M48.5744 16.723C46.95 22.6233 44.0637 26.9797 41.9559 33.4707C40.6739 37.2565 39.7073 41.1431 38.9689 45.0699C38.5057 46.8084 38.15 48.5738 37.7942 50.3325C37.5257 51.8898 37.0626 53.4874 37.3512 55.0715C37.7472 56.6154 39.4589 57.3538 40.8417 56.8571C41.721 57.7767 42.6473 58.6493 43.5871 59.5219C43.5871 59.4816 43.5871 59.4414 43.5871 59.4011C43.52 57.6625 43.5401 55.924 43.6475 54.1922C43.2783 52.9705 43.1508 52.1717 43.0702 51.1783C43.426 49.2585 43.8891 47.3589 44.1174 45.4189C45.037 39.1629 46.8091 33.0814 48.8362 27.1072C49.447 25.3217 49.9169 23.4892 50.6956 21.7708C51.246 20.2202 52.1455 18.6361 52.1522 16.9714C51.9575 15.0382 49.051 14.8435 48.5744 16.723Z" fill="black"></path></g><g opacity="0.1294"><path d="M50.4193 64.5379C50.3186 64.9138 49.9561 65.2091 49.5601 65.1823C49.8688 65.3568 50.2179 65.4374 50.5871 65.33C51.1576 65.1823 51.5402 64.605 51.5067 64.0344C51.1442 64.2089 50.7817 64.3768 50.4193 64.5379Z" fill="black"></path></g><g opacity="0.1294"><path d="M37.3506 55.0715C37.317 54.8366 37.2902 54.6016 37.2566 54.3667C37.2499 54.6218 37.2902 54.8567 37.3506 55.0715Z" fill="black"></path></g><g opacity="0.1294"><path d="M61.2187 69.3304C60.5273 69.8003 59.5943 69.6526 57.7953 69.6258C56.6072 69.5116 55.0768 69.5989 53.741 69.176C52.8684 68.9746 52.0427 68.2967 51.1231 68.4108C49.4047 68.5652 49.2436 71.1428 50.9083 71.559C52.1166 72.0288 53.3315 72.4383 54.6002 72.7135C55.6675 72.9619 56.7616 73.2035 57.8423 72.9417C59.1848 72.6598 60.4736 72.0893 61.6751 71.4314C62.1584 71.1159 62.8229 70.8609 63.0109 70.2702C63.2727 69.1894 61.9973 68.639 61.2187 69.3304Z" fill="black"></path></g><g opacity="0.1294"><path d="M79.4382 71.6658C78.8408 71.8672 78.72 72.1894 77.7803 72.6861C75.9075 73.6997 75.102 73.9011 72.6049 74.3777C70.2287 74.9885 70.4368 74.8543 67.8055 75.0355C66.9866 75.0691 66.161 75.0288 65.3488 74.9281C64.8118 74.8408 64.2748 74.626 63.7378 74.7334C61.5831 74.9482 61.3817 78.13 63.4693 78.6804C68.7788 80.2243 73.1554 78.6804 76.9143 76.3981C78.0488 75.7202 79.1832 75.0019 80.143 74.089C80.6733 73.4983 80.8076 73.6057 80.9217 72.7935C80.9418 72.0417 80.1632 71.4577 79.4382 71.6658Z" fill="black"></path></g><g opacity="0.1294"><path d="M101.735 82.6007C100.62 82.7551 100.895 82.8961 100.305 83.0773C99.8349 83.1982 99.7745 83.4197 98.0964 83.8157C96.9485 84.0171 96.9888 84.0104 96.6868 84.0372C96.9083 83.7553 97.0022 83.366 96.9284 83.0169C96.8814 82.292 96.1833 81.7415 95.4785 81.7348C94.6059 81.7885 93.9414 82.5068 93.1493 82.8223C91.4846 83.5539 91.8873 83.4331 89.585 84.2117C87.4974 84.8024 86.4167 84.742 85.6246 84.789C84.8661 84.7622 84.121 84.2722 83.4229 84.1849C84.8191 83.6412 86.1482 82.8961 87.4236 82.1107C88.8802 81.2247 90.169 80.1305 91.3638 78.9223C91.6256 78.6941 91.7934 78.3517 91.7867 77.996C91.7934 77.5664 91.545 77.177 91.1893 76.9488C90.7328 76.6736 90.0951 76.7542 89.7192 77.1368C89.7998 77.0764 90.0011 76.922 89.8803 76.9958C89.2829 77.365 88.6922 77.7342 88.0881 78.0899C84.6178 80.3185 80.0466 81.6274 77.0662 82.0839C76.3614 82.1644 75.6499 82.245 74.9451 82.1779C74.8847 82.1711 74.8511 82.1711 74.831 82.1644C74.8041 82.1577 74.7773 82.1577 74.7504 82.151C74.2134 82.104 73.6832 81.8355 73.1462 81.9026C71.8641 82.0168 71.7433 83.9432 72.9851 84.2587C74.106 84.6548 75.2472 85.0307 76.4353 85.1448C77.6905 85.279 78.9524 85.1045 80.1942 84.9568C80.8722 84.9031 81.53 84.7756 82.1677 84.5943C81.5636 85.2522 81.5837 86.4806 82.4832 86.9572C85.7186 88.5883 89.2024 88.2527 92.4243 86.7893C93.015 86.5611 93.5789 86.2725 94.1226 85.957C94.1427 86.937 94.9012 87.9036 95.9954 87.87C98.0091 87.615 100.184 87.5009 101.889 86.2792C102.392 85.8899 103.057 85.5609 103.278 84.93C103.815 83.8962 102.902 82.5806 101.735 82.6007Z" fill="black"></path></g><g opacity="0.1294"><path d="M118.04 75.0957C116.798 75.7266 117.1 75.8475 116.294 76.3442C115.1 77.1766 115.261 77.0759 113.536 77.5189C112.119 77.7605 112.972 77.7135 111.75 77.7337C111.609 77.727 111.468 77.7136 111.327 77.7068C111.173 77.68 110.978 77.6397 110.83 77.5994C109.803 77.4316 108.709 76.6664 107.702 77.2772C106.373 77.9955 106.655 80.1569 108.125 80.5127C109.474 80.9154 110.871 81.3047 112.294 81.2108C113.992 81.0899 115.65 80.4657 117.073 79.5326C117.758 79.0493 118.402 78.5123 119.026 77.9619C119.476 77.5927 119.932 77.1363 119.906 76.512C119.932 75.5656 118.946 74.8339 118.04 75.0957Z" fill="black"></path></g><g opacity="0.1294"><path d="M132.048 70.1886C132.055 69.4435 131.552 68.7186 130.813 68.5306C130.773 68.5239 130.733 68.5172 130.692 68.5105C130.686 67.1143 130.719 65.6979 130.377 64.342C129.86 62.2142 128.699 60.3481 127.739 58.4015C126.853 56.3474 125.712 54.374 124.235 52.6958C123.611 52.1454 122.55 52.6824 122.57 53.508C122.624 54.2128 123.275 54.7163 123.597 55.3137C125.416 57.9651 126.027 59.9453 126.893 63.1203C127.954 66.4565 128.142 68.0675 127.826 71.511C127.819 71.5512 127.819 71.5848 127.813 71.6117C127.786 71.766 127.752 71.9272 127.719 72.0815C127.705 72.1621 127.672 72.2762 127.625 72.4172C127.45 72.6991 127.262 72.981 127.074 73.2495C126.833 73.5381 126.343 74.1221 126.061 74.3772C126 74.4175 125.94 74.451 125.88 74.4846C125.329 74.5383 124.92 74.5182 123.456 74.0416C123.04 73.8872 122.96 73.8402 123.416 74.0349C122.678 73.7798 122.006 73.2697 121.241 73.1354C119.509 72.8199 118.67 75.317 120.194 76.1627C120.731 76.4379 121.322 76.7064 121.845 76.9347C121.953 77.4985 122.268 78.0221 122.819 78.3309C122.946 78.4047 123.08 78.4517 123.215 78.5121C123.262 79.2035 123.671 79.8613 124.557 80.1231C125.296 80.3245 126.067 80.5191 126.833 80.358C127.094 80.3111 127.618 80.0828 127.699 80.0426C128.464 79.7136 129.263 79.2572 129.592 78.4786C129.779 78.0892 129.786 77.6865 129.679 77.3307C129.974 77.0354 130.135 76.646 130.175 76.2366C130.927 75.2364 131.478 74.0684 131.766 72.8669C131.934 72.0278 132.028 71.1686 132.048 70.3161C132.048 70.2893 132.048 70.2557 132.048 70.2289C132.048 70.2087 132.048 70.1886 132.048 70.1752V70.1886Z" fill="black"></path></g><path d="M31.8392 70.9607C31.7922 70.9607 31.7385 70.954 31.6915 70.9473C26.2007 69.9472 20.5354 68.9201 14.9506 67.3964C12.7825 66.6782 10.6949 66.2016 8.47981 65.6981C6.07675 65.1477 3.58643 64.5839 1.04912 63.6911C0.619521 63.5434 0.39801 63.0736 0.545684 62.644C0.693358 62.2144 1.16323 61.9928 1.59283 62.1405C4.04287 62.9997 6.48621 63.5569 8.84228 64.0939C10.997 64.5839 13.2255 65.094 15.4205 65.8257C20.6428 67.2487 26.006 68.2489 31.2216 69.1953C33.4636 60.1066 36.5177 51.2394 39.4712 42.6474C41.2232 37.5526 43.0355 32.2833 44.6935 26.9536C44.7002 26.9334 44.7069 26.9133 44.7136 26.8932C45.2641 25.5104 45.8615 24.1612 46.4388 22.8455C48.0028 19.2879 49.4795 15.9182 50.2044 12.0115C50.1709 11.9444 50.0769 11.8572 50.0165 11.8504C49.9158 11.8504 49.8218 11.8303 49.7279 11.7967C44.868 9.94409 39.7934 8.6016 34.8799 7.29937C29.0803 5.76221 23.0794 4.17135 17.253 1.71458C16.8368 1.54005 16.6422 1.05675 16.8167 0.640571C16.9912 0.224396 17.4745 0.023025 17.8907 0.204263C23.6097 2.61405 29.5569 4.19148 35.3028 5.71522C40.2163 7.01745 45.2909 8.36666 50.1977 10.226C51.0838 10.3267 51.849 11.1456 51.849 12.0451C51.849 12.0921 51.8423 12.1458 51.8356 12.1928C51.0838 16.3411 49.4795 19.986 47.9356 23.5101C47.3718 24.7989 46.7878 26.1279 46.2441 27.4771C44.5861 32.8203 42.7738 38.0896 41.0218 43.1844C37.8602 52.3805 34.8665 61.0665 32.6312 70.3365C32.544 70.7124 32.2083 70.9607 31.8392 70.9607Z" fill="black"></path><path d="M20.589 68.1287C20.5219 68.1287 20.4548 68.122 20.3877 68.1019C19.9514 67.9945 19.6829 67.5448 19.7903 67.1084C24.8984 46.736 32.0875 25.0949 39.5182 7.71623C39.6994 7.30005 40.176 7.10539 40.5922 7.28663C41.0083 7.46787 41.203 7.94445 41.0218 8.36062C33.6246 25.6587 26.4692 47.2126 21.3811 67.5045C21.2871 67.8804 20.9515 68.1287 20.589 68.1287Z" fill="black"></path><path d="M166.29 73.551C166.163 73.551 166.035 73.5174 165.914 73.4637C165.713 73.363 165.565 73.1818 165.498 72.9603C161.967 60.8107 158.235 48.6745 154.281 35.8267C152.234 29.1679 150.113 22.2876 148.005 15.32C147.891 14.9441 148.059 14.5481 148.401 14.3602C157.403 9.48688 166.867 5.31842 176.54 1.9756C176.97 1.82792 177.433 2.05614 177.58 2.48574C177.728 2.91534 177.5 3.37851 177.07 3.52618C167.693 6.76832 158.51 10.7891 149.771 15.4879C151.818 22.2272 153.865 28.8927 155.852 35.3434C159.719 47.9025 163.377 59.7837 166.834 71.6648C175.124 68.7046 183.36 65.3215 191.334 61.6027C191.744 61.4081 192.234 61.5893 192.422 61.9988C192.616 62.4082 192.435 62.8983 192.026 63.0862C183.742 66.9526 175.177 70.4565 166.565 73.504C166.471 73.5376 166.384 73.551 166.29 73.551Z" fill="black"></path><path d="M176.983 68.8997C176.621 68.8997 176.285 68.6581 176.191 68.2889C171.002 48.7689 165.089 29.1751 158.611 10.0512C158.463 9.6216 158.698 9.15843 159.128 9.01076C159.558 8.86308 160.021 9.09802 160.168 9.52762C166.659 28.6918 172.58 48.3192 177.782 67.8727C177.896 68.309 177.634 68.7587 177.198 68.8796C177.124 68.893 177.05 68.8997 176.983 68.8997Z" fill="black"></path><path d="M78.6119 42.447C76.5914 42.447 74.2219 41.5677 73.168 39.5204C71.2751 35.8486 74.8462 31.707 76.0208 30.3444C80.8941 24.6925 85.9351 18.8526 92.2046 14.4425C99.2661 9.48194 106.979 7.23326 113.926 8.11259C117.484 8.56233 120.867 9.81757 124.136 11.0258C125.196 11.4151 126.29 11.8246 127.364 12.1938C134.204 14.5365 141.34 15.7783 148.576 15.8857C149.032 15.8924 149.388 16.2683 149.381 16.718C149.375 17.1678 148.985 17.537 148.549 17.5235C141.145 17.4161 133.835 16.1407 126.834 13.7444C125.74 13.3685 124.632 12.959 123.565 12.563C120.377 11.3816 117.081 10.1666 113.718 9.73702C107.18 8.90467 99.8702 11.0527 93.1443 15.7783C87.0427 20.0676 82.0688 25.8336 77.2627 31.405C74.5575 34.5397 73.6916 36.9495 74.6247 38.7552C75.4167 40.2923 77.3432 40.8763 78.9206 40.7823C80.6994 40.6749 82.3775 39.8963 84.2235 38.97C85.4518 38.3524 86.6735 37.7483 87.8952 37.1374C95.3729 33.4187 102.434 29.9014 109.14 25.1758C109.509 24.914 110.019 25.0012 110.281 25.3704C110.543 25.7396 110.456 26.2498 110.08 26.5116C103.273 31.311 96.1582 34.8485 88.6201 38.6008C87.4052 39.2049 86.1835 39.8157 84.9551 40.4333C83.0152 41.4066 81.1089 42.2927 79.0146 42.4202C78.8804 42.4403 78.7461 42.447 78.6119 42.447Z" fill="black"></path><path d="M144.341 74.834C144.018 74.834 143.71 74.6393 143.582 74.3238C143.407 73.9076 143.609 73.4243 144.025 73.2498C150.409 70.6185 156.866 67.8798 163.203 65.1075C163.619 64.9263 164.102 65.1143 164.283 65.5304C164.464 65.9466 164.277 66.4299 163.86 66.6112C157.51 69.3834 151.046 72.1288 144.649 74.7668C144.549 74.8138 144.441 74.834 144.341 74.834Z" fill="black"></path><path d="M141.856 78.3997C141.675 78.3997 141.5 78.3863 141.353 78.3729C138.419 78.0574 135.54 76.1108 133.439 73.0297C132.089 71.0495 131.156 68.8411 130.25 66.6998C129.962 66.0219 129.68 65.3506 129.384 64.6861C126.968 59.2825 123.706 54.3354 119.678 49.9924C119.369 49.6568 119.389 49.1399 119.725 48.8311C120.054 48.5224 120.578 48.5425 120.886 48.8781C125.035 53.3554 128.398 58.4502 130.888 64.0148C131.19 64.6928 131.479 65.3775 131.767 66.0622C132.64 68.1229 133.546 70.2575 134.801 72.1034C136.627 74.7884 139.084 76.4732 141.534 76.735C141.675 76.7485 142.118 76.7954 142.333 76.6612C142.581 76.5068 142.695 76.0168 142.668 75.2113C142.346 64.8942 138.95 54.5301 133.11 46.0186C127.27 37.5072 118.812 30.6201 109.301 26.6128C108.884 26.4382 108.69 25.9549 108.864 25.5388C109.039 25.1226 109.522 24.9212 109.938 25.1025C119.738 29.2306 128.451 36.3258 134.466 45.0923C140.487 53.8588 143.984 64.5384 144.313 75.1643C144.333 75.755 144.38 77.3123 143.212 78.0507C142.762 78.3326 142.279 78.3997 141.856 78.3997Z" fill="black"></path><path d="M97.4811 88.1383C96.2594 88.1383 94.6686 87.9436 92.9502 86.6817C92.5877 86.4132 92.5072 85.903 92.7757 85.5339C93.0441 85.1714 93.5543 85.0908 93.9235 85.3593C95.5949 86.5877 97.0582 86.5273 98.2396 86.4736L98.3738 86.4669C100.233 86.393 102.24 85.4399 103.361 84.1041C103.851 83.5201 104.402 82.5871 104.254 81.4594C104.247 81.4258 104.247 81.3855 104.247 81.3452C104.254 79.4389 103.985 77.5124 103.757 76.0424C103.704 75.6866 103.885 75.3308 104.214 75.1764C104.543 75.0221 104.932 75.0959 105.174 75.3644C106.523 76.8546 107.919 78.3985 109.624 79.4188C111.409 80.486 113.396 80.7881 114.94 80.2243C117.055 79.4523 119.229 75.7671 118.746 73.7668C118.639 73.3238 118.914 72.8808 119.35 72.7801C119.793 72.6727 120.236 72.9479 120.337 73.3842C121.062 76.3981 118.135 80.8082 115.497 81.7681C113.47 82.5065 111.02 82.1642 108.778 80.8284C107.624 80.1437 106.637 79.2778 105.717 78.3582C105.818 79.2979 105.885 80.2981 105.885 81.305C106.046 82.6475 105.61 83.9833 104.616 85.1647C103.193 86.8629 100.77 88.0175 98.441 88.1115L98.3134 88.1182C98.0516 88.1316 97.7764 88.1383 97.4811 88.1383Z" fill="black"></path><path d="M126.699 80.8619C125.974 80.8619 125.283 80.6673 124.625 80.4122C121.289 79.1167 119.517 75.4718 117.798 71.941C116.597 69.4843 115.362 66.9402 113.663 65.4299C113.328 65.1279 113.294 64.611 113.596 64.2686C113.898 63.933 114.415 63.8995 114.757 64.2015C116.697 65.9266 118.006 68.6184 119.275 71.2228C120.926 74.6193 122.49 77.8212 125.222 78.8818C126.41 79.3449 127.887 79.9155 129.84 76.6129C130.371 75.7135 130.518 74.5791 130.592 73.4916C130.787 70.7059 130.042 67.8464 129.317 65.0742C129.209 64.6513 129.095 64.2284 128.995 63.8122C128.88 63.3759 129.149 62.9261 129.592 62.8187C130.035 62.7046 130.478 62.9731 130.585 63.4162C130.693 63.8323 130.8 64.2485 130.908 64.6714C131.659 67.5712 132.438 70.565 132.23 73.6125C132.143 74.9013 131.961 76.2639 131.25 77.4587C129.693 80.0833 128.142 80.8619 126.699 80.8619Z" fill="black"></path><path d="M68.9255 80.3314C68.8449 80.3314 68.7711 80.3314 68.6905 80.3314C65.3947 80.2508 62.5352 78.2908 61.7431 75.5655C61.4277 74.4848 61.4478 73.384 61.6089 72.3368C59.7898 73.5048 57.4941 74.0015 55.3059 73.6122C52.0302 73.0282 49.2848 70.3365 48.768 67.2219C48.6001 66.2016 48.7881 65.4162 49.3251 64.8859C49.6473 64.5704 50.1641 64.5704 50.4863 64.8926C50.8018 65.2148 50.8018 65.7317 50.4796 66.0539C50.3521 66.1814 50.3185 66.5171 50.3924 66.9534C50.8018 69.4034 52.9901 71.5246 55.6012 71.9945C58.152 72.4509 60.8705 71.4306 62.3674 69.4504C62.5956 69.1484 63.0051 69.041 63.3541 69.1953C63.683 69.0141 63.9851 68.9 64.1865 68.8194C67.7306 67.43 71.4561 66.5842 75.2553 66.2888C78.2893 66.0539 80.2964 66.7789 81.2361 68.4503C81.6858 69.2491 81.8402 70.2291 81.6993 71.3635C81.518 72.8201 80.8871 74.2297 79.9205 75.344C78.9874 76.418 77.7859 77.1765 76.6314 77.841C74.5841 79.0023 71.8722 80.3314 68.9255 80.3314ZM63.5756 71.0346C63.1796 72.5516 62.9648 73.8673 63.3273 75.1024C63.9918 77.3846 66.5493 78.6331 68.7375 78.6868C71.3688 78.754 73.9061 77.4987 75.8192 76.4046C76.8529 75.8139 77.9134 75.1426 78.6854 74.2566C79.4372 73.3907 79.9272 72.2898 80.0749 71.1554C80.142 70.6184 80.1487 69.8532 79.8131 69.2491C79.068 67.9267 76.9938 67.7991 75.3828 67.92C71.7447 68.2019 68.1804 69.0141 64.7839 70.3432C64.3744 70.5043 63.8643 70.7325 63.5756 71.0346Z" fill="black"></path><path d="M77.6441 86.3388C76.2681 86.3388 74.9793 86.0166 73.8852 85.3722C71.7506 84.117 70.4618 81.6132 70.6833 79.143C70.7236 78.6933 71.1196 78.3577 71.5761 78.3979C72.0258 78.4382 72.3614 78.8342 72.3212 79.2907C72.1601 81.1098 73.1401 83.0296 74.7175 83.9559C76.2412 84.8487 78.3087 84.9426 80.3895 84.1975C82.3429 83.5061 84.0411 82.2442 85.7528 80.9084C88.1961 78.9954 90.4851 76.8541 90.6999 74.1422C90.7133 73.9744 90.72 73.7327 90.6596 73.5851C90.5992 73.4441 90.4247 73.2897 90.136 73.1152C88.8338 72.3366 87.0819 72.1419 85.1957 72.5648C83.5377 72.9407 82.1885 73.6388 80.6245 74.4443L80.356 74.5852C79.9532 74.7933 79.4565 74.6322 79.2484 74.2295C79.0403 73.8267 79.2014 73.33 79.6042 73.1219L79.8727 72.9809C81.4635 72.1553 82.9738 71.3767 84.8332 70.9605C87.1288 70.4436 89.3104 70.7054 90.9751 71.6989C91.351 71.9271 91.888 72.2963 92.1565 72.9205C92.3646 73.3971 92.3579 73.8871 92.331 74.2563C92.0692 77.5991 89.4983 80.0425 86.7597 82.1905C85.0077 83.5599 83.1215 84.9628 80.94 85.7347C79.8324 86.1442 78.7114 86.3388 77.6441 86.3388Z" fill="black"></path><path d="M88.0156 88.8624C86.7536 88.8624 85.4984 88.5738 84.3707 88.0099C83.0685 87.3655 81.7126 86.0768 81.82 84.3919C81.8468 83.9422 82.2361 83.5998 82.6926 83.6267C83.1423 83.6535 83.4846 84.0429 83.4578 84.4993C83.4041 85.3787 84.3036 86.1506 85.0956 86.5466C86.3173 87.1575 87.7403 87.3656 89.0828 87.1373C91.2174 86.7749 93.0566 85.3854 94.5803 84.0697C96.3054 82.5728 97.0438 81.3377 96.8961 80.1631C96.7283 78.787 95.2382 77.8607 93.9494 77.7868C92.674 77.7197 91.3516 78.2433 89.8212 79.4448C89.4654 79.7267 88.9486 79.6596 88.6667 79.3038C88.3847 78.9481 88.4519 78.4312 88.8076 78.1493C89.9823 77.2297 91.7947 76.0214 94.0433 76.149C96.0369 76.2564 98.2588 77.713 98.5273 79.9617C98.8092 82.2775 97.0237 84.1234 95.6543 85.3048C93.9628 86.7681 91.8954 88.3254 89.3581 88.7483C88.915 88.8289 88.4653 88.8624 88.0156 88.8624Z" fill="black"></path><path d="M63.1268 70.1822C62.7375 70.1822 62.3885 69.9002 62.3213 69.5042C61.9991 67.6516 59.9787 66.5507 58.804 66.054C55.3874 64.6175 52.4138 64.6645 49.9704 66.2016C49.6012 66.4299 49.1179 66.3359 48.8696 65.9868C45.4664 61.2612 41.2174 57.7707 36.2502 55.6026C35.834 55.4214 35.646 54.9381 35.8273 54.5219C36.0085 54.1057 36.4918 53.9178 36.908 54.099C41.9423 56.294 46.2651 59.7644 49.769 64.4296C52.5547 62.9662 55.8035 63.0065 59.4551 64.5437C60.9386 65.1679 63.496 66.6111 63.9525 69.229C64.033 69.6787 63.731 70.1016 63.2812 70.1755C63.2208 70.1755 63.1671 70.1822 63.1268 70.1822Z" fill="black"></path><path d="M50.2849 16.0585C49.909 16.0585 49.5734 15.8034 49.4861 15.4208C49.3854 14.9778 49.6606 14.5415 50.1036 14.4341C59.9374 12.1585 68.9791 9.03724 76.5239 6.28511L77.1884 6.04346C80.0546 4.9896 83.0215 3.90217 86.1428 3.55983C93.3251 2.76776 99.9571 5.86222 105.81 8.58749C106.22 8.78216 106.401 9.26546 106.206 9.67493C106.018 10.0844 105.528 10.2656 105.119 10.071C99.467 7.43295 93.0567 4.44588 86.3241 5.19097C83.4041 5.51317 80.5312 6.56703 77.759 7.58062L77.0877 7.82227C69.4959 10.5945 60.3938 13.736 50.4728 16.0317C50.4057 16.0518 50.3453 16.0585 50.2849 16.0585Z" fill="black"></path></svg>