<svg width="20" height="21" viewBox="0 0 20 21" fill="none" xmlns="http://www.w3.org/2000/svg"><path d="M17 2.68958H15V1.68958C15 1.42436 14.8946 1.17 14.7071 0.982468C14.5196 0.794932 14.2652 0.689575 14 0.689575C13.7348 0.689575 13.4804 0.794932 13.2929 0.982468C13.1054 1.17 13 1.42436 13 1.68958V2.68958H7V1.68958C7 1.42436 6.89464 1.17 6.70711 0.982468C6.51957 0.794932 6.26522 0.689575 6 0.689575C5.73478 0.689575 5.48043 0.794932 5.29289 0.982468C5.10536 1.17 5 1.42436 5 1.68958V2.68958H3C2.20435 2.68958 1.44129 3.00565 0.87868 3.56825C0.316071 4.13086 0 4.89393 0 5.68958V17.6896C0 18.4852 0.316071 19.2483 0.87868 19.8109C1.44129 20.3735 2.20435 20.6896 3 20.6896H17C17.7956 20.6896 18.5587 20.3735 19.1213 19.8109C19.6839 19.2483 20 18.4852 20 17.6896V5.68958C20 4.89393 19.6839 4.13086 19.1213 3.56825C18.5587 3.00565 17.7956 2.68958 17 2.68958ZM18 17.6896C18 17.9548 17.8946 18.2091 17.7071 18.3967C17.5196 18.5842 17.2652 18.6896 17 18.6896H3C2.73478 18.6896 2.48043 18.5842 2.29289 18.3967C2.10536 18.2091 2 17.9548 2 17.6896V10.6896H18V17.6896ZM18 8.68958H2V5.68958C2 5.42436 2.10536 5.17 2.29289 4.98247C2.48043 4.79493 2.73478 4.68958 3 4.68958H5V5.68958C5 5.95479 5.10536 6.20915 5.29289 6.39668C5.48043 6.58422 5.73478 6.68958 6 6.68958C6.26522 6.68958 6.51957 6.58422 6.70711 6.39668C6.89464 6.20915 7 5.95479 7 5.68958V4.68958H13V5.68958C13 5.95479 13.1054 6.20915 13.2929 6.39668C13.4804 6.58422 13.7348 6.68958 14 6.68958C14.2652 6.68958 14.5196 6.58422 14.7071 6.39668C14.8946 6.20915 15 5.95479 15 5.68958V4.68958H17C17.2652 4.68958 17.5196 4.79493 17.7071 4.98247C17.8946 5.17 18 5.42436 18 5.68958V8.68958Z" fill="#34ACE3"></path></svg>