<svg width="20" height="19" viewBox="0 0 20 19" fill="none" xmlns="http://www.w3.org/2000/svg"><path d="M15 8.68958H14C13.7348 8.68958 13.4804 8.79493 13.2929 8.98247C13.1054 9.17 13 9.42436 13 9.68958C13 9.95479 13.1054 10.2091 13.2929 10.3967C13.4804 10.5842 13.7348 10.6896 14 10.6896H15C15.2652 10.6896 15.5196 10.5842 15.7071 10.3967C15.8946 10.2091 16 9.95479 16 9.68958C16 9.42436 15.8946 9.17 15.7071 8.98247C15.5196 8.79493 15.2652 8.68958 15 8.68958ZM15 12.6896H14C13.7348 12.6896 13.4804 12.7949 13.2929 12.9825C13.1054 13.17 13 13.4244 13 13.6896C13 13.9548 13.1054 14.2091 13.2929 14.3967C13.4804 14.5842 13.7348 14.6896 14 14.6896H15C15.2652 14.6896 15.5196 14.5842 15.7071 14.3967C15.8946 14.2091 16 13.9548 16 13.6896C16 13.4244 15.8946 13.17 15.7071 12.9825C15.5196 12.7949 15.2652 12.6896 15 12.6896ZM9 6.68958H15C15.2652 6.68958 15.5196 6.58422 15.7071 6.39668C15.8946 6.20915 16 5.95479 16 5.68958C16 5.42436 15.8946 5.17 15.7071 4.98247C15.5196 4.79493 15.2652 4.68958 15 4.68958H9C8.73478 4.68958 8.48043 4.79493 8.29289 4.98247C8.10536 5.17 8 5.42436 8 5.68958C8 5.95479 8.10536 6.20915 8.29289 6.39668C8.48043 6.58422 8.73478 6.68958 9 6.68958ZM19 0.689575H5C4.73478 0.689575 4.48043 0.794932 4.29289 0.982468C4.10536 1.17 4 1.42436 4 1.68958V4.68958H1C0.734784 4.68958 0.48043 4.79493 0.292893 4.98247C0.105357 5.17 0 5.42436 0 5.68958V15.6896C0 16.4852 0.316071 17.2483 0.87868 17.8109C1.44129 18.3735 2.20435 18.6896 3 18.6896H16C17.0609 18.6896 18.0783 18.2681 18.8284 17.518C19.5786 16.7679 20 15.7504 20 14.6896V1.68958C20 1.42436 19.8946 1.17 19.7071 0.982468C19.5196 0.794932 19.2652 0.689575 19 0.689575ZM4 15.6896C4 15.9548 3.89464 16.2091 3.70711 16.3967C3.51957 16.5842 3.26522 16.6896 3 16.6896C2.73478 16.6896 2.48043 16.5842 2.29289 16.3967C2.10536 16.2091 2 15.9548 2 15.6896V6.68958H4V15.6896ZM18 14.6896C18 15.22 17.7893 15.7287 17.4142 16.1038C17.0391 16.4789 16.5304 16.6896 16 16.6896H5.82C5.93642 16.3689 5.9973 16.0307 6 15.6896V2.68958H18V14.6896ZM9 10.6896H10C10.2652 10.6896 10.5196 10.5842 10.7071 10.3967C10.8946 10.2091 11 9.95479 11 9.68958C11 9.42436 10.8946 9.17 10.7071 8.98247C10.5196 8.79493 10.2652 8.68958 10 8.68958H9C8.73478 8.68958 8.48043 8.79493 8.29289 8.98247C8.10536 9.17 8 9.42436 8 9.68958C8 9.95479 8.10536 10.2091 8.29289 10.3967C8.48043 10.5842 8.73478 10.6896 9 10.6896ZM9 14.6896H10C10.2652 14.6896 10.5196 14.5842 10.7071 14.3967C10.8946 14.2091 11 13.9548 11 13.6896C11 13.4244 10.8946 13.17 10.7071 12.9825C10.5196 12.7949 10.2652 12.6896 10 12.6896H9C8.73478 12.6896 8.48043 12.7949 8.29289 12.9825C8.10536 13.17 8 13.4244 8 13.6896C8 13.9548 8.10536 14.2091 8.29289 14.3967C8.48043 14.5842 8.73478 14.6896 9 14.6896Z" fill="#34ACE3"></path></svg>