<svg width="141" height="103" viewBox="0 0 141 103" fill="none" xmlns="http://www.w3.org/2000/svg"><path d="M86.982 74.1174H1.41748V101.728H86.982V74.1174Z" fill="white"></path><path d="M86.9819 102.5H1.4174C0.992954 102.5 0.648926 102.154 0.648926 101.728V74.1173C0.648926 73.6907 0.992954 73.345 1.4174 73.345H86.9819C87.4063 73.345 87.7504 73.6907 87.7504 74.1173V101.728C87.7504 102.154 87.4063 102.5 86.9819 102.5ZM2.18588 100.951H86.2134V74.8896H2.18588V100.951Z" fill="black"></path><path d="M86.982 1.27222H1.41748V28.8826H86.982V1.27222Z" fill="white"></path><path d="M86.9819 29.655H1.4174C0.992954 29.655 0.648926 29.3093 0.648926 28.8827V1.27232C0.648926 0.845748 0.992954 0.5 1.4174 0.5H86.9819C87.4063 0.5 87.7504 0.845748 87.7504 1.27232V28.8827C87.7504 29.3093 87.4063 29.655 86.9819 29.655ZM2.18588 28.1104H86.2134V2.04913H2.18588V28.1104Z" fill="black"></path><path d="M86.982 37.697H1.41748V65.3074H86.982V37.697Z" fill="#ACD4F7"></path><path d="M86.9819 66.0798H1.4174C0.992954 66.0798 0.648926 65.7341 0.648926 65.3075V37.6971C0.648926 37.2706 0.992954 36.9248 1.4174 36.9248H86.9819C87.4063 36.9248 87.7504 37.2706 87.7504 37.6971V65.3075C87.7504 65.7341 87.4063 66.0798 86.9819 66.0798ZM2.18588 64.5307H86.2134V38.4694H2.18588V64.5307Z" fill="black"></path><path d="M12.1357 14.8014C12.1357 12.92 13.6548 11.3933 15.5269 11.3933C17.3989 11.3933 18.918 12.92 18.918 14.8014C18.918 16.6828 17.3989 18.2095 15.5269 18.2095C13.6548 18.2095 12.1357 16.6828 12.1357 14.8014Z" fill="white"></path><path d="M15.5224 18.9817C13.2304 18.9817 11.3628 17.1047 11.3628 14.8012C11.3628 12.4978 13.2304 10.6208 15.5224 10.6208C17.8144 10.6208 19.682 12.4978 19.682 14.8012C19.6865 17.1092 17.8189 18.9817 15.5224 18.9817ZM15.5224 12.17C14.0793 12.17 12.9042 13.3509 12.9042 14.8012C12.9042 16.2516 14.0793 17.4325 15.5224 17.4325C16.9655 17.4325 18.1406 16.2516 18.1406 14.8012C18.145 13.3509 16.97 12.17 15.5224 12.17Z" fill="black"></path><path d="M12.1357 14.8014C12.1357 12.92 13.6548 11.3933 15.5269 11.3933C17.3989 11.3933 18.918 12.92 18.918 14.8014C18.918 16.6828 17.3989 18.2095 15.5269 18.2095C13.6548 18.2095 12.1357 16.6828 12.1357 14.8014Z" fill="white"></path><path d="M15.5224 18.9817C13.2304 18.9817 11.3628 17.1047 11.3628 14.8012C11.3628 12.4978 13.2304 10.6208 15.5224 10.6208C17.8144 10.6208 19.682 12.4978 19.682 14.8012C19.6865 17.1092 17.8189 18.9817 15.5224 18.9817ZM15.5224 12.17C14.0793 12.17 12.9042 13.3509 12.9042 14.8012C12.9042 16.2516 14.0793 17.4325 15.5224 17.4325C16.9655 17.4325 18.1406 16.2516 18.1406 14.8012C18.145 13.3509 16.97 12.17 15.5224 12.17Z" fill="black"></path><path d="M12.1357 51.4999C12.1357 49.6185 13.6548 48.0918 15.5269 48.0918C17.3989 48.0918 18.918 49.6185 18.918 51.4999C18.918 53.3813 17.3989 54.908 15.5269 54.908C13.6548 54.908 12.1357 53.3813 12.1357 51.4999Z" fill="white"></path><path d="M15.5224 55.6804C13.2304 55.6804 11.3628 53.8035 11.3628 51.5C11.3628 49.1965 13.2304 47.3196 15.5224 47.3196C17.8144 47.3196 19.682 49.1965 19.682 51.5C19.6865 53.8035 17.8189 55.6804 15.5224 55.6804ZM15.5224 48.8687C14.0793 48.8687 12.9042 50.0496 12.9042 51.5C12.9042 52.9503 14.0793 54.1313 15.5224 54.1313C16.9655 54.1313 18.1406 52.9503 18.1406 51.5C18.145 50.0496 16.97 48.8687 15.5224 48.8687Z" fill="black"></path><path d="M12.1357 87.9203C12.1357 86.0389 13.6548 84.5122 15.5269 84.5122C17.3989 84.5122 18.918 86.0389 18.918 87.9203C18.918 89.8017 17.3989 91.3284 15.5269 91.3284C13.6548 91.3284 12.1357 89.8062 12.1357 87.9203Z" fill="white"></path><path d="M15.5224 92.1052C13.2304 92.1052 11.3628 90.2283 11.3628 87.9248C11.3628 85.6213 13.2304 83.7444 15.5224 83.7444C17.8144 83.7444 19.682 85.6213 19.682 87.9248C19.6865 90.2283 17.8189 92.1052 15.5224 92.1052ZM15.5224 85.289C14.0793 85.289 12.9042 86.47 12.9042 87.9203C12.9042 89.3706 14.0793 90.5516 15.5224 90.5516C16.9655 90.5516 18.1406 89.3706 18.1406 87.9203C18.145 86.47 16.97 85.289 15.5224 85.289Z" fill="black"></path><path d="M12.1357 87.9203C12.1357 86.0389 13.6548 84.5122 15.5269 84.5122C17.3989 84.5122 18.918 86.0389 18.918 87.9203C18.918 89.8017 17.3989 91.3284 15.5269 91.3284C13.6548 91.3284 12.1357 89.8062 12.1357 87.9203Z" fill="white"></path><path d="M15.5224 92.1052C13.2304 92.1052 11.3628 90.2283 11.3628 87.9248C11.3628 85.6213 13.2304 83.7444 15.5224 83.7444C17.8144 83.7444 19.682 85.6213 19.682 87.9248C19.6865 90.2283 17.8189 92.1052 15.5224 92.1052ZM15.5224 85.289C14.0793 85.289 12.9042 86.47 12.9042 87.9203C12.9042 89.3706 14.0793 90.5516 15.5224 90.5516C16.9655 90.5516 18.1406 89.3706 18.1406 87.9203C18.145 86.47 16.97 85.289 15.5224 85.289Z" fill="black"></path><path d="M29.5205 51.4999C29.5205 49.6185 31.0396 48.0918 32.9116 48.0918C34.7837 48.0918 36.3028 49.6185 36.3028 51.4999C36.3028 53.3813 34.7837 54.908 32.9116 54.908C31.0396 54.908 29.5205 53.3813 29.5205 51.4999Z" fill="white"></path><path d="M32.9116 55.6804C30.6195 55.6804 28.752 53.8035 28.752 51.5C28.752 49.1965 30.6195 47.3196 32.9116 47.3196C35.2036 47.3196 37.0712 49.1965 37.0712 51.5C37.0712 53.8035 35.208 55.6804 32.9116 55.6804ZM32.9116 48.8687C31.4684 48.8687 30.2934 50.0496 30.2934 51.5C30.2934 52.9503 31.4684 54.1313 32.9116 54.1313C34.3547 54.1313 35.5297 52.9503 35.5297 51.5C35.5342 50.0496 34.3592 48.8687 32.9116 48.8687Z" fill="black"></path><path d="M12.0245 99.4917C11.9575 99.4917 11.8949 99.4648 11.8413 99.4154C11.743 99.3166 11.743 99.1504 11.8413 99.0516C17.2832 93.5826 24.8384 85.0107 32.0451 76.129C32.1344 76.0168 32.2953 76.0033 32.407 76.0931C32.5187 76.1829 32.5321 76.3446 32.4427 76.4568C25.2271 85.352 17.663 93.9373 12.2077 99.4198C12.1585 99.4692 12.0915 99.4917 12.0245 99.4917Z" fill="black"></path><path d="M6.36764 99.065C6.30956 99.065 6.24701 99.0426 6.19786 99.0022C6.09063 98.9079 6.0817 98.7462 6.17552 98.6385L11.2734 92.7742C11.3672 92.6665 11.5281 92.6575 11.6353 92.7518C11.7425 92.8461 11.7514 93.0077 11.6576 93.1155L6.55976 98.9797C6.51061 99.0381 6.43913 99.065 6.36764 99.065Z" fill="black"></path><path d="M19.3828 84.0182C19.3247 84.0182 19.2621 83.9957 19.213 83.9553C19.1058 83.861 19.0968 83.6994 19.1907 83.5916L25.6736 76.1917C25.7674 76.0839 25.9282 76.075 26.0355 76.1692C26.1427 76.2635 26.1516 76.4252 26.0578 76.533L19.5749 83.9329C19.5257 83.9867 19.4543 84.0182 19.3828 84.0182Z" fill="black"></path><path d="M3.65586 94.9116C3.59778 94.9116 3.54417 94.8936 3.49502 94.8577C3.38332 94.7679 3.36545 94.6063 3.45481 94.494C8.42757 88.1987 13.6863 81.9932 19.0835 76.0526C19.1773 75.9494 19.3426 75.9404 19.4454 76.0347C19.5481 76.129 19.5571 76.2951 19.4632 76.3984C14.075 82.33 8.82521 88.5265 3.85692 94.8128C3.80777 94.8757 3.73182 94.9116 3.65586 94.9116Z" fill="black"></path><path d="M3.9148 86.8112C3.85671 86.8112 3.79863 86.7932 3.74949 86.7528C3.64226 86.663 3.62885 86.4969 3.71821 86.3891C6.51064 83.0529 9.45498 79.7615 12.4708 76.6094C12.5691 76.5061 12.7299 76.5061 12.8327 76.6004C12.9355 76.6992 12.9399 76.8608 12.8416 76.9641C9.83475 80.1073 6.89935 83.3896 4.11139 86.7169C4.06224 86.7797 3.99075 86.8112 3.9148 86.8112Z" fill="black"></path><path d="M3.82111 80.1206C3.75409 80.1206 3.68708 80.0937 3.63793 80.0398C3.53964 79.9365 3.5441 79.7749 3.6424 79.6761L7.50265 75.9313C7.60542 75.8325 7.76626 75.837 7.86455 75.9357C7.96285 76.039 7.95838 76.2007 7.86008 76.2995L3.99983 80.0443C3.95068 80.0937 3.88366 80.1206 3.82111 80.1206Z" fill="black"></path><path d="M17.6536 99.4914C17.5955 99.4914 17.5374 99.4735 17.4883 99.4331C17.381 99.3433 17.3676 99.1771 17.457 99.0694C23.9131 91.3372 30.6104 83.632 37.3659 76.1647C37.4597 76.0614 37.625 76.0525 37.7278 76.1468C37.835 76.2411 37.8395 76.4072 37.7457 76.5105C30.9947 83.9732 24.2973 91.674 17.8457 99.4016C17.7965 99.46 17.7251 99.4914 17.6536 99.4914Z" fill="black"></path><path d="M23.6718 99.2805C23.6138 99.2805 23.5557 99.2626 23.5065 99.2222C23.3993 99.1324 23.3814 98.9707 23.4708 98.8584C29.7526 91.252 36.2981 83.6725 42.924 76.3355C43.0178 76.2277 43.1831 76.2232 43.2859 76.3175C43.3886 76.4118 43.3976 76.578 43.3037 76.6812C36.6823 84.0138 30.1413 91.5843 23.864 99.1862C23.8193 99.2491 23.7478 99.2805 23.6718 99.2805Z" fill="black"></path><path d="M29.5203 99.4916C29.4622 99.4916 29.4041 99.4736 29.355 99.4287C29.2477 99.3344 29.2343 99.1728 29.3237 99.065L48.1782 76.789C48.272 76.6812 48.4328 76.6678 48.5401 76.7576C48.6473 76.8519 48.6607 77.0135 48.5669 77.1213L29.7169 99.4018C29.6677 99.4602 29.5962 99.4916 29.5203 99.4916Z" fill="black"></path><path d="M35.1141 99.4916C35.056 99.4916 34.998 99.4736 34.9533 99.4332C34.8416 99.3434 34.8282 99.1817 34.9175 99.0695C41.1592 91.3777 47.6242 83.6904 54.1429 76.2232C54.2367 76.1154 54.3975 76.1065 54.5048 76.2007C54.612 76.295 54.6209 76.4567 54.5271 76.5645C48.0174 84.0272 41.5523 91.71 35.3152 99.3928C35.2616 99.4601 35.1901 99.4916 35.1141 99.4916Z" fill="black"></path><path d="M40.4664 99.4917C40.4083 99.4917 40.3547 99.4737 40.3056 99.4333C40.1939 99.3435 40.176 99.1819 40.2654 99.0696C46.3551 91.4721 52.704 83.9196 59.1332 76.6185C59.2271 76.5107 59.3879 76.5017 59.4951 76.596C59.6024 76.6903 59.6113 76.852 59.5175 76.9597C53.0971 84.2563 46.7527 91.7999 40.6675 99.3929C40.6183 99.4602 40.5424 99.4917 40.4664 99.4917Z" fill="black"></path><path d="M46.1455 99.2807C46.083 99.2807 46.0204 99.2582 45.9713 99.2133C45.8641 99.119 45.8596 98.9529 45.9534 98.8496C52.4676 91.6428 58.812 84.1082 64.8168 76.4658C64.9062 76.3536 65.067 76.3356 65.1787 76.4209C65.2904 76.5107 65.3083 76.6724 65.2234 76.7846C59.2096 84.436 52.8563 91.9796 46.3377 99.1954C46.284 99.2537 46.217 99.2807 46.1455 99.2807Z" fill="black"></path><path d="M51.5249 99.065C51.4668 99.065 51.4087 99.0426 51.3596 99.0022C51.2523 98.9079 51.2389 98.7462 51.3328 98.6385L68.7441 78.1496C68.838 78.0418 68.9988 78.0283 69.106 78.1226C69.2133 78.2169 69.2267 78.3786 69.1328 78.4863L51.7215 98.9752C51.6679 99.0336 51.5964 99.065 51.5249 99.065Z" fill="black"></path><path d="M56.989 99.2804C56.9309 99.2804 56.8729 99.2625 56.8237 99.2176C56.7165 99.1277 56.7031 98.9616 56.7924 98.8538L73.8374 78.5939C73.9313 78.4862 74.0921 78.4727 74.1993 78.5625C74.3066 78.6523 74.32 78.8184 74.2306 78.9262L57.1856 99.1861C57.1365 99.2535 57.0605 99.2804 56.989 99.2804Z" fill="black"></path><path d="M63.0249 99.2806C62.9623 99.2806 62.9042 99.2582 62.8551 99.2177C62.7479 99.1234 62.7389 98.9618 62.8327 98.854C68.5919 92.3208 74.1678 85.4552 79.4086 78.446C79.4935 78.3337 79.6543 78.3112 79.766 78.3966C79.8777 78.4819 79.9001 78.6435 79.8152 78.7558C74.5654 85.774 68.9806 92.653 63.2125 99.1953C63.1634 99.2537 63.0963 99.2806 63.0249 99.2806Z" fill="black"></path><path d="M68.534 99.2804C68.4803 99.2804 68.4267 99.2624 68.3776 99.2265C68.2659 99.1412 68.2435 98.9795 68.3284 98.8628C73.4888 92.0691 78.9977 85.428 84.6988 79.1327C84.7926 79.0295 84.9579 79.0205 85.0607 79.1148C85.1634 79.2091 85.1724 79.3752 85.0785 79.4785C79.382 85.7603 73.8865 92.3879 68.735 99.1726C68.6859 99.249 68.6099 99.2804 68.534 99.2804Z" fill="black"></path><path d="M73.4575 99.0648C73.3994 99.0648 73.3369 99.0424 73.2922 99.002C73.185 98.9077 73.1716 98.746 73.2654 98.6383L84.1313 85.9264C84.2251 85.8187 84.386 85.8052 84.4932 85.8995C84.6004 85.9938 84.6138 86.1554 84.52 86.2632L73.6541 98.975C73.6005 99.0334 73.529 99.0648 73.4575 99.0648Z" fill="black"></path><path d="M78.2205 99.2805C78.1579 99.2805 78.0998 99.258 78.0507 99.2131C77.9435 99.1188 77.9345 98.9572 78.0328 98.8494L83.9796 92.2039C84.0734 92.0961 84.2387 92.0916 84.3415 92.1859C84.4487 92.2802 84.4576 92.4419 84.3593 92.5496L78.4126 99.1952C78.359 99.2535 78.2875 99.2805 78.2205 99.2805Z" fill="black"></path><path d="M83.3181 99.2804C83.2556 99.2804 83.1975 99.258 83.1483 99.2131C83.0411 99.1188 83.0322 98.9526 83.1305 98.8493L84.6674 97.1251C84.7613 97.0173 84.9266 97.0083 85.0293 97.1071C85.1366 97.2014 85.1455 97.3676 85.0472 97.4708L83.5102 99.1951C83.4611 99.2535 83.3896 99.2804 83.3181 99.2804Z" fill="black"></path><path d="M104.953 71.3022C110.328 76.6186 115.702 81.9305 121.082 87.247C123.919 90.0533 126.769 92.8687 129.861 95.3024C131.528 96.6136 133.386 97.8574 135.415 97.8574C137.443 97.8574 139.601 96.1376 139.588 93.8341C139.574 92.0335 138.341 90.5877 137.184 89.3618C128.624 80.2871 119.679 71.6883 110.386 63.5969C108.679 66.1025 106.977 68.608 104.953 71.3022Z" fill="white"></path><path d="M135.415 98.6341C133.149 98.6341 131.179 97.3275 129.383 95.9131C126.251 93.4479 123.347 90.5742 120.536 87.7992L104.407 71.8544C104.13 71.5805 104.099 71.145 104.331 70.8351C106.346 68.159 108.071 65.6175 109.742 63.1613C109.867 62.9772 110.059 62.8605 110.278 62.8291C110.497 62.8021 110.716 62.865 110.881 63.0132C120.152 71.0911 129.191 79.7752 137.733 88.832C138.993 90.1656 140.334 91.7641 140.352 93.8296C140.36 95.033 139.873 96.1915 138.98 97.094C138.033 98.0549 136.697 98.6341 135.415 98.6341ZM105.971 71.2258L121.618 86.6946C124.397 89.4426 127.265 92.2805 130.33 94.6917C131.907 95.931 133.614 97.0805 135.41 97.085C136.29 97.085 137.215 96.6809 137.885 96.0029C138.484 95.3967 138.815 94.6289 138.81 93.8386C138.801 92.3344 137.72 91.0636 136.616 89.8962C128.306 81.0908 119.531 72.6312 110.528 64.7509C109.117 66.8299 107.642 68.9762 105.971 71.2258Z" fill="black"></path><path d="M83.9709 12.5249C65.4559 12.5249 50.4438 27.6121 50.4438 46.2196C50.4438 64.8271 65.4559 79.9142 83.9709 79.9142C102.486 79.9142 117.498 64.8271 117.498 46.2196C117.498 27.6121 102.49 12.5249 83.9709 12.5249ZM83.9709 71.8094C69.906 71.8094 58.5084 60.3503 58.5084 46.2196C58.5084 32.0843 69.9104 20.6298 83.9709 20.6298C98.0358 20.6298 109.433 32.0888 109.433 46.2196C109.433 60.3503 98.0358 71.8094 83.9709 71.8094ZM83.9709 71.8094C69.906 71.8094 58.5084 60.3503 58.5084 46.2196C58.5084 32.0843 69.9104 20.6298 83.9709 20.6298C98.0358 20.6298 109.433 32.0888 109.433 46.2196C109.433 60.3503 98.0358 71.8094 83.9709 71.8094Z" fill="white"></path><path d="M83.9708 80.6867C65.0582 80.6867 49.6753 65.2268 49.6753 46.2197C49.6753 27.2125 65.0627 11.7527 83.9708 11.7527C102.883 11.7527 118.266 27.2125 118.266 46.2197C118.266 65.2223 102.883 80.6867 83.9708 80.6867ZM83.9708 13.2973C65.9071 13.2973 51.2167 28.0657 51.2167 46.2152C51.2167 64.3692 65.9116 79.133 83.9708 79.133C102.034 79.133 116.725 64.3647 116.725 46.2152C116.729 28.0657 102.034 13.2973 83.9708 13.2973ZM83.9708 72.5818C69.5038 72.5818 57.7354 60.7545 57.7354 46.2152C57.7354 31.6758 69.5038 19.8531 83.9708 19.8531C98.4378 19.8531 110.206 31.6803 110.206 46.2152C110.206 60.75 98.4378 72.5818 83.9708 72.5818ZM59.2768 46.2152C59.2768 59.8969 70.3527 71.0327 83.9708 71.0327C97.5889 71.0327 108.665 59.9014 108.665 46.2152C108.665 32.5335 97.5889 21.3977 83.9708 21.3977C70.3571 21.4022 59.2768 32.5335 59.2768 46.2152Z" fill="black"></path><path d="M109.273 72.2673C109.25 72.2673 109.223 72.2628 109.201 72.2583C109.063 72.2179 108.987 72.0742 109.027 71.9395L109.617 69.865C109.657 69.7303 109.795 69.6495 109.934 69.6899C110.068 69.7303 110.148 69.874 110.108 70.0087L109.518 72.0832C109.487 72.1909 109.384 72.2673 109.273 72.2673Z" fill="black"></path><path d="M112.096 75.8998C112.087 75.8998 112.074 75.8998 112.06 75.8953C111.917 75.8774 111.819 75.7472 111.837 75.608C112.154 73.1832 112.534 70.7361 112.967 68.3293C112.994 68.1901 113.128 68.0958 113.267 68.1228C113.405 68.1497 113.499 68.2844 113.472 68.4236C113.039 70.8214 112.659 73.2641 112.346 75.6798C112.333 75.8055 112.221 75.8998 112.096 75.8998Z" fill="black"></path><path d="M115.755 79.4248C115.612 79.4248 115.5 79.3081 115.5 79.1689C115.5 77.9565 115.688 75.918 115.849 74.1219C115.947 73.0263 116.037 72.0833 116.063 71.4861C116.072 71.3424 116.184 71.2347 116.332 71.2391C116.474 71.2481 116.582 71.3694 116.573 71.5086C116.542 72.1147 116.457 73.0622 116.358 74.1623C116.197 75.9494 116.01 77.97 116.01 79.1599C116.014 79.3081 115.898 79.4248 115.755 79.4248Z" fill="black"></path><path d="M119.504 82.9003C119.366 82.9003 119.249 82.788 119.249 82.6488L119.057 74.041C119.053 73.8974 119.164 73.7806 119.307 73.7761C119.473 73.7896 119.567 73.8839 119.571 74.0276L119.763 82.6309C119.768 82.7745 119.656 82.8913 119.513 82.8958C119.509 82.9003 119.509 82.9003 119.504 82.9003Z" fill="black"></path><path d="M123.074 86.708C122.935 86.708 122.824 86.6002 122.819 86.461L122.484 77.4492C122.48 77.3055 122.591 77.1887 122.73 77.1797C122.882 77.1663 122.989 77.2875 122.998 77.4267L123.333 86.4386C123.337 86.5823 123.226 86.699 123.087 86.708C123.083 86.708 123.078 86.708 123.074 86.708Z" fill="black"></path><path d="M126.706 89.9141C126.572 89.9141 126.456 89.8063 126.452 89.6716L125.996 81.2525C125.987 81.1088 126.099 80.9875 126.237 80.983C126.389 80.9786 126.501 81.0863 126.505 81.2255L126.961 89.6447C126.97 89.7884 126.858 89.9096 126.72 89.9141C126.715 89.9141 126.711 89.9141 126.706 89.9141Z" fill="black"></path><path d="M130.303 92.8821C130.169 92.8821 130.057 92.7788 130.048 92.6441L129.419 84.4494C129.41 84.3058 129.512 84.1845 129.655 84.171C129.789 84.1666 129.919 84.2653 129.932 84.409L130.562 92.6037C130.571 92.7474 130.468 92.8686 130.325 92.8821C130.317 92.8776 130.308 92.8821 130.303 92.8821Z" fill="black"></path><path d="M133.703 95.5448C133.573 95.5448 133.462 95.446 133.448 95.3113L132.711 88.1224C132.698 87.9788 132.8 87.853 132.939 87.8396C133.069 87.8261 133.207 87.9294 133.22 88.0686L133.958 95.2574C133.971 95.4011 133.868 95.5268 133.73 95.5403C133.721 95.5448 133.712 95.5448 133.703 95.5448Z" fill="black"></path><path d="M137.036 95.1632C136.911 95.1632 136.804 95.0734 136.781 94.9477L136.263 91.7372C136.241 91.598 136.335 91.4633 136.473 91.4408C136.616 91.4183 136.746 91.5126 136.768 91.6563L137.286 94.8668C137.309 95.006 137.215 95.1408 137.076 95.1632C137.067 95.1632 137.049 95.1632 137.036 95.1632Z" fill="black"></path><g opacity="0.1294"><path d="M107.691 54.3695C106.847 55.0835 106.458 56.2374 105.743 57.0816C105.613 57.3241 103.889 59.2728 102.919 60.1978C102.079 60.9522 101.271 61.6167 100.449 62.2454C100.301 62.2723 100.158 62.3307 100.02 62.416C95.8288 65.4649 92.679 66.5784 87.3756 67.5573C84.8601 68.0288 81.9605 68.4284 77.9975 67.4406C75.2229 66.7895 73.8825 66.0261 70.9829 64.0639C69.7498 63.1973 67.0109 60.7681 65.1434 58.5005C63.1373 55.7435 62.4492 53.3323 62.0382 52.2367C61.6227 51.1096 61.3099 49.9511 60.9793 48.7971C60.4923 47.2121 60.3449 46.6553 60.3449 45.3037C60.041 44.4461 59.7551 43.575 59.5049 42.6949C59.2592 42.5827 58.9821 42.5243 58.7141 42.5467C58.2673 46.0267 58.3298 49.5201 58.7677 52.9865C59.5228 55.9815 60.4521 59.2324 63.3071 62.4609C65.6125 65.0113 67.1897 65.8959 68.1815 66.7131C70.4914 68.388 72.9488 69.9192 75.6697 70.8082C77.1575 71.2438 78.7034 71.4234 80.2404 71.603C80.2493 71.603 80.2538 71.6075 80.2672 71.6075C81.9337 71.9128 83.6404 71.9218 85.3203 71.7287C86.6428 71.621 87.9117 71.2303 89.1851 70.8846C91.8301 70.2335 94.4661 69.4208 96.8832 68.1366C97.8617 67.5304 98.2013 67.2924 98.6615 66.9466C101.628 65.0922 104.689 62.5103 106.257 60.7097C106.663 59.8611 107.057 59.0124 107.427 58.1503C107.888 56.8616 108.352 55.5729 108.808 54.2842C108.455 54.1495 108.04 54.1585 107.691 54.3695Z" fill="black"></path></g><g opacity="0.1294"><path d="M113.159 65.3615C111.881 64.9933 111.028 65.8869 110.398 66.8613C110.371 66.8927 110.345 66.9241 110.313 66.9646C109.201 68.2712 108.884 68.159 107.047 69.8293C107.038 69.8338 107.034 69.8428 107.025 69.8473C106.663 70.1032 106.23 70.2828 106.002 70.6825C104.456 72.5953 106.815 75.258 108.915 74.0187C110.38 73.2105 111.631 72.0655 112.637 70.7274C113.284 70.0134 113.91 69.2725 114.41 68.4463C115.112 67.3013 114.451 65.7073 113.159 65.3615Z" fill="black"></path></g><path d="M76.107 40.2655L72.1172 44.0058L82.992 56.1519L95.0151 38.5592L90.5606 35.0029L82.1655 46.893L76.107 40.2655Z" fill="#ACD4F7"></path><path d="M82.9923 56.9244C82.7733 56.9244 82.5678 56.8301 82.4204 56.6684L71.5455 44.5224C71.2641 44.208 71.2864 43.7276 71.5947 43.4402L75.5845 39.6999C75.7364 39.5607 75.9419 39.4888 76.1385 39.4933C76.3441 39.5023 76.5362 39.5921 76.6747 39.7448L82.0898 45.6674L89.9354 34.5541C90.056 34.3789 90.2437 34.2667 90.4536 34.2353C90.6636 34.2083 90.8736 34.2622 91.0434 34.3969L95.4979 37.9577C95.8151 38.2091 95.8821 38.6671 95.6543 38.9994L83.6312 56.5921C83.4971 56.7897 83.2827 56.9109 83.0459 56.9244C83.028 56.9244 83.0101 56.9244 82.9923 56.9244ZM73.1942 44.0554L82.9119 54.9083L93.9743 38.721L90.7173 36.1211L82.7912 47.3467C82.6572 47.5353 82.4427 47.6565 82.2104 47.67C81.9691 47.6835 81.7502 47.5937 81.5938 47.4231L76.0581 41.3702L73.1942 44.0554Z" fill="black"></path><g opacity="0.1294"><path d="M85.7399 80.0714C84.9759 80.2241 81.7456 80.2511 79.6591 80.1029C76.621 79.7347 72.2782 78.1227 68.753 76.0392C67.4395 75.2534 66.5414 74.4946 66.2823 74.3015C65.7372 73.8121 65.1832 73.2194 64.3924 73.2598C62.7437 73.2014 61.8278 75.4151 63.0341 76.5511C64.9821 78.3247 67.2741 79.6224 69.6287 80.7629C73.4711 82.6848 77.8586 83.6232 82.1522 83.4301C83.2781 83.3942 84.404 83.3942 85.521 83.255C86.0125 83.2909 86.5173 83.1517 86.8658 82.788C87.8532 81.8585 87.1071 80.0265 85.7399 80.0714Z" fill="black"></path></g></svg>