<svg width="16" height="17" viewBox="0 0 16 17" fill="none" xmlns="http://www.w3.org/2000/svg"><path d="M3.75778 7.44736C4.35113 7.44736 4.93115 7.27141 5.4245 6.94177C5.91784 6.61212 6.30236 6.14359 6.52942 5.59541C6.75649 5.04723 6.8159 4.44403 6.70014 3.86209C6.58438 3.28015 6.29866 2.7456 5.87911 2.32604C5.45955 1.90648 4.925 1.62076 4.34306 1.505C3.76111 1.38925 3.15791 1.44866 2.60973 1.67572C2.06156 1.90278 1.59302 2.2873 1.26338 2.78065C0.933731 3.274 0.757785 3.85402 0.757785 4.44736C0.758653 5.24274 1.075 6.0053 1.63742 6.56772C2.19984 7.13014 2.9624 7.44649 3.75778 7.44736ZM3.75778 3.44736C3.95557 3.44736 4.14891 3.50601 4.31335 3.61589C4.4778 3.72577 4.60598 3.88195 4.68166 4.06468C4.75735 4.2474 4.77715 4.44847 4.73857 4.64245C4.69998 4.83643 4.60474 5.01461 4.46489 5.15447C4.32504 5.29432 4.14686 5.38956 3.95287 5.42814C3.75889 5.46673 3.55783 5.44693 3.3751 5.37124C3.19237 5.29555 3.0362 5.16738 2.92632 5.00293C2.81643 4.83848 2.75778 4.64514 2.75778 4.44736C2.75796 4.1822 2.86338 3.92795 3.05087 3.74045C3.23837 3.55295 3.49262 3.44754 3.75778 3.44736ZM12.2422 9.93174C11.6488 9.93174 11.0688 10.1077 10.5755 10.4373C10.0821 10.767 9.69759 11.2355 9.47053 11.7837C9.24346 12.3319 9.18405 12.9351 9.29981 13.517C9.41556 14.099 9.70129 14.6335 10.1208 15.0531C10.5404 15.4726 11.075 15.7583 11.6569 15.8741C12.2388 15.9899 12.842 15.9304 13.3902 15.7034C13.9384 15.4763 14.4069 15.0918 14.7366 14.5984C15.0662 14.1051 15.2422 13.5251 15.2422 12.9317C15.2413 12.1364 14.9249 11.3738 14.3625 10.8114C13.8001 10.249 13.0375 9.93261 12.2422 9.93174ZM12.2422 13.9317C12.0444 13.9317 11.851 13.8731 11.6866 13.7632C11.5221 13.6533 11.394 13.4971 11.3183 13.3144C11.2426 13.1317 11.2228 12.9306 11.2614 12.7366C11.3 12.5427 11.3952 12.3645 11.5351 12.2246C11.6749 12.0848 11.8531 11.9895 12.0471 11.951C12.2411 11.9124 12.4421 11.9322 12.6248 12.0079C12.8076 12.0835 12.9638 12.2117 13.0736 12.3762C13.1835 12.5406 13.2422 12.734 13.2422 12.9317C13.242 13.1969 13.1366 13.4512 12.9491 13.6386C12.7616 13.8261 12.5073 13.9316 12.2422 13.9317ZM15.707 0.982549C15.6141 0.889668 15.5039 0.815988 15.3826 0.765718C15.2613 0.715449 15.1313 0.689575 14.9999 0.689575C14.8686 0.689575 14.7386 0.715449 14.6173 0.765718C14.496 0.815988 14.3857 0.889668 14.2929 0.982549L0.292915 14.9825C0.199109 15.0752 0.124549 15.1855 0.0735258 15.307C0.0225023 15.4286 -0.00397763 15.559 -0.00438965 15.6909C-0.00480167 15.8227 0.0208622 15.9533 0.0711249 16.0752C0.121388 16.1971 0.195257 16.3078 0.288482 16.401C0.381706 16.4943 0.492446 16.5681 0.614327 16.6184C0.736209 16.6686 0.866827 16.6943 0.998663 16.6939C1.1305 16.6935 1.26095 16.667 1.38251 16.616C1.50407 16.5649 1.61434 16.4904 1.70697 16.3965L15.707 2.39655C15.7998 2.30372 15.8735 2.1935 15.9238 2.07219C15.974 1.95088 15.9999 1.82086 15.9999 1.68955C15.9999 1.55824 15.974 1.42821 15.9238 1.30691C15.8735 1.1856 15.7998 1.07538 15.707 0.982549Z" fill="#34ACE3"></path></svg>