<svg width="106" height="121" viewBox="0 0 106 121" fill="none" xmlns="http://www.w3.org/2000/svg"><path d="M32.7262 86.5031C34.1713 81.2078 31.2189 75.8305 28.5319 71.0037C25.4975 65.5478 22.6434 59.8592 21.7521 53.7283C20.117 42.4691 25.8809 30.5677 35.7901 24.381C45.6992 18.1944 59.2226 17.9421 69.4693 23.5979C73.3589 25.7442 76.8356 28.7261 78.9885 32.5141C81.5313 36.9837 82.0752 42.2397 82.1998 47.3352C82.3341 52.7846 81.9769 58.483 79.172 63.2213C76.8684 67.1109 73.1361 69.9846 69.7249 73.0288C64.5344 77.6622 59.9206 82.8953 56.0179 88.5806C55.6673 89.0885 55.3068 89.6194 54.776 89.9471C53.9863 90.4353 52.977 90.4025 52.0398 90.3337C45.3813 89.8422 38.7949 88.4299 32.7262 86.5031Z" fill="white"></path><path d="M31.8449 86.9783C40.2762 88.9968 48.9172 90.219 57.5943 90.6188C57.0044 97.6509 56.3753 104.837 53.3966 111.282C51.9417 114.432 49.72 117.525 46.3613 118.718C42.3767 120.133 37.989 118.524 34.0994 116.883C32.5921 116.247 31.0389 115.565 29.9542 114.376C27.7325 111.935 28.152 108.255 28.7025 105.053C29.7773 98.824 30.8521 92.598 31.8449 86.9783Z" fill="#ACD4F7"></path><g opacity="0.1294"><path d="M83.8155 51.4936C83.2486 50.7071 81.9706 50.6777 81.3513 51.4215C80.8696 52.1883 81.0531 51.8082 80.709 52.9649C80.6664 53.1156 80.6238 53.2664 80.5812 53.4171C80.4076 53.8758 79.8309 55.393 79.6539 55.7272C79.9357 55.298 79.9226 55.3176 79.6211 55.783C77.9696 58.6535 77.5797 59.5022 75.7119 61.7435C75.2204 62.3989 74.2537 63.9291 72.6251 65.3775C70.6557 67.3043 65.521 70.7122 62.385 73.8547C61.4708 74.746 59.4457 76.771 59.1475 77.1315C59.1377 77.138 59.1344 77.1413 59.1246 77.1511C57.9711 78.203 56.8046 79.2549 55.8641 80.4902C54.0062 83.0003 54.1405 82.9741 52.9248 84.8091C52.1941 86.0477 51.08 87.6042 50.9423 88.9608C50.9358 89.069 50.9423 89.1706 50.9522 89.2721C50.3394 89.9865 49.9888 90.9335 50.1231 92.0542C50.5327 94.8329 50.051 97.9164 49.0942 102.773C48.0784 107.809 48.2488 108.779 46.1746 113.163C45.0473 115.248 45.8043 114.006 44.3461 115.982C43.9955 116.47 43.5039 116.896 43.3958 117.502C42.4717 120.107 46.0074 122.017 47.9342 120.196C50.6671 118.049 52.299 114.89 53.5835 111.79C54.963 107.744 55.72 104.106 57.1618 99.6433C57.7713 97.7067 57.9613 95.6783 58.0957 93.6663C58.1055 92.3851 58.3152 90.9368 57.5648 89.8095C57.5648 89.8063 57.5615 89.8063 57.5615 89.803C57.3158 89.7997 57.07 89.7964 56.8275 89.7931C56.4048 89.7833 55.9788 89.7669 55.5561 89.7473C58.2857 84.1767 60.2453 81.1522 64.1807 77.3215C66.7104 75.1293 69.4531 73.1731 72.0943 71.1021C74.5814 69.2638 76.8653 67.1372 78.7397 64.7123C79.8309 62.9854 79.6703 63.1427 80.401 61.8844C80.519 61.6812 80.3486 61.9401 80.247 62.0974C80.6501 61.4846 81.0302 60.8555 81.4005 60.2263C81.9936 59.2564 82.413 58.2078 82.7603 57.1363C82.7636 57.133 82.7702 57.1166 82.7833 57.0871C83.5206 54.9867 84.6773 52.8174 83.8155 51.4936Z" fill="black"></path></g><g opacity="0.1294"><path d="M52.689 85.1632C52.7742 85.0354 52.8528 84.9207 52.9249 84.8093C52.9511 84.7634 52.9806 84.7175 53.0068 84.6716C52.902 84.8355 52.7938 84.9993 52.689 85.1632Z" fill="black"></path></g><path d="M43.2943 120.336C40.971 120.336 38.8542 119.825 37.6319 119.458C35.1284 118.704 29.1777 116.388 27.9718 111.132C27.536 109.238 27.8309 107.262 28.0931 105.518L30.9341 86.4537C30.957 86.2997 31.0455 86.1621 31.1766 86.0736C31.3076 85.9884 31.4682 85.9622 31.6189 86.0015C36.5342 87.2991 53.1182 89.9173 57.7123 90.1205C57.8598 90.127 58.0007 90.1926 58.099 90.304C58.1973 90.4154 58.2464 90.5596 58.2366 90.7103C57.709 98.0406 56.5589 103.814 54.1242 111.302C53.3541 113.674 52.4366 116.139 50.4738 117.901C48.3865 119.776 45.729 120.336 43.2943 120.336ZM31.9368 87.2139L29.1843 105.679C28.9254 107.406 28.66 109.192 29.0499 110.882C30.1247 115.575 35.6363 117.705 37.953 118.403C40.2763 119.101 46.0763 120.372 49.7398 117.082C51.4994 115.503 52.3547 113.193 53.0789 110.961C55.4513 103.66 56.5589 98.2437 57.0995 91.1887C52.0041 90.8348 37.301 88.5116 31.9368 87.2139Z" fill="black"></path><path d="M55.9756 90.8252C55.9199 90.8252 55.8609 90.8154 55.8052 90.799C55.5168 90.704 55.3595 90.3927 55.4513 90.1043C57.6271 83.4327 63.2272 78.6616 68.6438 74.0446C73.7 69.7356 78.9298 65.2758 81.2661 59.3251C82.5244 56.1203 83.6779 48.0266 82.164 40.8274C81.0433 35.4927 78.9101 31.3017 75.8201 28.3689C70.0397 22.8802 59.3769 18.0207 50.1789 19.3511C41.4166 20.6192 33.8504 24.2663 28.8762 29.6239C24.3051 34.5457 21.6377 41.1223 21.369 48.1478C21.1167 54.7146 22.9353 61.4386 26.625 67.5925C27.133 68.4412 27.6835 69.2899 28.2176 70.1091C29.335 71.8295 30.4884 73.6088 31.347 75.5192C32.8903 78.9533 33.4408 82.7315 32.946 86.4441C32.9067 86.7456 32.6282 86.9553 32.3267 86.916C32.0253 86.8767 31.8123 86.5981 31.8549 86.2967C32.3234 82.7872 31.7992 79.2154 30.341 75.9681C29.5185 74.1363 28.388 72.3931 27.2935 70.7088C26.7561 69.8797 26.1991 69.0212 25.6813 68.1561C21.8802 61.8155 20.0091 54.8817 20.2713 48.102C20.5498 40.8143 23.322 33.9854 28.0734 28.8703C33.218 23.3324 41.0136 19.5641 50.0249 18.2599C59.567 16.8771 70.6066 21.8972 76.5803 27.5694C79.8342 30.6594 82.0755 35.0438 83.2421 40.598C84.8018 48.02 83.596 56.3989 82.2918 59.7249C79.8571 65.9344 74.5192 70.4827 69.3582 74.8802C64.0595 79.3957 58.5774 84.0684 56.4999 90.4418C56.4245 90.6778 56.2082 90.8252 55.9756 90.8252Z" fill="black"></path><path d="M95.0094 45.2772C94.7276 45.2772 94.4851 45.0609 94.4621 44.7758C94.4359 44.4809 94.6489 44.2155 94.9438 44.1827L103.896 43.1145C104.761 43.0096 105.066 43.4127 105.171 43.6617C105.253 43.855 105.236 44.0647 105.128 44.2384C104.856 44.6742 104.82 44.7299 95.0421 45.2772C95.029 45.2772 95.0192 45.2772 95.0094 45.2772Z" fill="black"></path><path d="M58.8168 10.9034C58.8004 10.9034 58.7873 10.9034 58.7709 10.9001C58.4694 10.8739 58.2433 10.6085 58.2663 10.307L59.0592 0.591195C59.0855 0.289726 59.3443 0.063625 59.6524 0.0865628C59.9538 0.112777 60.1799 0.3782 60.157 0.679668L59.364 10.3955C59.3411 10.6871 59.1018 10.9034 58.8168 10.9034Z" fill="black"></path><path d="M27.2704 18.6662C27.1525 18.6662 27.0312 18.6269 26.9329 18.5483L20.3072 13.3676C20.1368 13.2365 19.6223 12.8335 19.7599 12.2305C19.8124 12.0044 19.9697 11.8308 20.1827 11.7619C20.6283 11.6243 20.9494 11.5227 27.644 17.7061C27.8603 17.906 27.8799 18.2435 27.6899 18.4663C27.5817 18.6007 27.4277 18.6662 27.2704 18.6662Z" fill="black"></path><path d="M1.32788 45.7163C1.02642 45.7163 0.780653 45.4738 0.777376 45.1691C0.774099 44.8643 1.01986 44.6153 1.32461 44.6153L10.9486 44.5366H10.9519C11.2534 44.5366 11.4992 44.7791 11.5024 45.0839C11.5057 45.3886 11.2599 45.6376 10.9552 45.6376L1.33116 45.7163C1.33116 45.7163 1.33116 45.7163 1.32788 45.7163Z" fill="black"></path><path d="M81.7281 21.4121C81.5839 21.4121 81.443 21.3564 81.3348 21.245C81.1218 21.0287 81.1284 20.6781 81.3447 20.4651L87.977 14.0131C88.1965 13.8001 88.5439 13.8066 88.7536 14.0229C88.9666 14.2392 88.96 14.5898 88.7437 14.8028L82.1114 21.2548C82.0066 21.3597 81.869 21.4121 81.7281 21.4121Z" fill="black"></path><path d="M89.7107 79.6249C89.5567 79.6249 89.4027 79.5593 89.2945 79.4348L83.4061 72.6485C83.2062 72.4191 83.2324 72.0718 83.4618 71.8719C83.6912 71.672 84.0385 71.6982 84.2384 71.9276L90.1268 78.7139C90.3267 78.9433 90.3005 79.2906 90.0711 79.4905C89.9663 79.5823 89.8385 79.6249 89.7107 79.6249Z" fill="black"></path><path d="M61.6805 53.3515C60.7728 51.5132 59.1311 50.0157 56.8046 48.8787C56.6079 48.7836 56.4146 48.6853 56.2115 48.5936L56.7161 46.5226C56.7783 46.6046 56.8406 46.6865 56.9029 46.7717C57.2469 47.2337 57.709 47.5384 58.2693 47.6793C58.2726 47.6793 58.2759 47.6793 58.2759 47.6826C58.7543 47.8006 59.3507 47.6662 59.4064 47.6531C59.4391 47.6466 59.4719 47.64 59.5079 47.6269L62.3195 46.6897C63.1288 46.4178 63.427 45.8705 63.5352 45.4609C63.6564 44.9923 63.5745 44.5172 63.3058 44.1043C62.2277 42.0563 60.5958 40.4769 58.4495 39.4054L58.8591 37.7276C59.1213 36.6528 58.4594 35.5649 57.3846 35.3028L55.2087 34.7719C54.1339 34.5098 53.046 35.1717 52.7839 36.2465L52.3939 37.8423C51.4076 37.7899 50.4672 37.8489 49.5923 38.0193C46.0271 38.6976 43.8775 40.5555 43.2057 43.5407C42.878 45.0087 43.0026 46.4276 43.5826 47.7613C43.7267 48.1053 43.907 48.433 44.1036 48.7541C45.0702 50.3336 46.6366 51.6378 48.7894 52.6306L47.9899 55.9173C47.3476 55.3144 46.7676 54.5509 46.2696 53.6563C46.0041 53.0763 45.5323 52.6896 44.8998 52.5356C44.5689 52.4537 44.12 52.5127 43.8808 52.5553L41.2527 53.3352C40.3516 53.6006 40.0436 54.197 39.9387 54.6524C39.847 55.062 39.9027 55.4684 40.0927 55.8386C40.5023 56.8479 41.1315 57.8736 41.9572 58.8927C43.1598 60.3934 44.6574 61.5764 46.4072 62.4152L46.0697 63.8013C45.8075 64.8729 46.4694 65.9608 47.5442 66.2229L49.7201 66.7538C50.7949 67.0159 51.8828 66.354 52.1449 65.2825L52.4824 63.9029C54.1438 63.9783 55.6937 63.7686 57.0864 63.2705C59.6914 62.3333 61.3593 60.5442 62.0475 57.9489C62.4833 56.3007 62.3588 54.754 61.6805 53.3515ZM59.9732 58.9844C59.5079 59.8593 58.8526 60.5606 57.994 61.098C57.5648 61.3667 57.0896 61.5993 56.5588 61.7861C56.3982 61.8451 56.2246 61.8811 56.0574 61.9303C54.8122 62.294 53.4393 62.4218 51.945 62.2874C51.5551 62.2514 51.2045 62.5037 51.1127 62.8838L50.6212 64.9056C50.5655 65.1383 50.3263 65.2825 50.0936 65.2235L47.9178 64.6926C47.6819 64.6369 47.5377 64.401 47.5967 64.1683L48.0882 62.1498C48.1799 61.773 47.9866 61.3896 47.6294 61.2389C45.86 60.4983 44.3624 59.3776 43.1828 57.9063C42.4455 56.9986 41.8917 56.0975 41.5444 55.2259C41.5345 55.2029 41.5214 55.1735 41.5083 55.1472C41.4625 55.0588 41.469 55.0194 41.4756 54.9965C41.4821 54.9637 41.4985 54.9015 41.7082 54.8392L44.1822 54.0954C44.3493 54.0692 44.5197 54.0593 44.5361 54.0593C44.7032 54.0987 44.7852 54.1675 44.854 54.3182L44.8835 54.3805C45.7453 55.9402 46.8102 57.1395 48.0423 57.9456C48.2553 58.0833 48.524 58.1095 48.7632 58.0177C48.9992 57.9227 49.1761 57.7195 49.2351 57.4738L50.4803 52.3619C50.572 51.9818 50.3787 51.5984 50.0182 51.451C47.4787 50.3991 45.801 48.954 45.0342 47.1419C44.5885 46.1163 44.4968 45.0186 44.7491 43.8848C45.2734 41.5353 46.9577 40.123 49.897 39.5626C50.8243 39.3824 51.8434 39.3497 52.9248 39.4611C53.3115 39.5004 53.6752 39.2448 53.7669 38.8647L54.3142 36.6201C54.3699 36.3841 54.6091 36.2399 54.8417 36.2989L57.0176 36.8298C57.2502 36.8855 57.3977 37.1247 57.3387 37.3606L56.7783 39.6642C56.6866 40.0378 56.8766 40.4179 57.2273 40.5686C59.3441 41.4927 60.9268 42.9378 61.9361 44.8646C61.9492 44.8875 61.9656 44.9137 61.9819 44.9366C62.0376 45.0186 62.0311 45.0481 62.0245 45.0677C62.0147 45.0907 62.0016 45.1431 61.8312 45.2021L59.0721 46.1229C58.9214 46.1556 58.7117 46.172 58.656 46.1589C58.4528 46.1097 58.2955 46.0049 58.1808 45.8509C57.7745 45.2774 57.3059 44.7728 56.7914 44.3566C56.5785 44.1863 56.3032 44.1404 56.0443 44.2256C55.7887 44.3108 55.5987 44.5205 55.5331 44.7859L54.537 48.8787C54.4452 49.2588 54.6484 49.652 55.0089 49.7962C57.6205 50.8317 59.3933 52.2669 60.2747 54.0528C60.7925 55.1177 60.8776 56.2614 60.5369 57.5524C60.3894 58.0702 60.2059 58.5486 59.9732 58.9844Z" fill="#272525"></path></svg>