<svg width="145" height="48" viewBox="0 0 145 48" fill="none" xmlns="http://www.w3.org/2000/svg"><path d="M0 8C0 3.58172 3.58172 0 8 0H137C141.418 0 145 3.58172 145 8V40C145 44.4183 141.418 48 137 48H8C3.58173 48 0 44.4183 0 40V8Z" fill="#212529"></path><path d="M34.3894 12C34.5301 13.3648 34.0143 14.7052 33.2562 15.6882C32.4669 16.6549 31.2009 17.4023 29.9661 17.3048C29.8098 15.9969 30.435 14.6077 31.1305 13.7547C31.9199 12.788 33.2953 12.0487 34.3894 12Z" fill="white"></path><path d="M38.415 19.8519C38.2457 19.9589 36.0072 21.3733 36.0303 24.2345C36.0612 27.6805 38.9095 28.8443 38.9983 28.8806L39 28.8813C38.9844 28.9625 38.5467 30.5467 37.4604 32.1471C36.5461 33.5606 35.6004 34.9416 34.0843 34.966C33.3662 34.9819 32.8815 34.7669 32.3765 34.5428C31.8482 34.3085 31.2977 34.0643 30.4346 34.0643C29.5266 34.0643 28.9525 34.3158 28.399 34.5582C27.9188 34.7686 27.4542 34.9721 26.8006 34.9985C25.3548 35.0554 24.2607 33.4875 23.3151 32.0902C21.4316 29.2306 19.9702 24.0314 21.9318 20.4976C22.8774 18.7591 24.6202 17.6461 26.4724 17.6136C27.2856 17.5998 28.0689 17.9264 28.7557 18.2128C29.2833 18.4328 29.754 18.6291 30.1377 18.6291C30.4744 18.6291 30.93 18.4406 31.4612 18.2209C32.2984 17.8745 33.3232 17.4506 34.3656 17.5649C35.0768 17.5893 37.1087 17.8655 38.4217 19.8477C38.4217 19.8477 38.4178 19.8501 38.415 19.8519Z" fill="white"></path><path d="M67.3115 20.0488C68.3265 20.0488 69.1642 20.4448 69.8408 21.2275C70.5335 22.0181 70.872 23.0455 70.8721 24.334C70.8721 25.7649 70.4771 26.8955 69.6797 27.7256C68.9709 28.4687 68.0852 28.833 67.0381 28.833C65.9023 28.833 65.0883 28.4372 64.5889 27.6387V32.0586H62.6797V22.9902C62.6797 22.0889 62.6558 21.1714 62.6074 20.2227H64.2832L64.3877 21.5596H64.4199C65.0563 20.5555 66.0228 20.0489 67.3115 20.0488ZM77.1719 20.0488C78.1868 20.0488 79.0245 20.4448 79.7012 21.2275C80.3938 22.0181 80.7324 23.0455 80.7324 24.334C80.7324 25.7649 80.3375 26.8955 79.54 27.7256C78.8312 28.4687 77.9455 28.833 76.8984 28.833C75.7626 28.833 74.9486 28.4372 74.4492 27.6387V32.0586H72.54V22.9902C72.54 22.0889 72.5161 21.1714 72.4678 20.2227H74.1436L74.248 21.5596H74.2803C74.9166 20.5555 75.8831 20.0489 77.1719 20.0488ZM103.408 20.0576C104.664 20.0577 105.679 20.4682 106.444 21.29C107.177 22.0806 107.54 23.1091 107.54 24.3662C107.54 25.6627 107.161 26.7217 106.412 27.5518C105.623 28.4056 104.575 28.833 103.271 28.833C102.014 28.8329 101.007 28.4217 100.258 27.6074C99.5088 26.7931 99.1387 25.7569 99.1387 24.5078C99.1388 23.2037 99.5251 22.1366 100.29 21.3066C101.063 20.4765 102.103 20.0576 103.408 20.0576ZM88.626 16.7998C89.7054 16.7998 90.6083 16.9819 91.3252 17.3535L90.8418 18.8711C90.1652 18.5153 89.4076 18.334 88.5537 18.334C87.8852 18.334 87.3532 18.4992 86.9746 18.8154C86.6605 19.1079 86.5001 19.4561 86.5 19.875C86.5 20.3336 86.6854 20.7211 87.0479 21.0137C87.362 21.2903 87.9417 21.591 88.7793 21.915C89.8023 22.3183 90.5518 22.7924 91.0352 23.3379C91.5265 23.8834 91.7676 24.5637 91.7676 25.3701C91.7676 26.3661 91.4135 27.1724 90.7129 27.7969C89.9396 28.4768 88.86 28.8173 87.4746 28.8174C86.1939 28.8174 85.1707 28.572 84.3975 28.0898L84.8398 26.5322C85.6776 27.0145 86.5968 27.2598 87.5957 27.2598C88.3123 27.2597 88.8759 27.1013 89.2705 26.7852C89.6732 26.469 89.8749 26.0422 89.875 25.5127C89.875 25.0384 89.706 24.6425 89.3838 24.3184C89.0535 23.9942 88.5055 23.6937 87.7402 23.417C85.638 22.6502 84.5988 21.5357 84.5986 20.0732C84.5986 19.1166 84.9691 18.3335 85.7021 17.7168C86.4351 17.1081 87.4098 16.7999 88.626 16.7998ZM95.9805 20.2227H98.083V21.6299H95.9805V25.7178C95.9805 26.7534 96.3517 27.2754 97.0928 27.2754C97.4309 27.2754 97.713 27.2438 97.9385 27.1885L97.9941 28.6113C97.6157 28.7456 97.1245 28.8164 96.5127 28.8164C95.7555 28.8164 95.175 28.5874 94.748 28.1367C94.3213 27.6861 94.1123 26.9273 94.1123 25.8682V21.6221H92.8633V20.2227H94.1123V18.6816L95.9805 18.1279V20.2227ZM118.697 20.0254C119.929 20.0255 120.872 20.4759 121.5 21.377C122.007 22.1042 122.266 22.9819 122.266 24.0332C122.266 24.3653 122.241 24.6506 122.192 24.8799H116.474C116.498 25.7098 116.771 26.3504 117.303 26.7852C117.786 27.1725 118.407 27.3701 119.172 27.3701C120.018 27.3701 120.792 27.2355 121.484 26.9746L121.782 28.2715C120.969 28.6194 120.01 28.793 118.906 28.793C117.577 28.793 116.53 28.4056 115.772 27.6387C115.015 26.8719 114.637 25.8363 114.637 24.5479C114.637 23.2829 114.991 22.2229 115.7 21.377C116.441 20.4758 117.441 20.0254 118.697 20.0254ZM61.0371 28.6436H59.0068L57.8955 25.2119H54.0283L52.9736 28.6436H51L54.8262 16.9658H57.1943L61.0371 28.6436ZM113.259 20.0488C113.436 20.0488 113.597 20.0652 113.734 20.0811L113.742 21.8672C113.557 21.8356 113.355 21.8203 113.138 21.8203C112.469 21.8204 111.945 22.0655 111.583 22.5635C111.269 22.9983 111.108 23.5596 111.108 24.2236V28.6436H109.199V22.8721C109.199 21.8996 109.183 21.0133 109.143 20.2227H110.802L110.874 21.8359H110.931C111.132 21.2825 111.447 20.8321 111.882 20.5C112.309 20.1997 112.768 20.0488 113.259 20.0488ZM103.344 21.417C102.579 21.417 101.99 21.7491 101.596 22.4209C101.249 22.9743 101.088 23.6468 101.088 24.4453C101.088 25.22 101.257 25.8842 101.596 26.4297C102.006 27.1015 102.586 27.4336 103.327 27.4336C104.052 27.4336 104.624 27.0938 105.043 26.4141C105.389 25.8448 105.566 25.1801 105.566 24.4053C105.566 23.6306 105.398 22.9743 105.06 22.4209C104.657 21.749 104.085 21.4171 103.344 21.417ZM66.708 21.543C66.2408 21.543 65.8134 21.7015 65.4268 22.002C65.0482 22.3103 64.7905 22.706 64.6777 23.2041C64.6214 23.4332 64.5889 23.6233 64.5889 23.7734V25.1807C64.589 25.7892 64.7827 26.3106 65.1611 26.7295C65.5397 27.1485 66.0392 27.3623 66.6514 27.3623C67.3682 27.3623 67.9244 27.0854 68.3271 26.5479C68.7298 26.0024 68.9307 25.2907 68.9307 24.3975C68.9307 23.5755 68.7456 22.9037 68.3672 22.374C67.9565 21.8207 67.4006 21.5431 66.708 21.543ZM76.5684 21.543C76.1012 21.543 75.6738 21.7015 75.2871 22.002C74.9085 22.3103 74.6589 22.706 74.5381 23.2041C74.4817 23.4332 74.4492 23.6233 74.4492 23.7734V25.1807C74.4493 25.7892 74.643 26.3106 75.0215 26.7295C75.4001 27.1485 75.8995 27.3623 76.5117 27.3623C77.2286 27.3623 77.7928 27.0854 78.1875 26.5479C78.5982 26.0024 78.791 25.2907 78.791 24.3975C78.791 23.5755 78.6059 22.9037 78.2275 22.374C77.8168 21.8207 77.2609 21.5431 76.5684 21.543ZM55.9219 18.5312C55.801 19.0293 55.6162 19.7649 55.3584 20.7295L54.3672 23.7734H57.5654L56.5586 20.7295C56.4539 20.4132 56.2519 19.6855 55.9619 18.5312H55.9219ZM118.56 21.3301C117.939 21.3302 117.432 21.5831 117.046 22.0889C116.732 22.4921 116.538 22.9826 116.481 23.5439L120.444 23.5518C120.46 22.9983 120.332 22.5155 120.074 22.1123C119.744 21.5906 119.236 21.3301 118.56 21.3301Z" fill="white"></path></svg>