<svg width="24" height="19" viewBox="0 0 24 19" fill="none" xmlns="http://www.w3.org/2000/svg"><path d="M22.8 11.875H21.6V3.5625C21.6 2.61767 21.2207 1.71153 20.5456 1.04343C19.8705 0.375334 18.9548 0 18 0H6C5.04522 0 4.12955 0.375334 3.45442 1.04343C2.77928 1.71153 2.4 2.61767 2.4 3.5625V11.875H1.2C0.88174 11.875 0.576515 12.0001 0.351472 12.2228C0.126428 12.4455 0 12.7476 0 13.0625V15.4375C0 16.3823 0.379285 17.2885 1.05442 17.9566C1.72955 18.6247 2.64522 19 3.6 19H20.4C21.3548 19 22.2705 18.6247 22.9456 17.9566C23.6207 17.2885 24 16.3823 24 15.4375V13.0625C24 12.7476 23.8736 12.4455 23.6485 12.2228C23.4235 12.0001 23.1183 11.875 22.8 11.875ZM4.8 3.5625C4.8 3.24756 4.92643 2.94551 5.15147 2.72281C5.37652 2.50011 5.68174 2.375 6 2.375H18C18.3183 2.375 18.6235 2.50011 18.8485 2.72281C19.0736 2.94551 19.2 3.24756 19.2 3.5625V11.875H4.8V3.5625ZM21.6 15.4375C21.6 15.7524 21.4736 16.0545 21.2485 16.2772C21.0235 16.4999 20.7183 16.625 20.4 16.625H3.6C3.28174 16.625 2.97652 16.4999 2.75147 16.2772C2.52643 16.0545 2.4 15.7524 2.4 15.4375V14.25H21.6V15.4375Z" fill="#34ACE3"></path></svg>