<svg xmlns="http://www.w3.org/2000/svg" xmlns:xlink="http://www.w3.org/1999/xlink" id="Layer_1" x="0px" y="0px" viewBox="0 0 311.5 256.1" xml:space="preserve" width="252" height="284"><style type="text/css">
	.stFourthBlogSmall0{fill:none;stroke:#000000;strokeWidth:0.2484;}
	.stFourthBlogSmall1{stroke:#000000;strokeWidth:0.2484;}
	.stFourthBlogSmall2{fill:#84CDEE;}
	.stFourthBlogSmall3{fill:#84CDEE;stroke:#000000;strokeWidth:0.2484;}
	.stFourthBlogSmall4{fill:#FFFFFF;}
	.stFourthBlogSmall5{fill:#FFFFFF;stroke:#000000;strokeWidth:0.2484;}
	.stFourthBlogSmall6{fill:#BEE8FF;}
	.stFourthBlogSmall7{stroke:#000000;strokeWidth:0.3641;stroke-miterlimit:10;}
	.stFourthBlogSmall8{fill:#FFFFFF;stroke:#000000;strokeWidth:0.182;stroke-miterlimit:10;}
	.stFourthBlogSmall9{fill:none;stroke:#000000;strokeWidth:0.182;stroke-miterlimit:10;}
	.stFourthBlogSmall10{opacity:0.1294;}
	.stFourthBlogSmall11{fill:none;stroke:#000000;strokeWidth:1.0922;stroke-miterlimit:10;}
	.stFourthBlogSmall12{fill:#BEE8FF;stroke:#000000;strokeWidth:0.7281;stroke-miterlimit:10;}
	.stFourthBlogSmall13{stroke:#000000;strokeWidth:0.182;stroke-miterlimit:10;}
	.stFourthBlogSmall14{fill:#ACD4F7;}
	.stFourthBlogSmall15{fill:#50B8E7;}
	.stFourthBlogSmall16{fill:none;stroke:#000000;strokeWidth:0.8351;stroke-miterlimit:10;}
	.stFourthBlogSmall17{stroke:#000000;strokeWidth:0.2784;stroke-miterlimit:10;}
	.stFourthBlogSmall18{fill:none;stroke:#231F20;strokeWidth:0.6462;stroke-miterlimit:10;}
	.stFourthBlogSmall19{fill:none;}
	.stFourthBlogSmall20{stroke:#000000;strokeWidth:0.9508;stroke-miterlimit:10;}
</style><path class="stFourthBlogSmall4" d="M100.9,181.9c-6.9-15.9-15-45.3-23.3-60.8c-5.3-3.4-11.3-9.4-14.4-15.2c-1.3-2.3-1.5-3.4-0.1-5.5  c1-1.5,3.3-1.6,4.8-1c-1-1.5-2.9-2.6-1.2-4.7c0.7-1,1.9-1.6,3.1-1.2c-1.2-3.1,2-5.9,4.8-3.1c-2.3-3.7-4.6-6.9-6.9-10.3  c-1.5-2-3-4.6-1.8-5.9c1.6-1.6,3.9,0.6,6.9,3.9c4.9,5.9,6.5,7.8,11.6,12.9c4.8,4.8,9.9,14.6,8,18.9c1.6,6.7,26,45.5,34.1,53.5  c2.9,2.9,0.5,5.8-0.1,9.8c-0.9,4.9-4.5,22.3-16.9,16.6C105.8,188.3,101.4,182.7,100.9,181.9z"></path><path d="M113.9,191.7c-1.5,0-3.2-0.4-4.9-1.2c-3.7-1.7-8.2-7.2-8.6-8.3c-2.9-6.7-6-15.4-9.2-24.8c-4.5-13.2-9.3-26.7-14-35.8  c-4.8-3.1-11.2-9.1-14.5-15.4c-1.4-2.6-1.6-3.8-0.1-6.1c0.7-1.2,2.3-1.7,3.8-1.6c-0.7-1-1.5-2.3-0.1-4.2c0.7-1,1.8-1.5,2.7-1.5  c-0.2-1.5,0.3-2.9,1.5-3.6c0.6-0.4,1.4-0.6,2.2-0.4c-1.8-2.7-3.6-5.5-5.6-8.3c-1.7-2.4-3.3-5.1-1.7-6.7c0.5-0.5,1.1-0.7,1.8-0.7  c1.5,0.1,3.2,1.5,6.1,4.8l0.1,0.1c4.8,5.8,6.4,7.7,11.5,12.8c4.7,4.7,10.1,14.5,8.2,19.4c1.9,6.8,25.7,44.8,33.9,53  c2.3,2.3,1.6,4.8,0.9,7.2c-0.3,1-0.6,2-0.9,3.1c-0.9,5.1-3.1,14.3-8.8,17.3C116.7,191.3,115.3,191.7,113.9,191.7z M101.5,181.5  c0.4,0.9,4.6,6.2,8,7.8c3,1.3,5.6,1.4,7.9,0.2c5.2-2.8,7.3-11.5,8.2-16.4c0.2-1.2,0.5-2.3,0.9-3.3c0.7-2.4,1.3-4.2-0.5-6.1  c-7.9-7.9-32.5-46.5-34.2-53.8c0-0.1,0-0.3,0-0.4c1.8-3.9-2.9-13.2-7.9-18.2c-5.1-5.1-6.7-7-11.6-12.9l-0.1-0.1  c-1.5-1.8-3.7-4.3-5.1-4.3c-0.3,0-0.6,0.1-0.9,0.4c-1,1,1.2,4,1.8,5c2.6,3.6,4.8,7.1,6.9,10.3c0.1,0.2,0.1,0.6-0.1,0.9  c-0.2,0.2-0.6,0.1-0.9-0.1c-1-1-2-1.2-2.9-0.6c-0.7,0.4-1.3,1.7-0.7,3.1c0.1,0.2,0,0.4-0.1,0.6c-0.1,0.1-0.4,0.2-0.6,0.1  c-0.9-0.3-1.8,0.2-2.3,1c-1,1.2-0.5,1.8,0.4,3c0.2,0.3,0.5,0.6,0.7,1c0.1,0.2,0.1,0.5,0,0.7c-0.1,0.2-0.4,0.3-0.7,0.2  c-1.5-0.5-3.4-0.4-4.2,0.7c-1.2,1.8-1.1,2.7,0.1,4.9c3.2,6.2,9.5,11.9,14.3,15c0.1,0.1,0.1,0.1,0.2,0.2c4.8,9.2,9.6,22.8,14.2,36.1  C95.6,166.2,98.7,175,101.5,181.5z"></path><path d="M76.6,106.5c-0.5,0-1.1-0.1-1.6-0.4c-0.6-0.2-1.2-0.5-1.8-0.7c-0.3-0.1-0.4-0.5-0.3-0.9c0.1-0.3,0.5-0.4,0.9-0.3  c0.5,0.2,1.2,0.5,1.8,0.7c0.5,0.2,1.2,0.4,1.5,0.2c0.4-0.2,0.6-1.1,0.4-1.8c-0.2-1.1-1.8-3.5-7.8-9.4l-0.1-0.1  c-0.2-0.2-0.2-0.6,0-0.9c0.2-0.2,0.6-0.2,0.9,0l0.1,0.1c5.1,4.9,7.8,8.1,8.2,9.9c0.2,1.2,0,2.6-1.1,3.1  C77.2,106.4,76.9,106.5,76.6,106.5z"></path><path d="M81,110.6c-0.2,0-0.4-0.1-0.5-0.3c-1.5-2.8-0.2-5.6,0.7-7.7c0.3-0.7,0.9-1.9,0.6-2.1c-0.7-0.7-3.5-1-4.9-1.1  c-0.7-0.1-1.2-0.1-1.4-0.1c-1.5-0.5-2.2-1.4-2.4-2c-0.2-0.5-0.3-1.2-0.1-1.5c0.2-0.6,1.2-1.8,2-2.1c1.5-0.4,4.9-0.4,8-0.2  c0.4,0,0.7,0,1,0.1c1.2,0.1,4.7,1.3,5,2.7c0.1,0.3-0.1,0.7-0.4,0.7c-0.3,0.1-0.7-0.1-0.7-0.4c-0.1-0.5-2.9-1.8-3.9-1.8  c-0.3,0-0.6,0-1.1-0.1c-2.1-0.1-6.2-0.3-7.6,0.1c-0.3,0.1-1.1,1-1.3,1.5c0,0.1-0.1,0.2,0.1,0.5c0.1,0.3,0.5,1,1.8,1.3  c0.1,0,0.6,0.1,1.1,0.1c2.3,0.2,4.8,0.4,5.6,1.5c0.7,0.7,0.2,1.9-0.4,3.4c-0.9,1.9-1.9,4.4-0.7,6.6c0.1,0.3,0.1,0.7-0.2,0.9  C81.1,110.6,81,110.6,81,110.6z"></path><path d="M77.7,94.5c-0.2,0-0.4-0.1-0.5-0.3c-0.3-0.5-1.3-1.7-2.1-2.6c-0.4-0.4-0.9-1-1.2-1.2c-0.2-0.2-0.1-0.6,0.1-0.9  c0.2-0.2,0.6-0.1,0.9,0.1c0.2,0.3,0.7,0.7,1.1,1.2c1,1,1.9,2,2.3,2.8c0.1,0.3,0.1,0.7-0.2,0.9C77.9,94.5,77.8,94.5,77.7,94.5z"></path><path d="M78.8,104.5c-0.1,0-0.3,0-0.4-0.1c-0.3-0.1-0.5-0.4-0.4-0.7c0.1-0.3,0.4-0.5,0.7-0.4c0.3,0.1,0.7-0.1,1.1-0.5  c0.4-0.7,0.4-1.7-0.3-2.8c-0.1-0.3-0.1-0.7,0.2-0.9c0.3-0.1,0.7-0.1,0.9,0.2c1.4,2.2,0.6,3.6,0.3,4.2  C80.3,104.1,79.5,104.5,78.8,104.5z"></path><path class="stFourthBlogSmall4" d="M308.6,207.1c-4.4-22.9-4.4-47.5-22.8-62.8c-8.9-7.5-29.8-10.5-42.1-11.3c-0.7,11.9-12.4,13.4-19.8,14.3  c-4,0.4-11.3-6.2-17.8-12.7c-2.8,1.2-19.6,2-30.6,11.7c-20.3,18.1-46.8,15.3-48.2,16.7c-2,2,2.9,19.6-14.9,27.9  c-7.5,3.4,37.5,10.7,68.5,2.4c-1.2,16.2,4.3,37.1,4.3,37.1s109.4,20.1,119.8,21.9c0.9,0.1,2.9-0.5,3.1-1.4  C310.2,245.9,312.6,228.2,308.6,207.1z"></path><path d="M305.1,253c-0.1,0-0.2,0-0.4,0c-10.2-1.8-118.8-21.8-119.8-21.9c-0.2-0.1-0.4-0.2-0.4-0.4s-5.3-20.3-4.4-36.3  c-16.4,4.2-34.6,3.8-44.2,3.3c-11.8-0.7-24.2-2.8-25.1-5.3c-0.1-0.4-0.2-1.2,1.2-1.8c13.1-6.1,13.6-17.3,14-23.3  c0.1-2.3,0.1-3.7,0.9-4.5c0.4-0.4,1.5-0.5,4.7-0.7c8.3-0.6,27.9-2,43.6-16c8.6-7.8,20.7-9.9,27.2-11.1c1.7-0.3,3-0.5,3.5-0.7  c0.2-0.1,0.4,0,0.7,0.1c6.1,6.1,13.5,12.9,17.3,12.6c7.5-1,18.6-2.2,19.3-13.7c0-0.1,0.1-0.3,0.2-0.4c0.1-0.1,0.3-0.1,0.4-0.1  c14.3,1,34.1,4.5,42.5,11.5c15.1,12.7,18.1,31.7,20.9,50.2c0.7,4.3,1.3,8.7,2.1,13c3.8,20.2,1.9,38.3-0.6,44.1  C308.1,252.3,306.2,253,305.1,253z M185.6,229.8c7.1,1.3,109.4,20.1,119.4,21.9c0.7,0.1,2.3-0.5,2.6-1c1.9-4.5,4.7-21.5,0.5-43.4  c-0.9-4.3-1.5-8.7-2.1-13c-2.9-19.1-5.6-37.2-20.4-49.4c-8.1-6.7-27.1-10.2-41.2-11.2c-1.2,11.9-13.1,13.3-20.3,14.3  c-4.2,0.5-11.5-6.1-18.1-12.7c-0.7,0.2-1.8,0.4-3.4,0.7c-6.4,1.2-18.2,3.3-26.5,10.8c-15.9,14.3-35.8,15.7-44.3,16.3  c-1.8,0.1-3.6,0.2-3.9,0.4c-0.3,0.4-0.4,2-0.4,3.6c-0.3,6.3-0.9,18-14.6,24.4c-0.3,0.1-0.4,0.2-0.4,0.3c0.5,1.2,8.8,3.5,24,4.5  c9.6,0.6,28.2,1,44.6-3.4c0.2-0.1,0.4,0,0.5,0.1c0.1,0.1,0.2,0.3,0.2,0.5C180.4,208.2,184.7,226.9,185.6,229.8z"></path><path class="stFourthBlogSmall4" d="M169.5,250.5c14.6,0.3,29.1,0.6,43.7,1l0.1-7.5l-48.6-1.2L169.5,250.5z"></path><path d="M213.2,252.1l-43.7-1c-0.2,0-0.4-0.1-0.5-0.3l-4.9-7.7c-0.1-0.1-0.1-0.4,0-0.6c0.1-0.2,0.3-0.3,0.5-0.3l48.6,1.2  c0.3,0,0.6,0.3,0.6,0.6l-0.1,7.5c0,0.1-0.1,0.3-0.1,0.4C213.5,252,213.3,252.1,213.2,252.1z M169.8,249.9l42.7,1l0.1-6.2l-46.9-1.2  L169.8,249.9z"></path><path class="stFourthBlogSmall4" d="M285.6,227.8c-17.6-1-35.3-2.2-52.8-3.4c-1.6-0.2-9.4-1.4-11.3-1.7c-1.6-0.2-3.2-0.9-4.8-1.5  c-5.3-2.4-16.5-7.2-19-5.8c-5.9,1.7-11,5.9-15.1,11.2c-2.3,3-4.2,7.9-3.2,8.7c0.6,0.5,1.5,0.7,2.2,0.2c2.8-5.9,7.6-10.7,13.5-13.3  c-2.8,1.5-5.3,3.4-7.6,5.6c-2.3,2.1-4.5,4.8-5,8c-0.1,0.2-0.1,0.5,0.1,0.7c0.3,0.5,1.2,0.2,1.6-0.1c1-0.7,13-10.5,15.2-10.2  c-3,1.2-13.7,9.8-13.7,10.8c0,0.4,0.1,1,0.3,1.2c0.4,0.4,1.1,0.6,1.7,0.5c0.6-0.1,1.2-0.4,1.7-0.7c3.4-2,6.6-4.8,10.3-6.3  c1.8-0.7,4.2-1.2,5.9-0.1c-3.3,1.2-6.4,3.1-9.1,5.5c-0.4,0.4-0.7,0.9-1.1,1.3c-0.4,0.7-0.9,1.8-0.3,2.3c1,1,1.7,0.4,2.6,0  c3.2-2.1,6.4-3.8,9.9-5.2c1.1-0.4,2.3-0.7,3.3-0.1c0.9,0.5,4.8,3.1,13.2,3.4c2.9,0.1,5.5,1,9.1,1.8c46.4,12.8,60.4,17.9,71.7,13.1  c2.2-1,3-2.1,2.2-5.9C304.8,237.7,302.9,231.9,285.6,227.8z"></path><path d="M295.1,256.1c-8.8,0-21.6-3.5-45.5-10.2c-5.1-1.4-10.8-3-16.9-4.7c-3.3-1-6.2-1.7-8.9-1.8c-7.8-0.4-11.9-2.6-13.4-3.5  c-0.7-0.4-1.8-0.1-2.8,0.2c-3.4,1.3-6.5,3-9.8,5.1l-0.1,0.1c-0.7,0.4-2,1.2-3.2-0.1c-1-1-0.1-2.6,0.2-3.1c0.3-0.5,0.7-1.1,1.2-1.5  c2.2-2,4.9-3.7,7.9-5c-1.3-0.2-2.9,0.1-3.9,0.6c-2.4,1-4.7,2.6-6.8,3.9c-1.1,0.7-2.2,1.5-3.4,2.2c-0.5,0.3-1.2,0.7-1.8,0.7  c-1,0.1-1.8-0.1-2.2-0.7c-0.3-0.4-0.5-1-0.4-1.7c0-0.1,0.1-0.4,0.3-0.6c-0.1,0.1-0.3,0.2-0.4,0.3c-0.2,0.1-0.3,0.3-0.4,0.3  c-0.4,0.3-1.1,0.7-1.7,0.5c-0.3-0.1-0.6-0.2-0.7-0.5c-0.1-0.2-0.1-0.4-0.1-0.7c-0.9,0.6-2,0.5-2.9-0.3c-1.5-1.4,1.2-7,3.1-9.6  c4.5-5.8,9.8-9.7,15.4-11.3c3-1.5,14.6,3.5,19.5,5.9c1.2,0.5,2.9,1.2,4.5,1.5c0.5,0.1,1.5,0.2,2.6,0.4c3.1,0.4,7.5,1.1,8.7,1.3  c17.3,1.2,35,2.3,52.8,3.4h0.1c17.6,4.2,19.6,10.2,21.6,20.4c0.7,3.8,0.1,5.4-2.6,6.6C301.9,255.6,298.8,256.1,295.1,256.1z   M209.5,234.4c0.5,0,1.1,0.1,1.5,0.4c1.4,1,5.3,3,12.9,3.4c3,0.1,5.9,1,9.2,1.8c6.2,1.7,11.9,3.3,16.9,4.7  c33.4,9.4,44.8,12.5,54.3,8.4c1.8-0.7,2.6-1.5,1.8-5.2c-1.9-10-3.7-15.4-20.7-19.5c-17.8-1-35.5-2.2-52.7-3.4h-0.1  c-1.2-0.1-5.6-0.9-8.7-1.3c-1.2-0.1-2.1-0.3-2.6-0.4c-1.8-0.3-3.6-1-4.9-1.6c-9.4-4.4-16.8-6.7-18.4-5.9c-0.1,0-0.1,0.1-0.1,0.1  c-5.3,1.5-10.5,5.4-14.8,11c-2.3,3.1-3.7,7.2-3.3,7.9c0.3,0.3,0.9,0.4,1.3,0.2c2.8-5.9,7.8-10.8,13.7-13.5c0.3-0.1,0.6,0,0.7,0.3  c0.1,0.3,0.1,0.6-0.2,0.9c-2.7,1.5-5.2,3.4-7.5,5.5c-2.9,2.7-4.4,5-4.8,7.6c0,0.2,0,0.3,0,0.3c0.1,0,0.4-0.1,0.7-0.3  c0.1-0.1,0.2-0.1,0.4-0.3c12.9-10.3,14.7-10.1,15.3-10.1c0.3,0,0.5,0.2,0.5,0.5s-0.1,0.5-0.4,0.6c-2.9,1.1-12.6,8.9-13.3,10.2  c0,0.3,0.1,0.6,0.2,0.7c0.2,0.3,0.7,0.4,1.1,0.3c0.4-0.1,1-0.4,1.5-0.6c1.2-0.7,2.3-1.5,3.4-2.2c2.2-1.5,4.5-3.1,7-4.2  c1.8-0.7,4.5-1.4,6.4,0c0.1,0.1,0.3,0.4,0.2,0.6c0,0.2-0.1,0.4-0.4,0.4c-3.4,1.3-6.4,3.1-8.9,5.3c-0.4,0.3-0.7,0.7-1,1.2  c-0.7,1.2-0.4,1.6-0.4,1.7c0.5,0.6,0.9,0.4,1.7-0.1h0.1c3.3-2.1,6.6-3.9,9.9-5.3C207.9,234.6,208.7,234.4,209.5,234.4z"></path><path d="M275.2,227.8c-0.2,0-0.4-0.1-0.6-0.4c-6.6-20-10.3-32.6-10.3-60.1c0-0.3,0.3-0.6,0.6-0.6c0.3,0,0.6,0.3,0.6,0.6  c0,27.3,3.7,39.8,10.2,59.7c0.1,0.3-0.1,0.7-0.4,0.7C275.3,227.8,275.2,227.8,275.2,227.8z"></path><path d="M180.8,193.9c-0.1,0-0.3-0.1-0.4-0.1c-0.4-0.3-0.4-0.6-0.4-4.7c-0.1-3-0.1-8-0.4-15.7c0-0.3,0.2-0.6,0.6-0.6  c0.4,0,0.6,0.2,0.6,0.6c0.3,7.7,0.4,12.7,0.4,15.7c0,2.1,0.1,3.6,0.1,4c0.1,0.2,0.1,0.5-0.1,0.7  C181.1,193.9,180.9,193.9,180.8,193.9z"></path><path d="M215.6,182.6c-12.4,0-23.7-1.1-29.6-4.2c-0.1-0.1-0.1-0.1-0.1-0.3c0.1-0.1,0.1-0.1,0.3-0.1c12.2,6.3,47.5,4.2,68.3,1.3  c0.1,0,0.2,0.1,0.2,0.1c0,0.1-0.1,0.2-0.1,0.2C243.7,181.3,229.1,182.6,215.6,182.6z"></path><path d="M228.8,200.2c-16.5,0-31.5-2.6-42.9-5.3c-0.1,0-0.1-0.1-0.1-0.2s0.1-0.1,0.2-0.1c17.4,4.2,43.7,8.2,70.1,2.8  c0.1,0,0.2,0.1,0.2,0.1c0,0.1-0.1,0.2-0.1,0.2C247.1,199.4,237.8,200.2,228.8,200.2z"></path><path d="M310,233.2c-0.1,0-0.1,0-0.1-0.1c-8-9.4-20.9-14.1-33-12c-0.1,0-0.2-0.1-0.2-0.1c0-0.1,0.1-0.2,0.1-0.2  c12.2-2,25.3,2.7,33.3,12.1c0.1,0.1,0.1,0.2,0,0.3C310.1,233.2,310,233.2,310,233.2z"></path><path class="stFourthBlogSmall6" d="M45.4,182.7l94.9,0.7l32.7,67.1l-94-0.4L45.4,182.7z"></path><path d="M173,251l-94-0.2c-0.2,0-0.4-0.1-0.5-0.3l-33.6-67.4c-0.1-0.1-0.1-0.4,0-0.6c0.1-0.1,0.3-0.3,0.5-0.3l94.9,0.5  c0.2,0,0.4,0.1,0.5,0.3l32.7,67.2c0.1,0.1,0.1,0.4,0,0.6C173.6,251,173.3,251,173,251z M79.4,249.6l92.7,0.2l-32.2-66l-93.5-0.4  L79.4,249.6z"></path><path class="stFourthBlogSmall4" d="M105.5,210.2c-2.7-0.2-5.6,0.4-6.7,2.9c-1.1,2.4-0.2,5.6,1.8,7.5c2,1.8,5,2.4,7.6,1.8c1.5-0.3,2.9-1,3.7-2.2  c0.5-0.9,0.9-1.8,0.9-2.9C112.6,213.9,111,210.6,105.5,210.2z"></path><path d="M106.1,223.1c-2.2,0-4.5-0.7-6-2.2c-2.3-2-3.1-5.4-1.9-8.1c1.1-2.3,3.8-3.7,7.3-3.3c6.4,0.6,7.7,4.5,7.7,7.7  c0,1.2-0.3,2.3-1,3.2c-1.1,1.5-2.8,2.2-4,2.4C107.5,223,106.8,223.1,106.1,223.1z M104.4,210.6c-1.6,0-4.2,0.4-5.1,2.6  c-1,2.1-0.3,5,1.6,6.7c1.8,1.6,4.5,2.2,7,1.7c1.5-0.3,2.7-1.1,3.3-2c0.6-0.9,0.7-1.8,0.7-2.6c0-3.9-2.1-6-6.5-6.4  C105.2,210.6,104.9,210.6,104.4,210.6z"></path><path class="stFourthBlogSmall4" d="M209.3,113.6c1.7,11.2,2.3,33.8,2.3,33.8s10.3,5.6,17.6,3.6c6-1.6,13.7-2.1,14.3-9.4  c-2.6-9.2-2.9-24.9-6.4-39.6C229.9,105.4,218.2,110.8,209.3,113.6z"></path><path d="M225.8,151.9c-6.7,0-14.1-3.9-14.5-4c-0.2-0.1-0.3-0.3-0.3-0.5c0-0.2-0.7-22.7-2.3-33.7c-0.1-0.3,0.1-0.6,0.4-0.7  c9.1-2.9,21.7-8.7,27.8-11.6c0.1-0.1,0.4-0.1,0.5,0c0.1,0.1,0.3,0.2,0.3,0.4c1.8,7.6,2.7,15.4,3.5,22.4c0.9,6.8,1.5,12.8,2.9,17.3  c0,0.1,0,0.1,0,0.2c-0.4,6.5-6.5,7.9-11.9,9.2c-1,0.2-1.9,0.4-2.9,0.7C228.3,151.8,227.1,151.9,225.8,151.9z M212.2,146.9  c1.8,1,10.7,5,16.9,3.4c1-0.2,1.9-0.4,2.9-0.7c5.1-1.2,10.5-2.4,11-8c-1.3-4.5-2-10.4-2.9-17.3c-0.9-6.7-1.7-14.3-3.4-21.5  c-6.2,2.9-18,8.3-26.8,11.1C211.5,124.5,212.2,144,212.2,146.9z"></path><path class="stFourthBlogSmall4" d="M210.8,129.6c0.5,9.3,6.7,19.3,9.3,21.4c-1.5,0-3-0.2-3-0.2s-5.8,6.7-7.7,9.9c-3.3-3.7-6.4-17.8-6.4-25.1  C203.8,133.6,208.4,126.3,210.8,129.6z"></path><path d="M209.5,161.3c-0.1,0-0.3-0.1-0.4-0.2c-3.5-4-6.5-18.6-6.5-25.6c0-0.1,0-0.1,0.1-0.2c0.6-1.5,3.7-6.8,6.5-7.2  c0.6-0.1,1.5,0.1,2.3,1.1c0.1,0.1,0.1,0.2,0.1,0.3c0.5,9.1,6.7,18.9,9.1,21c0.2,0.1,0.2,0.4,0.1,0.7c-0.1,0.2-0.3,0.4-0.5,0.4  c-1.2,0-2.2-0.1-2.8-0.1c-1.1,1.2-5.6,6.8-7.5,9.6C209.9,161.1,209.7,161.3,209.5,161.3z M203.7,135.5c0,6.9,2.9,19.6,5.8,24  c2.2-3.4,7-8.9,7.2-9.3c0.1-0.1,0.4-0.2,0.5-0.2c0,0,0.6,0.1,1.5,0.1c-2.9-3.5-7.8-12.1-8.3-20.6c-0.4-0.4-0.9-0.5-1.1-0.4  C207.3,129.6,204.5,133.7,203.7,135.5z"></path><path class="stFourthBlogSmall4" d="M221.1,151.2c1.2-0.4,3.4,0,3.4,0s5.6,6.4,6,11.6c6.3-5.3,19.2-20.8,19.5-29.2c-1.4-2.3-5.6-10-8.8-7.1  C243.6,129.7,233.1,148.7,221.1,151.2z"></path><path d="M230.5,163.3c-0.1,0-0.1,0-0.2-0.1c-0.2-0.1-0.4-0.3-0.4-0.5c-0.4-4.4-4.9-10-5.6-11c-0.5-0.1-1.5-0.2-2.2-0.1  c-0.2,0.1-0.5,0.1-0.7,0.1c-0.3,0.1-0.6-0.1-0.7-0.4c-0.1-0.3,0.1-0.6,0.4-0.7c0.3-0.1,0.6-0.1,1-0.2c8.3-2.2,15.9-12.5,18.4-19  c1.1-2.7,1.1-4.2,0.7-4.7c-0.1-0.2-0.1-0.6,0.1-0.9c0.7-0.6,1.5-1,2.3-0.7c2.9,0.4,5.8,5.3,7.2,7.7l0.2,0.4c0.1,0.1,0.1,0.2,0.1,0.3  c-0.4,8.4-13,24-19.7,29.6C230.8,163.3,230.6,163.3,230.5,163.3z M224.8,150.6c0.1,0,0.2,0.1,0.3,0.1c0.2,0.2,5,5.9,6,10.8  c6.7-6,18-20,18.4-27.9l-0.1-0.2c-1.1-1.8-3.9-6.7-6.3-7c-0.4-0.1-0.7,0-1,0.1c0.4,1.4-0.1,3.6-0.9,5.3  C238.9,138,232.4,147.1,224.8,150.6z"></path><path class="stFourthBlogSmall6" d="M254.5,62c-1.2,7.9-2.6,15-5.2,25.2c-1.3,4.9-3.5,10.3-6.2,14.8c-1.2,2-2.1,3.1-4.7,4.3  c-0.1-2.1-2.3-3.2-2.7-5.3c-0.4-2.6,1.2-4.9-0.3-7.2c-3-4.4-5.1-9.2-6-14.2c-0.7-4-0.9-8.3,1.1-12.1c1.9-3.7,6.1-6.9,11-7.2  C245.5,60.2,251.5,59.7,254.5,62z"></path><path d="M238.6,107c-0.1,0-0.2,0-0.3-0.1c-0.1-0.1-0.3-0.3-0.3-0.4c-0.1-1-0.6-1.6-1.2-2.3c-0.6-0.7-1.3-1.7-1.5-2.9  c-0.1-1.2,0-2.1,0.1-3.2c0.2-1.4,0.4-2.6-0.4-3.7C232,89.8,229.9,85,229,80c-1-5-0.6-9.1,1.2-12.5c2.1-4.2,6.7-7.2,11.6-7.5l0.6-0.1  c3.8-0.2,9.7-0.7,12.7,1.8c0.1,0.1,0.2,0.4,0.2,0.5c-1.2,8-2.6,14.9-5.2,25.3c-1.3,5-3.5,10.5-6.1,14.9c-1.2,2.1-2.2,3.3-4.9,4.5  C238.7,107,238.7,107,238.6,107z M246.8,60.9c-1.6,0-3.1,0.1-4.5,0.2l-0.6,0.1c-4.5,0.3-8.6,3-10.5,6.9c-1.6,3.1-2,6.9-1.1,11.7  c1,4.9,2.9,9.6,5.9,14c1.1,1.6,0.9,3.1,0.5,4.7c-0.1,1-0.3,1.8-0.1,2.8c0.1,0.9,0.7,1.5,1.2,2.3c0.5,0.7,1.1,1.4,1.3,2.2  c1.8-1,2.7-1.9,3.7-3.7c2.6-4.4,4.8-9.7,6.1-14.6c2.7-10.2,3.9-17,5.1-24.9C252.2,61.2,249.5,60.9,246.8,60.9z"></path><path class="stFourthBlogSmall4" d="M194.8,74.4c0,6.9-1.8,13.8-2.2,20.9c-0.4,6.9,0.7,14.5,5.8,20c4.5,5,11.8,8,19.2,7.9  c7.3-0.1,14.4-3.4,18.4-8.5c3.7-4.8,5-15.7,5.9-21.1c3.2,0.7,6.9-0.1,8.9-2.2c2.1-2.1,2.3-5.5,0.1-7.7c-2.1-2.2-5-2.6-8.4,0.2  c0.4-4.5-0.1-8.8-0.3-11c-0.6-5.5-0.3-13.6-4-16.2c-2-1.5-6.6-2.9-9.1-3.7c-4.4-1.4-10.7,1.1-15.2,0.7c-4.6-0.3-9.4,1.7-13.3,3.7  C195.9,60.2,194.8,69.2,194.8,74.4z"></path><path d="M217.1,123.8c-7.3,0-14.7-3.1-19.2-8c-4.5-5-6.4-11.8-5.9-20.6c0.1-3.1,0.6-6.1,1.1-9.1c0.5-3.8,1.2-7.8,1.2-11.7  c0-2.3,0.3-14.1,6.1-17.3c5.1-2.8,9.7-4,13.6-3.8c1.8,0.1,3.9-0.2,6.1-0.6c3.2-0.5,6.6-1.1,9.3-0.1l0.3,0.1c2.6,0.9,6.9,2.2,8.9,3.7  c3.1,2.1,3.6,7.9,3.9,12.9c0.1,1.3,0.1,2.6,0.3,3.7v0.1c0.2,1.9,0.6,5.6,0.4,9.6c2.9-1.9,5.9-1.7,8.1,0.7c2.3,2.3,2.3,6.1-0.1,8.6  c-2,2-5.5,3.1-8.9,2.6c-0.1,0.4-0.1,0.7-0.1,1.2c-1,6.1-2.2,15.1-5.6,19.5c-4.2,5.3-11.3,8.6-18.9,8.7  C217.4,123.8,217.2,123.8,217.1,123.8z M195.4,74.4c0,3.9-0.6,8-1.2,11.8c-0.4,3-1,6.1-1.1,9.1c-0.5,8.3,1.4,14.9,5.6,19.6  c4.4,4.8,11.6,7.8,18.7,7.7c7.2-0.1,14-3.3,17.9-8.3c3.3-4.2,4.7-13.4,5.4-18.9c0.1-0.7,0.1-1.3,0.3-1.8c0-0.1,0.1-0.3,0.2-0.4  c0.1-0.1,0.3-0.1,0.4-0.1c3.1,0.7,6.5-0.1,8.4-2c1.9-2,2-5,0.1-6.8c-2.1-2.2-4.8-2.1-7.6,0.2c-0.2,0.1-0.4,0.1-0.7,0.1  c-0.2-0.1-0.4-0.4-0.3-0.6c0.4-4.3,0-8.6-0.3-10.7v-0.1c-0.1-1.2-0.2-2.3-0.3-3.7c-0.3-4.8-0.7-10.2-3.4-12  c-1.9-1.3-6.1-2.7-8.6-3.4l-0.3-0.1c-2.4-0.7-5.6-0.3-8.7,0.2c-2.2,0.4-4.5,0.7-6.4,0.6c-3.7-0.2-8.1,1-12.9,3.7  C196.9,60.4,195.4,68.3,195.4,74.4z"></path><path class="stFourthBlogSmall6" d="M216.7,64.2c-0.7,3.1-5.5,7.5-8.5,7.8c-3.1,0.3-4.2-1.1-5.3-3.9c-2.7,2.3-4.7,4.8-7.5,5.9  c-4.2,1.6-9.4-1-10.8-5.4c-1.4-4.5,1.3-9.7,5.5-11.1c-2.9,0.7-5.8-2.2-5.8-5.3c-0.1-3.1,2-5.9,4.8-7.2c2.6-1.4,5.6-1.5,8.6-1.9  c-1.2-3,0.3-6.5,2.8-8.4c2.4-1.9,5.8-2.3,8.7-2c2,0.2,3.9,0.9,5.6,2.1c1.6,1.3,2.7,3.4,2.6,5.6c2.7-3.4,6.9-5.6,11-4.6  c4,1,7.1,5.9,7.5,9.4c2-2.4,4.5-4.4,7.6-4.2c6,0.3,7.3,5.4,4.7,12c3.2-1.6,8-0.2,9.5,4.5c1.2,3.4-0.1,8.9-2.6,11.6  c-2.3,2.7-11,5-16.8,0.7c-3.3-2.3-4.9-5.6-5.9-8.6c-1.8,3-3.1,5.1-7.5,6.6C221.6,68.5,217.8,67.2,216.7,64.2z"></path><path d="M192.7,74.8c-1.3,0-2.7-0.3-3.9-1c-2.3-1.2-4-3.1-4.8-5.4c-1.2-3.9,0.5-8.6,3.8-10.8c-0.5-0.1-1.1-0.4-1.6-0.9  c-1.5-1.2-2.4-3.1-2.6-4.9c-0.1-3.1,2-6.2,5-7.8c2.2-1.2,4.8-1.5,7.2-1.8c0.3-0.1,0.6-0.1,1-0.1c-0.7-2.9,0.6-6.4,3.2-8.4  c2.3-1.8,5.6-2.6,9.2-2.1c2.4,0.3,4.5,1.1,5.9,2.3c1.5,1.2,2.3,2.9,2.7,4.6c3-3.1,7-4.6,10.7-3.7c3.7,1,6.7,4.9,7.7,8.5  c2.3-2.4,4.8-3.6,7.2-3.4c2.6,0.1,4.5,1.2,5.5,2.9c1.3,2,1.4,5.1,0.1,8.7c1.5-0.4,3.1-0.2,4.7,0.4c2,0.9,3.7,2.6,4.4,4.9  c1.2,3.6-0.1,9.4-2.7,12.2c-2.6,2.9-11.3,5.3-17.7,0.9c-3.1-2.2-4.8-5.3-5.6-7.7c-1.5,2.3-3,4.4-7.1,5.6c-3.2,1.1-6.6,0-8.2-2.3  c-1.5,3.1-5.6,6.6-8.6,6.9c-3.1,0.3-4.5-1-5.6-3.6c-0.4,0.4-0.9,0.7-1.2,1.2c-1.8,1.8-3.6,3.4-5.8,4.2  C194.7,74.7,193.7,74.8,192.7,74.8z M190.2,56.6c0.3,0,0.5,0.1,0.6,0.4c0.1,0.3-0.1,0.6-0.4,0.7c-3.9,1.2-6.4,6.3-5.1,10.3  c0.6,2,2.1,3.7,4.2,4.7c1.9,1,3.9,1.1,5.9,0.4c1.9-0.7,3.5-2.2,5.3-3.9c0.6-0.6,1.2-1.2,1.9-1.8c0.1-0.1,0.4-0.1,0.5-0.1  c0.2,0.1,0.4,0.1,0.4,0.4c1.2,2.8,2,3.9,4.8,3.6c2.9-0.3,7.3-4.5,8-7.2c0.1-0.2,0.3-0.4,0.5-0.4c0.3,0,0.5,0.1,0.6,0.4  c1,2.9,4.6,3.8,7.3,2.9c4.3-1.4,5.4-3.4,7.1-6.3c0.1-0.2,0.4-0.3,0.6-0.3c0.2,0,0.4,0.2,0.5,0.4c0.7,2.3,2.1,5.9,5.6,8.3  c5.5,3.9,13.7,1.9,16.1-0.7c2.3-2.6,3.4-7.9,2.4-11.1c-0.6-1.9-1.9-3.4-3.7-4.2c-1.6-0.7-3.4-0.7-4.9,0.1c-0.2,0.1-0.5,0.1-0.7-0.1  c-0.1-0.1-0.2-0.4-0.1-0.7c1.5-3.7,1.7-6.9,0.4-8.8c-0.9-1.4-2.4-2.1-4.6-2.3c-2.3-0.1-4.8,1.2-7,3.9c-0.1,0.2-0.4,0.3-0.7,0.2  c-0.2-0.1-0.4-0.3-0.4-0.5c-0.3-3.1-3.1-7.8-6.9-8.7c-3.5-0.9-7.6,1-10.3,4.5c-0.1,0.2-0.4,0.3-0.7,0.2c-0.2-0.1-0.4-0.3-0.4-0.6  c0.1-1.9-0.9-3.9-2.3-5.1c-1.3-1.1-3.1-1.8-5.3-2c-3.3-0.4-6.2,0.2-8.3,1.8c-2.4,1.8-3.5,5.2-2.6,7.8c0.1,0.1,0.1,0.4-0.1,0.5  c-0.1,0.1-0.2,0.2-0.4,0.3c-0.5,0.1-1.1,0.1-1.7,0.2c-2.4,0.3-4.8,0.6-6.8,1.6c-2.2,1.2-4.5,3.6-4.4,6.7c0,1.5,0.7,3,2,3.9  C188,56.7,189.1,56.9,190.2,56.6z"></path><path d="M201.3,84.6c-0.1-0.9,0.5-1.6,1.5-1.8c1-0.1,1.8,0.5,1.8,1.4c0.1,0.9-0.5,1.6-1.5,1.8C202.2,86,201.4,85.4,201.3,84.6z"></path><path d="M224.4,85.8c-0.1-0.9,0.5-1.6,1.5-1.8c1-0.1,1.8,0.5,1.8,1.4c0.1,0.9-0.5,1.6-1.5,1.8C225.3,87.3,224.5,86.5,224.4,85.8z"></path><path d="M217.6,113c-0.7,0-1.5-0.1-2.1-0.3c-0.3-0.1-0.5-0.4-0.4-0.7c0.1-0.3,0.4-0.5,0.7-0.4c2.7,0.7,5.8-0.2,7.6-2.3  c0.2-0.2,0.6-0.3,0.9-0.1c0.2,0.2,0.3,0.6,0.1,0.9C222.6,111.8,220.1,113,217.6,113z"></path><path d="M213.6,104.2c-1.1,0-2.3-0.2-3.5-0.7c-0.7-0.2-1.4-0.5-1.9-1.2c-0.7-0.7-1-2-0.7-3.2c0.1-0.9,0.5-1.7,1-2.4l0.1-0.3  c2-4,3-8.6,3-13.2c0-0.3,0.3-0.6,0.6-0.6c0.3,0,0.6,0.3,0.6,0.6c0,4.8-1.1,9.4-3.1,13.7l-0.1,0.4c-0.4,0.7-0.7,1.4-0.9,2.1  c-0.1,0.9,0,1.7,0.4,2.1c0.4,0.4,1,0.6,1.4,0.9c1.5,0.5,2.9,0.7,4,0.5c1.4-0.2,2.6-1,3.3-2c0.1-0.3,0.5-0.4,0.9-0.1  c0.3,0.1,0.4,0.5,0.1,0.9c-0.9,1.3-2.3,2.2-4.2,2.4C214.4,104.2,214,104.2,213.6,104.2z"></path><path d="M242,88.1L242,88.1c-0.4-0.1-0.6-0.4-0.6-0.7c0.2-1.9,0.4-2.9,0.5-4.8c0-0.3,0.3-0.6,0.7-0.5c0.3,0,0.6,0.3,0.5,0.7  c-0.1,1.8-0.2,2.9-0.5,4.8C242.7,87.9,242.4,88.1,242,88.1z"></path><path d="M130,180.5L130,180.5c-0.1-0.1-0.2-0.1-0.1-0.2c2-5,3.1-10.5,2.9-15.9c0-0.1,0.1-0.2,0.2-0.2c0.1,0,0.2,0.1,0.2,0.2  c0.1,5.4-0.9,11-2.9,16C130.1,180.4,130,180.5,130,180.5z"></path><path d="M137.4,170.6c-0.1,0-0.2-0.1-0.2-0.2c0.4-1.9,0.5-3.9,0.4-5.9c0-0.1,0.1-0.2,0.1-0.2c0.1,0,0.2,0.1,0.2,0.1  c0.2,2,0.1,3.9-0.4,6C137.6,170.5,137.5,170.6,137.4,170.6z"></path><path class="stFourthBlogSmall16" d="M73.1,60.5H79c0.5,0,1-0.5,1-1.2L79.9,43c0-0.8-0.8-1.3-1.3-1.3l-5.8,0.1c-0.5,0-1.1,0.5-1.1,1.2v16.3  C71.8,59.9,72.4,60.5,73.1,60.5z"></path><path class="stFourthBlogSmall16" d="M28.7,60.5h5.9c0.5,0,1-0.5,1-1.2V43c0-0.8-0.8-1.3-1.3-1.3l-5.8,0.1c-0.5,0-1.1,0.5-1.1,1.2v16.3  C27.5,59.9,28,60.5,28.7,60.5z"></path><path class="stFourthBlogSmall4" d="M25.9,51.4c-0.1-5.1-0.6-9.7-0.4-14.8c0-0.4,0.1-0.9,0.2-1.3c0.3-0.5,3.8-2.6,6.2-3.5  c1.2-3.6,4.7-11.4,5.3-12.4c0.7-0.9,1.6-1.7,2.6-1.7c8.3-0.1,16.8-0.1,25.3,0c0.9,0,1.9,0,2.7,0.6c0.8,0.6,1.3,1.5,1.8,2.4  c1.7,3.5,3.5,7.1,5.2,10.9c1.7,0.8,3.3,1.7,5,2.6c0.5,0.2,0.9,0.5,1.3,0.9c0.7,0.8,0.8,2,0.9,3.1c0.3,4.5,0.2,8.1-0.1,12.9  c0.1,2.6-5.8,2.2-8.7,2.2c-15.1,0.1-29.1,0.1-44.3,0.1c-0.7,0-1.4,0-2.1-0.3C26.3,52.7,26.1,52,25.9,51.4z"></path><path d="M28.9,54c-0.7,0-1.4,0-2.2-0.4c-0.8-0.5-1.2-1.4-1.2-2.2c-0.1-1.9-0.1-4-0.2-5.8c-0.1-3-0.3-5.9-0.2-9c0-0.4,0.1-1,0.3-1.6  c0.4-0.7,4.2-2.7,6.2-3.6c1.3-3.7,4.6-11.2,5.3-12.2c0.8-1.2,1.9-1.9,3-1.9c7.9-0.1,15.8-0.1,25.3,0c0.9,0,2,0,3,0.7  c0.9,0.7,1.4,1.8,1.9,2.7c1.7,3.5,3.4,7,5.1,10.7l4.8,2.5c0.5,0.2,1,0.6,1.4,1c0.8,0.9,0.9,2.2,0.9,3.5c0.2,4.3,0.2,7.7-0.1,12.9  c0,0.6-0.1,0.9-0.5,1.4c-1.3,1.4-5,1.4-7.7,1.3c-0.3,0-0.7,0-0.9,0L29,54C29,54,28.9,54,28.9,54z M26.4,51.4c0,0.4,0.2,1.1,0.7,1.3  C27.7,53,28.3,53,29,53l44.3-0.1c0.3,0,0.6,0,0.9,0c2.2,0,6,0.1,7-1c0.2-0.2,0.2-0.4,0.2-0.7v-0.1c0.4-5.1,0.4-8.6,0.1-12.8  c-0.1-1-0.2-2.2-0.8-2.8c-0.3-0.3-0.8-0.6-1.2-0.8l-5-2.6c-0.1-0.1-0.1-0.1-0.2-0.2c-1.8-3.8-3.5-7.4-5.2-10.9  c-0.4-0.8-0.9-1.8-1.6-2.3c-0.7-0.5-1.6-0.5-2.4-0.5c-9.5-0.1-17.4-0.1-25.3,0c-0.8,0-1.6,0.6-2.2,1.4c-0.7,0.9-4,8.5-5.3,12.2  c-0.1,0.1-0.1,0.2-0.2,0.3c-2.3,0.9-5.6,2.9-5.9,3.3c-0.1,0.3-0.1,0.7-0.2,1.1c-0.1,3,0.1,6.1,0.2,9C26.3,47.4,26.4,49.4,26.4,51.4z  "></path><path class="stFourthBlogSmall6" d="M69.6,31.9c-1.5-3.3-3.5-9.1-4.8-9.7c-0.9-0.4-12.7-0.2-19.2-0.3c-1.4,0-2.9,0.1-3.8,1.2  c-0.5,0.6-4.2,8.6-4.2,8.6L69.6,31.9z"></path><path d="M69.6,32.4l-32.1-0.2c-0.1,0-0.3-0.1-0.4-0.2c-0.1-0.1-0.1-0.3-0.1-0.4c0.7-1.4,3.8-8.2,4.3-8.7c1-1.2,2.7-1.3,4.2-1.3  c1.6,0,3.6,0,5.6,0c9.2-0.1,13.1,0,13.8,0.3c1.1,0.6,2.2,3,3.8,6.9c0.5,1.2,0.9,2.2,1.3,3.1c0.1,0.1,0.1,0.3-0.1,0.4  C70,32.4,69.9,32.4,69.6,32.4z M38.3,31.3l30.6,0.2c-0.3-0.7-0.7-1.6-1-2.5c-1-2.5-2.4-6-3.3-6.3c-0.7-0.3-8-0.2-13.4-0.2  c-2.1,0-4,0-5.6,0c-1.3,0-2.7,0.1-3.5,0.9C41.8,23.8,39.7,28.2,38.3,31.3z"></path><path d="M58,45.5c-5.2,0-10.5-0.1-15.8-0.1c-0.1,0-0.1-0.1-0.1-0.1c0-0.1,0.1-0.1,0.1-0.1c7.7,0.1,15.5,0.1,23.1,0.1  c0.1,0,0.1,0.1,0.1,0.1c0,0.1-0.1,0.1-0.1,0.1C62.9,45.5,60.4,45.5,58,45.5z"></path><path d="M58,41.1c-5.2,0-10.5-0.1-15.8-0.1c-0.1,0-0.1-0.1-0.1-0.1c0-0.1,0.1-0.1,0.1-0.1c7.7,0.1,15.4,0.1,23.1,0.1  c0.1,0,0.1,0.1,0.1,0.1c0,0.1-0.1,0.1-0.1,0.1C62.9,41.1,60.4,41.1,58,41.1z"></path><path d="M32.6,29.8c-0.1,0-0.1,0-0.1,0c-1.9-0.4-3.8-0.6-5.8-0.4c-0.2,0-0.5-0.2-0.5-0.4s0.2-0.5,0.4-0.5c2-0.1,4,0.1,6,0.4  c0.2,0.1,0.4,0.3,0.4,0.6C33,29.7,32.8,29.8,32.6,29.8z"></path><path d="M74.2,30.1c-0.2,0-0.3-0.1-0.4-0.3c-0.1-0.2,0-0.6,0.2-0.7c1.6-0.7,5.1-0.8,6.6-0.7c0.2,0.1,0.4,0.2,0.4,0.6  c-0.1,0.2-0.2,0.4-0.6,0.4C79.1,29.3,75.6,29.5,74.2,30.1C74.3,30.1,74.3,30.1,74.2,30.1z"></path><path d="M34.2,82.6c-0.2,0-0.4-0.1-0.4-0.3c-1.8-4.7-3.5-5.8-7.3-8.3c-1.2-0.7-2.4-1.6-4-2.7c-0.4-0.3-0.9-0.7-1.4-0.9  c-3.6-2.4-8.5-5.8-12.7-13.9c-5-9.6-7.7-23.3-8.4-41.8c0-0.2,0.1-0.4,0.3-0.5c9.7-2.3,23.3-6.6,33.2-14.1C33.7,0,34,0,34.2,0.1  C37,2.5,49.4,9.7,52.3,11.3c0.2,0.1,0.3,0.4,0.2,0.7c-0.1,0.2-0.4,0.3-0.7,0.2C48.9,10.5,37.1,3.6,33.8,1C23.9,8.4,10.6,12.7,0.9,15  c1.4,41.5,13.5,49.7,20.7,54.6c0.5,0.3,0.9,0.7,1.4,0.9c1.4,1.1,2.7,1.9,3.8,2.7c3.5,2.3,5.5,3.6,7.2,7.6c1.4-3.3,3.8-6.3,6.9-8.5  c0,0,0,0,0.1,0c4.3-2.5,13.4-8.9,16.2-12.7c0.1-0.2,0.4-0.2,0.7-0.1c0.2,0.1,0.2,0.4,0.1,0.7c-3,4.1-12.4,10.5-16.5,12.9  c-3.3,2.3-5.7,5.6-6.9,9.2C34.7,82.6,34.5,82.6,34.2,82.6z"></path><path class="stFourthBlogSmall17" d="M34.3,72.4c-0.1,0-0.1,0-0.1-0.1c-1.8-1.9-3.3-2.9-6.5-4.8c-0.8-0.5-1.7-1-2.7-1.7  c-6.9-4.3-11.4-10.1-14.3-18.4c-3-8.5-4-19-4.6-29.1c0-0.1,0.1-0.1,0.1-0.1c12.1-2.9,21.2-6.6,27.4-11.4c0.1-0.1,0.1-0.1,0.2,0  c1.3,1.3,4.8,3.1,6.8,4.1c0.6,0.3,1.1,0.6,1.4,0.7c0.1,0.1,0.1,0.1,0.1,0.2c-0.1,0.1-0.1,0.1-0.2,0.1c-0.3-0.1-0.7-0.4-1.3-0.7  c-2-1-5.3-2.8-6.8-4.1c-6.3,4.8-15.1,8.5-27.3,11.4C8,42.7,11.3,56.8,25.2,65.5c1,0.7,1.9,1.2,2.7,1.7c3.1,1.9,4.6,2.8,6.3,4.8  c0.7-0.8,3.3-2.6,6.3-4.7c3.5-2.4,7.5-5.1,8.6-6.4c0.1-0.1,0.1-0.1,0.2,0c0.1,0.1,0.1,0.1,0,0.2c-1.2,1.3-5.1,4.1-8.6,6.5  c-3,2.1-5.8,4-6.3,4.7C34.4,72.4,34.4,72.4,34.3,72.4z"></path><path d="M78,40.7c-2.3-0.1-4.6-0.1-6.9-0.2c-0.2,0-0.5-0.2-0.5-0.5c0-0.2,0.2-0.5,0.5-0.5c2.3,0.1,4.6,0.1,6.9,0.2  c0.2,0,0.4,0.2,0.4,0.5C78.5,40.5,78.3,40.7,78,40.7z"></path><path d="M36.1,40.7c-2.3-0.1-4.6-0.1-6.9-0.2c-0.2,0-0.5-0.2-0.5-0.5c0-0.2,0.2-0.5,0.5-0.5c2.3,0.1,4.6,0.1,6.9,0.2  c0.2,0,0.4,0.2,0.4,0.5C36.5,40.4,36.3,40.7,36.1,40.7z"></path></svg>