<svg width="95" height="18" viewBox="0 0 95 18" fill="none" xmlns="http://www.w3.org/2000/svg"><path d="M18.2456 7.01988C18.1478 6.71888 17.8876 6.49951 17.5745 6.45407L12.2638 5.68247L9.88865 0.869697C9.7486 0.585931 9.45957 0.40625 9.14316 0.40625C8.82669 0.40625 8.53766 0.585931 8.39766 0.869697L6.02273 5.68241L0.711822 6.45401C0.398682 6.49951 0.138471 6.71888 0.0407045 7.01983C-0.0570617 7.32083 0.0244655 7.65121 0.25109 7.87207L4.09407 11.6177L3.18652 16.9076C3.13303 17.2195 3.26123 17.5347 3.51722 17.7207C3.66204 17.8259 3.83358 17.8795 4.00594 17.8795C4.13824 17.8795 4.27109 17.8479 4.39274 17.784L9.1431 15.2867L13.8934 17.784C14.0158 17.8483 14.1498 17.879 14.2825 17.8795C14.7412 17.8788 15.1127 17.5069 15.1127 17.0481C15.1127 16.9843 15.1055 16.922 15.0919 16.8623L14.1922 11.6177L18.0352 7.87207C18.2619 7.65121 18.3434 7.32083 18.2456 7.01988Z" fill="#50B8E7"></path><path d="M37.424 7.01988C37.3261 6.71888 37.066 6.49951 36.7528 6.45407L31.4421 5.68247L29.067 0.869697C28.9269 0.585931 28.6379 0.40625 28.3215 0.40625C28.005 0.40625 27.716 0.585931 27.576 0.869697L25.2011 5.68241L19.8902 6.45401C19.577 6.49951 19.3168 6.71888 19.219 7.01983C19.1213 7.32083 19.2028 7.65121 19.4294 7.87207L23.2724 11.6177L22.3649 16.9076C22.3114 17.2195 22.4396 17.5347 22.6956 17.7207C22.8404 17.8259 23.0119 17.8795 23.1843 17.8795C23.3166 17.8795 23.4494 17.8479 23.5711 17.784L28.3214 15.2867L33.0718 17.784C33.1941 17.8483 33.3281 17.879 33.4609 17.8795C33.9195 17.8788 34.2911 17.5069 34.2911 17.0481C34.2911 16.9843 34.2839 16.922 34.2702 16.8623L33.3705 11.6177L37.2135 7.87207C37.4402 7.65121 37.5217 7.32083 37.424 7.01988Z" fill="#50B8E7"></path><path d="M56.6024 7.01988C56.5046 6.71888 56.2444 6.49951 55.9313 6.45407L50.6206 5.68247L48.2455 0.869697C48.1054 0.585931 47.8164 0.40625 47.5 0.40625C47.1835 0.40625 46.8945 0.585931 46.7545 0.869697L44.3795 5.68241L39.0686 6.45401C38.7555 6.49951 38.4953 6.71888 38.3975 7.01983C38.2997 7.32083 38.3813 7.65121 38.6079 7.87207L42.4509 11.6177L41.5433 16.9076C41.4898 17.2195 41.618 17.5347 41.874 17.7207C42.0189 17.8259 42.1904 17.8795 42.3628 17.8795C42.4951 17.8795 42.6279 17.8479 42.7496 17.784L47.4999 15.2867L52.2502 17.784C52.3726 17.8483 52.5066 17.879 52.6393 17.8795C53.098 17.8788 53.4695 17.5069 53.4695 17.0481C53.4695 16.9843 53.4623 16.922 53.4487 16.8623L52.549 11.6177L56.392 7.87207C56.6187 7.65121 56.7002 7.32083 56.6024 7.01988Z" fill="#50B8E7"></path><path d="M75.7808 7.01988C75.683 6.71888 75.4228 6.49951 75.1097 6.45407L69.7989 5.68247L67.4238 0.869697C67.2838 0.585931 66.9947 0.40625 66.6783 0.40625C66.3619 0.40625 66.0728 0.585931 65.9328 0.869697L63.5579 5.68241L58.247 6.45401C57.9338 6.49951 57.6736 6.71888 57.5759 7.01983C57.4781 7.32083 57.5596 7.65121 57.7862 7.87207L61.6292 11.6177L60.7217 16.9076C60.6682 17.2195 60.7964 17.5347 61.0524 17.7207C61.1972 17.8259 61.3687 17.8795 61.5411 17.8795C61.6734 17.8795 61.8062 17.8479 61.9279 17.784L66.6783 15.2867L71.4286 17.784C71.5509 17.8483 71.685 17.879 71.8177 17.8795C72.2763 17.8788 72.6479 17.5069 72.6479 17.0481C72.6479 16.9843 72.6407 16.922 72.627 16.8623L71.7274 11.6177L75.5703 7.87207C75.797 7.65121 75.8785 7.32083 75.7808 7.01988Z" fill="#50B8E7"></path><path d="M94.9592 7.01988C94.8614 6.71888 94.6013 6.49951 94.2881 6.45407L88.9774 5.68247L86.6023 0.869697C86.4622 0.585931 86.1732 0.40625 85.8568 0.40625C85.5403 0.40625 85.2513 0.585931 85.1113 0.869697L82.7364 5.68241L77.4254 6.45401C77.1123 6.49951 76.8521 6.71888 76.7543 7.01983C76.6566 7.32083 76.7381 7.65121 76.9647 7.87207L80.8077 11.6177L79.9001 16.9076C79.8467 17.2195 79.9748 17.5347 80.2308 17.7207C80.3757 17.8259 80.5472 17.8795 80.7196 17.8795C80.8519 17.8795 80.9847 17.8479 81.1064 17.784L85.8567 15.2867L90.607 17.784C90.7294 17.8483 90.8634 17.879 90.9962 17.8795C91.4548 17.8788 91.8263 17.5069 91.8263 17.0481C91.8263 16.9843 91.8191 16.922 91.8055 16.8623L90.9058 11.6177L94.7488 7.87207C94.9755 7.65121 95.057 7.32083 94.9592 7.01988Z" fill="#50B8E7"></path></svg>