<svg width="150" height="150" viewBox="0 0 150 150" fill="none" xmlns="http://www.w3.org/2000/svg">

    <g clipPath="url(#clip0_795_23031)">
    <path d="M64.5432 59.7234C59.4594 58.4195 53.7435 60.3547 50.3085 64.1153C46.8734 67.8758 45.6368 73.2422 46.7086 78.1007C47.9314 83.6455 53.5374 87.8864 57.8793 88.3943C64.9142 89.2177 70.6988 86.0062 72.485 83.9612C75.7964 80.1732 77.294 74.9303 76.0712 70.1542C74.8483 65.378 70.7675 61.3154 64.5432 59.7234Z" fill="white"/>
    <path d="M60.1191 88.8613C59.3772 88.8613 58.6077 88.8201 57.8383 88.724C53.304 88.2025 47.6156 83.8243 46.3653 78.156C45.2386 73.0504 46.6538 67.5743 50.0476 63.8549C53.6888 59.861 59.542 58.0631 64.6259 59.3532C70.6853 60.9041 75.0958 64.898 76.4149 70.031C77.624 74.766 76.2225 80.1735 72.76 84.1537C70.9189 86.281 65.9862 88.8613 60.1191 88.8613ZM61.2458 59.6689C57.3024 59.6689 53.2903 61.3707 50.5698 64.349C47.3271 67.9037 45.9806 73.1328 47.0523 78.0188C48.2339 83.3851 53.6201 87.53 57.9207 88.0241C65.148 88.8613 70.6715 85.4713 72.2242 83.7008C75.5493 79.8991 76.8958 74.7386 75.7279 70.2231C74.4775 65.3372 70.2593 61.5354 64.4473 60.0532C63.403 59.7924 62.3313 59.6689 61.2458 59.6689Z" fill="black"/>
    <g opacity="0.1294">
    <path d="M74.038 82.068C74.4777 81.217 74.8761 80.3524 75.2334 79.4603C75.3845 79.0622 75.5494 78.6642 75.6731 78.2525C74.7387 79.6112 72.3754 81.7386 71.9495 82.0817C69.5999 84.0169 69.1328 84.1404 66.797 85.0599C63.884 86.1305 61.9604 86.6794 59.1162 86.3912C58.5941 86.405 56.4919 85.9246 56.1484 85.7187C55.7911 85.5815 54.8018 85.1011 53.9087 84.5521C52.9744 83.9482 52.0813 83.2894 51.2157 82.5895C50.7073 82.164 50.2539 81.6699 49.8142 81.1484C49.1272 80.4759 48.4402 79.7759 47.8493 78.9799C47.8219 78.9387 47.8356 78.9524 47.8768 79.0211C47.4509 78.4721 46.9013 77.4427 46.5578 77.0584C46.7089 76.5369 46.5578 75.9193 46.1318 75.5762C46.1868 76.4546 46.3105 77.3192 46.4891 78.1701C46.5853 78.4035 46.6814 78.6231 46.7776 78.8564C46.8738 79.076 46.97 79.2818 47.0799 79.5014C47.341 79.9818 47.602 80.4622 47.8631 80.9425C48.6738 82.2875 49.6356 83.5228 50.6661 84.6207C51.6828 85.4717 52.782 86.2128 53.9225 86.8579C54.9118 87.3794 55.9285 87.9009 57.0277 88.0656C58.9239 88.4774 60.8612 88.5735 62.7711 88.299C63.7741 88.148 64.7772 87.9696 65.7802 87.7225C65.8351 87.6265 65.9176 87.5578 66.0412 87.5167C68.5419 86.7069 70.7678 85.1697 72.7464 83.3581C73.2136 82.9601 73.6395 82.5209 74.038 82.068Z" fill="black"/>
    </g>
    <path d="M48.9205 73.2154C48.8518 73.2154 48.7969 73.1605 48.7969 73.0919C48.9343 71.0607 49.635 69.0843 50.8304 67.3824C50.8716 67.3275 50.9403 67.3138 50.9953 67.355C51.0502 67.3962 51.064 67.4648 51.0228 67.5197C49.8549 69.1804 49.1679 71.1156 49.0305 73.1194C49.0442 73.1605 48.9892 73.2154 48.9205 73.2154Z" fill="black"/>
    <path d="M52.0948 66.3252C52.0673 66.3252 52.0535 66.3252 52.0261 66.3115C51.9711 66.2703 51.9574 66.2017 51.9986 66.1468C52.3421 65.639 52.823 65.2273 53.3726 64.939C53.4275 64.9116 53.4962 64.9253 53.5375 64.9939C53.5649 65.0488 53.5512 65.1175 53.4825 65.1586C52.9604 65.4331 52.5207 65.8174 52.1909 66.2978C52.1635 66.3115 52.136 66.3252 52.0948 66.3252Z" fill="black"/>
    <path d="M72.4302 79.1303C72.4028 79.1303 72.389 79.1303 72.3753 79.1166C72.3203 79.0891 72.3066 79.0068 72.3341 78.9519C73.1585 77.6206 73.6668 76.0972 73.8042 74.56C73.8042 74.4914 73.8729 74.4502 73.9279 74.4502C73.9966 74.4502 74.0378 74.5188 74.0378 74.5737C73.9004 76.1521 73.3783 77.703 72.5402 79.0754C72.4989 79.1166 72.4715 79.1303 72.4302 79.1303Z" fill="black"/>
    <path d="M50.8995 110.89C50.1438 110.89 49.3881 110.862 48.6187 110.78C46.1729 110.546 44.4829 109.833 43.4524 108.611C41.6524 106.443 42.4768 103.3 44.1669 101.447C45.2798 100.225 49.1408 99.1412 54.0598 97.8373C55.791 97.3844 57.2749 96.9864 57.9894 96.7119C58.2505 96.6021 58.5528 96.7394 58.6489 97.0001C58.7589 97.2609 58.6215 97.5628 58.3604 97.6589C57.591 97.9609 56.0795 98.3589 54.3208 98.8255C50.982 99.7039 45.9256 101.035 44.9226 102.133C43.4936 103.684 42.8478 106.292 44.2356 107.952C45.0737 108.968 46.5439 109.558 48.7149 109.764C53.2628 110.203 57.8795 109.146 62.3313 108.117C63.1969 107.925 64.0625 107.719 64.9144 107.541C70.1357 106.402 76.1951 105.551 81.54 107.788C81.801 107.898 81.9247 108.199 81.8148 108.46C81.7048 108.721 81.4026 108.845 81.1415 108.735C76.0577 106.607 70.1906 107.445 65.1343 108.556C64.2824 108.748 63.4168 108.941 62.5649 109.133C58.7589 109.997 54.8429 110.89 50.8995 110.89Z" fill="black"/>
    <path d="M42.8204 105.317C42.7792 105.317 42.7517 105.317 42.7105 105.304C41.7762 105.098 41.0342 104.974 40.3884 104.865C36.8022 104.233 36.7061 104.11 31.0177 97.3297C30.0559 96.1768 28.9292 94.8318 27.5826 93.2534C24.5461 89.6713 20.4103 88.4772 18.3081 89.4105C17.731 89.6713 17.0715 90.2203 17.2363 91.3457C17.2776 91.6202 17.0852 91.881 16.8104 91.9221C16.5356 91.9633 16.2745 91.7712 16.2333 91.4967C16.041 90.1516 16.6455 89.0537 17.9096 88.491C20.3966 87.3793 24.9995 88.6008 28.3796 92.6084C29.7124 94.1867 30.8528 95.5455 31.8146 96.6983C37.3656 103.327 37.3656 103.327 40.567 103.89C41.1991 104 41.9823 104.137 42.9303 104.343C43.2051 104.398 43.3838 104.672 43.3151 104.947C43.2601 105.153 43.054 105.317 42.8204 105.317Z" fill="black"/>
    <path d="M48.8798 100.321C48.7973 100.321 48.7012 100.294 48.6325 100.253C47.0936 99.3742 45.2387 98.784 43.2738 98.1664C39.8938 97.0959 36.0603 95.8881 33.1199 92.8549C32.2543 91.9628 31.636 91.1805 31.0451 90.4257C29.8223 88.8748 28.7643 87.5298 25.9063 85.773C25.6727 85.622 25.5903 85.3064 25.7414 85.0731C25.8926 84.8397 26.2086 84.7574 26.4422 84.9084C29.4513 86.7612 30.6054 88.2435 31.8421 89.7943C32.4191 90.5218 33.0237 91.2903 33.8481 92.1413C36.6099 94.9823 40.1548 96.1077 43.5761 97.192C45.5959 97.837 47.5058 98.4272 49.1408 99.3605C49.3882 99.4977 49.4706 99.8134 49.3332 100.06C49.237 100.225 49.0584 100.321 48.8798 100.321Z" fill="black"/>
    <path d="M127.555 84.0994C120.987 84.8954 115.945 82.1642 110.188 85.2797C102.397 89.4794 101.119 89.2873 97.1896 88.5187C91.034 87.3247 86.17 86.1169 80.0556 87.9697C76.8954 88.9305 72.9108 91.2362 70.0529 92.842C64.3645 96.0536 64.7354 95.532 60.9432 96.7673C56.244 95.5595 50.7892 94.036 46.4336 91.6754C40.8277 88.6285 35.208 85.0326 33.5591 84.1268C29.176 81.7387 27.9807 83.9758 26.1532 85.3483C23.8449 83.9209 18.129 83.8798 18.6374 88.0933C18.7885 89.3696 16.8787 88.7932 16.7138 91.4009C16.4252 95.7516 27.0189 105.922 35.6476 112.221C43.8093 116.009 57.3982 122.762 69.0636 125.15C74.4497 126.248 96.5575 117.944 109.982 112.784C117.841 109.765 120.74 113.731 128.627 110.382C131.457 107.816 134.027 83.3171 127.555 84.0994Z" fill="white"/>
    <path d="M70.218 125.753C69.7371 125.753 69.3249 125.712 68.9814 125.644C58.5526 123.503 46.4064 117.807 38.3684 114.032C37.3379 113.552 36.3624 113.085 35.4418 112.674C35.4143 112.66 35.3868 112.646 35.3593 112.619C27.2115 106.703 15.9033 96.1767 16.2194 91.373C16.3293 89.63 17.1812 89.0673 17.7445 88.683C18.1567 88.4085 18.1842 88.3536 18.1567 88.1614C17.9231 86.2674 18.83 85.2518 19.6407 84.744C21.4131 83.6048 24.381 83.8382 26.1397 84.744C26.3321 84.593 26.5107 84.4283 26.7031 84.2636C28.1733 82.9735 29.8496 81.505 33.8342 83.6872C34.425 84.0166 35.5242 84.6754 36.8982 85.5126C39.5088 87.0909 43.0813 89.2594 46.7087 91.2358C50.817 93.4729 55.9695 94.9689 60.9572 96.2453C61.7129 95.9982 62.2899 95.8335 62.8121 95.6826C64.7219 95.1199 65.4364 94.914 69.8333 92.4161L70.3416 92.1279C73.1171 90.5633 76.9094 88.4085 79.9322 87.4889C85.7031 85.7459 90.4434 86.6792 95.9257 87.7634C96.3791 87.8595 96.8326 87.9418 97.2997 88.0379C101.106 88.779 102.246 88.9986 109.954 84.8401C113.637 82.85 117.017 83.1656 120.603 83.495C122.788 83.7009 125.041 83.9068 127.5 83.6048C128.476 83.4813 129.836 83.797 130.826 85.9243C133.587 91.9494 131.444 108.543 128.998 110.766C128.957 110.807 128.902 110.835 128.861 110.862C124.711 112.619 121.867 112.413 119.119 112.207C116.453 112.015 113.939 111.823 110.202 113.264C94.8402 119.166 76.7995 125.753 70.218 125.753ZM35.9089 111.782C36.802 112.193 37.7776 112.646 38.7944 113.127C46.7911 116.873 58.8687 122.542 69.1737 124.655C74.7385 125.795 100.213 115.995 109.803 112.303C113.76 110.78 116.508 110.986 119.16 111.178C121.895 111.384 124.478 111.562 128.352 109.943C130.468 107.774 132.392 91.7847 129.891 86.336C129.012 84.4283 127.968 84.5656 127.624 84.6067L127.569 84.0989L127.624 84.6067C125.055 84.9224 122.746 84.7028 120.507 84.4969C116.934 84.1675 113.857 83.8793 110.435 85.7184C102.727 89.877 101.312 89.8358 97.0936 89.0124C96.6265 88.9163 96.1593 88.8339 95.7059 88.7379C90.1274 87.6399 85.7306 86.7615 80.207 88.4496C77.2941 89.328 73.5431 91.4554 70.8225 92.9925L70.3142 93.2807C65.8074 95.8335 65.0654 96.0531 63.0731 96.6296C62.5373 96.7943 61.919 96.9727 61.1083 97.2335C61.0121 97.2609 60.9159 97.2609 60.8197 97.2472C55.7359 95.9433 50.4322 94.4199 46.2003 92.1004C42.5591 90.1241 38.973 87.9418 36.3486 86.3498C34.9746 85.5126 33.8891 84.8675 33.3121 84.5518C29.9457 82.7127 28.7366 83.7833 27.3351 85.0048C27.0603 85.2518 26.7718 85.4988 26.4557 85.7322C26.2909 85.8557 26.0573 85.8694 25.8787 85.7596C24.4634 84.8812 21.6467 84.6205 20.149 85.5812C19.3384 86.1027 18.9949 86.9125 19.1323 88.0105C19.2422 88.8614 18.6789 89.232 18.2804 89.5065C17.7995 89.8358 17.2911 90.1652 17.2087 91.4142C16.9751 95.2708 26.6756 105.043 35.9089 111.782Z" fill="black"/>
    <path d="M56.2028 108.748C53.3174 108.748 51.009 108.062 49.264 105.975C47.4091 103.752 48.632 101.817 50.2259 100.074C51.3388 98.8524 55.1998 97.7681 60.1187 96.4643C61.85 96.0114 63.3339 95.6134 64.0484 95.3389C64.3095 95.2291 64.6117 95.3663 64.7079 95.6271C64.8178 95.8878 64.6804 96.1898 64.4194 96.2859C63.6499 96.5878 62.1385 96.9858 60.3798 97.4525C57.0409 98.3308 51.9846 99.6621 50.9816 100.76C49.1541 102.764 48.9068 103.958 50.0472 105.317C52.8502 108.679 57.4257 107.911 64.3369 106.744C68.5826 106.03 73.8588 105.138 79.9045 105.138C80.1793 105.138 80.4129 105.372 80.4129 105.646C80.4129 105.934 80.1793 106.154 79.9045 106.154C73.955 106.154 68.9399 107.005 64.5156 107.746C61.3553 108.281 58.5798 108.748 56.2028 108.748Z" fill="black"/>
    <path d="M101.395 80.9694C106.011 80.5165 112.881 79.8989 117.539 79.8577C119.765 79.844 123.008 80.2969 125.385 80.6812C127.473 81.0243 129.26 82.534 130.043 84.6614C131.939 89.767 134.096 100.211 131.898 116.407C131.582 118.699 130.441 122.116 128.545 123.585C126.127 125.437 106.904 125.506 102.741 123.145C103.882 117.601 105.544 110.725 103.524 93.8706C103.071 90.014 99.952 81.1067 101.395 80.9694Z" fill="#BEE8FF"/>
    <path d="M116.893 125.465C111.013 125.465 104.774 124.875 102.494 123.584C102.301 123.475 102.205 123.255 102.246 123.035L102.384 122.363C103.524 116.859 104.939 110.011 103.016 93.9254C102.851 92.5255 102.315 90.3982 101.793 88.3257C100.625 83.7142 100.185 81.6144 100.749 80.8183C100.886 80.6125 101.106 80.4889 101.339 80.4615C106.492 79.9674 112.991 79.3772 117.525 79.3498C119.806 79.3223 123.09 79.789 125.467 80.187C127.734 80.5576 129.672 82.2045 130.523 84.4965C131.897 88.1748 134.824 98.6604 132.406 116.489C132.062 119.055 130.798 122.514 128.847 123.996C127.611 124.943 122.417 125.465 116.893 125.465ZM103.318 122.857C107.907 124.943 126.044 124.847 128.229 123.173C129.864 121.924 131.059 118.781 131.389 116.338C133.766 98.7291 130.908 88.4493 129.562 84.8397C128.833 82.9045 127.198 81.5046 125.288 81.1889C122.966 80.8046 119.737 80.3517 117.525 80.3654C113.06 80.4066 106.657 80.9693 101.546 81.4634C101.298 82.2183 102.178 85.7318 102.768 88.0787C103.304 90.1786 103.84 92.3471 104.019 93.8019C105.956 110.052 104.527 116.997 103.373 122.569L103.318 122.857Z" fill="black"/>
    <path d="M113.843 85.3478C111.906 84.9635 110.01 86.2124 109.611 88.1339C109.227 90.0554 110.477 91.9356 112.428 92.3199C114.366 92.7042 116.262 91.4553 116.66 89.5338C117.045 87.5986 115.781 85.7321 113.843 85.3478Z" fill="white"/>
    <path d="M113.129 92.8828C112.868 92.8828 112.593 92.8554 112.318 92.8005C111.233 92.5809 110.312 91.9633 109.708 91.0574C109.103 90.1516 108.897 89.0811 109.117 88.0243C109.557 85.8283 111.727 84.4009 113.94 84.8401C115.025 85.0597 115.946 85.6773 116.55 86.5832C117.155 87.489 117.361 88.5595 117.141 89.6163C116.756 91.5515 115.039 92.8828 113.129 92.8828ZM113.129 85.7871C111.686 85.7871 110.408 86.789 110.106 88.2301C109.941 89.0262 110.106 89.8222 110.56 90.5084C111.013 91.1947 111.714 91.6613 112.524 91.826C114.187 92.1554 115.822 91.0849 116.152 89.4379C116.317 88.6419 116.152 87.8458 115.698 87.1596C115.245 86.4734 114.544 86.0067 113.734 85.842C113.541 85.8009 113.335 85.7871 113.129 85.7871Z" fill="black"/>
    <path d="M127.143 120.62C127.129 120.62 127.115 120.62 127.088 120.606C126.992 120.579 126.951 120.483 126.978 120.401C128.091 116.667 128.654 112.783 128.668 108.858C128.668 108.762 128.751 108.693 128.833 108.693C128.929 108.693 128.998 108.776 128.998 108.858C128.984 112.824 128.407 116.736 127.294 120.497C127.28 120.565 127.212 120.62 127.143 120.62Z" fill="black"/>
    <path d="M123.955 121.1C123.928 121.1 123.9 121.1 123.887 121.086C123.804 121.045 123.763 120.949 123.804 120.853C124.409 119.59 124.821 118.245 125.027 116.845C125.041 116.749 125.123 116.694 125.219 116.708C125.316 116.722 125.371 116.804 125.357 116.9C125.151 118.341 124.725 119.728 124.107 121.018C124.079 121.059 124.024 121.1 123.955 121.1Z" fill="black"/>
    <path d="M51.2157 107.541C51.147 107.541 51.0783 107.527 51.0096 107.499C42.9991 103.89 35.7031 99.5391 29.9048 94.955C29.5887 94.6943 29.204 94.3786 28.7781 94.0217C26.1812 91.8121 21.8118 88.1201 18.5692 89.3142C18.3081 89.4102 18.0058 89.273 17.9096 89.0122C17.8135 88.7515 17.9509 88.4495 18.2119 88.3534C22.0179 86.9673 26.6484 90.8925 29.4239 93.2394C29.8498 93.5963 30.2208 93.9119 30.5231 94.159C36.2527 98.7019 43.48 102.998 51.408 106.58C51.6691 106.69 51.779 106.992 51.6691 107.252C51.6004 107.431 51.4218 107.541 51.2157 107.541Z" fill="black"/>
    <path d="M51.2155 100.307C51.1743 100.307 51.1468 100.307 51.1056 100.293C44.7576 98.8796 38.0937 94.1035 32.7488 90.2743C30.0145 88.3116 27.6512 86.6235 25.81 85.7039C25.5627 85.5804 25.4528 85.2785 25.5764 85.0177C25.7001 84.7707 26.0024 84.6609 26.2634 84.7844C28.1733 85.7451 30.5778 87.4607 33.3396 89.4371C38.6158 93.2113 45.1836 97.9189 51.3254 99.2914C51.6002 99.3463 51.7788 99.6208 51.7101 99.8953C51.6689 100.156 51.4491 100.307 51.2155 100.307Z" fill="black"/>
    <g opacity="0.1294">
    <path d="M128.792 119.468C128.71 119.55 128.545 119.687 128.435 119.797C128.312 119.879 128.133 119.962 128.037 120.017C127.803 120.113 127.721 120.168 128.092 119.989C127.02 120.552 123.544 121.169 122.307 121.279C117.251 121.842 113.033 121.526 109.007 120.566C107.207 120.277 106.547 120.168 105.75 120.099C105.16 120.113 104.527 119.852 103.992 120.168C102.453 120.758 102.618 123.242 104.198 123.654C107.399 124.395 108.141 124.257 111.164 124.614C115.341 125.067 119.559 125.122 123.709 124.395C126.278 124.024 129.287 122.885 129.864 122.048C130.386 121.636 131.046 121.197 131.018 120.428C131.06 119.248 129.562 118.603 128.792 119.468Z" fill="black"/>
    </g>
    <g opacity="0.1294">
    <path d="M63.2787 121.69C63.2653 121.69 63.2518 121.69 63.2383 121.69C63.2653 121.676 63.2653 121.69 63.2787 121.69Z" fill="black"/>
    </g>
    <g opacity="0.1294">
    <path d="M104.225 113.373C103.689 112.385 102.439 112.398 101.601 112.947C101.587 112.947 101.573 112.961 101.559 112.961C101.559 112.961 101.546 112.961 101.532 112.975C99.6633 113.579 97.7809 114.1 95.9122 114.718C93.4253 115.596 88.5063 117.477 84.6866 118.643C83.4637 119.178 79.1631 120.688 76.5112 121.278C73.3647 122.019 71.1251 122.212 67.3603 122.253C66.2474 122.184 63.9253 121.704 63.2932 121.69C63.3894 121.704 63.3757 121.704 63.2932 121.69C63.2932 121.69 63.2932 121.69 63.2795 121.69C63.2108 121.676 63.1558 121.663 63.0871 121.663C63.1696 121.676 63.2108 121.676 63.2658 121.69C63.2108 121.676 63.1558 121.676 63.0734 121.663C62.7436 121.567 62.3864 121.621 62.0979 121.8C61.1498 122.335 61.3421 123.968 62.4001 124.229C64.0215 124.819 65.7115 125.149 67.429 125.217C69.0091 125.327 70.5892 125.341 72.1556 125.08C72.0319 125.094 71.8945 125.121 71.7709 125.135C76.2502 124.778 80.5096 123.31 84.7828 121.951C86.0469 121.704 89.7979 120.331 92.2849 119.494C95.3489 118.52 98.3992 117.518 101.395 116.365C101.642 116.255 102.37 116.049 102.384 116.008C102.411 116.008 102.425 116.008 102.453 116.008C103.772 115.953 104.939 114.814 104.225 113.373Z" fill="black"/>
    </g>
    <path d="M57.3436 68.3292C50.8171 67.2175 48.3988 80.6266 57.3436 79.5149M59.7756 68.3292V73.4485M59.7756 79.5011V73.4485M64.7083 68.3292V73.4485M64.7083 79.5011V73.4485M59.7756 73.4485H64.7083M67.2227 79.5011V73.4485M71.331 68.3292H69.1189C68.0746 68.3292 67.2365 69.1802 67.2365 70.2095V73.4485M67.2227 73.4485H69.8334" stroke="black" strokeWidth="0.5152" strokeLinecap="round"/>
    <path d="M39.6745 25.974C33.1892 24.3133 25.8932 26.77 21.5101 31.5736C17.127 36.3773 15.5606 43.2122 16.9209 49.4295C18.4735 56.5114 25.6458 61.9189 31.1694 62.564C40.1554 63.6071 47.5201 59.5308 49.8147 56.8957C54.0329 52.0646 55.9565 45.367 54.3901 39.2869C52.8375 33.1794 47.63 27.9915 39.6745 25.974Z" fill="white"/>
    <path d="M34.0411 63.1679C33.093 63.1679 32.1174 63.113 31.1281 63.0032C25.3436 62.3307 18.0751 56.7585 16.4812 49.5256C15.0522 43.0063 16.8522 36.0205 21.1803 31.2717C25.8245 26.1799 33.2991 23.8741 39.7844 25.5348C47.5201 27.5112 53.1535 32.603 54.8298 39.1634C56.3825 45.2023 54.5962 52.1195 50.1582 57.1839C47.8224 59.874 41.5294 63.1679 34.0411 63.1679ZM35.47 25.9054C30.4411 25.9054 25.3161 28.0739 21.8398 31.8756C17.7178 36.4048 16.0003 43.0887 17.3606 49.3334C18.872 56.182 25.742 61.4798 31.2243 62.1111C40.4439 63.1816 47.5064 58.8583 49.4712 56.5938C53.7169 51.7352 55.4207 45.1474 53.9505 39.383C52.3566 33.152 46.9705 28.2935 39.5508 26.3995C38.2318 26.0701 36.8578 25.9054 35.47 25.9054Z" fill="black"/>
    <g opacity="0.1294">
    <path d="M51.8068 54.48C52.3701 53.3958 52.8785 52.2841 53.332 51.1587C53.5243 50.6646 53.7304 50.143 53.8953 49.6215C52.6999 51.3508 49.6771 54.0683 49.1412 54.5075C46.1459 56.9917 45.5413 57.1426 42.5735 58.3092C38.8636 59.6817 36.4041 60.3817 32.7768 60.0111C32.1172 60.0248 29.4242 59.4072 28.9845 59.1464C28.5311 58.968 27.267 58.3641 26.1265 57.6504C24.9449 56.8819 23.7907 56.0447 22.6915 55.1525C22.032 54.6036 21.4549 53.9722 20.8916 53.3134C19.9985 52.4488 19.1328 51.5567 18.3771 50.5548C18.3359 50.4999 18.3496 50.5136 18.4183 50.6097C17.8825 49.9097 17.168 48.5921 16.7283 48.0981C16.9207 47.4255 16.7283 46.6432 16.1787 46.2178C16.2612 47.3295 16.4123 48.4412 16.6321 49.5391C16.7558 49.8274 16.8657 50.1293 16.9894 50.4175C17.113 50.692 17.2367 50.9665 17.3741 51.241C17.7039 51.8586 18.0474 52.4762 18.3771 53.0938C19.4076 54.8094 20.6305 56.3878 21.9496 57.7877C23.2549 58.8719 24.6564 59.8189 26.1128 60.6424C27.3769 61.3012 28.6685 61.9737 30.0837 62.1796C32.502 62.7149 34.9752 62.8246 37.4209 62.4815C38.6987 62.2894 39.9903 62.0561 41.2544 61.7404C41.3231 61.6169 41.433 61.5345 41.5842 61.4796C44.7719 60.4503 47.6161 58.4876 50.1442 56.1682C50.7488 55.6192 51.2984 55.0702 51.8068 54.48Z" fill="black"/>
    </g>
    <path d="M19.7517 43.1848C19.7517 43.1848 19.738 43.1848 19.7517 43.1848C19.6555 43.1848 19.6006 43.1025 19.6006 43.0201C19.7792 40.4261 20.6723 37.9008 22.1975 35.7323C22.2387 35.6637 22.3349 35.65 22.4036 35.6911C22.4723 35.7323 22.486 35.8284 22.4448 35.897C20.9471 38.0381 20.0677 40.5085 19.9029 43.0476C19.9029 43.1299 19.8342 43.1848 19.7517 43.1848Z" fill="black"/>
    <path d="M23.7904 34.4008C23.7629 34.4008 23.7354 34.3871 23.708 34.3733C23.6393 34.3322 23.6255 34.2361 23.6667 34.1675C24.1064 33.5224 24.711 32.9871 25.4255 32.6166C25.4942 32.5754 25.5904 32.6028 25.6316 32.6852C25.6728 32.7538 25.6453 32.8499 25.5629 32.8911C24.9034 33.2342 24.3263 33.7283 23.9141 34.3322C23.8866 34.3733 23.8454 34.4008 23.7904 34.4008Z" fill="black"/>
    <path d="M49.7456 50.7476C49.7182 50.7476 49.6907 50.7339 49.6632 50.7202C49.5945 50.679 49.567 50.5829 49.6082 50.5143C50.6525 48.8125 51.312 46.8636 51.4769 44.9009C51.4906 44.8186 51.5593 44.7637 51.6418 44.7637C51.7242 44.7774 51.7792 44.846 51.7792 44.9284C51.6006 46.9322 50.941 48.9223 49.8693 50.6653C49.8418 50.7202 49.8006 50.7476 49.7456 50.7476Z" fill="black"/>
    <path d="M30.4959 36.9537C22.1694 35.5264 19.0779 52.6548 30.4959 51.2274M33.5874 36.9537V43.5004M33.5874 51.2137V43.4867M39.8941 36.9537V43.5004M39.8941 51.2137V43.4867M33.5874 43.4867H39.8941M43.1093 51.2137V43.4867M48.3443 36.9537H45.5138C44.1811 36.9537 43.1093 38.038 43.1093 39.3556V43.4867M43.1093 43.4867H46.4344" stroke="black" strokeWidth="0.6576" strokeLinecap="round"/>
    </g>
    <defs>
    <clipPath id="clip0_795_23031">
    <rect width="118" height="101" fill="white" transform="translate(16 25)"/>
    </clipPath>
    </defs>
    </svg>
    
