<?xml version="1.0" encoding="utf-8"?>
<!-- Generator: Adobe Illustrator 27.0.0, SVG Export Plug-In . SVG Version: 6.00 Build 0)  -->
<svg width="188" height="284" version="1.1" id="Layer_1" xmlns="http://www.w3.org/2000/svg" xmlns:xlink="http://www.w3.org/1999/xlink" x="0px" y="0px"
	 viewBox="0 0 188 257" style="enable-background:new 0 0 188 257;" xml:space="preserve">
<style type="text/css">
	.stBlog2Icon0{fill:#BEE8FF;stroke:#000000;strokeWidth:1.5;}
	.stBlog2Icon1{fill:#FFFFFF;stroke:#000000;strokeWidth:1.5;}
	.stBlog2Icon2{fill:#020203;stroke:#000000;strokeWidth:1.5;}
	.stBlog2Icon3{fill:#FFFFFF;}
	.stBlog2Icon4{fill:#020203;}
	.stBlog2Icon5{fill:#BEE8FF;}
	.stBlog2Icon6{opacity:0.1294;}
	.stBlog2Icon7{fill:#50B8E7;}
</style>
<path class="stBlog2Icon0" d="M0.75,228.51V27.76c0-14.91,12.1-27.01,27.01-27.01h91.8c14.91,0,27.01,12.1,27.01,27.01v200.75
	c0,14.91-12.1,27.01-27.01,27.01h-91.8C12.85,255.52,0.75,243.42,0.75,228.51z"/>
<path class="stBlog2Icon1" d="M0.75,28h145.82v191.75H0.75V28z"/>
<path class="stBlog2Icon2" d="M89.38,234.39L89.38,234.39l0,0.02c0.01,0.51-0.4,0.95-0.96,0.95H61.89c-0.53,0-0.96-0.43-0.96-0.96
	s0.43-0.96,0.96-0.96h26.52C88.94,233.43,89.38,233.86,89.38,234.39z"/>
<path class="stBlog2Icon3" d="M67.62,139.74c-1.91-5.6-3.2-11.39-4.51-18.05c-2.62-0.45-5.32-0.49-7.96-0.14c-1.19,0.16-2.48,0.48-3.14,1.43
	c-0.42,0.6-0.5,1.34-0.58,2.05c-0.53,4.88-1.06,9.76-1.59,14.64c-0.04,0.38-0.08,0.77,0.05,1.12c0.19,0.51,0.69,0.85,1.18,1.12
	C56.16,144.79,63.22,144.03,67.62,139.74z"/>
<path class="stBlog2Icon4" d="M67.99,140.12c0.15-0.15,0.2-0.36,0.13-0.56c-1.87-5.48-3.15-11.15-4.49-17.98c-0.04-0.22-0.22-0.39-0.44-0.43
	c-2.69-0.46-5.42-0.51-8.12-0.14c-1.21,0.17-2.71,0.5-3.51,1.65c-0.5,0.72-0.6,1.6-0.67,2.3l-1.59,14.64
	c-0.04,0.4-0.1,0.89,0.08,1.37c0.25,0.67,0.86,1.09,1.41,1.4c2.15,1.21,4.58,1.8,7,1.8C61.53,144.18,65.27,142.79,67.99,140.12z
	 M62.65,122.16c1.3,6.57,2.55,12.09,4.35,17.43c-4.12,3.81-10.79,4.62-15.68,1.86c-0.39-0.22-0.81-0.49-0.94-0.84
	c-0.09-0.24-0.06-0.57-0.02-0.88l1.59-14.64c0.07-0.61,0.14-1.3,0.49-1.8c0.57-0.81,1.78-1.07,2.78-1.2
	c1.15-0.16,2.31-0.24,3.46-0.24C60.01,121.85,61.33,121.95,62.65,122.16z"/>
<path class="stBlog2Icon3" d="M67.21,79.19c1.45,5.33,2.65,11.06,6.06,15.54c1.86,2.44,7.64,16.41-1.85,25.08
	c-4.99,4.56-11.9,6.97-19.49,5.84c-5.15-0.76-13.38-6.42-15.61-14.53c-3,2.38-7.32,1.5-8.64-1.55c-0.76-1.75,0.25-4.78,2.34-5.55
	c1.62-0.59,1.81-0.65,3.41-0.24c-0.69-3.96-1.73-7.84-3.54-11.97c2.07-5.89,7.34-10.67,13.14-14.21c1.92-1.17,3.94-2.25,6.12-2.86
	C55.4,72.99,65.72,73.72,67.21,79.19z"/>
<path class="stBlog2Icon4" d="M71.78,120.21c9.53-8.72,4.2-22.8,1.91-25.81c-2.93-3.85-4.21-8.7-5.45-13.39c-0.17-0.66-0.35-1.31-0.52-1.96
	c-0.42-1.56-1.5-2.84-3.2-3.8c-4.12-2.34-11.07-2.27-15.51-1.02c-2.43,0.68-4.62,1.92-6.25,2.92c-4.8,2.93-11.02,7.83-13.37,14.49
	c-0.04,0.13-0.04,0.27,0.02,0.39c1.53,3.48,2.6,7.01,3.36,11.04c-1.05-0.21-1.5-0.07-2.92,0.45c-1.05,0.39-1.96,1.31-2.49,2.54
	c-0.55,1.27-0.61,2.7-0.16,3.73c0.65,1.5,2.01,2.61,3.71,3.04c1.72,0.43,3.58,0.12,5.12-0.84c2.62,8.12,10.76,13.44,15.83,14.19
	c1.28,0.19,2.56,0.28,3.82,0.28C61.68,126.47,67.3,124.31,71.78,120.21z M35.99,110.71c-1.38,1.09-3.18,1.5-4.83,1.08
	c-1.38-0.35-2.47-1.23-2.99-2.43c-0.33-0.76-0.27-1.86,0.17-2.87c0.41-0.96,1.09-1.67,1.87-1.96c1.55-0.57,1.65-0.6,3.09-0.22
	c0.18,0.04,0.36,0,0.5-0.12c0.13-0.12,0.2-0.31,0.17-0.49c-0.76-4.38-1.87-8.16-3.49-11.89c2.29-6.27,8.23-10.92,12.84-13.74
	c1.58-0.96,3.69-2.15,5.99-2.8c4.24-1.19,10.83-1.28,14.7,0.92c1.44,0.82,2.35,1.88,2.69,3.15c0.18,0.65,0.35,1.3,0.52,1.95
	c1.26,4.79,2.57,9.75,5.63,13.77c1.27,1.67,7.82,15.58-1.78,24.36c-5.18,4.73-11.95,6.76-19.05,5.71
	c-4.81-0.71-12.97-6.16-15.17-14.14c-0.05-0.17-0.18-0.31-0.35-0.37c-0.05-0.02-0.11-0.03-0.17-0.03
	C36.2,110.59,36.08,110.63,35.99,110.71z"/>
<path class="stBlog2Icon3" d="M121.18,118.25c-0.09-0.51,0.21-1.03,0.62-1.35c0.41-0.31,0.92-0.46,1.43-0.6c5.89-1.56,12.08-1.85,18.15-1.25
	c0.59,0.06,1.34,0.29,1.35,0.89c0,0.27-0.17,0.51-0.34,0.72c-1.13,1.28-2.8,1.92-4.44,2.41c-4.68,1.39-9.74,1.91-14.44,0.59
	C122.68,119.43,121.36,119.25,121.18,118.25z"/>
<path class="stBlog2Icon4" d="M49.88,109.11c4.22-1.17,6.6-5.91,5.32-10.56c-0.62-2.25-1.99-4.14-3.86-5.33c-1.89-1.21-4.06-1.56-6.11-0.99
	c-2.05,0.57-3.74,1.99-4.74,3.99c-0.99,1.99-1.2,4.32-0.58,6.57c1.09,3.95,4.47,6.58,8.04,6.58
	C48.58,109.37,49.23,109.29,49.88,109.11z M50.76,94.12c1.65,1.05,2.86,2.73,3.4,4.71c1.13,4.08-0.93,8.23-4.57,9.24
	c-3.65,1.01-7.53-1.49-8.66-5.57c-0.55-1.99-0.37-4.05,0.51-5.8c0.87-1.73,2.31-2.96,4.07-3.44c0.55-0.15,1.1-0.23,1.66-0.23
	C48.4,93.03,49.64,93.4,50.76,94.12z"/>
<path class="stBlog2Icon4" d="M70.42,101.53c2.05-0.57,3.74-1.99,4.74-3.99c0.99-1.99,1.2-4.32,0.58-6.57c-0.62-2.25-1.99-4.14-3.86-5.33
	c-1.89-1.21-4.06-1.56-6.11-0.99c-2.05,0.57-3.74,1.99-4.74,3.99c-0.99,1.99-1.2,4.32-0.58,6.57c0.62,2.25,1.99,4.14,3.86,5.33
	c1.3,0.83,2.73,1.26,4.16,1.26C69.13,101.8,69.78,101.71,70.42,101.53z M71.31,86.54c1.65,1.05,2.86,2.73,3.4,4.71
	c0.55,1.99,0.37,4.05-0.51,5.8c-0.87,1.73-2.31,2.96-4.07,3.44c-1.76,0.49-3.62,0.18-5.25-0.86c-1.65-1.05-2.86-2.73-3.4-4.71
	c-0.55-1.99-0.37-4.05,0.51-5.8c0.87-1.73,2.31-2.96,4.07-3.44c0.55-0.15,1.1-0.23,1.66-0.23C68.95,85.46,70.18,85.82,71.31,86.54z"
	/>
<path class="stBlog2Icon3" d="M139.43,104.68c-0.89-0.98-1.77-1.96-2.65-2.96c-1.52-1.73-3.01-3.48-4.49-5.26c-0.15,0.04-0.34,0.02-0.43,0.12
	c-0.93-0.78-2.39-1.12-3.71-0.88c-0.71,0.73-1.54,1.39-2.4,2.03c-0.33,0.24-0.64,0.5-1,0.7c-0.23,0.13-0.45,0.27-0.67,0.41
	c0,0-0.01,0.01-0.01,0.01c-0.06,0.06-0.13,0.1-0.21,0.13c-0.05,0.04-0.11,0.07-0.17,0.11c-0.72,0.49-1.42,1-2.15,1.49
	c-0.19,0.13-0.41,0.17-0.59,0.11c0,0,0,0.26,0,0.27c-0.19,0.63-0.56,3.39,1.17,7.21c1.67,3.69,2.32,8,2.42,11.74
	c3.5,1.1,6.16-0.12,9.83-0.77c1.38-0.25,2.79-0.5,3.92-1.04c1.07-3.96,1.89-7.96,2.47-11.99
	C140.33,105.64,139.88,105.16,139.43,104.68z"/>
<path class="stBlog2Icon5" d="M34.1,104.12c1.14-6.45,1.61-10.94,0.1-17.56c15.02,2.06,25.94-3.99,37.27-9.3c-0.58-2.07-1.83-3.91-3.43-5.43
	c-3.91-3.72-8.05-6.62-16.31-6.8c-5.79-0.12-12.96,1.2-17.92,4.19c-4.93,2.97-8.25,7.72-10.49,12.68
	c-1.78,3.95-2.39,9.44-1.41,14.21c0.83,4.08,2.92,6.47,6.21,9.6c0.73-0.91,1.41-1.8,2.59-2.06C31.9,103.42,32.84,103.68,34.1,104.12
	z"/>
<path class="stBlog2Icon4" d="M28.16,106.26c0.15-0.01,0.29-0.08,0.38-0.2l0.09-0.11c0.67-0.83,1.24-1.55,2.19-1.75
	c0.99-0.21,1.79-0.03,3.1,0.44c0.15,0.05,0.31,0.04,0.45-0.04c0.14-0.08,0.23-0.21,0.26-0.37c1.02-5.78,1.64-10.43,0.25-17.02
	c13.53,1.62,23.9-3.31,33.93-8.08c0.96-0.46,1.92-0.91,2.89-1.36c0.24-0.11,0.36-0.38,0.29-0.63c-0.57-2.03-1.8-3.99-3.58-5.68
	c-4.37-4.16-8.68-6.77-16.67-6.95c-5.2-0.11-12.71,0.95-18.2,4.27c-4.44,2.68-8.04,7.02-10.7,12.92c-1.88,4.16-2.43,9.73-1.45,14.54
	c0.9,4.41,3.31,6.98,6.36,9.88c0.1,0.09,0.23,0.15,0.37,0.15C28.14,106.26,28.15,106.26,28.16,106.26z M51.72,65.57
	c8.47,0.18,12.52,3.39,15.95,6.65c1.5,1.43,2.58,3.07,3.15,4.75c-0.82,0.39-1.65,0.78-2.47,1.17c-10.08,4.79-20.5,9.75-34.08,7.88
	c-0.17-0.02-0.35,0.04-0.47,0.17c-0.12,0.13-0.17,0.31-0.13,0.48c1.49,6.56,0.98,11.14,0.01,16.73c-1.01-0.33-1.94-0.51-3.08-0.27
	c-1.16,0.25-1.88,1-2.53,1.79c-3.21-3.1-4.9-5.31-5.63-8.92c-0.92-4.53-0.38-9.98,1.38-13.88c2.57-5.7,6.03-9.88,10.27-12.44
	c5.05-3.05,11.9-4.12,16.91-4.12C51.24,65.56,51.49,65.57,51.72,65.57z"/>
<path class="stBlog2Icon3" d="M125.6,101.63c-0.1-1.54,0.36-3.11,1.29-4.35c0.58-0.78,1.34-1.43,1.78-2.29c0.44-0.86,0.44-2.08-0.34-2.65
	c-0.49-0.36-1.16-0.37-1.76-0.24c-1.57,0.33-2.84,1.45-3.96,2.6c-0.69,0.71-1.37,1.47-1.8,2.38c-0.38,0.81-0.54,1.7-0.62,2.59
	c-0.05,0.55-0.07,1.12,0.16,1.63c0.31,0.7,1.01,1.14,1.68,1.48c0.71,0.36,1.5,0.67,2.28,0.54
	C125.1,103.17,125.65,102.43,125.6,101.63z"/>
<path class="stBlog2Icon4" d="M57.18,117.99c1.63,0,4.95-2.11,5.74-3.63c0.08-0.15,0.08-0.34,0-0.49c-0.08-0.15-0.23-0.26-0.4-0.28
	c-2.73-0.39-6.87-0.41-9.85-0.07c-0.21,0.03-0.38,0.17-0.45,0.37c-0.06,0.2-0.01,0.42,0.15,0.56c0.36,0.33,0.7,0.71,1.07,1.11
	C54.54,116.75,55.67,117.99,57.18,117.99C57.18,117.99,57.18,117.99,57.18,117.99z M61.45,114.53c-1.08,1.09-3.28,2.38-4.27,2.38
	c0,0,0,0,0,0c-1.04,0-2.01-1.06-2.95-2.09c-0.11-0.12-0.22-0.24-0.33-0.35C56.32,114.28,59.21,114.31,61.45,114.53z"/>
<path class="stBlog2Icon3" d="M37.87,201.81c-0.94-11.17-1.87-19.15-2.81-30.32c-1.35,7.58-5.43,22.47-7.12,30.56
	c16.02,0.51,26.45,1.03,40.28,2.81c-2.67,2.11-4.8,4.88-6.02,7.9c-1.22,3.02-1.62,6.3-1.95,9.54c-17.08-0.58-33.87-0.86-50.64-0.32
	c-1.87,0.06-3.87,0.1-5.47-0.87c-1.21-0.73-2.04-1.97-2.56-3.29c-1.4-3.62-0.55-7.68,0.33-11.46c2.58-11.22,7.58-32.5,12.17-43.05
	c1.98-4.55,4.36-9,7.78-12.59c7.15-7.51,17.79-10.3,28.07-12.72c0.44,2.57,3.15,4.1,5.69,4.65c2.26,0.5,4.69,0.5,6.82-0.39
	c2.14-0.89,3.94-2.76,4.97-5.83c7.88-0.71,12.86-0.69,16.33-0.19c4.59,0.67,9.04,4.02,12.12,7.38c6.4,7,9.72,12.9,16.46,21.02
	c5.79-14.68,9.14-30.32,8.84-46.68c1.44,3.32,19.93,3,21.89-2.27c-1.29,19.49-2.63,39.19-8.54,57.8c-1.9,5.99-4.33,11.94-8.41,16.72
	c-4.08,4.77-10.04,8.25-16.3,8.07s-10.27-1.9-14.31-9.66c-0.69,1.11-1.39,2.21-1.73,3.52c-0.05,8.31,0.73,18,0.85,26.15
	c-18.47,2.93-37.83,0.45-56.38-0.75C38.18,212.06,38.27,206.55,37.87,201.81z"/>
<path class="stBlog2Icon4" d="M47.57,98.78c-0.18-0.67,0.23-1.36,0.94-1.56c0.7-0.19,1.42,0.19,1.6,0.85c0.18,0.67-0.23,1.36-0.94,1.56
	C48.47,99.83,47.76,99.44,47.57,98.78z"/>
<path class="stBlog2Icon4" d="M65.74,92.45c-0.18-0.67,0.23-1.36,0.94-1.56c0.7-0.19,1.42,0.19,1.6,0.85c0.18,0.67-0.23,1.36-0.94,1.56
	C66.64,93.49,65.92,93.11,65.74,92.45z"/>
<path class="stBlog2Icon4" d="M92.42,217.4c-0.29,0-0.53-0.23-0.53-0.53c-0.01-0.3,0.23-0.54,0.52-0.55l1.49-0.03
	c-0.53-3.57-0.52-7.62-0.5-11.9c0.01-3.86,0.03-7.85-0.33-12.06c-0.02-0.29,0.19-0.55,0.49-0.58c0.3-0.02,0.55,0.2,0.58,0.49
	c0.36,4.26,0.34,8.27,0.33,12.15c-0.02,4.48-0.03,8.71,0.59,12.33c0.03,0.15-0.02,0.31-0.11,0.43c-0.1,0.12-0.25,0.19-0.4,0.19
	l-2.1,0.04C92.43,217.4,92.42,217.4,92.42,217.4z"/>
<path class="stBlog2Icon4" d="M63.61,105.58l1.38-1.32c0.16-0.16,0.5-0.48,0.49-0.95c-0.02-0.57-0.52-0.87-0.77-1.01
	c-1.91-1.13-3.21-3.09-3.48-5.24c-0.04-0.29-0.31-0.5-0.6-0.47c-0.29,0.04-0.5,0.3-0.46,0.6c0.31,2.48,1.8,4.73,3.99,6.03
	c0.04,0.02,0.14,0.08,0.21,0.13c-0.03,0.03-0.07,0.08-0.13,0.13l-1.38,1.31c-0.21,0.2-0.22,0.54-0.02,0.76
	c0.1,0.11,0.25,0.17,0.39,0.17C63.37,105.73,63.5,105.68,63.61,105.58z M64.42,103.41L64.42,103.41L64.42,103.41z"/>
<path class="stBlog2Icon3" d="M58.74,218.9c3.43,0.01,6.86,0.44,10.18,1.28c1.16,0.29,2.31,0.64,3.34,1.24c2.2,1.28,3.63,3.63,4.37,6.07
	c0.18,0.58,0.32,1.18,0.65,1.7c0.32,0.52,0.86,0.95,1.47,0.94c0.61,0,1.21-0.58,0.98-1.05c0.34,0.47,0.51,1.03,0.78,1.54
	c0.27,0.51,0.68,1,1.25,1.11c1,0.19,1.78-0.87,2.07-1.85c0.48-1.65,0.33-3.41,0.04-5.1c-0.41-2.35-1.08-4.66-2.19-6.91
	c2.01,0.75,3.3,2.77,3.93,4.84c0.63,2.06,0.75,4.25,1.24,6.34c0.19,0.79,0.67,1.75,1.48,1.67c0.63-0.07,0.99-0.75,1.17-1.35
	c0.88-2.91,0.32-6.05-0.25-9.04c1.73,1.63,2.86,3.78,4.08,5.82c0.24,0.41,0.5,0.82,0.89,1.1c0.38,0.28,0.93,0.39,1.34,0.14
	c0.48-0.29,0.59-0.95,0.59-1.52c0-3.62-2.18-6.86-4.6-9.54c-2.1-2.33-4.47-4.45-7.2-6.01c-2.73-1.55-5.83-2.52-8.89-2.48
	c-3.5-0.47-6.99-0.95-10.49-1.42c-0.62-0.08-1.28-0.16-1.83,0.12c-0.35,0.18-0.62,0.49-0.86,0.8
	C59.66,210.63,58.35,214.91,58.74,218.9z"/>
<path class="stBlog2Icon4" d="M53.68,96.33c-0.08,0-0.16-0.02-0.23-0.05c-0.27-0.13-0.38-0.45-0.25-0.72c0.86-1.76,2.71-3.09,4.69-3.39
	c1.24-0.19,2.69,0.15,3.16,1.32c0.11,0.28-0.02,0.59-0.3,0.7c-0.27,0.11-0.59-0.02-0.7-0.3c-0.24-0.6-1.19-0.78-2.01-0.66
	c-1.65,0.25-3.18,1.35-3.89,2.8C54.07,96.21,53.88,96.33,53.68,96.33z"/>
<path class="stBlog2Icon4" d="M34.49,104.05c-0.2,0-0.4-0.12-0.49-0.32c-0.12-0.27,0-0.59,0.27-0.71l5.55-2.51c0.27-0.12,0.59,0,0.71,0.27
	c0.12,0.27,0,0.59-0.27,0.71l-5.55,2.51C34.64,104.04,34.56,104.05,34.49,104.05z"/>
<path class="stBlog2Icon4" d="M78.67,230.79c-1,0-1.83-0.85-2.35-2.41l-0.09-0.26c-0.57-1.7-1.15-3.45-2.31-4.74
	c-1.13-1.25-2.84-2.2-5.07-2.8c-2.51-0.68-5.49-0.78-7.46-0.85c-0.66-0.02-1.24-0.04-1.65-0.08c-0.29-0.03-0.51-0.29-0.49-0.58
	c0.03-0.3,0.29-0.51,0.58-0.49c0.38,0.03,0.94,0.05,1.59,0.08c2.02,0.07,5.08,0.17,7.7,0.88c2.43,0.66,4.31,1.71,5.59,3.12
	c1.31,1.45,1.93,3.31,2.53,5.12l0.09,0.26c0.18,0.53,0.67,1.74,1.41,1.67c0.19-0.02,0.34-0.1,0.46-0.26c0.31-0.39,0.45-1.19,0.35-2
	c-0.33-2.58-1.2-5.14-2.5-7.38c-0.15-0.25-0.06-0.58,0.19-0.74c0.25-0.15,0.58-0.06,0.73,0.19c1.38,2.37,2.29,5.06,2.64,7.79
	c0.11,0.87,0.02,2.07-0.58,2.81c-0.31,0.39-0.72,0.61-1.2,0.66C78.78,230.79,78.72,230.79,78.67,230.79z"/>
<path class="stBlog2Icon4" d="M82.38,232.27c-0.46,0-0.92-0.18-1.25-0.44c-0.7-0.54-1.26-1.89-1.54-3.72c-0.04-0.29,0.16-0.57,0.45-0.61
	c0.29-0.04,0.57,0.16,0.61,0.45c0.29,1.93,0.84,2.81,1.13,3.02c0.25,0.19,0.64,0.3,0.88,0.14c0.26-0.17,0.36-0.6,0.43-0.99
	c0.7-4.02,0.08-8.21-1.78-12.12c-0.1-0.21-0.05-0.46,0.11-0.62c0.17-0.16,0.42-0.19,0.62-0.08c1.78,0.96,3.27,2.74,4.2,4.99
	c0.83,2.04,1.14,4.22,1.35,6.27c0.04,0.41,0.08,0.8,0.24,1.09c0.13,0.23,0.35,0.38,0.53,0.36c0.22-0.04,0.43-0.36,0.58-0.9
	c1.29-4.57,0.25-9.37-2.77-12.84c-0.19-0.22-0.17-0.56,0.05-0.76c0.22-0.2,0.56-0.17,0.76,0.05c3.26,3.74,4.38,8.92,3,13.84
	c-0.28,0.99-0.76,1.55-1.43,1.67c-0.73,0.12-1.35-0.36-1.65-0.9c-0.27-0.48-0.32-1.02-0.37-1.49c-0.2-1.99-0.5-4.08-1.28-5.99
	c-0.54-1.33-1.3-2.47-2.2-3.34c1.34,3.58,1.72,7.32,1.09,10.94c-0.11,0.63-0.3,1.32-0.91,1.71
	C82.97,232.2,82.67,232.27,82.38,232.27z"/>
<path class="stBlog2Icon4" d="M95.09,228.21c-0.05,0-0.11,0-0.16-0.01c-0.66-0.09-1.03-0.66-1.17-0.88l-0.03-0.04
	c-0.49-0.69-0.92-1.3-1.3-1.84c-1.7-2.41-2.47-3.51-3.69-4.88c-0.2-0.22-0.18-0.56,0.04-0.76c0.22-0.2,0.56-0.18,0.76,0.04
	c1.26,1.42,2.1,2.61,3.77,4.98c0.38,0.54,0.81,1.15,1.3,1.84c0.01,0.02,0.03,0.05,0.05,0.08c0.07,0.1,0.24,0.37,0.41,0.4
	c0.1,0.01,0.26-0.07,0.43-0.23c0.19-0.17,0.32-1.17,0.23-1.69c-0.87-5.01-4.33-8.8-9.24-12.96c-1.62-1.37-3.13-2.3-4.64-2.86
	c-1.64-0.6-3.42-0.82-5.15-1.04c-1.97-0.24-3.98-0.43-5.93-0.61c-1.96-0.18-3.99-0.37-5.97-0.61c-0.29-0.04-0.5-0.31-0.47-0.6
	c0.04-0.29,0.3-0.5,0.6-0.47c1.97,0.24,3.99,0.43,5.94,0.61c1.96,0.18,3.98,0.37,5.96,0.61c1.79,0.22,3.63,0.45,5.39,1.09
	c1.62,0.6,3.24,1.6,4.96,3.05c5.1,4.31,8.68,8.27,9.61,13.6c0.1,0.55,0.07,2.09-0.57,2.67C95.85,228.04,95.47,228.21,95.09,228.21z"
	/>
<path class="stBlog2Icon3" d="M60.68,203.83c-4.47-0.42-8.96-0.75-13.43-1.15c-2.17-0.19-4.34-0.46-6.51-0.61c-0.95-0.07-1.91-0.13-2.86-0.21
	c0.02,0.18,0.02,0.37,0.04,0.56c-3.11-0.13-6.4-0.24-9.97-0.36c0.34-1.61,0.77-3.5,1.26-5.54c-1.14,0-2.28-0.01-3.42-0.02
	c-7.2-0.04-14.4,0.01-21.6,0.22c-0.87,3.61-1.64,6.92-2.27,9.64c-0.87,3.78-1.73,7.84-0.33,11.46c0.51,1.32,1.35,2.56,2.56,3.29
	c1.6,0.97,3.6,0.93,5.47,0.87c16.69-0.53,33.4-0.25,50.4,0.32c-0.23-2.04-0.13-4.06,0.46-6.06c0.53-1.8,1.22-3.59,2.05-5.27
	c0.8-1.6,1.91-3.06,3.12-4.38c0.67-0.74,1.39-1.44,2.12-2.11C65.41,204.26,63.04,204.05,60.68,203.83z"/>
<path class="stBlog2Icon4" d="M60.7,222.59c0.1-0.16,0.11-0.36,0.03-0.53c-0.96-1.91-0.18-6.1,1.09-9.25l0.1-0.24
	c1.18-2.92,2.51-6.23,6.43-7.19c0.25-0.06,0.42-0.29,0.41-0.55c-0.01-0.26-0.21-0.47-0.47-0.5c-10.42-1.34-18.71-1.97-29.89-2.43
	c0.01-0.04,0.01-0.09,0-0.13c-0.47-5.59-0.94-10.46-1.41-15.17c-0.46-4.71-0.94-9.57-1.41-15.15c-0.02-0.27-0.24-0.48-0.51-0.49
	c-0.26-0.01-0.5,0.17-0.55,0.44c-0.76,4.25-2.38,10.83-3.96,17.19c-1.24,5.04-2.42,9.81-3.16,13.36c-0.03,0.15,0,0.32,0.1,0.44
	c0.1,0.12,0.25,0.2,0.4,0.2c16.1,0.52,25.79,1.03,38.11,2.54c-2.9,1.57-4.1,4.56-5.1,7.04l-0.1,0.24c-1.18,2.92-2.02,6.88-1.36,9.33
	c-20.11-0.67-35.53-0.76-49.88-0.3c-1.72,0.06-3.67,0.12-5.18-0.79c-1.26-0.76-1.96-2.07-2.33-3.03c-1.39-3.59-0.43-7.78,0.35-11.15
	c2.01-8.74,7.36-31.98,12.14-42.96c2.42-5.57,4.79-9.4,7.68-12.43c6.73-7.06,16.33-9.85,27.28-12.45c0.76,2.53,3.52,4,5.97,4.53
	c2.63,0.57,5.1,0.43,7.14-0.41c2.35-0.97,4.13-2.98,5.16-5.82c7.18-0.64,12.22-0.69,15.86-0.16c5.42,0.79,10.06,5.31,11.8,7.21
	c3.56,3.9,6.18,7.47,8.96,11.26c2.22,3.03,4.51,6.15,7.48,9.74c0.12,0.15,0.31,0.22,0.5,0.19c0.19-0.03,0.34-0.16,0.41-0.33
	c5.98-15.18,8.97-30.46,8.89-45.45c1.91,1.24,5.72,1.4,7.56,1.38c4.23-0.02,10.45-0.92,13.13-3.24c-1.24,18.6-2.66,37.76-8.39,55.81
	c-1.6,5.04-3.99,11.48-8.31,16.53c-4.35,5.09-10.55,8.83-16.14,8.67c-5.96-0.17-11.56,1.01-15.18-6.74c-0.13-0.27-0.58-0.13-0.84,0
	c-0.27,0.12-0.13,0.57,0,0.84c3.83,8.21,9.36,6.57,15.6,6.74c5.92,0.18,12.82-3.48,17.37-8.82c4.44-5.2,6.88-11.77,8.51-16.9
	c5.96-18.77,7.28-38.68,8.56-57.93c0.02-0.27-0.17-0.51-0.43-0.56c-0.26-0.05-0.53,0.11-0.61,0.37c-0.82,2.58-7.39,4.14-13.28,4.16
	c-4.79,0.03-7.3-0.97-7.6-1.89c-0.08-0.25-0.33-0.41-0.6-0.36c-0.26,0.05-0.45,0.27-0.45,0.54c0.27,15.03-2.58,30.37-8.47,45.62
	c-2.68-3.27-4.81-6.18-6.87-8.99c-2.79-3.81-5.43-7.41-9.03-11.35c-1.82-1.99-6.67-6.71-12.44-7.55c-3.78-0.55-9.01-0.49-16.46,0.18
	c-0.21,0.02-0.39,0.16-0.46,0.36c-0.91,2.71-2.52,4.61-4.66,5.5c-2.33,0.96-4.82,0.73-6.51,0.36c-2.28-0.5-4.87-1.87-5.27-4.22
	c-0.02-0.15-0.11-0.27-0.23-0.36c-0.12-0.08-0.27-0.11-0.42-0.07c-11.34,2.68-21.3,5.49-28.33,12.87
	c-2.98,3.13-5.41,7.06-7.89,12.74c-4.82,11.08-10.18,34.38-12.2,43.15c-0.81,3.51-1.81,7.88-0.3,11.78
	c0.43,1.12,1.26,2.64,2.78,3.56c1.78,1.08,3.99,1.01,5.77,0.95c14.52-0.47,30.12-0.37,50.6,0.32c0.01,0,0.01,0,0.02,0
	C60.43,222.84,60.6,222.75,60.7,222.59z M31.61,188.85c1.17-4.76,2.38-9.63,3.23-13.58c0.36,4.08,0.73,7.81,1.08,11.44
	c0.46,4.7,0.94,9.57,1.41,15.15c-2.72-0.11-5.61-0.21-8.74-0.31C29.33,198.08,30.44,193.59,31.61,188.85z"/>
<path class="stBlog2Icon4" d="M69.24,207.45c-0.03,0-0.05,0-0.08,0c-0.29-0.04-0.5-0.32-0.45-0.61c0.06-0.43-0.05-0.9-0.31-1.26
	c-0.1-0.14-0.22-0.21-0.25-0.21c-0.29,0.08-0.58-0.09-0.65-0.38c-0.08-0.29,0.09-0.58,0.38-0.66c0.48-0.14,1.02,0.1,1.39,0.62
	c0.42,0.59,0.61,1.33,0.5,2.04C69.72,207.26,69.5,207.45,69.24,207.45z"/>
<path class="stBlog2Icon4" d="M61.28,223.22c-0.65,0-1.39-0.3-1.68-1c-0.11-0.28,0.02-0.59,0.3-0.7c0.27-0.11,0.59,0.02,0.7,0.3
	c0.1,0.24,0.48,0.35,0.8,0.32c0.68-0.08,1.3-0.61,1.81-1.12c0.58-0.58,1.12-1.19,1.61-1.84c0.18-0.24,0.52-0.28,0.75-0.1
	c0.23,0.18,0.28,0.52,0.1,0.75c-0.52,0.68-1.1,1.34-1.71,1.95c-0.64,0.64-1.43,1.31-2.44,1.42
	C61.44,223.22,61.36,223.22,61.28,223.22z"/>
<path class="stBlog2Icon4" d="M121.11,118.39c-0.27,0-0.51-0.21-0.53-0.48c-0.04-0.36,0.08-0.74,0.34-1.06c0.21-0.26,0.46-0.44,0.69-0.58
	c0.78-0.49,1.94-0.81,3.57-0.97c0.29-0.03,0.56,0.19,0.59,0.48c0.03,0.3-0.19,0.56-0.48,0.59c-1.43,0.14-2.47,0.42-3.1,0.81
	c-0.15,0.09-0.32,0.21-0.42,0.35c-0.08,0.1-0.12,0.2-0.11,0.28c0.03,0.3-0.18,0.56-0.48,0.59
	C121.14,118.39,121.12,118.39,121.11,118.39z"/>
<path class="stBlog2Icon4" d="M143.02,116.38c-0.01,0-0.01,0-0.01,0c-0.29-0.01-0.53-0.25-0.52-0.55c0-0.02-0.03-0.08-0.09-0.14
	c-0.1-0.09-0.26-0.15-0.39-0.19c-0.46-0.15-0.93-0.21-1.42-0.2c-0.29,0.01-0.54-0.22-0.55-0.52c-0.01-0.3,0.22-0.54,0.52-0.56
	c0.6-0.02,1.2,0.06,1.78,0.25c0.22,0.07,0.51,0.18,0.76,0.39c0.31,0.26,0.48,0.62,0.47,0.98
	C143.54,116.15,143.31,116.38,143.02,116.38z"/>
<path class="stBlog2Icon4" d="M56.55,147.55c-3.67,0-7.31-2.13-9.06-5.38c-0.14-0.26-0.04-0.59,0.22-0.73c0.26-0.14,0.59-0.04,0.73,0.22
	c1.68,3.12,5.31,5.08,8.83,4.78c0.29-0.03,0.55,0.19,0.58,0.49c0.02,0.3-0.19,0.56-0.49,0.58
	C57.09,147.54,56.82,147.55,56.55,147.55z"/>
<path class="stBlog2Icon4" d="M47.92,148.07c-0.06,0-0.13-0.01-0.19-0.04c-1.69-0.65-3-2.23-3.33-4.01c-0.05-0.29,0.14-0.57,0.43-0.63
	c0.29-0.06,0.57,0.14,0.63,0.43c0.27,1.43,1.31,2.69,2.67,3.21c0.27,0.11,0.41,0.42,0.31,0.69
	C48.33,147.94,48.13,148.07,47.92,148.07z"/>
<path class="stBlog2Icon4" d="M109.91,169.11c-0.11,0-0.23-0.04-0.33-0.11c-0.24-0.18-0.28-0.52-0.1-0.75c1.14-1.47,2.05-2.88,2.81-5
	c0.1-0.28,0.41-0.42,0.69-0.32c0.28,0.1,0.42,0.41,0.32,0.69c-0.8,2.25-1.77,3.75-2.97,5.3
	C110.22,169.04,110.07,169.11,109.91,169.11z"/>
<path class="stBlog2Icon4" d="M21.84,203.07c-0.26,0-0.49-0.19-0.53-0.45c-0.04-0.29,0.16-0.57,0.45-0.61c2.66-0.41,4.98-0.53,8-0.43
	c0.29,0.01,0.53,0.26,0.52,0.56c-0.01,0.3-0.26,0.54-0.55,0.52c-2.95-0.1-5.21,0.02-7.8,0.42
	C21.89,203.07,21.86,203.07,21.84,203.07z"/>
<path class="stBlog2Icon4" d="M35.14,108.65c-0.21,0-0.4-0.12-0.49-0.32c-0.68-1.57-1.03-3.31-1.03-5.02c0-0.29,0.24-0.54,0.54-0.54
	c0,0,0,0,0,0c0.29,0,0.53,0.24,0.53,0.54c0,1.57,0.32,3.15,0.94,4.59c0.12,0.27-0.01,0.59-0.28,0.7
	C35.29,108.63,35.21,108.65,35.14,108.65z"/>
<g class="stBlog2Icon6">
	<path class="stBlog2Icon4" d="M66.51,80.35c-0.36-0.3-0.89-0.33-1.29-0.12c-0.15,0.06-0.88,0.43-1.05,0.52c-1.15,0.57-2.27,1.2-3.46,1.69
		c-2.29,0.89-4.53,1.94-6.91,2.58c-2.83,0.93-5.44,1.43-8.91,1.89c-3.09,0.34-5.57,0.07-8.98-0.57c-0.57-0.07-1.23-0.37-1.74-0.01
		c-0.64,0.44-0.39,1.55,0.39,1.65c3.73,0.69,7.53,1.37,11.33,0.86c2.22-0.24,4.42-0.65,6.59-1.17c1.71-0.47,3.38-1.08,5.06-1.67
		c2.52-0.94,5.07-1.83,7.49-3.03c0.4-0.18,0.78-0.4,1.16-0.61c0.22-0.14,0.46-0.27,0.57-0.51C67.1,81.39,66.95,80.7,66.51,80.35z"/>
</g>
<g class="stBlog2Icon6">
	<path class="stBlog2Icon4" d="M65.54,131.68c-0.13-0.46-0.26-0.92-0.39-1.38c-0.31-0.85-0.56-1.72-0.72-2.62c-0.23-0.83-0.45-1.66-0.68-2.48
		c-0.03-0.1-0.01-0.18,0.02-0.25c-0.02-0.06-0.04-0.12-0.07-0.18c-0.07-0.19,0-0.34,0.13-0.42c-0.58-0.41-1.32,0.15-1.94,0.43
		c-0.43,0.2-0.94,0.43-1.9,0.65c-0.78,0.21-3.25,0.32-3.97,0.48c-0.25,0.07-0.42,0.23-0.52,0.41c-0.43-0.19-0.86-0.37-1.29-0.56
		c-0.28-0.12-0.56-0.24-0.83-0.37c-0.67,0-1.32-0.02-1.99-0.08c0,0.08,0,0.16,0,0.24c0,0.1,0,0.2-0.02,0.3
		c-0.02,0.07-0.04,0.14-0.06,0.22c-0.08,0.27-0.18,0.53-0.26,0.81c0.06,0.05,0.12,0.1,0.19,0.13c2.47,1.25,5,2.38,7.43,3.72
		c1.21,0.67,2.43,1.33,3.65,1.98c0.53,0.24,1.06,0.57,1.64,0.69c-0.01,0-0.01,0-0.02,0c0.01,0,0.02,0,0.03,0.01
		c0.02,0,0.04,0.01,0.07,0.01c0.04,0.01,0.09,0.02,0.13,0.03c0.06,0.01,0.13,0.02,0.19,0.02c0.01,0,0.02,0,0.03,0c0,0-0.01,0-0.01,0
		c0.11,0,0.23-0.01,0.34-0.04c0.43-0.1,0.71-0.43,0.82-0.82c0.07-0.08,0.13-0.18,0.17-0.28C65.65,132.12,65.6,131.9,65.54,131.68z"
		/>
</g>
<g class="stBlog2Icon6">
	<path class="stBlog2Icon4" d="M116.83,194.82c-0.52,0.02-0.38,0.11-0.7,0.25c-1.69,0.87-2.64,1.01-4.56,1.3c-2.19,0.43-5.08-0.04-6.72-0.46
		c-0.11-0.04-0.94-0.3-1.1-0.41c-0.22-0.08-1.06-0.53-1.29-0.65c-0.65-0.38-1.28-0.78-1.83-1.29c-0.01-0.01-0.01-0.01-0.02-0.02
		c-1.24-1.35-2.26-2.89-3.25-4.43c-0.02-0.04-0.05-0.08-0.08-0.13c-0.23-0.35-0.33-0.8-0.66-1.08c-0.15-0.16-0.33-0.26-0.51-0.32
		c-0.11,0.17-0.23,0.34-0.34,0.51c0,0.08-0.03,0.17-0.1,0.26c-0.14,0.18-0.27,0.35-0.41,0.53c-0.7,1.15-1.34,2.33-1.93,3.55
		c0.04,0.12,0.09,0.24,0.18,0.35c0.53,0.63,1.09,1.21,1.69,1.77c1.53,2.35,3.51,4.48,6.38,4.86c1.92,0.25,3.86,0.21,5.79,0.15
		c1.16-0.07,2.28-0.45,3.41-0.68c0.85-0.15,1.7-0.32,2.56-0.42c0.51-0.11,1.08-0.1,1.54-0.35c0.4-0.21,0.56-0.68,0.48-1.11
		c0.4-0.17,0.8-0.35,1.17-0.57c0.26-0.18,0.63-0.29,0.79-0.59C117.6,195.44,117.29,194.86,116.83,194.82z"/>
</g>
<g class="stBlog2Icon6">
	<path class="stBlog2Icon4" d="M143,115.65c-0.08-0.32-0.34-0.55-0.65-0.65c-0.06-0.02-0.12-0.03-0.19-0.03c-0.16-0.53-0.89-0.73-1.28-0.31
		c-0.34,0.44-0.7,0.86-1.1,1.24c-0.1,0.1-0.21,0.2-0.31,0.3c-0.58,0.22-1.3,0.46-2.18,0.69c-0.98,0.34-1.97,0.72-3,0.88
		c-1.17,0.18-1.28,0.17-2.72,0.32c-1.25,0.17-3.58,0.82-5.39,0.85c-2.19,0.57,0.68-3.65-1.17-3.25c-0.49,0.11-1.77,0.19-2.5,0.66
		c-0.27,0.17-0.56,0.34-0.72,0.62c-0.02,0.04-0.03,0.08-0.05,0.11c-0.04,0-0.08,0-0.12,0c-0.81,0.07-1.05,1.24-0.33,1.64
		c1.92,1.01,4.06,1.58,6.23,1.64c0.74,0,1.48-0.12,2.22-0.11c0.71-0.01,1.42,0.03,2.13-0.05c1.47-0.16,2.93-0.45,4.38-0.74
		c0.03,0,0.05-0.01,0.07-0.01c-0.05,0.01-0.11,0.02-0.17,0.02c0.06-0.01,0.12-0.02,0.18-0.03c0.09-0.01,0.07-0.01,0.01,0
		c0.68-0.09,1.35-0.18,2-0.41c1.88-0.66,3.84-1.42,4.34-2.3c0.09-0.12,0.17-0.25,0.24-0.39c0,0,0,0.01,0,0.01
		C143.03,116.15,143.07,115.89,143,115.65z"/>
</g>
<g class="stBlog2Icon6">
	<path class="stBlog2Icon4" d="M135.85,100.69C135.85,100.69,135.85,100.69,135.85,100.69C136.01,100.57,136.07,100.52,135.85,100.69z"/>
</g>
<g class="stBlog2Icon6">
	<path class="stBlog2Icon4" d="M128.72,103.94c-0.06-0.01-0.13-0.02-0.16-0.02C128.61,103.92,128.66,103.93,128.72,103.94z"/>
</g>
<g class="stBlog2Icon6">
	<path class="stBlog2Icon4" d="M128.82,103.95c-0.03,0-0.07-0.01-0.1-0.01C128.79,103.95,128.85,103.96,128.82,103.95z"/>
</g>
<path class="stBlog2Icon3" d="M115.98,90.16c5.21,5.74,9.99,11.87,14.28,18.32c2.27,3.41,4.66,7.13,8.48,8.64c0.83,0.32,1.73,0.54,2.6,0.38
	c1.3-0.23,2.37-1.25,2.92-2.46c0.54-1.21,0.63-2.58,0.52-3.9c-0.08-1.02-0.28-2.05-0.77-2.94c-0.46-0.83-1.1-1.57-1.84-2.16
	c-2.18-1.72-1.35-2.55-1.79-4.37c-1.26-5.28-8.99-5.27-12.09-9.8c0.77-0.53,1.55-1.07,2.18-1.77c0.63-0.7,1.1-1.58,1.14-2.51
	c0.05-1.43-0.87-2.69-1.67-3.91c10.1-3.61,20.63-5.96,31.25-7.26c-2.33-4.55-4.21-9.31-6.08-14.06c-2.54-6.45-5.09-12.9-7.84-19
	c-6.7,6.76-14.85,11.88-22.92,16.93c-5.54,3.47-11.1,6.95-17.02,9.72c-3.16,1.48-6.7,3.02-8.12,6.22c-0.9,2.02-0.75,4.38-0.04,6.47
	c0.7,2.09,1.92,3.97,3.15,5.8c1.01,1.5,2.23,3.13,4.1,3.59C109.76,92.16,113.12,91.44,115.98,90.16z"/>
<path class="stBlog2Icon3" d="M159.53,48.62c1.63,5.37,3.75,10.59,6.31,15.58c1.6-0.27,2.86-1.6,3.48-3.1c0.62-1.5,0.71-3.16,0.74-4.78
	c0.01-0.67,0.02-1.35-0.17-1.99c-0.17-0.57-0.49-1.08-0.81-1.58c-0.8-1.22-1.68-2.42-2.88-3.26
	C164.28,48.13,161.63,47.88,159.53,48.62z"/>
<path class="stBlog2Icon5" d="M160.92,76.94c-4.52-11.42-9.04-22.85-13.57-34.46c2.5-2.35,4.48-5.29,5.75-8.52c0,0,18.28,44,18.29,43.81
	C168.05,76.62,164.45,76.26,160.92,76.94z"/>
<path class="stBlog2Icon4" d="M124.04,86.37c0.34-0.13,34.21-12.89,46.95-7.88c0.17,0.07,0.35,0.04,0.49-0.05c0.11,0.02,0.22,0.02,0.33-0.03
	c0.27-0.11,0.4-0.43,0.29-0.7l-18.54-44.52c-0.08-0.21-0.28-0.34-0.51-0.33c-0.22,0.01-0.42,0.15-0.49,0.36
	c-3.94,11.32-17.28,19.49-30.18,27.39c-2.24,1.37-4.55,2.79-6.77,4.19c-0.2,0.13-0.3,0.38-0.22,0.62c2.22,7.04,4.9,14,7.97,20.68
	c0.09,0.19,0.28,0.31,0.49,0.31C123.91,86.4,123.97,86.39,124.04,86.37z M122.94,61.52c12.58-7.71,25.58-15.66,30.15-26.69
	l17.66,42.42c-12.81-4.3-42.37,6.35-46.62,7.93c-2.91-6.37-5.46-13-7.59-19.7C118.64,64.15,120.82,62.82,122.94,61.52z"/>
<path class="stBlog2Icon4" d="M160.72,76.57c-0.21,0-0.41-0.13-0.5-0.34l-13.07-32.58c-0.11-0.28,0.02-0.59,0.3-0.7
	c0.28-0.11,0.59,0.02,0.7,0.3l13.07,32.58c0.11,0.28-0.02,0.59-0.3,0.7C160.86,76.56,160.79,76.57,160.72,76.57z"/>
<path class="stBlog2Icon4" d="M166.35,64.91c-0.17,0-0.35-0.09-0.45-0.24c-0.16-0.25-0.09-0.58,0.16-0.74c1.78-1.16,3.09-3.12,3.51-5.25
	c0.42-2.13-0.04-4.46-1.23-6.24c-0.58-0.86-1.34-1.62-2.24-2.26c-1.55-1.08-3.9-1.88-5.89-0.85c-0.26,0.14-0.58,0.03-0.72-0.23
	c-0.14-0.26-0.03-0.59,0.23-0.72c2.41-1.25,5.19-0.34,6.99,0.93c1.01,0.71,1.86,1.57,2.52,2.54c1.35,2.01,1.87,4.64,1.4,7.05
	c-0.48,2.41-1.96,4.63-3.98,5.94C166.55,64.89,166.45,64.91,166.35,64.91z"/>
<path class="stBlog2Icon4" d="M108.19,92.8c-0.9,0-1.78-0.16-2.64-0.56c-2.11-0.97-3.38-3.06-4.59-5.29c-0.98-1.81-2.09-3.85-2.56-6.12
	c-0.53-2.55-0.08-4.99,1.21-6.68c1.04-1.36,2.57-2.18,3.8-2.84c3.96-2.13,7.9-4.22,12.55-6.38c0.27-0.13,0.59-0.01,0.71,0.26
	c0.12,0.27,0.01,0.59-0.26,0.71c-4.62,2.15-8.55,4.23-12.5,6.35c-1.14,0.61-2.56,1.37-3.46,2.55c-1.11,1.45-1.47,3.56-1.01,5.81
	c0.43,2.11,1.5,4.09,2.45,5.83c1.12,2.07,2.28,3.99,4.09,4.83c2.47,1.14,5.35-0.02,8.08-1.29c1.72-0.8,3.29-1.57,4.81-2.31
	c1.52-0.74,3.1-1.51,4.83-2.31c0.27-0.12,0.59-0.01,0.71,0.26c0.12,0.27,0.01,0.59-0.26,0.71c-1.72,0.8-3.29,1.57-4.81,2.31
	c-1.52,0.74-3.1,1.51-4.82,2.31C112.54,91.88,110.33,92.8,108.19,92.8z"/>
<path class="stBlog2Icon4" d="M140.32,118.39c-2.8,0-5.23-2.25-6.25-3.36c-1.94-2.1-3.48-4.58-4.97-6.97c-0.34-0.55-0.68-1.09-1.02-1.63
	c-3.63-5.73-7.86-11.07-12.57-15.88c-0.21-0.21-0.2-0.55,0.01-0.76c0.21-0.21,0.55-0.21,0.76,0.01c4.76,4.86,9.04,10.26,12.71,16.05
	c0.35,0.54,0.69,1.09,1.03,1.64c1.46,2.35,2.97,4.78,4.84,6.81c1.07,1.15,3.85,3.74,6.7,2.82c2.56-0.83,3.66-4.31,2.92-6.87
	c-0.66-2.29-2.22-3.52-4.38-5.21c-0.41-0.32-0.83-0.65-1.27-1.01l-0.13-0.1c-3.29-2.65-6.71-6.17-10.17-10.45
	c-0.89-1.11-1.75-2.85-2.66-4.7c-0.5-1.01-1.01-2.05-1.52-2.97c-0.15-0.26-0.05-0.59,0.21-0.73c0.26-0.15,0.59-0.05,0.73,0.21
	c0.53,0.94,1.04,2,1.55,3.02c0.88,1.79,1.71,3.48,2.53,4.5c3.41,4.23,6.78,7.69,10.01,10.29l0.13,0.11c0.43,0.35,0.86,0.68,1.26,1
	c2.23,1.75,3.99,3.13,4.75,5.76c0.87,3.04-0.4,7.15-3.62,8.19C141.36,118.32,140.83,118.39,140.32,118.39z"/>
<path class="stBlog2Icon4" d="M128.67,92.4c-0.14,0-0.28-0.05-0.38-0.16c-0.21-0.21-0.2-0.55,0.01-0.76l1.88-1.84
	c0.24-0.24,0.49-0.48,0.65-0.74c0.37-0.59,0.4-1.45,0.09-2.29c-0.3-0.82-0.86-1.54-1.41-2.24c-0.18-0.23-0.14-0.57,0.09-0.75
	c0.23-0.18,0.57-0.14,0.75,0.09c0.57,0.73,1.21,1.55,1.57,2.53c0.42,1.15,0.36,2.35-0.18,3.23c-0.23,0.38-0.54,0.68-0.81,0.95
	l-1.87,1.84C128.94,92.35,128.81,92.4,128.67,92.4z"/>
<path class="stBlog2Icon4" d="M103.77,78.07c-0.19,0-0.38-0.11-0.48-0.29c-0.14-0.26-0.04-0.59,0.23-0.72c3.45-1.81,7.03-3.46,10.63-4.9
	c0.28-0.11,0.58,0.02,0.69,0.3c0.11,0.28-0.03,0.59-0.3,0.7c-3.57,1.43-7.12,3.07-10.54,4.86
	C103.94,78.05,103.86,78.07,103.77,78.07z"/>
<path class="stBlog2Icon4" d="M105.83,82.45c-0.21,0-0.4-0.12-0.49-0.32c-0.12-0.27,0-0.59,0.28-0.71c3.54-1.56,7.15-3.06,10.76-4.47
	c0.27-0.11,0.58,0.03,0.69,0.3c0.11,0.28-0.03,0.59-0.3,0.69c-3.59,1.41-7.19,2.91-10.72,4.46
	C105.97,82.43,105.9,82.45,105.83,82.45z"/>
<path class="stBlog2Icon4" d="M107.85,87.2c-0.2,0-0.39-0.11-0.48-0.3c-0.13-0.26-0.03-0.59,0.24-0.72c3.49-1.75,7.11-3.31,10.77-4.65
	c0.28-0.1,0.58,0.04,0.69,0.32c0.1,0.28-0.04,0.59-0.32,0.69c-3.62,1.32-7.2,2.87-10.66,4.6C108.02,87.19,107.93,87.2,107.85,87.2z"
	/>
<path class="stBlog2Icon4" d="M169.86,47.08c-0.14,0-0.28-0.06-0.39-0.17c-0.2-0.22-0.19-0.56,0.02-0.76c3.25-3.08,5.48-7.24,6.26-11.73
	c0.05-0.29,0.33-0.49,0.62-0.43c0.29,0.05,0.49,0.33,0.43,0.62c-0.83,4.71-3.17,9.09-6.58,12.32
	C170.12,47.03,169.99,47.08,169.86,47.08z"/>
<path class="stBlog2Icon4" d="M173.19,51.51c-0.17,0-0.35-0.09-0.45-0.24c-0.16-0.25-0.09-0.58,0.15-0.74c2.58-1.69,5.33-3.12,8.18-4.23
	c0.27-0.11,0.58,0.03,0.69,0.3c0.11,0.28-0.03,0.59-0.3,0.69c-2.78,1.09-5.47,2.48-7.98,4.13
	C173.39,51.48,173.29,51.51,173.19,51.51z"/>
<path class="stBlog2Icon4" d="M187.46,59.13c-0.08,0-0.16-0.02-0.23-0.05c-3.77-1.84-7.98-2.7-12.15-2.48c-0.3,0.01-0.55-0.21-0.56-0.51
	c-0.01-0.3,0.21-0.55,0.51-0.56c4.36-0.23,8.74,0.67,12.68,2.59c0.27,0.13,0.38,0.45,0.25,0.72
	C187.85,59.02,187.66,59.13,187.46,59.13z"/>
<path class="stBlog2Icon4" d="M155.4,74.4c-0.07,0-0.12-0.03-0.16-0.1l-3.84-7.3c-0.05-0.09-0.01-0.19,0.07-0.24
	c0.09-0.04,0.19-0.01,0.24,0.07l3.84,7.3c0.05,0.09,0.01,0.19-0.07,0.24C155.46,74.4,155.43,74.4,155.4,74.4z"/>
<path class="stBlog2Icon4" d="M152.06,75.33c-0.07,0-0.12-0.03-0.16-0.09l-1.96-3.65c-0.05-0.09-0.01-0.19,0.07-0.24
	c0.09-0.05,0.19-0.01,0.24,0.07l1.96,3.65c0.05,0.09,0.01,0.19-0.07,0.24C152.12,75.32,152.09,75.33,152.06,75.33z"/>
<path class="stBlog2Icon4" d="M148.33,76.71c-0.06,0-0.12-0.03-0.16-0.09l-1.48-2.73c-0.05-0.09-0.02-0.19,0.07-0.24
	c0.09-0.05,0.2-0.02,0.24,0.07l1.48,2.73c0.05,0.09,0.02,0.19-0.07,0.24C148.39,76.71,148.36,76.71,148.33,76.71z"/>
<path class="stBlog2Icon4" d="M144.21,77.57c-0.07,0-0.13-0.04-0.16-0.1l-1.08-2.1c-0.04-0.09-0.01-0.19,0.08-0.24
	c0.09-0.05,0.19-0.01,0.24,0.08l1.08,2.1c0.05,0.09,0.01,0.19-0.08,0.24C144.26,77.56,144.24,77.57,144.21,77.57z"/>
<g class="stBlog2Icon6">
	<path class="stBlog2Icon4" d="M170.37,57.08c-0.16-0.63-1.01-0.84-1.48-0.42c-0.28,0.23-0.31,0.62-0.46,0.93c-0.41,1.14-1.33,2.42-2.05,3.07
		c-0.83,0.81-0.63,0.34-1.38,1.11c-0.79,1.17,0.72,2.54,1.8,1.62c1.89-1.3,2.36-2.63,3.18-4.25c0.19-0.47,0.35-0.96,0.4-1.47
		C170.42,57.47,170.45,57.27,170.37,57.08z"/>
</g>
<g class="stBlog2Icon6">
	<path class="stBlog2Icon4" d="M171.32,76.76c-0.29,0.42-0.92,0.62-1.37,0.34c-0.03-0.01-0.05-0.03-0.08-0.05c-0.04-0.02-0.09-0.03-0.13-0.05
		c-1.28-0.54-1.98-0.47-3.76-0.58c-2.18-0.19-3.9-0.15-5.64-0.03c-0.01,0.02-0.02,0.04-0.03,0.07c-0.1,0.23-0.31,0.41-0.55,0.47
		c-0.38,0.12-0.4,0.03-1.2,0.11c-0.94,0.05-1.88,0.2-2.82,0.32c-2.96,0.34-5.86,1.04-8.79,1.56c-2.14,0.49-3.02,0.98-5.64,1.62
		c-4.11,0.97-6.91,1.8-10.54,2.9c-0.4,0.14-1.54,0.58-2.82,1.08c0.38-0.09,0.77-0.18,1.16-0.24c0.05-0.01,0.1-0.02,0.15-0.04
		c0,0,0,0,0.01,0c0.98-0.6,2.23,0.42,1.82,1.5c-0.21,0.63-0.97,0.99-1.6,0.75c-0.01,0-0.02-0.01-0.02-0.01
		c-1.59,0.17-1.77,0.36-3.27,0.82c0.17,0.24,0.29,0.44,0.47,0.73c-0.15,0.13-0.23,0.34-0.11,0.58c1.19,2.34,2.71,4.49,4.39,6.5
		c0.84,1,1.78,1.93,2.72,2.83c0.48,0.45,0.96,0.89,1.45,1.33c0.1,0.09,0.21,0.19,0.33,0.28c0.02,0.33-0.13,0.68-0.43,0.85
		c-0.5,0.38-1.09,0.04-1.47-0.35c-0.51-0.43-1.3-1.14-1.32-1.16c-0.47-0.41-1.02-0.9-1.55-1.38c-0.4-0.32-0.78-0.64-1.15-0.99
		c-0.06-0.06-0.11-0.12-0.17-0.17c-0.39-0.34-0.71-0.6-0.88-0.71c-0.54-0.44-0.97-0.99-1.45-1.49c-0.89-0.92-1.84-1.78-2.73-2.7
		c-0.19-0.16-0.39-0.31-0.59-0.45c-0.37-0.2-0.19-0.22-1.04-0.46c-0.19-0.03-0.47-0.04-0.57-0.04c-1.03,0.08-1.18,0.18-1.78,0.35
		c-0.75,0.26-1.49,0.56-2.19,0.95c-0.39,0.2-0.79,0.12-1.09-0.11c-0.47,0.06-0.97-0.13-1.21-0.56c-0.55-0.74,0-1.67,0.75-1.99
		c0.4-0.25,0.8-0.49,1.2-0.72c-0.28,0.13-0.55,0.26-0.83,0.38c-2.71,1.25-5.37,2.96-8.44,3.03c-1.37,0.09-2.69-0.34-4.03-0.53
		c-0.77-0.04-1.29-0.98-0.9-1.65c0.26-0.63,1-0.69,1.58-0.56c1.81,0.2,2.34,0.32,3.59,0.11c2.62-0.4,4.38-1.45,7.2-2.93
		c4.31-2.27,8.64-4.55,13.24-6.18c4.36-1.58,8.95-2.37,13.41-3.6c1.5-0.4,3-0.83,4.55-1.01c1.8-0.21,3.61-0.31,5.39-0.71
		c4.03-0.61,8.14-0.94,12.21-0.77c1.76,0.19,3.6,0.01,5.27,0.7C170.91,75.04,171.96,75.69,171.32,76.76z M125.06,85.64
		c-0.12,0.05-0.24,0.09-0.35,0.13c0.08,0.04,0.15,0.08,0.23,0.13C124.96,85.81,125,85.72,125.06,85.64z"/>
</g>
<g class="stBlog2Icon6">
	<path class="stBlog2Icon4" d="M69.7,205.88c-0.23-0.4-0.71-0.49-1.14-0.53c-0.71-0.06-1.42-0.14-2.13-0.07c-0.36,0.01-0.73,0.07-0.98,0.34
		c-0.31,0.29-0.37,0.7-0.27,1.07c-0.34,0.27-0.65,0.57-0.95,0.89c-1.53,1.68-2.62,3.73-3.42,5.84c-0.49,1.52-0.45,1.71-0.75,3.16
		c-0.39,2.02-0.51,3.83,0.05,5.15c0.83,1.38,2.31,0.68,3.28-0.14c0.15-0.11,0.3-0.23,0.44-0.34c0.54-0.38,0.95-0.94,0.59-1.61
		c-0.25-0.43-0.75-0.55-1.22-0.47c-0.42,0.03-0.9-0.03-1.21,0.31c-0.09,0.1-0.15,0.2-0.2,0.31c-0.01-0.04-0.02-0.07-0.02-0.09
		c0-0.02,0-0.04-0.01-0.06c-0.08-1.39,0.07-1.48,0.33-2.92c0.44-2.23,1.03-3.58,1.88-5.13c0.91-1.62,1.21-2.02,2.4-3.29
		c0.7-0.58,0.37-0.4,1.09-0.7c0.29-0.12,0.63-0.17,0.92-0.3c0.16-0.01,0.32-0.02,0.48-0.04c0.02,0,0.03-0.01,0.04-0.01
		C69.6,207.27,70.06,206.46,69.7,205.88z"/>
</g>
<g class="stBlog2Icon6">
	<path class="stBlog2Icon4" d="M32.32,179.83c-0.76,0-0.83,0.86-1.01,1.42c-0.33,1.15-0.6,2.32-0.94,3.47c-0.86,3.25-2.15,6.11-2.88,7.85
		c-0.27,0.76-2.05,4.31-2.99,6.01c-0.28,0.52-0.55,1.04-0.85,1.54c-0.19,0.33-0.46,0.65-0.47,1.05c-0.07,0.42,0.03,0.78,0.22,1.07
		c1.12-0.23,2.29-0.26,3.44-0.27c0.07-0.04,0.14-0.09,0.2-0.16c1.42-1.19,1.95-3.05,2.37-4.79c0.12-0.47,0.21-0.94,0.3-1.41
		c0.08-0.28,0.12-0.59-0.04-0.85c-0.07-0.13-0.19-0.23-0.31-0.3c0.8-2.34,1.56-4.69,2.33-7.04c0.52-1.71,0.81-3.49,1.14-5.24
		c0.08-0.55,0.29-1.11,0.27-1.67C33.07,180.13,32.69,179.83,32.32,179.83z"/>
</g>
<g class="stBlog2Icon6">
	<path class="stBlog2Icon4" d="M72.33,221.7c-1.22-0.48-2.73-1.53-4.81-1.71c0.07,0.01,0.13,0.02,0.17,0.02c-0.17-0.02-0.48-0.05-0.64-0.03
		c-0.54,0.01-1.09,0.11-1.54,0.43c-0.92,0.72-1.96,2.02-2.24,2.06c-0.01,0.01-0.01,0.01-0.02,0.02c-0.13,0.08-0.26,0.15-0.4,0.22
		c-0.28,0.1-0.56,0.18-0.85,0.23c-1.45,0.09-2.9-0.15-4.34-0.27c-1.51-0.16-3.04-0.17-4.56-0.27c-1.71-0.11-3.42-0.3-5.12-0.45
		c-3.06-0.36-6.15-0.25-9.22-0.4c-2.44-0.18-4.88-0.04-7.31-0.08c-4.19-0.02-8.53,0.18-12.72,0.43c-2.81,0.24-8.89,0.48-11.32-0.3
		c-0.66-0.12-1.34-0.65-1.99-0.31c-0.67,0.37-0.55,1.49,0.22,1.67c1.91,0.68,3.88,1.18,5.92,1.34c1.57,0.24,4.99,0.31,7.52,0.14
		c2.37-0.18,4.75-0.14,7.12-0.27c2.55-0.2,5.1-0.07,7.64,0.03c1.53,0.03,3.06-0.02,4.58,0.06c2.15,0.11,4.31,0.05,6.46,0.12
		c2.97,0.19,5.93,0.52,8.9,0.67c1.44,0.06,2.88,0.08,4.3,0.25c1.92,0.21,3.95,0.34,5.78-0.4c1.22-0.41,2-1.47,2.86-2.37
		c0.03,0,0.06,0,0.09,0c0.8,0.17,0.52,0.03,1.78,0.4c2.65,0.73,4.24,1.61,6.07,3.31c0.66,0.72,0.4,0.37,0.78,1.02
		c0.12,0.25,0.22,0.53,0.47,0.68c0.73,0.65,1.98,0.01,1.94-0.95C77.55,224.81,74.2,222.66,72.33,221.7z"/>
</g>
<path class="stBlog2Icon3" d="M141.53,105.22c0.39-0.68,0.42-0.03,0.64-0.79c0.22-0.76,0.25-1.59-0.05-2.32c-0.31-0.72-1.01-1.31-1.79-1.33
	c-0.96-0.03-1.75,0.71-2.41,1.43c-1.11,1.21-2.17,2.49-2.97,3.93c-0.3,0.54-0.54,1.26-0.12,1.71c0.22,0.24,0.56,0.32,0.89,0.33
	c0.93,0.04,1.88-0.35,2.5-1.05c0.27-0.3,0.48-0.66,0.77-0.94c0.29-0.29,0.75-0.65,0.88-1.03
	C140.27,104.06,140.26,103.31,141.53,105.22z"/>
<path class="stBlog2Icon3" d="M139.2,102.09c0.39-0.68,0.78-1.38,1-2.13c0.22-0.76,0.26-1.59-0.05-2.32c-0.31-0.72-1.01-1.31-1.79-1.33
	c-0.96-0.03-1.76,0.71-2.41,1.43c-1.11,1.21-2.17,2.49-2.97,3.93c-0.3,0.53-0.54,1.26-0.12,1.71c0.22,0.24,0.56,0.32,0.89,0.33
	c0.93,0.04,1.79,0.33,2.41-0.37C136.42,103.04,139.1,100.61,139.2,102.09z"/>
<path class="stBlog2Icon3" d="M137.05,98.39c0.39-0.68,0.78-1.38,1-2.13c0.22-0.76,0.25-1.59-0.05-2.32c-0.31-0.72-1.01-1.31-1.79-1.33
	c-0.96-0.03-1.76,0.71-2.41,1.43c-1.11,1.21-2.17,2.49-2.97,3.93c-0.3,0.54-0.54,1.26-0.12,1.71c0.22,0.24,0.56,1.09,0.89,1.11
	c0.93,0.04,1.88-1.13,2.5-1.83C134.36,98.65,136.96,96.91,137.05,98.39z"/>
<path class="stBlog2Icon3" d="M136.21,92.61c0.79,0,0.02-2.86-0.29-3.59c-0.31-0.72-1.01-1.31-1.79-1.33c-0.96-0.03-1.76,0.71-2.41,1.43
	c-1.11,1.21-2.17,2.49-2.97,3.93c-0.3,0.54-0.54,1.26-0.12,1.71c0.22,0.24-0.39,3.33-0.07,3.35c0.93,0.04,2.08-0.34,2.7-1.04
	C131.52,96.76,134.12,92.61,136.21,92.61z"/>
<path class="stBlog2Icon3" d="M126.46,95.99c1.26-1.59,4.16-5.05,2.5-5.97c-0.84-0.47-2.86,0.54-3.5,1.25c-1.11,1.21-3.38,2.35-4.17,3.79
	c-0.3,0.54-1.44,3.61-1.03,4.06c0.22,0.24,0.02,3.13,0.34,3.15c0.93,0.04,4.76,1.11,5.38,0.41
	C126.24,102.37,123.82,99.33,126.46,95.99z"/>
<path class="stBlog2Icon4" d="M135.72,109.11c-0.12,0-0.23-0.01-0.35-0.03c-0.88-0.17-1.22-0.66-1.36-1.05c-0.59-1.71,1.9-4.78,2.68-5.68
	c0.87-1.01,1.92-2.1,3.37-2.28c1.25-0.15,2.43,0.7,2.81,2.03c0.36,1.28-0.26,2.54-0.76,3.56l-0.03,0.06
	c-0.13,0.27-0.45,0.38-0.72,0.25c-0.27-0.13-0.38-0.45-0.24-0.72l0.03-0.06c0.44-0.9,0.94-1.92,0.69-2.79
	c-0.19-0.68-0.84-1.35-1.65-1.25c-1.07,0.13-1.91,1.01-2.69,1.91c-1.45,1.67-2.76,3.8-2.47,4.62c0.02,0.07,0.09,0.26,0.54,0.35
	c1.29,0.24,3.14-2.55,3.93-3.74c0.1-0.14,0.18-0.27,0.26-0.39c0.17-0.24,0.5-0.31,0.74-0.14c0.24,0.17,0.31,0.5,0.14,0.75
	c-0.08,0.11-0.16,0.24-0.26,0.38C139.39,106.38,137.59,109.11,135.72,109.11z"/>
<path class="stBlog2Icon4" d="M130.99,103.21c-0.35,0-0.66-0.12-0.88-0.34c-0.6-0.61-0.85-2.76,0.09-4.89c0.97-2.2,2.9-4.88,4.84-5.59
	c1.48-0.54,2.42-0.15,2.93,0.26c0.92,0.73,1.33,2.21,1.12,3.95c-0.04,0.29-0.3,0.5-0.6,0.47c-0.29-0.04-0.5-0.3-0.47-0.6
	c0.17-1.35-0.11-2.49-0.72-2.98c-0.45-0.36-1.08-0.39-1.9-0.09c-1.57,0.57-3.31,2.96-4.22,5.01c-0.86,1.94-0.48,3.49-0.31,3.71
	c0.03,0.03,0.12,0.03,0.24,0.01c0.51-0.1,1.16-0.63,1.31-0.98c0.12-0.27,0.43-0.4,0.7-0.28c0.27,0.12,0.4,0.43,0.28,0.71
	c-0.3,0.71-1.26,1.45-2.09,1.61C131.2,103.2,131.09,103.21,130.99,103.21z"/>
<path class="stBlog2Icon4" d="M133.56,107.25c-0.47,0-0.96-0.13-1.31-0.48c-0.39-0.4-0.61-0.97-0.65-1.75c-0.07-1.21,0.22-2.52,0.88-4.02
	c0.88-1.98,2.23-3.56,3.9-4.55c0.8-0.48,2.48-0.78,3.71,0.04c0.75,0.5,1.58,1.59,1.26,3.95c-0.04,0.29-0.31,0.5-0.6,0.46
	c-0.29-0.04-0.5-0.31-0.46-0.61c0.14-0.99,0.11-2.31-0.79-2.9c-0.8-0.53-2.01-0.35-2.57-0.02c-1.48,0.88-2.68,2.29-3.46,4.07
	c-0.59,1.34-0.85,2.49-0.8,3.53c0.03,0.5,0.14,0.85,0.34,1.05c0.31,0.31,1.15,0.11,1.34-0.02c0.22-0.2,0.55-0.17,0.75,0.05
	c0.19,0.22,0.17,0.57-0.05,0.76C134.8,107.03,134.19,107.25,133.56,107.25z"/>
<path class="stBlog2Icon4" d="M125.45,120.1c-0.01,0-0.02,0-0.02,0c-0.29-0.01-0.53-0.26-0.51-0.56c0.18-4.4-1.21-7.26-2.55-10.02
	c-0.75-1.56-1.47-3.02-1.92-4.73l-0.12-0.48c-0.67-2.53-1.43-5.4-0.38-7.97c0.69-1.68,2.05-2.96,3.38-4.12l0.18-0.16
	c0.8-0.7,1.9-1.66,2.83-2.16c1.23-0.66,2.16-0.81,2.76-0.45c0.27,0.17,0.6,0.51,0.6,1.21c0,2.3-0.61,3-1.71,4.28
	c-0.24,0.27-0.5,0.58-0.79,0.94c-1.53,1.9-1.7,4.97-0.39,7.3c0.14,0.26,0.05,0.58-0.21,0.73c-0.26,0.14-0.58,0.05-0.73-0.21
	c-1.51-2.7-1.3-6.27,0.49-8.5c0.3-0.37,0.57-0.69,0.82-0.97c1.06-1.23,1.45-1.68,1.45-3.58c0-0.07-0.01-0.25-0.08-0.29
	c-0.13-0.08-0.66-0.09-1.71,0.47c-0.83,0.44-1.87,1.35-2.63,2.02l-0.18,0.16c-1.29,1.12-2.49,2.25-3.09,3.72
	c-0.91,2.24-0.23,4.81,0.42,7.29l0.13,0.48c0.42,1.6,1.11,3.03,1.85,4.53c1.4,2.88,2.85,5.87,2.66,10.54
	C125.97,119.87,125.74,120.1,125.45,120.1z"/>
<path class="stBlog2Icon4" d="M129.33,99.66c-0.4,0-0.73-0.13-0.89-0.2c-1.37-0.65-1.32-2.5-0.85-3.88l0.15-0.45
	c0.56-1.67,1.13-3.41,2.12-4.92c0.99-1.51,3.31-3.64,5.3-2.89c1.93,0.72,1.79,2.93,1.69,4.39c-0.02,0.36-0.04,0.7-0.03,0.93
	c0.02,0.3-0.21,0.55-0.5,0.57c-0.3,0.02-0.55-0.21-0.57-0.5c-0.02-0.3,0.01-0.66,0.03-1.07c0.1-1.57,0.1-2.9-1-3.31
	c-1.26-0.47-3.15,1.13-4.03,2.48c-0.92,1.4-1.47,3.06-2,4.67l-0.15,0.45c-0.24,0.73-0.49,2.2,0.29,2.57c0.11,0.05,0.4,0.16,0.7,0.05
	c0.27-0.1,0.5-0.36,0.69-0.78c0.12-0.27,0.44-0.39,0.71-0.26c0.27,0.12,0.39,0.44,0.26,0.71c-0.31,0.68-0.75,1.13-1.3,1.33
	C129.74,99.62,129.53,99.66,129.33,99.66z"/>
<g>
	<path class="stBlog2Icon7" d="M72.86,180.96c0.01,1.01,0.07,2.02,0.17,3.02c0.04,0.42,0.02,0.44-0.33,0.47c-0.41,0.04-0.83,0.06-1.25,0.11
		c-0.23,0.03-0.37-0.04-0.38-0.34c0-0.01,0-0.02-0.01-0.03c-0.08-0.44-0.07-0.42-0.36-0.14c-0.42,0.44-0.92,0.73-1.46,0.87
		c-0.55,0.14-1.11,0.1-1.64-0.1c-0.31-0.12-0.58-0.33-0.79-0.63c-0.21-0.29-0.35-0.65-0.39-1.04c-0.1-0.5-0.11-1.02-0.04-1.53
		c0.15-1.13,0.8-1.72,1.64-2.06c0.76-0.26,1.52-0.46,2.28-0.6c0.38-0.09,0.38-0.1,0.29-0.56c-0.03-0.18-0.1-0.34-0.2-0.46
		c-0.11-0.13-0.24-0.21-0.39-0.24c-0.28-0.07-0.58-0.03-0.85,0.11c-0.12,0.06-0.22,0.16-0.29,0.29c-0.07,0.13-0.11,0.28-0.11,0.44
		c-0.02,0.25-0.12,0.33-0.32,0.33c-0.51,0.01-1.03,0.02-1.55,0.06c-0.25,0.02-0.32-0.1-0.33-0.38c-0.02-0.59,0.13-1.17,0.41-1.64
		c0.29-0.47,0.7-0.82,1.17-0.98c1.03-0.41,2.12-0.42,3.13-0.04c0.43,0.15,0.82,0.47,1.09,0.91c0.27,0.44,0.42,0.97,0.42,1.51
		c0.03,0.42,0.05,0.83,0.07,1.25C72.84,179.95,72.84,180.36,72.86,180.96z M70.7,181.3L70.7,181.3c-0.01-0.2-0.01-0.4-0.02-0.61
		c0-0.13-0.06-0.21-0.17-0.18c-0.47,0.08-0.93,0.21-1.39,0.38c-0.18,0.08-0.33,0.23-0.42,0.44c-0.09,0.2-0.12,0.44-0.07,0.66
		c0.01,0.2,0.08,0.38,0.2,0.52c0.12,0.14,0.27,0.21,0.44,0.22c0.31,0.04,0.63-0.03,0.91-0.21c0.36-0.2,0.63-0.49,0.52-1.03
		C70.7,181.42,70.69,181.36,70.7,181.3z"/>
	<path class="stBlog2Icon7" d="M75.89,176.76c0.28-0.46,0.65-0.8,1.07-1.01c0.42-0.21,0.87-0.26,1.3-0.17c0.37,0.04,0.72,0.23,1.01,0.55
		c0.28,0.32,0.47,0.74,0.55,1.21c0.07,0.33,0.12,0.68,0.13,1.03c0.04,1.68,0.07,3.37,0.11,5.05c0.01,0.39,0,0.41-0.31,0.44
		c-0.42,0.04-0.85,0.07-1.28,0.11c-0.29,0.02-0.31,0-0.32-0.38c-0.03-1.58-0.07-3.16-0.1-4.74c0.01-0.24-0.03-0.48-0.12-0.69
		c-0.06-0.12-0.13-0.22-0.23-0.29c-0.09-0.07-0.2-0.12-0.31-0.12c-0.29-0.04-0.59,0.04-0.84,0.23c-0.14,0.09-0.26,0.23-0.34,0.41
		c-0.08,0.18-0.11,0.38-0.1,0.58c0.06,1.59,0.08,3.19,0.12,4.79c0.01,0.39,0,0.4-0.31,0.43c-0.46,0.04-0.93,0.07-1.39,0.12
		c-0.23,0.03-0.3-0.07-0.31-0.35c-0.03-1.73-0.06-3.46-0.12-5.19c-0.03-0.88-0.11-1.75-0.17-2.62c-0.02-0.23,0.03-0.33,0.22-0.33
		c0.46,0,0.92-0.01,1.38-0.02c0.03-0.01,0.06-0.01,0.09,0.01c0.03,0.01,0.06,0.03,0.08,0.05c0.02,0.02,0.04,0.06,0.06,0.09
		c0.01,0.03,0.02,0.07,0.02,0.11C75.8,176.26,75.84,176.48,75.89,176.76z"/>
	<path class="stBlog2Icon7" d="M57.66,181.81c-0.02-0.86-0.05-1.73-0.07-2.59c-0.02-0.93-0.14-1.86-0.2-2.79c-0.02-0.33,0.08-0.44,0.37-0.43
		c0.56,0.01,1.12,0,1.67-0.02c0.04-0.01,0.09-0.01,0.13,0c0.04,0.01,0.08,0.03,0.12,0.06c0.04,0.03,0.06,0.07,0.09,0.11
		c0.02,0.04,0.03,0.09,0.03,0.14c0.04,0.22,0,0.57,0.17,0.64c0.19,0.08,0.3-0.25,0.45-0.4c0.99-0.98,2.69-1.14,3.71-0.33
		c0.3,0.25,0.55,0.57,0.72,0.95c0.17,0.37,0.26,0.79,0.27,1.22c0.09,2.14,0.12,4.28,0.18,6.41c0.01,0.2-0.07,0.29-0.24,0.31
		c-0.63,0.05-1.26,0.1-1.89,0.16c-0.25,0.02-0.27-0.14-0.28-0.36c-0.03-1.39-0.07-2.78-0.1-4.17c-0.01-0.4-0.02-0.8-0.03-1.2
		c-0.03-1.11-0.61-1.58-1.56-1.27c-0.29,0.05-0.55,0.23-0.73,0.5c-0.18,0.27-0.25,0.61-0.21,0.93c0.05,1.77,0.09,3.54,0.14,5.31
		c0.01,0.46-0.01,0.49-0.42,0.52c-0.6,0.05-1.2,0.1-1.8,0.15c-0.38,0.03-0.41,0-0.42-0.4C57.72,184.12,57.69,182.97,57.66,181.81z"
		/>
	<path class="stBlog2Icon7" d="M86.22,178.79c0.03,0.99,0.03,2.18,0.11,3.35c0.02,0.29,0.03,0.58,0.06,0.87c0.01,0.19-0.04,0.28-0.18,0.29
		c-0.37,0.03-0.74,0.06-1.12,0.09c-0.03,0.01-0.05,0.01-0.08,0c-0.03-0.01-0.05-0.03-0.07-0.05c-0.02-0.02-0.04-0.05-0.05-0.09
		c-0.01-0.03-0.02-0.07-0.02-0.11c-0.02-0.19-0.07-0.38-0.1-0.56c-0.15,0.06-0.21,0.26-0.32,0.39c-0.65,0.78-1.81,1.04-2.5,0.52
		c-0.27-0.21-0.49-0.51-0.64-0.88c-0.15-0.37-0.23-0.79-0.22-1.21c-0.06-1.8-0.08-3.6-0.13-5.39c0-0.22,0.05-0.3,0.22-0.3
		c0.44,0,0.88,0,1.32-0.02c0.19-0.01,0.25,0.09,0.25,0.33c0.02,1.44,0.06,2.88,0.09,4.32c0,0.05,0,0.11,0,0.16
		c0.02,0.65,0.18,1,0.51,1.1c0.22,0.05,0.45,0.02,0.66-0.1c0.21-0.11,0.39-0.3,0.52-0.54c0.04-0.12,0.05-0.24,0.03-0.37
		c-0.03-1.51-0.06-3.02-0.09-4.53c-0.01-0.4-0.01-0.4,0.29-0.41c0.39,0,0.78-0.01,1.16-0.01c0.23,0,0.24,0.01,0.25,0.35
		C86.18,176.87,86.19,177.73,86.22,178.79z"/>
	<path class="stBlog2Icon7" d="M49.39,182.61c0.03,1.12,0.05,2.24,0.1,3.35c0.01,0.34-0.11,0.47-0.43,0.49c-0.72,0.05-1.45,0.12-2.19,0.18
		c-0.44,0.04-0.48,0-0.49-0.44c-0.07-2.22-0.13-4.45-0.19-6.68c-0.02-0.58-0.02-0.58-0.6-0.56c-1.15,0.02-1.01,0.18-1.05-0.99
		c-0.02-0.44-0.01-0.89-0.04-1.33c-0.03-0.34,0.08-0.51,0.45-0.48c0.22,0.02,0.44,0,0.66-0.01c0.49,0,0.5-0.01,0.48-0.53
		c-0.01-0.61-0.03-1.22,0-1.83c-0.02-0.79,0.24-1.54,0.74-2.12c0.5-0.57,1.18-0.92,1.93-0.99c0.75-0.13,1.51-0.1,2.25,0.08
		c0.27,0.07,0.41,0.19,0.41,0.51c-0.01,0.58,0.01,1.15,0.05,1.73c0.02,0.34-0.09,0.43-0.41,0.36c-0.31-0.06-0.64-0.07-0.95-0.02
		c-0.21,0.01-0.41,0.1-0.57,0.25c-0.16,0.15-0.26,0.34-0.3,0.56c-0.07,0.57-0.08,1.14-0.02,1.71c0,0.22,0.16,0.24,0.32,0.23
		c0.48-0.01,0.96,0,1.44-0.02c0.28-0.01,0.39,0.09,0.39,0.38c0,0.65,0.02,1.29,0.05,1.94c0.01,0.28-0.1,0.38-0.35,0.38
		c-0.44,0-0.89,0.04-1.33,0.03c-0.33-0.01-0.44,0.11-0.43,0.46C49.33,180.39,49.35,181.5,49.39,182.61z"/>
	<path class="stBlog2Icon7" d="M53.06,181.07c-0.04-1.52-0.08-3.04-0.13-4.56c-0.01-0.32,0.07-0.46,0.4-0.46c0.71,0.01,1.4,0,2.09-0.02
		c0.24-0.01,0.34,0.09,0.35,0.35c0.08,3.04,0.16,6.07,0.24,9.1c0.01,0.28-0.09,0.39-0.35,0.41c-0.68,0.05-1.36,0.1-2.05,0.17
		c-0.31,0.03-0.42-0.08-0.43-0.41C53.15,184.13,53.1,182.6,53.06,181.07z"/>
	<path class="stBlog2Icon7" d="M52.77,173.08c-0.01-0.42-0.02-0.84-0.04-1.26c-0.01-0.24,0.06-0.36,0.31-0.36c0.79,0.02,1.58,0.04,2.35,0.05
		c0.21,0,0.31,0.1,0.31,0.33c0.02,0.83,0.04,1.66,0.07,2.49c0.01,0.25-0.09,0.34-0.31,0.34c-0.76-0.01-1.54,0-2.32,0.01
		c-0.24,0-0.34-0.1-0.34-0.35C52.8,173.92,52.78,173.5,52.77,173.08z"/>
</g>
</svg>
