<svg xmlns="http://www.w3.org/2000/svg" width="110" viewBox="0 0 124.836 35.576">
  <g id="Group_17" data-name="Group 17" transform="translate(2571.84 2225.725)">
    <path id="Path_32" data-name="Path 32" d="M-1548.914-1999.775a78.3,78.3,0,0,0,.323,8.03c.084,1.136.018,1.165-1.108,1.167-1.349,0-2.7-.033-4.047.014-.742.026-1.177-.189-1.2-.977a.491.491,0,0,0-.014-.078c-.231-1.171-.19-1.114-1.146-.432a9.755,9.755,0,0,1-9.62,1.311,5.459,5.459,0,0,1-3.409-4.447,10.274,10.274,0,0,1-.017-3.854c.538-2.815,2.5-4.23,5.056-5.008a57.2,57.2,0,0,1,7.092-1.3c1.191-.2,1.2-.223.947-1.421a2.235,2.235,0,0,0-1.81-1.862,4.49,4.49,0,0,0-2.644.208,2.066,2.066,0,0,0-1.31,1.839c-.087.639-.4.822-1.005.811-1.56-.03-3.122-.039-4.681,0-.751.02-.949-.29-.943-.988a6.721,6.721,0,0,1,4.923-6.557,15.8,15.8,0,0,1,9.764.007,6.63,6.63,0,0,1,4.714,6.465c.051,1.106.111,2.212.135,3.319C-1548.9-2002.448-1548.914-2001.365-1548.914-1999.775Zm-6.98.561h-.009c0-.526,0-1.052,0-1.579,0-.351-.166-.564-.537-.505a27.647,27.647,0,0,0-4.35.789,2.352,2.352,0,0,0-1.6,2.758,2.113,2.113,0,0,0,1.913,2,4.8,4.8,0,0,0,2.855-.387c1.151-.458,2.013-1.161,1.729-2.6A2.494,2.494,0,0,1-1555.894-1999.215Z" transform="translate(-947.992 -200.125)" fill="#50b8e7"/>
    <path id="Path_33" data-name="Path 33" d="M-1116.151-2009.234a8.937,8.937,0,0,1,8.456-3.149,6.226,6.226,0,0,1,5.553,5.011,11.87,11.87,0,0,1,.384,2.9q.007,7.13,0,14.26c0,1.109-.049,1.155-1.168,1.157q-2.342.005-4.683,0c-1.051,0-1.109-.061-1.109-1.137q0-6.575,0-13.151a3.515,3.515,0,0,0-.384-1.916,2.427,2.427,0,0,0-1.871-1.193,4.774,4.774,0,0,0-2.99.571,2.771,2.771,0,0,0-1.614,2.656c.074,4.356.029,8.714.027,13.071,0,1.076-.023,1.1-1.121,1.1-1.588,0-3.176-.028-4.762.013-.765.02-1-.26-1-1.013.026-4.647.055-9.3,0-13.943-.03-2.345-.221-4.689-.384-7.03-.043-.621.117-.877.759-.868,1.561.022,3.122.018,4.683,0a.75.75,0,0,1,.865.712C-1116.418-2010.589-1116.295-2010-1116.151-2009.234Z" transform="translate(-1370.212 -201.647)" fill="#50b8e7"/>
    <path id="Path_34" data-name="Path 34" d="M-2014.2-1998.705c0-2.032-.014-4.065,0-6.1.019-2.193-.229-4.371-.339-6.556-.038-.765.229-1.028.991-1.005,1.453.044,2.909.033,4.364,0a.815.815,0,0,1,.966.781c.09.537-.036,1.354.4,1.53.516.208.82-.588,1.225-.93,2.765-2.334,7.481-2.684,10.3-.667a6.571,6.571,0,0,1,2.685,5.424c.117,5.33.053,10.663.07,15.995,0,.508-.23.712-.721.711-1.8-.006-3.6-.015-5.4.006-.69.008-.75-.392-.748-.926.009-3.405,0-6.81,0-10.215,0-.977,0-1.954,0-2.93-.015-2.71-1.574-3.9-4.2-3.214a3.019,3.019,0,0,0-2.624,3.365q0,6.375,0,12.749c0,1.116-.049,1.163-1.16,1.165q-2.381.005-4.761,0c-.974,0-1.052-.079-1.054-1.032Q-2014.2-1994.627-2014.2-1998.705Z" transform="translate(-526.998 -201.188)" fill="#50b8e7"/>
    <path id="Path_35" data-name="Path 35" d="M-642.023-1992.507c.022,2.969-.079,6.507.17,10.04.061.868.095,1.738.159,2.606.043.57-.186.824-.771.818q-2.3-.024-4.6,0a.775.775,0,0,1-.891-.773c-.085-.568-.246-1.125-.373-1.687-.609.144-.865.72-1.306,1.072-2.673,2.13-7.264,2.57-9.877.911a6.962,6.962,0,0,1-3.134-6.164c-.095-5.121-.028-10.245-.045-15.367,0-.612.224-.847.839-.838,1.693.024,3.387.035,5.08-.005.735-.017.962.256.958.969-.023,4.172-.011,8.344-.011,12.516,0,.158,0,.317,0,.475.013,1.9.616,2.938,1.9,3.269a4.788,4.788,0,0,0,4.754-1.646,1.951,1.951,0,0,0,.165-1.079q0-6.654,0-13.308c0-1.179.005-1.182,1.2-1.183,1.587,0,3.175,0,4.762,0,.975,0,1.015.043,1.017,1.044C-642.02-1998.25-642.023-1995.663-642.023-1992.507Z" transform="translate(-1805.316 -211.656)" fill="#50b8e7"/>
    <path id="Path_36" data-name="Path 36" d="M-2561.354-2199.149c0,2.482-.022,4.964.012,7.445.01.765-.274,1.027-1.022,1.011-1.639-.035-3.28-.006-4.92-.012-.964,0-1.046-.082-1.047-1.038q-.007-7.247,0-14.5c0-1.254,0-1.245-1.285-1.257-2.485-.023-2.187.319-2.207-2.183-.007-.951.031-1.9-.011-2.851-.033-.735.2-1.093.989-1.018.472.045.952.01,1.428.007,1.071,0,1.081-.018,1.087-1.129.008-1.319.018-2.635.113-3.955a6.925,6.925,0,0,1,6.159-6.875,13.4,13.4,0,0,1,5.2.059c.641.139.951.413.924,1.12-.049,1.292-.042,2.588,0,3.88.023.767-.238.977-.99.808a6.7,6.7,0,0,0-2.214-.031,2.239,2.239,0,0,0-2.044,1.812,16.645,16.645,0,0,0-.151,3.786c-.009.484.347.523.715.523,1.111,0,2.223.025,3.333-.006.647-.019.9.221.886.875-.031,1.452-.028,2.9,0,4.356.011.628-.258.841-.855.827-1.031-.023-2.065.031-3.095-.017-.751-.035-1.024.22-1.012.99C-2561.329-2204.061-2561.354-2201.6-2561.354-2199.149Z" fill="#50b8e7"/>
    <path id="Path_37" data-name="Path 37" d="M-2218.748-1990.536c0-3.457.015-6.915-.012-10.372-.005-.734.2-1.043.988-1.022,1.718.046,3.438.031,5.156.006.609-.009.851.212.851.828q-.017,10.57,0,21.139c0,.651-.264.89-.9.882-1.692-.021-3.385-.031-5.077,0-.755.016-1.022-.26-1.017-1.016C-2218.733-1983.569-2218.748-1987.053-2218.748-1990.536Z" transform="translate(-333.879 -211.623)" fill="#50b8e7"/>
    <path id="Path_38" data-name="Path 38" d="M-2221.624-2189.954c0-.949.015-1.9-.006-2.847-.012-.553.177-.828.773-.822,1.928.018,3.857.015,5.785,0,.538,0,.76.219.756.755q-.019,2.887,0,5.773c0,.582-.246.789-.812.784q-2.853-.026-5.706,0c-.579.006-.811-.228-.8-.8C-2221.61-2188.056-2221.625-2189.005-2221.624-2189.954Z" transform="translate(-331.164 -30.355)" fill="#50b8e7"/>
  </g>
</svg>
