<svg width="152" height="109" viewBox="0 0 152 109" fill="none" xmlns="http://www.w3.org/2000/svg">
<g clip-path="url(#clip0_896_19474)">
<path d="M46.0653 72.8572C44.7791 72.7781 43.3137 70.9146 42.5167 70.0336C41.8398 69.2853 41.8158 66.8424 42.517 66.6377C43.4376 66.2105 44.7075 66.5431 45.6392 66.8424C46.0588 66.9772 46.838 67.6134 46.838 67.6134C46.838 67.6134 47.6107 68.8872 47.6107 69.6302C47.6107 71.1642 46.7661 73.0544 47.4593 74.5019C48.1116 75.864 49.1935 76.813 50.6095 77.2354C50.7672 77.2824 52.2611 77.6066 52.3386 77.3231C52.463 76.869 50.5631 76.0791 50.2876 75.9053C49.0665 75.1343 49.156 73.2605 49.156 71.6471L49.2439 71.2801C49.4393 70.4645 50.0157 69.4574 50.4299 68.7365C50.7374 68.2012 50.9734 67.9874 51.4375 67.5938C51.8255 67.2647 52.2789 66.8751 52.5346 66.6377C53.1234 66.0914 54.2399 66 54.9513 66C55.4677 66 56.4248 66.5296 56.8831 66.8424C57.2289 67.0785 57.5693 67.833 57.631 68.1872C57.8196 69.27 57.9227 70.3371 57.631 71.4031C57.5782 71.5959 56.9828 69.5077 56.8831 69.3712C56.8831 69.3712 56.7484 68.9457 56.4966 68.4201C56.2535 67.9126 54.8529 67.3323 54.1728 67.7268C53.4206 68.163 52.4536 68.7769 52.1378 69.6302C51.8606 70.3792 51.7011 71.6222 52.1378 72.3312C52.707 73.2558 54.6612 72.3002 55.2438 71.8708C55.5779 71.6247 55.9982 71.2153 56.252 70.8841C56.252 71.8708 56.5202 71.6907 56.252 71.8708C54.0235 73.3664 52.6955 75.1993 52.6955 77.981C52.6955 79.5207 53.6905 81.1774 54.9513 81.7314C55.118 81.8047 55.8241 81.9821 55.7239 81.7314C55.3376 81.3274 55.1051 80.965 54.6138 80.4219C54.1702 79.9316 53.4648 78.7473 53.4059 78.1009C53.3329 77.3005 53.6153 76.6475 54.0103 75.9053C54.3538 75.2596 55.3376 74.0673 55.3376 74.0673C55.3376 74.0673 56.724 72.6935 57.288 72.1047C57.7639 71.6078 58.3129 71.3064 58.8151 70.8404C59.2139 70.4702 59.5878 70.8404 59.5878 70.8404C59.5878 70.8404 59.1469 71.7518 58.5918 72.3312C57.8735 73.0812 57.4685 73.8378 57.288 74.874C57.212 75.3102 57.7691 76.3428 58.2681 76.4874C58.6354 76.594 59.6018 76.7908 59.9738 76.6069C61.482 75.861 63.4191 72.7169 61.5192 71.615C59.9738 71.2438 61.6846 71.5695 61.8452 71.615C62.408 71.7743 62.8719 71.8708 63.313 72.3312C63.9757 73.0233 63.8372 74.4706 63.8372 74.874C63.8372 74.874 63.2432 77.0983 62.5523 77.6594C61.4908 78.5213 60.3872 79.7189 59.5878 80.9245C59.162 81.5661 58.8806 82.0062 58.8241 82.7606C58.8153 82.8788 58.8416 82.9971 58.8923 83.1022C59.0973 83.5303 59.3605 83.9255 59.6671 84.2814C59.9724 84.6361 60.367 85.1036 60.6551 85.4792C61.4451 86.5106 62.3384 87 63.5604 87C64.057 87 64.4679 86.792 64.9674 86.7372C66.4236 86.5763 67.8896 86.342 69.3567 86.342C70.5136 86.342 71.8239 86.3223 72.9549 86.0496C73.2536 85.9774 73.6515 85.7464 73.865 85.5241C74.1404 85.2361 74.3069 84.8573 74.5861 84.5661C74.7217 84.4248 75.0767 84.0241 74.9851 84.0613C72.746 84.9712 70.4878 85.7759 68.0686 85.8164C66.5899 85.8405 65.1099 85.6839 63.6234 85.6839C62.4684 85.6839 63.4058 84.6493 63.8124 84.2376C64.6417 83.3956 65.4594 82.477 66.0105 81.4084C66.8476 79.7858 66.1795 77.5278 64.2464 77.5278C63.6757 77.5278 63.2032 77.5646 62.8043 77.981C62.4193 78.3829 61.8504 80.4635 62.2922 80.9245C62.786 81.4402 64.9967 80.9245 64.9967 79.7144C65.383 78.101 63.1823 77.6153 63.1823 76.6069" stroke="black" strokeLinecap="round"/>
<path d="M72 43.012C72.1004 42.9249 72.2983 42.8342 72.5132 42.7623C72.9524 42.6153 73.3979 42.5564 73.8394 42.4162C74.1931 42.3036 74.5824 42.2184 74.9486 42.154C75.0754 42.1317 75.2066 42.1075 75.3361 42.0846C75.8418 41.9957 76.3688 41.9479 76.8615 42.0903C77.8607 42.379 79.372 43.1553 79.9587 43.5988C81.1776 44.1809 82.0432 44.4141 83.1599 44.4141C84.8931 44.4141 86.8095 44.4141 88.5764 44.3632C89.3088 44.3421 90.0805 44.2665 90.8265 44.1593C91.4124 44.0752 92.1352 43.9835 92.6474 44.2613C93.3049 44.6179 94.0701 45.1945 94.5669 45.7335C95.095 46.3065 95.3498 47.0946 95.7267 47.755C96.2449 48.6626 97.6673 51.015 98.7349 52.7524C99.932 54.7004 100.759 55.9972 101.781 57.7433C102.802 59.4866 103.802 61.2541 104.913 62.9414C105.466 63.783 106.405 64.6515 106.687 65.6139C106.799 65.9944 107 66.387 107 66.786C107 67.479 106.032 67.794 105.433 68.1661C105.251 68.279 105.079 68.3747 104.959 68.4168C104.533 68.5667 103.939 68.7451 103.36 68.9102C102.087 69.2735 100.895 69.8523 99.7862 70.5628C98.8301 71.1754 97.892 71.7966 96.9213 72.3917C96.1298 72.8771 95.2909 73.2713 94.4799 73.7168C94.2482 73.844 93.8655 74.082 93.639 73.9715" stroke="black" strokeLinecap="round"/>
<path d="M94 44C95.8026 44 97.5998 43.5213 99.3452 43.0903C101.333 42.5995 103.169 42.0372 105.035 41.2251C108.178 39.8569 111.371 38.6088 114.442 37.08C118.745 34.939 123.084 32.8838 127.438 30.8394C130.332 29.4803 133.202 28.0374 136.251 27.0282C137.606 26.5795 138.827 25.9791 140.052 25.2665C140.477 25.0198 140.913 24.7925 141.336 24.5412C141.583 24.3936 141.77 24.1113 142 24" stroke="black" strokeLinecap="round"/>
<path d="M99 47.1383C99.085 45.9311 99.8492 44.8711 100.982 44.3893L110.351 40.4037L121.536 36.0271L128.545 33.7372L129.541 33.3815C131.353 32.7345 133.106 31.9378 134.78 31L144 54.5251L135.249 58.6716L127.272 63.2652L120.013 69.092L113.958 75L109.963 68.807L106.424 61.8552L102.884 54.9033L99 47.1383Z" fill="#BEE8FF"/>
<path d="M94 44C94.9071 44.0988 96.0451 46.039 96.3993 46.7082C96.9647 47.7764 97.7173 48.8326 98.2393 49.9143C98.5699 50.5995 99.4355 51.744 99.4355 51.744C99.4355 51.744 100.204 52.9292 100.632 53.504C101.24 54.3204 101.827 55.0318 102.346 55.9055C103.538 57.9178 104.843 59.8607 105.834 61.9803C106.459 63.3154 107.167 64.6515 107.642 66.051C107.783 66.4625 107.684 66.5748 108.135 66.4767C108.553 66.3856 108.937 65.8967 109.357 65.7444C109.622 65.6489 109.852 65.5019 110.088 65.3584C110.528 65.0909 111.102 65.0427 111.589 64.8927C113.24 64.3845 114.936 64.0089 116.637 63.7006C118.167 63.423 119.816 63.1571 121.307 62.7241C121.801 62.5809 120.752 61.9978 120.496 61.8043C119.632 61.1508 119.113 59.8679 118.613 58.96C117.268 56.5189 116.128 54.0622 114.551 51.744C113.019 49.4943 111.292 47.4123 109.184 45.6522C108.652 45.2081 107.192 43.8983 106.332 44.1249C105.686 44.2955 106.165 44.7026 106.373 45.1867C106.795 46.1741 107.558 47.105 108.146 48.0026C109.308 49.7771 110.311 51.6473 111.328 53.504C112.375 55.4151 113.385 57.2004 114.916 58.7726C116.263 60.1575 117.457 61.6764 118.619 63.2123C119.812 64.7904 121.205 66.3299 122.188 68.038C122.457 68.5035 122.763 68.951 123.057 69.4006C123.169 69.5694 123.219 69.8535 123.365 69.9967C123.483 70.1116 125.775 67.1568 125.92 66.9706C128.148 64.1094 130.88 61.7997 133.594 59.3857C135.048 58.0924 136.641 56.9241 138.167 55.7125C139.539 54.6221 140.928 53.5413 142.402 52.5842C143.654 51.7725 144.981 51.0838 146.297 50.3814C147.155 49.9237 147.938 49.315 148.824 48.911C149.847 48.4447 151.065 48.0856 152 47.4746" stroke="black" strokeLinecap="round"/>
<path d="M44 39.8004C43.9169 38.6219 43.1698 37.587 42.0625 37.1167L32.9017 33.2259L23.4537 27.922L16.8994 23.692L15.5963 22.9632C14.6356 22.4259 13.7524 21.7658 12.97 21L0 47.0117L8.55691 51.0595L16.3567 55.5439L23.4537 61.2323L29.3747 67L33.2812 60.9542L36.7415 54.1675L40.2018 47.3808L44 39.8004Z" fill="#BEE8FF"/>
<path d="M14 22L45.8785 42.7417C47.6274 43.8796 49.6742 44.4858 51.7667 44.4858C52.5492 44.4858 53.3293 44.4011 54.0932 44.2329L54.905 44.0543C58.3627 43.2932 61.6913 42.0414 64.7876 40.3375C66.2869 39.5126 68.1496 39.7217 69.4245 40.8581L71.2797 42.5118L63.1631 46.0072C62.4684 46.3064 61.8368 46.7323 61.3012 47.2627C60.5275 48.0291 59.9786 48.9894 59.7132 50.0408L57.7272 57.9093L58.5244 55.5405H61.3145C61.7549 55.5405 62.1118 55.894 62.1118 56.3301V57.1197C62.1118 57.6253 61.909 58.1101 61.5481 58.4676L61.5138 58.5015C61.131 58.8807 60.6118 59.0937 60.0704 59.0937H59.079C58.9753 59.0937 58.8721 59.0811 58.7716 59.0563L57.393 58.7148C57.3603 58.7068 57.3286 58.7314 57.3286 58.7648C57.3286 59.7037 57.8259 60.5738 58.6387 61.0568L58.8547 61.1851C59.1637 61.3687 59.5021 61.4984 59.8555 61.5684L60.4154 61.6793C61.009 61.7968 61.6202 61.7968 62.2138 61.6793C62.9325 61.5369 63.6063 61.2259 64.1787 60.7723L65.3006 59.8834L65.6402 59.547C66.4613 58.7337 67.0438 57.7147 67.3254 56.599C67.5667 55.6433 67.5799 54.645 67.3641 53.6833L66.895 51.5924L68.122 53.7799C68.4766 54.4122 69.3765 54.4602 69.7977 53.8693L72.9444 49.454C73.0678 49.2808 73.3404 49.4172 73.2726 49.6184L72.8394 51.1204C72.7001 51.6033 73.2068 52.0199 73.6603 51.7952C74.9943 51.1347 76.2738 50.3715 77.4874 49.5129L78.4545 48.8288L76.4614 51.5924L75.0665 52.3819C74.3998 52.7592 74.3311 53.6852 74.9349 54.155L79.2517 57.5145L83.9856 61.482C84.265 61.7161 84.645 61.7946 84.9954 61.6904L88.4195 60.673L92.4056 57.5145L89.1877 60.5247C87.7643 61.8561 88.7157 64.2262 90.6735 64.2262H94L84.8322 63.8314L86.101 64.774C87.3777 65.7224 88.5551 66.7954 89.6153 67.9769L90.3593 68.8057C90.9238 69.4348 91.4023 70.1348 91.7823 70.8877C92.4543 72.2189 92.8042 73.6868 92.8042 75.1752V75.7419C92.8042 76.205 92.6184 76.6492 92.2878 76.9766L92.0544 77.2079C91.3054 77.9497 90.1724 78.158 89.2045 77.7319L88.7557 77.5344C87.7431 77.0886 86.8219 76.462 86.0383 75.6859L82.4405 72.1223L75.6642 64.621L80.0489 70.5431L86.8749 77.6599C87.3548 78.1603 87.6223 78.8241 87.6223 79.5141C87.6223 80.332 87.247 81.106 86.6023 81.6161L86.4703 81.7211C85.9259 82.1519 85.2496 82.3877 84.5525 82.3877H83.9843C82.7406 82.3877 81.5479 81.8979 80.6684 81.0267L76.0628 76.4652L70.8811 70.1483V71.3327L72.0769 72.9119L75.2656 76.4652L80.378 82.2044C80.8828 82.7702 80.9165 83.6104 80.4587 84.2149C80.1968 84.561 79.8043 84.786 79.371 84.8396L78.3924 84.9607C77.3932 85.085 76.3795 84.9125 75.4789 84.4667L74.2649 83.8655C73.3437 83.41 72.5027 82.8088 71.7744 82.0876L69.2867 79.6236L68.6364 79.0716C67.2763 77.9169 65.4797 77.3986 63.7062 77.6496" stroke="black"/>
<path d="M14.2567 68.678C14.4639 68.8553 14.7773 68.9254 15.0155 69.0601C15.7359 69.4671 16.4591 69.9017 17.1983 70.2737C18.6884 71.0234 20.1763 71.7789 21.6631 72.521C22.4937 72.9356 23.5285 73.437 24.4471 73.6334C24.9739 73.7461 25.786 74.0496 26.3148 73.993C26.3477 73.9895 25.7 73.2214 25.6028 73.1278C25.2739 72.8112 25.0073 72.2657 24.8149 71.858C24.3194 70.8089 23.8851 69.2524 24.5521 68.1947C24.9054 67.6346 25.4281 67.4086 26.023 67.161C27.1315 66.6995 28.8239 66.6553 30.0034 66.6553C30.5808 66.6553 31.1772 66.534 31.6434 66.9138C32.1807 67.3515 32.3262 68.2437 32.3262 68.8802C32.3262 70.442 30.2434 71.5043 28.7485 71.0546C28.1179 70.8649 26.6994 70.6159 26.5541 69.8467C26.3266 68.6423 27.9991 67.8592 28.9644 67.3857C30.7406 66.5147 32.052 64.5708 33.2659 63.1101C33.6651 62.6297 33.8927 62.0026 34.2697 61.4975C34.6748 60.9551 35.0326 60.3608 35.3729 59.7784C36.1669 58.4194 37.124 57.1574 37.9759 55.8342C38.8835 54.4242 39.6844 52.9581 40.6256 51.5641C41.5933 50.131 42.4718 48.6226 43.252 47.0862C44.1706 45.2775 45.045 43.5116 45.6624 41.58C46.0254 40.4444 46.3101 38.8998 45.3298 37.9561C44.9959 37.6347 44.5567 37.4255 44.2208 37.1022C43.67 36.5719 43.226 35.9644 42.5984 35.5065C41.3751 34.614 40.3614 33.8164 38.9331 33.2816C37.844 32.8738 36.6642 32.7341 35.5363 32.4669C34.5003 32.2214 33.4665 31.9632 32.4313 31.714C29.6211 31.0377 26.7914 30.4447 23.9802 29.7644C21.0885 29.0646 18.2448 28.2941 15.4065 27.4159C14.3226 27.0805 13.267 26.6645 12.1731 26.3596C11.8089 26.2581 11.3764 26 11 26" stroke="black" strokeLinecap="round"/>
</g>
<defs>
<clipPath id="clip0_896_19474">
<rect width="152" height="109" fill="white"/>
</clipPath>
</defs>
</svg>
