<svg width="150" height="151" viewBox="0 0 150 151" fill="none" xmlns="http://www.w3.org/2000/svg">

    <path d="M33.7443 120.35H23.1125C22.266 120.35 21.1953 119.379 21.1953 118.184V84.421C21.1953 82.7279 22.6892 81.7568 23.5358 81.7568L33.9435 82.0058C34.79 82.0058 35.8607 82.9769 35.8607 84.172V117.711C36.0599 118.906 35.0141 120.35 33.7443 120.35Z" fill="#BEE8FF"/>
    <path d="M22.6892 83.001C22.1913 83.001 21.1953 83.499 21.1953 84.4949V119.353C21.1953 119.602 21.1953 119.851 21.4443 120.1C21.6933 120.349 21.9423 120.349 21.9423 120.349H34.3917C35.1386 120.349 35.8856 119.353 35.8856 118.855V84.4949C35.8856 84.2459 35.6366 83.9969 35.6366 83.7479C35.3876 83.499 35.1386 83.499 34.8896 83.499L22.6892 83.001Z" stroke="black" stroke-miterlimit="10"/>
    <path d="M127.862 120.35H117.231C116.384 120.35 115.313 119.379 115.313 118.184V84.421C115.313 82.7279 116.807 81.7568 117.654 81.7568L128.062 82.0058C128.908 82.0058 129.979 82.9769 129.979 84.172V117.711C130.178 118.906 129.132 120.35 127.862 120.35Z" fill="#BEE8FF"/>
    <path d="M116.807 83.001C116.309 83.001 115.313 83.499 115.313 84.4949V119.353C115.313 119.602 115.562 119.851 115.562 120.1C115.811 120.349 116.06 120.349 116.06 120.349H128.51C129.257 120.349 130.004 119.353 130.004 118.855V84.4949C130.004 84.2459 129.755 83.9969 129.755 83.7479C129.506 83.499 129.257 83.499 129.008 83.499L116.807 83.001Z" stroke="black" stroke-miterlimit="10"/>
    <path d="M134.485 103.22C134.734 92.3389 135.73 82.2549 135.481 71.3741C135.481 70.3782 135.481 69.3573 134.983 68.5854C134.485 67.5895 126.767 63.033 121.812 61.0162C119.073 53.1731 111.877 36.4909 110.383 34.4741C108.889 32.4573 106.922 30.9385 104.905 30.9385C87.2771 30.9385 69.35 30.9385 51.4727 30.9385C49.5057 30.9385 47.4889 30.9385 45.746 32.2083C44.003 33.4782 43.0071 35.495 42.0111 37.5118C38.2763 45.081 34.8154 52.6751 30.8316 61.0162C27.3707 62.784 23.6358 64.8008 20.1251 66.5686C19.1292 67.0915 18.1581 67.5646 17.3862 68.5854C15.8923 69.8553 15.6433 72.619 15.4192 74.8848C14.9213 84.7447 15.1702 92.314 15.9172 102.672C15.6682 108.224 28.1176 107.452 34.3174 107.452C66.1381 107.452 95.9668 107.701 128.036 107.701C129.53 107.701 131.024 107.701 132.518 106.954C133.738 106.257 134.236 104.489 134.485 103.22Z" fill="white"/>
    <path d="M127.489 107.9H127.24L35.164 107.651C34.6661 107.651 33.944 107.651 33.2219 107.651C27.5948 107.651 19.7766 107.651 17.1124 104.713C16.3903 103.991 15.8924 102.771 15.8924 101.775C15.1703 91.0188 14.9213 83.6985 15.3944 74.9092C15.6434 72.4692 15.8924 69.5311 17.5855 67.589C18.5565 66.6179 19.7766 65.871 20.7725 65.3979L30.7818 60.2688C34.442 52.4505 38.1021 45.1303 41.5381 38.0341C42.5092 36.092 43.4802 33.876 45.6962 32.407C47.6383 30.9629 50.0784 30.9629 52.0205 30.9629C69.126 30.9629 87.2025 30.9629 104.532 30.9629C106.972 30.9629 109.163 32.4319 110.881 34.872C112.35 37.0631 119.421 52.6995 122.111 60.5178C126.269 62.2358 134.087 66.6179 135.058 68.087C135.556 69.058 135.78 70.5271 135.78 71.4981C136.029 77.8473 135.531 84.1965 135.282 90.2967C135.033 94.2058 134.784 98.3639 134.784 102.497C134.784 103.966 134.062 106.157 132.344 107.128C130.676 107.9 128.958 107.9 127.489 107.9Z" stroke="black" stroke-miterlimit="10"/>
    <path d="M41.8613 61.09C45.0982 54.1184 49.331 41.669 52.0698 40.424C54.3107 39.4281 79.2095 39.6771 92.9038 39.6771C95.8917 39.6771 99.1285 39.9261 101.12 42.167C102.116 43.4119 110.084 60.5921 110.084 60.5921L41.8613 61.09Z" fill="white"/>
    <path d="M41.8614 62.0864C41.3634 62.0864 41.1144 61.8374 40.8655 61.5885C40.6165 61.3395 40.6165 60.8415 40.8655 60.3435C41.8614 58.3516 42.6084 56.1107 43.6043 53.6208C47.0901 45.1553 49.331 40.1755 51.5719 38.9306C53.0659 38.1836 62.0294 38.1836 80.9525 38.1836C85.1853 38.1836 89.4181 38.1836 92.9039 38.1836C96.1408 38.1836 99.6266 38.4326 101.867 40.9225C102.863 42.1674 109.088 55.6127 111.08 59.5965C111.329 60.0945 111.329 60.3435 111.08 60.8415C110.831 61.0905 110.582 61.3395 110.084 61.3395L41.8614 62.0864Z" stroke="black" stroke-miterlimit="10"/>
    <path d="M66.7604 89.7244C61.5317 89.7244 56.3029 89.7244 51.3232 89.7244C51.0742 89.7244 50.8252 89.4754 50.8252 89.2265C50.8252 88.9775 51.0742 88.7285 51.3232 88.7285C67.5074 88.7285 84.1896 88.7285 100.374 88.4795C100.623 88.4795 100.872 88.7285 100.872 88.9775C100.872 89.2265 100.623 89.4754 100.374 89.4754C89.1693 89.4754 77.9649 89.7244 66.7604 89.7244Z" fill="black"/>
    <path d="M66.7604 80.5115C61.5317 80.5115 56.3029 80.5115 51.3232 80.5115C51.0742 80.5115 50.8252 80.2626 50.8252 80.0136C50.8252 79.7646 51.0742 79.5156 51.3232 79.5156C67.5074 79.5156 84.1896 79.5156 100.374 79.2666C100.623 79.2666 100.872 79.5156 100.872 79.7646C100.872 80.0136 100.623 80.2626 100.374 80.2626C89.1693 80.5115 77.9649 80.5115 66.7604 80.5115Z" fill="black"/>
    <path d="M119.82 54.1436H129.78M33.9195 54.1436H23.96M111.106 80.2873C112.766 81.9472 119.82 84.0221 124.8 80.2873M23.96 80.2873C25.2049 82.7772 35.1644 85.267 38.8992 80.2873" stroke="black" strokeLinecap="round"/>
    </svg>
