<svg xmlns="http://www.w3.org/2000/svg" xmlns:xlink="http://www.w3.org/1999/xlink" id="Layer_1" x="0px" y="0px" viewBox="0 0 348.2 256.1" xml:space="preserve" width="252" height="284"><style type="text/css">
	.stSeventhBlog0{fill:none;stroke:#000000;strokeWidth:0.2484;}
	.stSeventhBlog1{stroke:#000000;strokeWidth:0.2484;}
	.stSeventhBlog2{fill:#84CDEE;}
	.stSeventhBlog3{fill:#84CDEE;stroke:#000000;strokeWidth:0.2484;}
	.stSeventhBlog4{fill:#FFFFFF;}
	.stSeventhBlog5{fill:#FFFFFF;stroke:#000000;strokeWidth:0.2484;}
	.stSeventhBlog6{fill:#BEE8FF;}
	.stSeventhBlog7{stroke:#000000;strokeWidth:0.3641;stroke-miterlimit:10;}
	.stSeventhBlog8{fill:#FFFFFF;stroke:#000000;strokeWidth:0.182;stroke-miterlimit:10;}
	.stSeventhBlog9{fill:none;stroke:#000000;strokeWidth:0.182;stroke-miterlimit:10;}
	.stSeventhBlog10{opacity:0.1294;}
	.stSeventhBlog11{fill:none;stroke:#000000;strokeWidth:1.0922;stroke-miterlimit:10;}
	.stSeventhBlog12{fill:#BEE8FF;stroke:#000000;strokeWidth:0.7281;stroke-miterlimit:10;}
	.stSeventhBlog13{stroke:#000000;strokeWidth:0.182;stroke-miterlimit:10;}
	.stSeventhBlog14{fill:#ACD4F7;}
	.stSeventhBlog15{fill:#50B8E7;}
	.stSeventhBlog16{fill:none;stroke:#000000;strokeWidth:0.8351;stroke-miterlimit:10;}
	.stSeventhBlog17{stroke:#000000;strokeWidth:0.2784;stroke-miterlimit:10;}
	.stSeventhBlog18{fill:none;stroke:#231F20;strokeWidth:0.6462;stroke-miterlimit:10;}
	.stSeventhBlog19{fill:none;}
	.stSeventhBlog20{stroke:#000000;strokeWidth:0.9508;stroke-miterlimit:10;}
</style><g><g><path d="M83.4,152.1c-0.4,0-0.7-0.3-0.7-0.7c0-0.4,0.3-0.7,0.7-0.7l35.4-0.4c0,0,0,0,0,0c0.4,0,0.7,0.3,0.7,0.7    c0,0.4-0.3,0.7-0.7,0.7L83.4,152.1L83.4,152.1z"></path></g><g><path d="M75.9,164.6c-0.4,0-0.7-0.3-0.7-0.7c0-0.4,0.3-0.7,0.7-0.7c5.4-0.2,10.8-0.2,16-0.2c5.2,0,10.6,0,16-0.2    c0.4,0,0.7,0.3,0.7,0.7c0,0.4-0.3,0.7-0.7,0.7c-5.4,0.2-10.8,0.2-16,0.2C86.6,164.4,81.3,164.4,75.9,164.6    C75.9,164.6,75.9,164.6,75.9,164.6z"></path></g><g><path d="M89.8,177.3c-0.4,0-0.7-0.3-0.7-0.7s0.3-0.7,0.7-0.7c11.3,0,24.2-0.2,35.3-0.6c0.4,0,0.7,0.3,0.7,0.7    c0,0.4-0.3,0.7-0.7,0.7C114.1,177.1,101.2,177.3,89.8,177.3z"></path></g><rect id="SVGID_3_" x="136.3" y="113" class="stSeventhBlog19" width="171.4" height="91.9"></rect><path class="stSeventhBlog6" d="M270.2,184.2c0,1.7-2.2,10-5.2,10c-10.8-0.8-5.6-8.3-5.6-10c0-1.7,2.4-3.1,5.4-3.1   C267.7,181.1,270.2,182.5,270.2,184.2z"></path><path class="stSeventhBlog6" d="M136.9,160.3c0.3-2.2,5-12.7,8.9-12.1c14.2,3.2,5.8,12,5.4,14.2c-0.3,2.2-3.8,3.6-7.8,3   C139.5,164.8,136.6,162.5,136.9,160.3z"></path><path class="stSeventhBlog6" d="M191.5,190.3c0,1.7-2.2,10-5.2,10c-10.8-0.8-5.6-8.3-5.6-10c0-1.7,2.4-3.1,5.4-3.1   C189.1,187.3,191.5,188.6,191.5,190.3z"></path><polygon points="247.8,191.9 248.7,191.7 248.7,191.7 248.7,191.6  "></polygon><polygon points="256.3,145.8 255.4,145.9 255.5,147.6 256.9,146.5  "></polygon><polygon points="139.9,171.2 139,171.1 139,171.1 139,171.2  "></polygon><polygon points="264,185.1 264.4,184.3 264.3,184.3 264.2,184.3  "></polygon><path d="M237,158c-0.5,0-0.9,0.4-0.9,0.9c0,0.5,0.4,0.9,0.9,0.9V158z"></path><rect x="247" y="158" width="0.9" height="0.9"></rect><path d="M202.3,158c-0.5,0-0.9,0.4-0.9,0.9c0,0.5,0.4,0.9,0.9,0.9V158z"></path><polygon points="211.6,158.9 212.4,158.8 212.3,158 211.6,158  "></polygon><polygon points="192.3,145 193.1,145.3 193.1,145.3 193.1,145.3  "></polygon><polygon points="219.3,147.3 219.2,148.2 219.3,148.2 219.3,148.2  "></polygon><polygon points="203.1,193.7 247.8,192.8 247.8,191 203.1,191.9  "></polygon><path d="M248.6,191.6c-0.9-3.2,0-6.3,2.1-8.9c2-2.6,5.1-4.6,8.5-5.6c3.4-0.9,6.9-0.8,9.8,0.9c2.9,1.7,5.4,4.9,6.4,10.3l1.7-0.3   c-1.1-5.8-3.8-9.5-7.3-11.5c-3.4-2-7.5-2.1-11.2-1.1c-3.7,1-7.1,3.3-9.4,6.2c-2.3,2.9-3.4,6.6-2.4,10.5L248.6,191.6z"></path><path d="M275.4,188.3c0.4,4.8-0.9,8-3.1,10.2c-2.2,2.2-5.3,3.2-8.7,3.3c-3.3,0.1-6.8-0.8-9.6-2.6c-2.8-1.8-4.8-4.3-5.4-7.5   l-1.7,0.3c0.7,3.8,3.1,6.7,6.2,8.7c3.1,2,6.9,3,10.6,2.9c3.7-0.1,7.3-1.3,9.9-3.8c2.6-2.6,4.1-6.4,3.6-11.6L275.4,188.3z"></path><path d="M276.2,189.1c4.1,0.4,10.5,0.8,16.1,0.8c2.8,0,5.5-0.1,7.6-0.3c1.1-0.1,2-0.3,2.8-0.5c0.8-0.2,1.5-0.5,1.9-1l-1.2-1.2   c-0.1,0.1-0.5,0.3-1.2,0.6c-0.7,0.2-1.5,0.3-2.5,0.5c-2,0.2-4.6,0.3-7.4,0.3c-5.6,0-11.9-0.4-15.9-0.8L276.2,189.1z"></path><path d="M304.7,188c0.3-0.3,0.6-0.8,0.7-1.2c0.2-0.5,0.3-1.1,0.5-1.7c0.3-1.3,0.4-3,0.5-4.9c0.1-3.8-0.4-8.7-1.6-13.5   c-2.5-9.7-8.5-19.7-20.6-21.7l-0.3,1.7c11,1.8,16.7,11,19.1,20.5c1.2,4.7,1.7,9.4,1.6,13c0,1.8-0.2,3.4-0.4,4.6   c-0.1,0.6-0.2,1.1-0.4,1.4c-0.1,0.4-0.3,0.6-0.3,0.6L304.7,188z"></path><path d="M284.2,144.9c-9.3-1.6-15.9-1.9-20.4-1.7c-2.3,0.1-4,0.4-5.3,0.7c-1.3,0.3-2.2,0.7-2.7,1.2l1.1,1.4c0.2-0.2,0.8-0.5,2-0.8   c1.2-0.3,2.8-0.5,5-0.6c4.3-0.2,10.8,0.1,20.1,1.6L284.2,144.9z"></path><path d="M257.2,145.7c-0.4-4.7-3.2-12.2-8.8-18.7c-5.6-6.5-14.1-12.1-26-12.9l-0.1,1.8c11.3,0.8,19.4,6.1,24.7,12.3   c5.4,6.3,8,13.4,8.4,17.7L257.2,145.7z"></path><path d="M222.4,114.1c-15.7-1-25.8,2.7-32.1,9c-6.2,6.4-8.5,15.2-8.9,24.2l1.8,0.1c0.4-8.8,2.6-17.1,8.4-23   c5.8-5.9,15.3-9.5,30.7-8.5L222.4,114.1z"></path><path d="M181.4,147.3c0-0.1,0-0.1,0.1-0.2c0.1-0.1,0.1-0.1,0.1-0.1c-0.1,0-0.3,0.1-0.8,0.1c-0.9,0-2.2-0.2-4-0.4   c-3.4-0.4-8-1-12.9-0.5c-4.9,0.5-10.1,2-14.7,5.8c-4.5,3.8-8.2,9.8-10.1,19l1.7,0.4c1.9-8.9,5.4-14.5,9.6-18   c4.1-3.5,9-4.9,13.7-5.4c4.7-0.5,9.2,0,12.6,0.4c1.7,0.2,3.1,0.4,4.2,0.4c0.5,0,1,0,1.4-0.2c0.2-0.1,0.5-0.2,0.7-0.4   c0.2-0.2,0.3-0.5,0.3-0.8L181.4,147.3z"></path><path d="M173.9,189.6c-8.9-0.8-15.6-1.1-20.5-1.5c-5-0.4-8.1-0.8-10.1-1.7c-0.9-0.4-1.6-0.9-2-1.6c-0.4-0.7-0.7-1.5-0.9-2.7   c-0.3-2.4,0-5.8,0.3-10.8l-1.8-0.1c-0.4,5-0.7,8.6-0.3,11.2c0.2,1.3,0.5,2.5,1.2,3.4c0.7,1,1.6,1.7,2.7,2.2c2.3,1,5.7,1.5,10.7,1.9   c5,0.4,11.6,0.7,20.5,1.5L173.9,189.6z"></path><path d="M174.7,190.7c0.5-2.5,2.2-5.1,4.6-7.3c2.4-2.2,5.4-3.9,8.5-4.5c3-0.6,6-0.1,8.6,2c2.6,2.1,4.8,5.8,5.9,12.1l1.7-0.3   c-1.2-6.5-3.5-10.7-6.5-13.2c-3-2.5-6.6-3-10-2.3c-3.4,0.7-6.7,2.5-9.3,4.9c-2.6,2.4-4.5,5.3-5.2,8.2L174.7,190.7z"></path><path d="M172.9,190.4c-0.9,7.2,5.3,12.5,12.2,13.7c7,1.2,15.2-1.6,18.8-10.9l-1.7-0.7c-3.3,8.4-10.6,10.9-16.8,9.9   c-6.4-1.1-11.4-5.8-10.7-11.7L172.9,190.4z"></path><path d="M186.5,185.9c1.3-0.6,3.2-1,4.8-0.5c0.8,0.2,1.5,0.7,2,1.5c0.6,0.8,1,2,1.1,3.7l1.8-0.1c-0.2-2-0.7-3.5-1.5-4.6   c-0.8-1.1-1.8-1.8-2.9-2.1c-2.2-0.7-4.6-0.1-6.1,0.6L186.5,185.9z"></path><path d="M194.5,190.6c0.2,2.1-0.3,3.3-1.1,4c-0.8,0.7-1.9,1-3.2,1c-1.3,0-2.8-0.3-3.9-0.8c-0.6-0.2-1.1-0.5-1.5-0.7   c-0.4-0.2-0.6-0.4-0.7-0.6l-1.4,1.1c0.3,0.4,0.7,0.7,1.2,1c0.5,0.3,1.1,0.6,1.8,0.8c1.3,0.5,3,0.9,4.6,0.9c1.6,0,3.2-0.4,4.5-1.5   c1.2-1.2,1.8-3,1.6-5.5L194.5,190.6z"></path><path d="M184,193.7c-1.9-2.6-0.8-6.2,2.5-7.7l-0.7-1.6c-4.1,1.9-5.8,6.8-3.1,10.4L184,193.7z"></path><path d="M263.6,185.9c0.7,0.4,1.6,1.1,2.4,2c0.8,0.9,1.4,1.9,1.7,2.9c0.2,1,0.1,1.9-0.4,2.7c-0.6,0.8-1.9,1.7-4.2,2.3l0.4,1.7   c2.5-0.7,4.2-1.7,5.1-2.9c1-1.3,1.1-2.8,0.7-4.2c-0.3-1.3-1.1-2.6-2-3.7c-0.9-1-1.9-1.9-2.9-2.4L263.6,185.9z"></path><path d="M263,195.8c-1.7,0.4-2.9-0.1-3.6-0.9c-0.8-0.9-1.2-2.4-1.1-4c0.1-1.6,0.6-3.1,1.5-4c0.9-0.9,2.2-1.4,4-0.9l0.5-1.7   c-2.4-0.7-4.4,0-5.7,1.4c-1.3,1.3-2,3.3-2,5.2s0.4,3.8,1.6,5.2c1.2,1.4,3.1,2.1,5.4,1.5L263,195.8z"></path><path d="M218.4,154.4c0.5,6.4,1.1,21.8-0.8,32.2l1.7,0.3c1.9-10.6,1.3-26.2,0.8-32.6L218.4,154.4z"></path><path d="M246.1,158.9c0,0.7-0.1,1.8-0.4,2.6c-0.3,0.9-0.7,1.1-1,1.1v1.8c1.5,0,2.3-1.3,2.7-2.3c0.4-1.1,0.5-2.3,0.5-3.2H246.1z"></path><rect x="237" y="158" width="5" height="1.8"></rect><rect x="242" y="158" width="5" height="1.8"></rect><path d="M244.7,162.6c-0.3,0-0.8-0.3-1.2-1.2c-0.4-0.8-0.6-1.9-0.6-2.6l-1.8,0.1c0.1,0.8,0.3,2.1,0.8,3.2c0.4,1,1.3,2.3,2.8,2.3   V162.6z"></path><path d="M210.7,159.1c0.1,0.7,0.2,1.8,0,2.6c-0.1,0.4-0.2,0.7-0.3,0.8c-0.1,0.1-0.2,0.2-0.4,0.2v1.8c0.8,0,1.3-0.3,1.8-0.8   c0.4-0.5,0.6-1.1,0.7-1.6c0.2-1.1,0.1-2.4,0-3.2L210.7,159.1z"></path><rect x="202.3" y="158" width="5.4" height="1.8"></rect><rect x="207.7" y="158" width="3.9" height="1.8"></rect><path d="M210,162.6c-0.2,0-0.5-0.1-0.8-0.4c-0.3-0.3-0.5-0.8-0.7-1.3c-0.2-0.5-0.2-1-0.2-1.3c0-0.2,0-0.2,0-0.2c0,0,0,0.1-0.1,0.2   c-0.1,0.1-0.3,0.2-0.5,0.2V158c-0.7,0-0.9,0.5-1,0.8s-0.1,0.6-0.1,0.8c0,0.6,0.1,1.2,0.3,1.9c0.2,0.7,0.6,1.3,1,1.9   c0.5,0.6,1.2,1,2.1,1L210,162.6L210,162.6z"></path><path d="M154.7,150.4c1.1,0.9,2,2.2,2.5,3.7c0.5,1.5,0.6,3.1,0,4.6c-1.1,2.8-5.1,5.5-15,4.8l-0.1,1.8c10.1,0.8,15.2-1.9,16.8-5.8   c0.8-1.9,0.7-4,0.1-5.8c-0.6-1.8-1.8-3.5-3.1-4.5L154.7,150.4z"></path><path d="M248.6,144.8c-0.8-3.3-4-8.8-8.7-13.4c-4.7-4.6-11.1-8.5-18.4-8.1l0.1,1.8c6.6-0.4,12.5,3.1,17.1,7.6   c4.6,4.5,7.5,9.7,8.2,12.6L248.6,144.8z"></path><path d="M221.5,123.3c-7,0.4-13.6,2-18.8,5.4c-5.3,3.4-9.3,8.6-11.3,16.1l1.7,0.4c1.9-7.1,5.6-11.9,10.5-15.1   c4.9-3.2,11.1-4.7,18-5.1L221.5,123.3z"></path><path d="M191.4,144.8c-0.1,0.4-0.1,0.9,0.2,1.2c0.2,0.3,0.5,0.5,0.8,0.6c0.6,0.3,1.3,0.4,2.2,0.6c1.8,0.3,4.3,0.4,7.1,0.6   c5.7,0.2,12.5,0.2,17.4,0.5l0.1-1.8c-4.9-0.3-11.9-0.3-17.5-0.5c-2.8-0.1-5.2-0.3-6.9-0.5c-0.9-0.1-1.4-0.3-1.7-0.4   c-0.2-0.1-0.2-0.1-0.1-0.1c0.1,0.1,0.1,0.3,0.1,0.4L191.4,144.8z"></path><path d="M219.3,148.2c6.9,0,14.3,0.2,19.8,0c2.8-0.1,5.1-0.3,6.8-0.7c0.8-0.2,1.5-0.4,2.1-0.8c0.3-0.2,0.5-0.4,0.7-0.8   c0.2-0.3,0.2-0.7,0.1-1.1l-1.7,0.4c0,0,0,0,0-0.1c0,0,0,0-0.1,0.1c-0.2,0.2-0.7,0.3-1.4,0.5c-1.5,0.3-3.7,0.5-6.4,0.6   c-5.5,0.2-12.7,0-19.7,0V148.2z"></path><polygon points="220.7,124.1 218.4,147.2 220.2,147.4 222.5,124.3  "></polygon><path d="M271,256.1c-0.4,0-0.8-0.3-1-0.7c-2.6-8.2-8.3-15-15.2-19c-0.4-0.3-0.7-0.8-0.4-1.5c0.3-0.4,0.8-0.7,1.5-0.4   c6.7,3.7,12.2,10.1,15.3,17.6c4-8.7,8.6-11.6,16.3-16.6c2.5-1.7,5.4-3.5,8.7-5.8c1-0.7,2.1-1.5,3.3-2.2   c16.2-10.7,43.3-28.5,46.6-118.8c-21.8-5-51.8-14.4-74.1-30.4c-6.8,5.6-14.2,10.5-19.8,13.6c-0.4,0.3-1.2,0.1-1.5-0.4   c-0.3-0.4-0.1-1.2,0.4-1.5c5.8-3,13.3-8.3,20.1-14c0.4-0.3,0.8-0.3,1.4,0c22.3,16.4,53.1,25.6,74.8,30.6c0.4,0.1,0.8,0.6,0.8,1   c-1.4,40.3-7.6,70.1-18.8,91.1c-9.4,17.6-20.7,25-28.7,30.4c-1.2,0.7-2.2,1.5-3.3,2.1c-3.5,2.3-6.2,4.2-8.9,5.8   c-8.6,5.6-12.5,7.9-16.5,17.9C272,256.1,271.4,256.1,271,256.1z"></path><path d="M271.3,235.9c-0.1,0-0.1,0-0.3-0.1c-2.1-2.8-2.9-3.5-5.7-5c-0.3-0.1-0.7-0.4-1-0.7c-0.1-0.1-0.1-0.3-0.1-0.4   c0.1-0.1,0.3-0.1,0.4-0.1c0.4,0.3,0.7,0.4,1,0.7c2.5,1.7,3.6,2.2,5.6,4.9c4.7-5,8.2-8.5,20-15.7c31.3-19,38.7-49.5,42.1-102.4   c-27.2-6.4-47.3-14.4-61.4-24.8c-2.9,2.6-6.7,4.7-9.7,6.5c-0.8,0.6-1.8,1-2.6,1.5c-0.1,0.1-0.4,0-0.4-0.1c-0.1-0.1,0-0.4,0.1-0.4   c0.7-0.4,1.7-1,2.6-1.5c2.9-1.7,6.8-3.9,9.7-6.5c0.1-0.1,0.3-0.1,0.4,0c14.1,10.4,34.2,18.6,61.7,25c0.1,0,0.3,0.1,0.3,0.3   c-1.4,21.9-3.6,44.8-10.3,63.3c-6.5,17.7-16.6,30.5-32,40.1c-12,7.2-15.2,10.7-20.1,15.8C271.6,235.8,271.4,235.9,271.3,235.9z"></path><path d="M271,256.1c-0.4,0-0.8-0.3-1-0.7c-2.6-8.2-8.3-15-15.2-19c-0.4-0.3-0.7-0.8-0.4-1.5c0.3-0.4,0.8-0.7,1.5-0.4   c6.7,3.7,12.2,10.1,15.3,17.6c4-8.7,8.6-11.6,16.3-16.6c2.5-1.7,5.4-3.5,8.7-5.8c1-0.7,2.1-1.5,3.3-2.2   c16.2-10.7,43.3-28.5,46.6-118.8c-21.8-5-51.8-14.4-74.1-30.4c-6.8,5.6-14.2,10.5-19.8,13.6c-0.4,0.3-1.2,0.1-1.5-0.4   c-0.3-0.4-0.1-1.2,0.4-1.5c5.8-3,13.3-8.3,20.1-14c0.4-0.3,0.8-0.3,1.4,0c22.3,16.4,53.1,25.6,74.8,30.6c0.4,0.1,0.8,0.6,0.8,1   c-1.4,40.3-7.6,70.1-18.8,91.1c-9.4,17.6-20.7,25-28.7,30.4c-1.2,0.7-2.2,1.5-3.3,2.1c-3.5,2.3-6.2,4.2-8.9,5.8   c-8.6,5.6-12.5,7.9-16.5,17.9C272,256.1,271.4,256.1,271,256.1z"></path><path class="stSeventhBlog20" d="M271.3,235.9c-0.1,0-0.1,0-0.3-0.1c-2.1-2.8-2.9-3.5-5.7-5c-0.3-0.1-0.7-0.4-1-0.7c-0.1-0.1-0.1-0.3-0.1-0.4   c0.1-0.1,0.3-0.1,0.4-0.1c0.4,0.3,0.7,0.4,1,0.7c2.5,1.7,3.6,2.2,5.6,4.9c4.7-5,8.2-8.5,20-15.7c31.3-19,38.7-49.5,42.1-102.4   c-27.2-6.4-47.3-14.4-61.4-24.8c-2.9,2.6-6.7,4.7-9.7,6.5c-0.8,0.6-1.8,1-2.6,1.5c-0.1,0.1-0.4,0-0.4-0.1c-0.1-0.1,0-0.4,0.1-0.4   c0.7-0.4,1.7-1,2.6-1.5c2.9-1.7,6.8-3.9,9.7-6.5c0.1-0.1,0.3-0.1,0.4,0c14.1,10.4,34.2,18.6,61.7,25c0.1,0,0.3,0.1,0.3,0.3   c-1.4,21.9-3.6,44.8-10.3,63.3c-6.5,17.7-16.6,30.5-32,40.1c-12,7.2-15.2,10.7-20.1,15.8C271.6,235.8,271.4,235.9,271.3,235.9z"></path><g><g><g><path class="stSeventhBlog4" d="M78.3,143.2c-21.9,0.5-55.8-0.3-76.8-1.2c-1,10.4,0.3,17.3,5.9,24.2c4.5,5.6,9.1,7.4,16.6,7.6      c3.8,0.1,18-4.8,21.7-5.6C57.3,165.7,72,166.9,78.3,143.2z"></path><path d="M24,174.9C24,174.9,23.9,174.9,24,174.9c-8.2-0.1-12.9-2.3-17.5-8c-5.6-6.8-7.2-13.6-6.2-25c0.1-0.6,0.6-1.1,1.3-1.1      c21.1,1,55.2,1.7,76.8,1.2c0.4,0,0.7,0.1,1,0.4c0.2,0.3,0.3,0.7,0.2,1c-5.6,21.2-17.9,23.2-28.8,25c-1.7,0.3-3.3,0.5-4.8,0.8      c-1.3,0.3-3.8,1-6.7,1.9C33.3,172.9,26.7,174.9,24,174.9z M2.6,143.2c-0.8,10,0.8,16.1,5.7,22.2c4.2,5.1,8.3,7,15.6,7.1      c0,0,0,0,0.1,0c2.4,0,9.4-2.1,14.5-3.6c3-0.9,5.5-1.7,6.9-1.9c1.6-0.3,3.3-0.6,4.9-0.9c10.3-1.7,21-3.4,26.4-21.7      C55.5,144.8,23.3,144.1,2.6,143.2z"></path></g><g><path class="stSeventhBlog4" d="M162.3,2.6c8.2,44.3,3.9,88,1.9,133.1c-0.5,11.4-3.2,23-12,31.4c-6.2,6-14.6,8.3-24.2,7.3      c-35-3.5-80.3-0.8-105.9-0.8c6.9-1.9,6.7-2.3,11.1-8.6c4.4-6.3,4.8-14.7,5.7-22.5c2.1-17.2,5.5-34.6,4.9-51.9      C42.9,60.7,42,29,40,1.7C66.9,1.6,126.4,3.8,162.3,2.6z"></path><path d="M132.2,175.8c-1.4,0-2.8-0.1-4.3-0.2c-25.4-2.5-56.3-1.8-81-1.2c-9.1,0.2-17.8,0.4-24.8,0.4c-0.6,0-1.1-0.4-1.2-1      c-0.1-0.6,0.3-1.1,0.9-1.3c5.9-1.6,6.1-1.9,9.4-6.7c0.3-0.4,0.7-1,1-1.5c3.7-5.2,4.4-12.2,5.2-18.9c0.1-1,0.2-2,0.3-3      c0.5-4.3,1.1-8.6,1.7-12.8c1.8-12.8,3.6-26,3.2-38.9l-0.2-5.5c-0.9-28.4-1.8-57.7-3.8-83.4c0-0.3,0.1-0.7,0.3-0.9      c0.2-0.3,0.6-0.4,0.9-0.4c9.3,0,22.1,0.3,37,0.6c27.6,0.6,61.8,1.2,85.3,0.4c0.6,0,1.1,0.4,1.2,1c6.9,37.4,5,73.6,3,112      c-0.4,7-0.7,14.2-1.1,21.4c-0.6,14.2-4.7,24.8-12.4,32.2C147.6,173.2,140.6,175.8,132.2,175.8z M83.7,171.4      c15.2,0,30.5,0.4,44.4,1.8c9.6,1,17.4-1.4,23.2-7c7.2-7,11-17,11.6-30.6c0.3-7.2,0.7-14.4,1.1-21.4c2-37.8,3.9-73.7-2.7-110.4      C137.8,4.6,104,3.9,76.8,3.4C62.7,3.1,50.3,2.9,41.2,2.8C43.1,28.3,44,57.1,44.9,85l0.2,5.5c0.4,13.1-1.4,26.4-3.2,39.3      c-0.6,4.2-1.2,8.5-1.7,12.8c-0.1,1-0.2,2-0.3,3c-0.8,7-1.6,14.3-5.6,20c-0.4,0.5-0.7,1-1,1.5c-1.9,2.7-3,4.2-4.5,5.3      c5.5-0.1,11.7-0.2,18.1-0.4C58.2,171.7,70.9,171.4,83.7,171.4z"></path></g><g><g><path class="stSeventhBlog4" d="M206.8,13c1.4-2.4,2.8-4.8,4.2-7.1c0.7-1.1,1.4-2.4,2.7-2.8c1.2-0.4,2.5-0.2,3.7,0.2       c1.4,0.4,3,1.3,3.4,2.7c0.3,1.4-0.7,2.6-1.5,3.7c-2.1,2.5-4.2,4.9-6.5,7.2c-0.5,0.5-1,1-1.6,1.3c-0.5,0.2-1.1,0.2-1.7,0.1       c-1.3-0.2-2.6-1-3.2-2.2C205.6,14.9,205.8,13.4,206.8,13z"></path><path d="M210.1,19.6c-0.3,0-0.5,0-0.8-0.1c-1.8-0.3-3.4-1.4-4.1-2.8c-0.5-1.1-0.6-2.3-0.2-3.3c0.2-0.5,0.6-1,1-1.2l4.1-6.8       c0.6-1.1,1.6-2.7,3.3-3.4c1.5-0.6,3.2-0.2,4.5,0.2c2.4,0.8,3.8,2,4.2,3.6c0.4,2.1-1.1,3.9-1.8,4.7c-2.1,2.5-4.3,4.9-6.5,7.3       c-0.5,0.5-1.1,1.2-2,1.6C211.1,19.5,210.6,19.6,210.1,19.6z M207.2,14.1c-0.1,0.1-0.3,0.8,0.1,1.5c0.4,0.8,1.3,1.4,2.3,1.5       c0.4,0.1,0.8,0,1.1-0.1c0.4-0.2,0.8-0.6,1.2-1c2.2-2.3,4.4-4.8,6.4-7.2c0.8-0.9,1.5-1.9,1.3-2.7c-0.2-0.9-1.5-1.5-2.5-1.8       c-0.9-0.3-2-0.6-2.9-0.2c-0.8,0.3-1.5,1.3-2.1,2.3l-4.2,7.1C207.7,13.9,207.5,14,207.2,14.1z M206.8,13L206.8,13L206.8,13z"></path></g><g><path class="stSeventhBlog4" d="M167.8,62.7c-10,14.2-18.1,27.4-29.3,43.3c-1.1,2.2-2.4,4.3-3.3,6.6c-0.8,2.3-1.1,4.9-0.1,7.2       c1,2.3,3.5,3.9,5.9,3.5c2-0.4,3.5-2.1,4.8-3.7c12.6-15.9,24.2-33,36.1-49.5L167.8,62.7z"></path><path d="M140.2,124.5c-2.5,0-5.1-1.7-6.2-4.2c-1.3-2.9-0.7-6,0.1-8c0.6-1.7,1.5-3.3,2.3-4.8c0.3-0.6,0.7-1.3,1-1.9       c0,0,0-0.1,0.1-0.1c5.8-8.2,10.7-15.6,15.5-22.8c4.6-7,9-13.5,13.8-20.4c0.3-0.5,1-0.7,1.5-0.4l14.1,7.3       c0.3,0.1,0.5,0.4,0.6,0.8c0.1,0.3,0,0.7-0.2,1c-3.4,4.7-6.8,9.5-10.1,14.2c-8.3,11.8-17,23.9-26,35.3c-1.1,1.4-2.9,3.6-5.5,4.1       C140.9,124.5,140.6,124.5,140.2,124.5z M139.5,106.7c-0.3,0.6-0.7,1.3-1,1.9c-0.8,1.5-1.6,3-2.2,4.5c-0.6,1.7-1.1,4.1-0.1,6.3       c0.7,1.6,2.7,3.2,4.6,2.8c1.6-0.3,2.8-1.7,4.1-3.3c9-11.3,17.6-23.5,25.9-35.2c3.1-4.3,6.2-8.7,9.3-13.1l-12-6.2       c-4.6,6.6-8.8,12.9-13.2,19.6C150.2,91,145.2,98.5,139.5,106.7z"></path></g><g><path class="stSeventhBlog14" d="M181.6,74.2c-2.8-1.7-12.9-8.3-17.1-12c6.8-8.5,9.5-14.1,15.8-23.1c2.4-3.5,11.4-16.1,13.3-18.7       c7.5-10.7,15.5-7,19.5-3.2c7.3,6.8-3.5,16.4-5.6,19.2C198.1,49,190.2,59.9,181.6,74.2z"></path><path d="M181.6,75.4c-0.2,0-0.4-0.1-0.6-0.2c-2.7-1.6-12.9-8.4-17.3-12.1c-0.5-0.4-0.6-1.1-0.1-1.6c4.2-5.3,6.8-9.3,9.8-14       c1.8-2.8,3.6-5.6,5.9-9c1.5-2.2,5.6-8,8.9-12.6c2-2.8,3.7-5.2,4.4-6.2c3.2-4.6,6.8-7.1,10.8-7.5c4.8-0.5,8.7,2.4,10.6,4.1       c7,6.6-0.8,15.5-4.1,19.2c-0.6,0.6-1.1,1.2-1.3,1.5c-10.1,13.5-17.6,23.9-25.9,37.8c-0.1,0.3-0.4,0.5-0.7,0.6       C181.8,75.4,181.7,75.4,181.6,75.4z M166.2,62c4.1,3.3,11.7,8.4,15.1,10.6c8.2-13.4,15.8-24.2,25.4-37c0.3-0.4,0.8-1,1.4-1.7       c5-5.6,9-11.5,4.3-15.9c-1.5-1.5-4.8-3.9-8.7-3.5c-3.2,0.3-6.3,2.5-9.1,6.5c-0.7,1-2.4,3.4-4.4,6.2c-3.3,4.6-7.4,10.3-8.9,12.5       c-2.3,3.4-4.1,6.2-5.9,9C172.7,53,170.1,57.1,166.2,62z"></path></g><g><path d="M193.4,72.9c-1.2,0-2.4-0.4-3.2-1.2c-2.2-2-2.1-5.2-1.1-7.5c1-2.3,2.9-3.9,4.5-5.3l15.5-13.5c3.1-2.7,6.3-5.5,8.6-8.9       c2.5-3.7,3.6-7.6,3.1-11c-0.6-3.9-3.5-7.2-7-7.9c-0.7-0.1-1.1-0.7-1-1.4c0.1-0.7,0.7-1.1,1.4-1c4.5,0.8,8.2,4.9,8.9,9.8       c0.6,4.1-0.6,8.6-3.5,12.7c-2.5,3.6-5.8,6.5-9,9.3l-15.5,13.5c-1.5,1.3-3.1,2.7-3.9,4.5c-0.7,1.5-0.7,3.5,0.5,4.7       c0.6,0.5,1.5,0.7,2.3,0.4c0.3-0.1,0.9-0.4,1.1-1c0.1-0.6,0.8-1,1.4-0.8c0.6,0.1,1,0.8,0.8,1.4c-0.3,1.3-1.3,2.3-2.7,2.7       C194.4,72.8,193.9,72.9,193.4,72.9z"></path></g><g><path d="M132.1,130.8c-0.2,0-0.4-0.1-0.7-0.2c-0.6-0.4-0.7-1.1-0.3-1.7l4.7-7.2c0.4-0.6,1.1-0.7,1.7-0.3s0.7,1.1,0.3,1.7       l-4.7,7.2C132.9,130.6,132.5,130.8,132.1,130.8z"></path></g></g><g><path d="M69,145.2c-4.3,0-8.6,0-12.9,0c-0.2,0-0.4-0.2-0.4-0.4c0-0.2,0.2-0.4,0.4-0.4c28.2,0.2,56.7-0.3,84.9-1.5      c0.2,0,0.4,0.1,0.4,0.4c0,0.2-0.1,0.4-0.4,0.4C117.2,144.7,93,145.2,69,145.2z"></path></g><g><path d="M62.2,75.5c-0.2,0-0.4-0.2-0.4-0.4c0-0.2,0.1-0.4,0.4-0.4l85-3.1c0.2,0,0.4,0.1,0.4,0.4c0,0.2-0.1,0.4-0.4,0.4      L62.2,75.5C62.3,75.5,62.2,75.5,62.2,75.5z"></path></g><g><path d="M60.7,99.3c-0.2,0-0.4-0.1-0.4-0.4c0-0.2,0.1-0.4,0.4-0.4c25.2-1.8,50.7-2.9,75.9-3.2l0,0c0.2,0,0.4,0.2,0.4,0.4      s-0.2,0.4-0.4,0.4C111.4,96.4,85.8,97.5,60.7,99.3L60.7,99.3z"></path></g><g><path d="M59.4,123.5c-0.2,0-0.4-0.1-0.4-0.3c0-0.2,0.1-0.4,0.3-0.4c21.4-2.6,43.2-3.2,64.7-1.8c0.2,0,0.4,0.2,0.4,0.4      c0,0.2-0.2,0.4-0.4,0.4C102.4,120.3,80.8,120.9,59.4,123.5C59.4,123.5,59.4,123.5,59.4,123.5z"></path></g></g><g><polygon class="stSeventhBlog14" points="93.4,26.6 87.1,33 106,56.5 124.2,26.6 117.5,20.5 104.7,40.8    "></polygon><path d="M106,57.7c-0.4,0-0.7-0.1-0.9-0.4L86.1,33.7c-0.4-0.5-0.3-1.2,0.1-1.6l6.4-6.3c0.3-0.2,0.6-0.4,0.9-0.3     c0.3,0,0.7,0.2,0.8,0.4l10.2,12.8l11.8-18.8c0.2-0.3,0.5-0.5,0.8-0.6c0.3,0,0.7,0.1,1,0.3l6.8,6c0.4,0.4,0.5,1,0.2,1.5     l-18.3,29.9C106.8,57.5,106.4,57.7,106,57.7C106,57.7,106,57.7,106,57.7z M88.7,33.1l17.2,21.4l16.9-27.6l-5-4.5l-12,19     c-0.2,0.3-0.6,0.5-1,0.6c-0.4,0-0.8-0.1-1-0.4L93.3,28.4L88.7,33.1z"></path></g></g></g></svg>