<svg width="60" height="121" viewBox="0 0 60 121" fill="none" xmlns="http://www.w3.org/2000/svg"><path d="M19.0425 119.758C18.3399 109.25 20.274 98.6926 19.4684 88.1918C19.4365 87.7908 19.4045 87.3721 19.5536 86.9995C19.7026 86.6268 20.093 86.3145 20.6182 86.0519C20.5224 84.7282 20.494 83.401 20.5259 82.0773C20.5295 81.9141 20.5401 81.7366 20.6501 81.6124C20.7566 81.4918 20.9234 81.4598 21.0795 81.4315C21.5338 81.3498 21.9845 81.2682 22.4387 81.1901C22.4564 78.3405 22.5842 75.4908 22.8787 72.4673C22.9994 70.5652 23.1201 68.663 23.2407 66.7609C23.3436 65.1249 23.4501 63.4889 23.443 61.8494C23.4324 59.3759 23.1768 56.8741 23.6559 54.4502C23.8369 53.5382 24.1386 52.6155 24.7915 51.6964C26.7185 51.4906 28.5674 50.6105 29.9408 49.2407C32.9998 46.1958 33.3547 41.405 35.4484 37.6327C36.1901 36.2948 37.1589 35.0847 38.2981 34.0626C38.7133 33.69 39.1675 33.3351 39.7034 33.1861C40.2393 33.037 40.878 33.1329 41.24 33.5552C41.6943 34.0839 41.5771 34.8753 41.4458 35.5602C40.7574 39.1303 40.3919 42.7606 40.5941 46.4975C45.1507 44.3647 49.8706 42.5726 54.6721 40.6598C54.012 38.5376 53.2313 36.4545 52.3299 34.4246C51.6237 32.8312 50.8359 31.2378 50.591 29.5131C50.5733 29.3925 50.5591 29.2647 50.6052 29.1512C50.6762 28.9773 50.8749 28.885 51.0594 28.8531C51.645 28.7502 52.2412 29.0553 52.6422 29.4918C53.0432 29.9319 53.281 30.489 53.5152 31.0355C54.4946 33.3387 55.4741 35.6383 56.4535 37.9414C56.78 38.7115 57.1136 39.5029 57.1633 40.3404C57.2236 41.3802 56.8404 42.388 56.3577 43.4775C54.264 46.7069 51.0807 49.0419 48.0607 51.4267C45.0407 53.815 42.0243 56.4553 40.4948 59.9899C39.9696 61.2035 39.636 62.4953 39.3521 63.787C38.0497 69.6957 37.7126 75.8138 38.5146 81.9673C38.9866 81.9709 39.4585 81.9709 39.927 81.9744C39.9483 83.511 39.8596 85.0512 39.6644 86.5772C39.9447 86.602 40.2286 86.6268 40.509 86.6517C38.653 97.6635 41.2968 108.931 40.9277 120.62C35.3242 120.943 29.703 121 24.0924 120.791C22.4139 120.73 20.6892 120.635 19.0425 119.758Z" fill="white"></path><path d="M21.9206 95.186C21.8958 95.186 21.8709 95.1789 21.8461 95.1647C21.7787 95.1221 21.7538 95.0334 21.7964 94.966L26.243 87.5633C26.2856 87.4959 26.3743 87.4746 26.4417 87.5136C26.5092 87.5562 26.534 87.6449 26.4914 87.7123L22.0448 95.115C22.0164 95.1612 21.9703 95.186 21.9206 95.186Z" fill="black"></path><path d="M20.7673 102.476C20.7425 102.476 20.7141 102.469 20.6892 102.454C20.6218 102.412 20.6005 102.323 20.6431 102.256L29.5469 88.1529C29.5895 88.0854 29.6782 88.0641 29.7457 88.1067C29.8131 88.1493 29.8344 88.238 29.7918 88.3054L20.888 102.408C20.8596 102.451 20.8134 102.476 20.7673 102.476Z" fill="black"></path><path d="M21.3884 108.689C21.3636 108.689 21.3352 108.682 21.3103 108.668C21.2429 108.625 21.2216 108.537 21.2642 108.469L33.8516 88.5749C33.8942 88.5074 33.9829 88.4897 34.0504 88.5287C34.1178 88.5713 34.1391 88.66 34.0965 88.7275L21.5091 108.622C21.4842 108.664 21.4381 108.689 21.3884 108.689Z" fill="black"></path><path d="M21.4664 90.8959C21.4416 90.8959 21.4132 90.8888 21.3919 90.8746C21.3245 90.8321 21.3032 90.7433 21.3422 90.6759L22.6943 88.4544C22.7369 88.387 22.8256 88.3657 22.893 88.4047C22.9604 88.4473 22.9817 88.536 22.9427 88.6034L21.5906 90.825C21.5622 90.8711 21.5161 90.8959 21.4664 90.8959Z" fill="black"></path><path d="M21.4949 116.294C21.4665 116.294 21.4381 116.287 21.4133 116.269C21.3459 116.223 21.3317 116.135 21.3742 116.067C27.3078 107.419 32.7161 98.2878 37.4466 88.9297C37.4821 88.8588 37.5708 88.8304 37.6417 88.8659C37.7127 88.9013 37.7411 88.9901 37.7056 89.0611C32.968 98.4333 27.5562 107.575 21.6156 116.234C21.5872 116.273 21.541 116.294 21.4949 116.294Z" fill="black"></path><path d="M23.6806 120.297C23.6522 120.297 23.6238 120.29 23.599 120.272C23.5351 120.226 23.5174 120.137 23.5635 120.07C28.7624 112.532 33.5923 104.619 37.9182 96.5522C37.9572 96.4812 38.0424 96.4564 38.1134 96.4919C38.1844 96.5309 38.2092 96.6161 38.1737 96.687C33.8407 104.764 29.0037 112.685 23.8013 120.233C23.7729 120.276 23.7267 120.297 23.6806 120.297Z" fill="black"></path><path d="M28.0246 119.361C27.9998 119.361 27.9714 119.354 27.9466 119.339C27.8791 119.297 27.8578 119.208 27.9004 119.141L37.8121 103.554C37.8547 103.487 37.9434 103.466 38.0108 103.508C38.0783 103.551 38.0995 103.64 38.0534 103.707L28.1417 119.293C28.1204 119.336 28.0743 119.361 28.0246 119.361Z" fill="black"></path><path d="M31.6409 119.936C31.6125 119.936 31.5841 119.928 31.5593 119.911C31.4918 119.865 31.4777 119.776 31.5202 119.708L37.8441 110.46C37.8903 110.393 37.979 110.379 38.0464 110.421C38.1138 110.467 38.128 110.556 38.0854 110.624L31.7616 119.872C31.7332 119.914 31.687 119.936 31.6409 119.936Z" fill="black"></path><path d="M35.5018 119.999C35.4734 119.999 35.4451 119.992 35.4202 119.974C35.3528 119.928 35.335 119.839 35.3812 119.772L37.8724 116.085C37.9185 116.017 38.0072 116.003 38.0747 116.046C38.1421 116.092 38.1598 116.181 38.1137 116.248L35.6225 119.935C35.5941 119.978 35.548 119.999 35.5018 119.999Z" fill="black"></path><path d="M3.39945 31.0073C2.93456 25.2228 1.94091 19.4774 0.603027 13.8632C6.28104 11.7553 12.03 9.84249 17.9068 8.15329C17.7826 10.35 17.9848 12.6567 19.1133 14.5446C20.2418 16.4361 22.4847 17.7846 24.6388 17.3268C26.9171 16.8406 28.4466 14.4204 28.3969 12.0924C28.3472 9.76442 26.9951 7.61387 25.1569 5.9495C31.0478 4.72163 36.8252 2.95435 42.3577 0.715088C43.3585 6.48537 44.8134 12.1776 46.5878 17.7101C48.8271 17.7704 50.5624 15.7867 51.659 13.8313C51.9252 13.3593 52.1807 12.866 52.5781 12.497C53.7386 11.4146 55.6904 11.773 56.9325 12.756C59.0901 14.4665 59.7005 17.7704 58.4762 20.2368C57.2518 22.7032 54.4164 24.2043 51.6696 24.0446C51.3928 24.0304 51.1089 23.9985 50.8463 24.0872C50.6441 24.1546 50.4666 24.2895 50.3247 24.4492C49.4588 25.4002 49.7959 26.8907 50.1827 28.115C50.6299 29.5239 51.077 30.9363 51.439 32.2068C52.5568 35.1593 53.6711 38.1154 54.5016 41.1603C49.622 42.7253 44.8241 44.5564 40.083 46.5224C40.4911 42.6472 40.8956 38.772 41.3037 34.8967C41.3499 34.4425 41.396 33.9598 41.2115 33.5411C40.8637 32.7568 39.8026 32.5049 38.997 32.7994C38.1915 33.0904 37.5988 33.7789 37.0914 34.4709C35.3276 36.884 34.1707 39.6769 33.1345 42.4769C32.0912 45.3052 31.0727 48.3039 28.7411 50.3693C22.8963 52.0762 17.0551 53.7832 11.3025 55.4973C10.3124 50.8058 7.80701 46.1143 7.07596 41.4655C7.3918 40.5534 8.77581 40.6031 9.62397 40.1382C11.4303 39.141 12.903 37.5299 13.7299 35.6384C14.5567 33.7469 14.3474 31.3089 12.8356 29.9001C11.5226 28.6757 9.52816 28.4486 7.77152 28.8106C6.1249 29.1548 4.57409 29.9568 3.39945 31.0073Z" fill="#ACD4F7"></path><g opacity="0.1294"><path d="M40.7076 118.054C40.6438 115.254 40.8247 112.444 40.5408 109.651C40.3918 107.231 40.335 106.418 40.1008 104.654C40.0298 103.664 40.0901 102.66 39.9908 101.67C39.7637 99.0259 39.5969 96.3608 39.8914 93.7134C40.3244 90.9312 40.0121 90.7218 40.6544 88.1773C40.8922 87.7657 41.0874 87.315 40.9312 86.8323C40.7999 86.2894 40.367 85.9452 39.8772 85.8316C39.9801 85.1573 39.8169 85.2673 39.8346 84.664C39.8098 83.9472 40.0192 83.1842 39.8595 82.4887C39.7175 82.1054 39.3449 81.9847 39.0149 82.0557C38.9865 82.0451 38.9546 82.038 38.9226 82.0309C38.6671 81.6405 38.0283 81.6192 37.826 82.1373C37.5599 82.6519 37.638 83.2375 37.5528 83.7946C37.5067 84.586 37.315 85.427 37.4783 86.2042C37.5244 86.3249 37.5954 86.4171 37.6805 86.4846C37.7835 86.6656 37.9325 86.7933 38.0993 86.8749C37.8473 87.5137 37.7941 88.2199 37.7551 88.9013C37.7054 90.0333 37.7231 91.1796 37.8473 92.3045C37.8331 92.2016 37.7977 91.8893 37.8083 92.0987C37.8331 92.9433 37.8189 93.7844 37.8651 94.629C37.8935 96.3714 37.8438 98.1138 37.8686 99.8527C37.8828 101.361 37.9857 102.862 38.0887 104.363C38.039 105.836 37.9857 107.309 38.1029 108.781C38.3655 112.632 38.2732 117.696 38.6813 119.108C38.6848 119.137 38.6884 119.165 38.6919 119.193C38.3229 120.109 39.2668 121.298 40.3989 120.687C41.0554 120.326 41.1299 119.442 40.7254 118.902C40.7076 118.622 40.7076 118.338 40.7076 118.054Z" fill="black"></path></g><g opacity="0.1294"><path d="M57.3514 39.6624C57.3514 40.3189 57.2343 40.9541 57.0249 41.5645C57.2165 41.1635 57.3762 40.7802 57.4117 40.1556C57.394 39.8824 57.4366 39.822 57.3514 39.6624Z" fill="black"></path></g><g opacity="0.1294"><path d="M38.6104 59.5641C38.1561 60.1603 37.7409 60.7814 37.3576 61.413C37.2512 61.7111 37.1483 62.0092 37.0418 62.3109C36.6018 63.5494 36.403 64.8908 35.9665 66.7575C35.6684 69.0251 35.5975 71.3176 35.5904 73.603C35.5691 75.0296 35.5833 76.4882 35.562 78.4435C35.5904 79.5082 35.4484 80.626 35.6826 81.6623C36.0482 82.6275 37.5706 82.333 37.5528 81.2861C37.4002 79.5011 37.4819 77.7054 37.3364 75.9204C37.3789 74.4441 37.4712 73.5214 37.5386 71.6867C37.5386 71.6547 37.5422 71.6264 37.5422 71.5944C37.8296 71.5093 38.0674 71.2679 38.078 70.8634C38.181 68.4041 39.0504 66.0264 39.3237 63.159C39.3414 62.8822 39.3769 62.5735 39.2562 62.3251C39.8595 60.7068 40.5054 59.4151 41.6694 57.552C41.8894 57.2042 42.0775 56.8351 42.2833 56.4767C42.8405 55.8308 43.4438 55.2347 44.0471 54.6314C44.0861 54.5959 44.1251 54.5604 44.1642 54.5249C42.0491 55.8841 40.1505 57.5342 38.6104 59.5641Z" fill="black"></path></g><g opacity="0.1294"><path d="M52.9155 47.3918C53.1781 47.1576 53.4336 46.9127 53.682 46.6572C54.0014 46.2917 54.3066 45.8872 54.5763 45.511C54.115 46.0433 53.6252 46.5508 53.0965 47.0334C52.8658 47.2463 52.6245 47.4522 52.3867 47.6544C52.5642 47.5657 52.7416 47.477 52.9155 47.3918Z" fill="black"></path></g><g opacity="0.1294"><path d="M53.4725 41.4757C53.4867 41.4615 53.508 41.4473 53.5222 41.4296C53.579 41.3338 53.6038 41.2273 53.6003 41.1208C53.5754 41.1421 53.547 41.1599 53.5151 41.1705C52.7415 41.5112 51.8933 41.6993 51.0842 41.9406C50.2893 42.1784 49.4979 42.4232 48.7065 42.6752C47.099 43.1862 45.5127 43.7434 43.9335 44.336C43.8802 44.3573 43.8305 44.3644 43.7809 44.3715C43.7809 44.3821 43.7773 44.3928 43.7773 44.3999C43.7773 44.407 43.7809 44.4105 43.7809 44.4176C43.7844 44.4602 43.7738 44.4957 43.7631 44.5312C43.7667 44.556 43.7667 44.5809 43.7702 44.6057C43.7702 44.6093 43.7702 44.6164 43.7702 44.6199C43.7702 44.6235 43.7702 44.6235 43.7702 44.627C43.7702 44.6306 43.7702 44.6341 43.7702 44.6377C43.7702 44.6483 43.7738 44.6554 43.7738 44.666C43.7738 44.6589 43.7738 44.6554 43.7702 44.6483C43.788 44.7725 43.7809 44.879 43.7205 44.989C43.7028 45.0209 43.6779 45.0422 43.6531 45.0671C43.6602 45.2551 43.5608 45.4326 43.3798 45.5071C43.1563 45.6029 42.9433 45.5071 42.8085 45.319C42.5388 44.9464 42.5991 44.4034 42.6027 43.9669C42.6062 43.7327 42.6204 43.5021 42.6417 43.2714C42.6311 43.2146 42.624 43.1578 42.6133 43.101C42.6062 43.0585 42.6098 43.0194 42.6098 42.9804C42.5033 42.6184 42.3401 41.9406 42.3223 41.5325C42.3223 41.4225 42.2975 41.3267 42.2655 41.2415C42.2691 41.0286 42.2691 40.8156 42.2726 40.6027C42.372 39.0768 42.6311 37.5543 42.4678 36.0213C42.4146 35.4641 42.3436 34.907 42.3223 34.3463C42.2655 34.0446 42.3081 33.6862 42.1129 33.4342C41.7155 32.8771 40.7999 33.3349 40.9951 33.9914C41.1619 35.1909 41.0128 37.5898 40.736 38.7787C40.5444 40.0952 40.044 41.3692 39.9837 42.7C39.9766 43.3282 39.934 43.9598 39.973 44.588C39.9837 44.9358 40.0476 45.2977 40.3102 45.5426C40.8389 46.1068 41.7794 45.8584 42.0846 45.2303C42.301 45.2729 42.5281 45.2764 42.7553 45.2622C41.8148 45.6632 40.8354 46.121 39.8595 46.6959C39.8559 47.3596 39.8488 48.0267 39.8311 48.6903C39.8275 48.8003 39.8204 48.9104 39.8169 49.0204C40.1682 49.2227 40.6189 49.2617 41.0944 48.9991C43.8909 47.0969 47.0173 45.752 50.0267 44.2296C50.8926 43.7647 51.7869 43.3495 52.2553 43.1685C52.6776 42.9484 53.2276 42.8775 53.5435 42.5119C53.8451 42.1713 53.7422 41.7383 53.4725 41.4757Z" fill="black"></path></g><g opacity="0.1294"><path d="M59.0265 14.3384C58.6219 14.09 58.0541 14.3242 57.9334 14.782C57.8696 14.9878 57.937 15.1901 57.9725 15.3924C58.008 15.7331 57.9831 16.0773 57.9476 16.418C57.9192 16.6664 57.8873 17.0319 57.6886 17.6778C57.6744 17.7204 57.6566 17.7594 57.6389 17.802C57.6389 17.8055 57.6353 17.8091 57.6353 17.8126C57.4402 18.2349 57.1988 18.6395 56.9256 19.0157C56.7765 19.2144 56.7091 19.3031 56.9008 19.0511C56.0171 20.2826 55.1086 21.2088 53.242 22.0498C52.4116 22.3976 51.4428 22.4508 50.6585 22.8838C49.8884 23.4268 50.5236 24.6901 51.425 24.4204C52.5748 24.1152 53.7636 23.9271 54.8212 23.3558C56.8369 22.3018 58.629 20.5629 59.1932 18.3059C59.4168 17.4045 59.8817 14.9204 59.0265 14.3384Z" fill="black"></path></g><path d="M22.3006 81.8784C22.0629 81.8784 21.8677 81.6832 21.8677 81.4455C21.8677 78.6987 22.1267 75.8917 22.3964 72.9178C22.7087 69.5181 23.0281 66.0013 23.0494 61.977C23.053 61.4766 23.0246 60.7349 22.9926 59.8797C22.9146 57.7327 22.8152 55.0569 23.0884 53.7865C23.5356 51.7104 24.7244 51.4123 25.9807 51.0965C26.7969 50.8907 27.638 50.6777 28.518 49.9822C30.5195 48.3959 31.8361 44.9749 33.1101 41.671C34.2635 38.6759 35.4559 35.5813 37.1912 33.8282C37.9719 33.0404 39.0188 32.171 40.2183 32.4549C40.7826 32.5897 41.2049 32.8807 41.471 33.3208C41.9998 34.2009 41.7727 35.4465 41.5171 36.4366C40.9316 38.6936 40.8464 41.1103 40.7613 43.4454C40.6974 45.2517 40.6371 46.9586 40.3532 48.5166C40.3106 48.7508 40.0834 48.9069 39.8492 48.8643C39.615 48.8218 39.4589 48.5946 39.5015 48.3604C39.7747 46.8664 39.835 45.1878 39.8989 43.4134C39.9841 41.0322 40.0728 38.5658 40.6796 36.2166C40.9884 35.0242 41.0061 34.2222 40.7293 33.7644C40.5874 33.5266 40.3567 33.374 40.0196 33.2959C39.2424 33.1149 38.4297 33.807 37.8087 34.4351C36.2011 36.0604 35.0442 39.0698 33.9228 41.9797C32.6062 45.3936 31.247 48.9247 29.0575 50.66C28.0319 51.4727 27.0134 51.7282 26.1936 51.9376C24.9977 52.2392 24.2737 52.4202 23.9402 53.971C23.6882 55.135 23.7876 57.8604 23.8621 59.8477C23.894 60.7136 23.9224 61.4624 23.9189 61.9805C23.9011 66.0474 23.5746 69.5784 23.2623 72.9994C22.9926 75.952 22.7371 78.7413 22.7371 81.449C22.7336 81.6832 22.5384 81.8784 22.3006 81.8784Z" fill="black"></path><path d="M11.5477 55.7953C11.3703 55.7953 11.2071 55.6852 11.1432 55.5149C9.18427 50.2698 7.76831 45.8552 6.55819 41.1992C6.50141 40.9756 6.62916 40.745 6.84919 40.6775C8.68744 40.0991 10.9764 39.3822 12.3285 37.7321C12.7898 37.1678 13.1518 36.4865 13.4073 35.6986C14.0319 33.7788 13.7338 31.2201 11.9594 30.0455C11.4555 29.7119 10.806 29.4777 10.036 29.3535C7.77896 28.9915 5.24515 29.8006 3.74048 31.3692C3.62337 31.4898 3.44593 31.5324 3.28623 31.4792C3.12654 31.4224 3.01298 31.2804 2.99524 31.1101C2.43808 25.3043 1.43379 19.5837 0.0142828 14.108C-0.0424973 13.8915 0.0746098 13.668 0.283986 13.5934C6.69659 11.2371 12.2823 9.39526 17.8574 7.79831C18.0065 7.75573 18.1662 7.79476 18.2762 7.90123C18.3862 8.00769 18.4323 8.16738 18.3968 8.31643C17.6374 11.4429 19.2982 15.0165 22.1798 16.4466C23.319 17.0144 24.4439 17.1173 25.2672 16.7341C25.7215 16.5212 26.1473 16.1343 26.5377 15.5843C27.5065 14.2216 27.872 12.3904 27.5207 10.6905C27.1126 8.72099 25.8421 7.17018 24.8485 6.21557C24.7349 6.10555 24.6888 5.94231 24.7314 5.78617C24.774 5.63357 24.8982 5.51291 25.0543 5.47743C30.7536 4.17858 36.6446 2.83715 42.2516 0.12945C42.3722 0.069121 42.5177 0.0726678 42.6384 0.132997C42.7591 0.193326 42.8442 0.310435 42.8691 0.441739C43.3304 2.96845 44.9628 11.5919 46.794 17.1883C47.0921 17.3267 47.4257 17.348 47.7806 17.2522C48.5648 17.0393 49.4378 16.2515 49.9524 15.2933C50.0837 15.0484 50.2115 14.7929 50.3428 14.5339C50.978 13.2669 51.6984 11.8333 53.1356 11.3187C53.8134 11.0738 54.6261 11.0703 55.4885 11.3009C58.5617 12.1278 60.5951 15.6588 59.8428 18.8598C59.133 21.8798 56.0492 24.2397 52.8198 24.2433C52.6885 24.2433 52.5749 24.2397 52.4507 24.2362C51.9007 24.222 51.379 24.2113 50.9851 24.4491C50.144 24.9566 50.2753 26.3512 50.5344 27.4336C51.2512 30.4039 52.1313 32.629 53.0647 34.9818C53.7531 36.7207 54.4664 38.5199 55.1975 40.7911C55.2649 41.004 55.1584 41.2347 54.9526 41.3234C53.3982 41.9799 51.3896 42.7181 49.2639 43.4953C46.1943 44.6202 43.0181 45.7842 40.793 46.8595C40.5766 46.9624 40.3175 46.8737 40.2146 46.6572C40.1117 46.4407 40.2004 46.1817 40.4169 46.0788C42.681 44.9857 45.8749 43.8147 48.9658 42.6826C50.9177 41.9657 52.7701 41.2879 54.2499 40.6775C53.5721 38.6086 52.905 36.9301 52.2626 35.3012C51.3187 32.9164 50.4244 30.6665 49.6933 27.6359C49.2178 25.6557 49.5017 24.332 50.5379 23.7074C51.1448 23.3419 51.8474 23.3561 52.472 23.3703C52.5891 23.3738 52.7062 23.3774 52.8233 23.3738C55.6659 23.3738 58.3807 21.3049 59.0017 18.6611C59.6405 15.9463 57.859 12.8375 55.2684 12.1384C54.7893 12.0107 54.0831 11.9042 53.4337 12.1349C52.323 12.5324 51.7126 13.746 51.1235 14.9242C50.9886 15.1904 50.8573 15.453 50.7225 15.7049C50.0908 16.876 49.0262 17.8129 48.0148 18.0897C47.376 18.2636 46.755 18.1855 46.2155 17.8626C46.1268 17.8094 46.0594 17.7242 46.0275 17.6284C44.2744 12.3372 42.6952 4.26375 42.1203 1.15504C36.8326 3.62852 31.3427 4.93447 26.0054 6.15169C26.9671 7.19857 27.9962 8.6855 28.3759 10.5131C28.777 12.4436 28.3547 14.5268 27.251 16.0847C26.7719 16.7589 26.2325 17.2416 25.6399 17.5184C24.1849 18.1997 22.6092 17.6248 21.8001 17.2238C18.7908 15.7262 16.9667 12.142 17.4245 8.8239C12.1972 10.3392 6.93436 12.0781 0.954701 14.2677C2.26419 19.3992 3.21526 24.7436 3.77596 30.1661C5.49001 28.7999 7.95285 28.1398 10.1779 28.4947C11.0722 28.6366 11.8352 28.9134 12.442 29.318C14.5784 30.7339 14.9616 33.7326 14.2341 35.9648C13.9467 36.852 13.5315 37.6327 12.9992 38.2786C11.5832 40.0068 9.3759 40.784 7.50216 41.3767C8.65905 45.7594 10.004 49.9505 11.8316 54.869C15.0823 54.2799 18.3578 53.2437 21.5268 52.2394C22.3644 51.9732 23.8016 51.4658 25.1927 50.976C26.5909 50.4828 28.0353 49.9753 28.8834 49.7056C29.1105 49.6311 29.3554 49.7588 29.4264 49.9895C29.4974 50.2166 29.3731 50.4615 29.1425 50.5324C28.3085 50.7986 26.8713 51.3025 25.4766 51.7958C24.0784 52.2891 22.6341 52.7966 21.7859 53.0663C18.4714 54.1167 15.0468 55.2026 11.6187 55.7882C11.5974 55.7917 11.5726 55.7953 11.5477 55.7953Z" fill="black"></path><path d="M38.078 82.1768C37.8579 82.1768 37.6699 82.0135 37.6486 81.79C36.9211 75.0757 37.8828 65.8703 39.8914 60.3732C41.5309 55.8841 45.6723 52.7221 49.3275 49.9328C52.4398 47.5551 55.3817 45.3123 56.1731 42.7004C57.0283 39.8792 56.9751 39.7691 55.6301 36.9727C55.002 35.6703 54.0545 33.7008 52.823 30.6169C52.2304 29.13 52.2304 29.13 50.6725 29.5878C50.4418 29.6552 50.2005 29.5239 50.1331 29.2932C50.0657 29.0625 50.197 28.8212 50.4276 28.7538C52.4611 28.1576 52.8514 28.3457 53.6286 30.294C54.8494 33.353 55.7543 35.2267 56.4144 36.5966C57.7842 39.4391 57.9616 39.8046 57.007 42.9524C56.134 45.8304 53.0857 48.1584 49.8563 50.6212C46.2969 53.3396 42.2584 56.4199 40.7076 60.6678C38.7416 66.0548 37.7976 75.097 38.5145 81.6942C38.5393 81.9319 38.369 82.1449 38.1312 82.1732C38.1064 82.1768 38.0922 82.1768 38.078 82.1768Z" fill="black"></path><path d="M19.1281 120.269C19.121 120.269 19.1175 120.269 19.1104 120.269C18.869 120.262 18.6845 120.059 18.6916 119.818C19.0962 108.803 19.2381 97.6311 19.1139 86.6122C19.1104 86.4028 19.2594 86.2218 19.4652 86.1828C23.6102 85.3808 27.6735 85.5937 31.6055 85.796C34.5581 85.9486 37.5071 86.1012 40.4313 86.2467C40.552 86.2538 40.662 86.307 40.74 86.3993C40.8181 86.4915 40.8536 86.6086 40.8394 86.7293C40.268 91.7827 40.4597 96.9568 40.6442 101.961L41.3007 119.754C41.3078 119.992 41.1233 120.194 40.882 120.205C40.8749 120.205 40.8713 120.205 40.8642 120.205C40.6336 120.205 40.4384 120.02 40.4313 119.786L39.7748 101.993C39.5938 97.1059 39.4092 92.0595 39.9274 87.0877C37.1558 86.9493 34.3558 86.8038 31.5594 86.6583C27.7942 86.4631 23.9047 86.2644 19.9834 86.9635C20.1005 97.8795 19.955 108.941 19.554 119.846C19.554 120.088 19.3623 120.269 19.1281 120.269Z" fill="black"></path><path d="M20.3345 86.7616C20.331 86.7616 20.3274 86.7616 20.3239 86.7616C20.0861 86.7545 19.8945 86.5558 19.9016 86.318L20.0258 81.6833C20.0329 81.4562 20.2138 81.2717 20.4445 81.261C26.9423 81.0197 33.5217 81.1865 39.9982 81.7543C40.2217 81.772 40.3956 81.9637 40.3956 82.1872C40.3921 83.5855 40.2963 84.9943 40.1082 86.3783C40.0762 86.6161 39.8562 86.7829 39.6185 86.7509C39.3807 86.719 39.2139 86.499 39.2458 86.2612C39.4091 85.0475 39.5013 83.809 39.5226 82.5811C33.3478 82.0559 27.0807 81.8998 20.8846 82.1127L20.771 86.3357C20.7604 86.5735 20.5687 86.7616 20.3345 86.7616Z" fill="black"></path><path d="M21.9206 95.186C21.8958 95.186 21.8709 95.1789 21.8461 95.1647C21.7787 95.1221 21.7538 95.0334 21.7964 94.966L26.243 87.5633C26.2856 87.4959 26.3743 87.4746 26.4417 87.5136C26.5092 87.5562 26.534 87.6449 26.4914 87.7123L22.0448 95.115C22.0164 95.1612 21.9703 95.186 21.9206 95.186Z" fill="black"></path><path d="M20.7673 102.476C20.7425 102.476 20.7141 102.469 20.6892 102.454C20.6218 102.412 20.6005 102.323 20.6431 102.256L29.5469 88.1529C29.5895 88.0854 29.6782 88.0641 29.7457 88.1067C29.8131 88.1493 29.8344 88.238 29.7918 88.3054L20.888 102.408C20.8596 102.451 20.8134 102.476 20.7673 102.476Z" fill="black"></path><path d="M21.3884 108.689C21.3636 108.689 21.3352 108.682 21.3103 108.668C21.2429 108.625 21.2216 108.537 21.2642 108.469L33.8516 88.5749C33.8942 88.5074 33.9829 88.4897 34.0504 88.5287C34.1178 88.5713 34.1391 88.66 34.0965 88.7275L21.5091 108.622C21.4842 108.664 21.4381 108.689 21.3884 108.689Z" fill="black"></path><path d="M21.4664 90.8959C21.4416 90.8959 21.4132 90.8888 21.3919 90.8746C21.3245 90.8321 21.3032 90.7433 21.3422 90.6759L22.6943 88.4544C22.7369 88.387 22.8256 88.3657 22.893 88.4047C22.9604 88.4473 22.9817 88.536 22.9427 88.6034L21.5906 90.825C21.5622 90.8711 21.5161 90.8959 21.4664 90.8959Z" fill="black"></path><path d="M21.4949 116.294C21.4665 116.294 21.4381 116.287 21.4133 116.269C21.3459 116.223 21.3317 116.135 21.3742 116.067C27.3078 107.419 32.7161 98.2878 37.4466 88.9297C37.4821 88.8588 37.5708 88.8304 37.6417 88.8659C37.7127 88.9013 37.7411 88.9901 37.7056 89.0611C32.968 98.4333 27.5562 107.575 21.6156 116.234C21.5872 116.273 21.541 116.294 21.4949 116.294Z" fill="black"></path><path d="M23.6806 120.297C23.6522 120.297 23.6238 120.29 23.599 120.272C23.5351 120.226 23.5174 120.137 23.5635 120.07C28.7624 112.532 33.5923 104.619 37.9182 96.5522C37.9572 96.4812 38.0424 96.4564 38.1134 96.4919C38.1844 96.5309 38.2092 96.6161 38.1737 96.687C33.8407 104.764 29.0037 112.685 23.8013 120.233C23.7729 120.276 23.7267 120.297 23.6806 120.297Z" fill="black"></path><path d="M28.0246 119.361C27.9998 119.361 27.9714 119.354 27.9466 119.339C27.8791 119.297 27.8578 119.208 27.9004 119.141L37.8121 103.554C37.8547 103.487 37.9434 103.466 38.0108 103.508C38.0783 103.551 38.0995 103.64 38.0534 103.707L28.1417 119.293C28.1204 119.336 28.0743 119.361 28.0246 119.361Z" fill="black"></path><path d="M31.6409 119.936C31.6125 119.936 31.5841 119.928 31.5593 119.911C31.4918 119.865 31.4777 119.776 31.5202 119.708L37.8441 110.46C37.8903 110.393 37.979 110.379 38.0464 110.421C38.1138 110.467 38.128 110.556 38.0854 110.624L31.7616 119.872C31.7332 119.914 31.687 119.936 31.6409 119.936Z" fill="black"></path><path d="M35.5018 119.999C35.4734 119.999 35.4451 119.992 35.4202 119.974C35.3528 119.928 35.335 119.839 35.3812 119.772L37.8724 116.085C37.9185 116.017 38.0072 116.003 38.0747 116.046C38.1421 116.092 38.1598 116.181 38.1137 116.248L35.6225 119.935C35.5941 119.978 35.548 119.999 35.5018 119.999Z" fill="black"></path><path d="M3.39945 31.0073C2.93456 25.2228 1.94091 19.4774 0.603027 13.8632C6.28104 11.7553 12.03 9.84249 17.9068 8.15329C17.7826 10.35 17.9848 12.6567 19.1133 14.5446C20.2418 16.4361 22.4847 17.7846 24.6388 17.3268C26.9171 16.8406 28.4466 14.4204 28.3969 12.0924C28.3472 9.76442 26.9951 7.61387 25.1569 5.9495C31.0478 4.72163 36.8252 2.95435 42.3577 0.715088C43.3585 6.48537 44.8134 12.1776 46.5878 17.7101C48.8271 17.7704 50.5624 15.7867 51.659 13.8313C51.9252 13.3593 52.1807 12.866 52.5781 12.497C53.7386 11.4146 55.6904 11.773 56.9325 12.756C59.0901 14.4665 59.7005 17.7704 58.4762 20.2368C57.2518 22.7032 54.4164 24.2043 51.6696 24.0446C51.3928 24.0304 51.1089 23.9985 50.8463 24.0872C50.6441 24.1546 50.4666 24.2895 50.3247 24.4492C49.4588 25.4002 49.7959 26.8907 50.1827 28.115C50.6299 29.5239 51.077 30.9363 51.439 32.2068C52.5568 35.1593 53.6711 38.1154 54.5016 41.1603C49.622 42.7253 44.8241 44.5564 40.083 46.5224C40.4911 42.6472 40.8956 38.772 41.3037 34.8967C41.3499 34.4425 41.396 33.9598 41.2115 33.5411C40.8637 32.7568 39.8026 32.5049 38.997 32.7994C38.1915 33.0904 37.5988 33.7789 37.0914 34.4709C35.3276 36.884 34.1707 39.6769 33.1345 42.4769C32.0912 45.3052 31.0727 48.3039 28.7411 50.3693C22.8963 52.0762 17.0551 53.7832 11.3025 55.4973C10.3124 50.8058 7.80701 46.1143 7.07596 41.4655C7.3918 40.5534 8.77581 40.6031 9.62397 40.1382C11.4303 39.141 12.903 37.5299 13.7299 35.6384C14.5567 33.7469 14.3474 31.3089 12.8356 29.9001C11.5226 28.6757 9.52816 28.4486 7.77152 28.8106C6.1249 29.1548 4.57409 29.9568 3.39945 31.0073Z" fill="#ACD4F7"></path><g opacity="0.1294"><path d="M40.7076 118.054C40.6438 115.254 40.8247 112.444 40.5408 109.651C40.3918 107.231 40.335 106.418 40.1008 104.654C40.0298 103.664 40.0901 102.66 39.9908 101.67C39.7637 99.0259 39.5969 96.3608 39.8914 93.7134C40.3244 90.9312 40.0121 90.7218 40.6544 88.1773C40.8922 87.7657 41.0874 87.315 40.9312 86.8323C40.7999 86.2894 40.367 85.9452 39.8772 85.8316C39.9801 85.1573 39.8169 85.2673 39.8346 84.664C39.8098 83.9472 40.0192 83.1842 39.8595 82.4887C39.7175 82.1054 39.3449 81.9847 39.0149 82.0557C38.9865 82.0451 38.9546 82.038 38.9226 82.0309C38.6671 81.6405 38.0283 81.6192 37.826 82.1373C37.5599 82.6519 37.638 83.2375 37.5528 83.7946C37.5067 84.586 37.315 85.427 37.4783 86.2042C37.5244 86.3249 37.5954 86.4171 37.6805 86.4846C37.7835 86.6656 37.9325 86.7933 38.0993 86.8749C37.8473 87.5137 37.7941 88.2199 37.7551 88.9013C37.7054 90.0333 37.7231 91.1796 37.8473 92.3045C37.8331 92.2016 37.7977 91.8893 37.8083 92.0987C37.8331 92.9433 37.8189 93.7844 37.8651 94.629C37.8935 96.3714 37.8438 98.1138 37.8686 99.8527C37.8828 101.361 37.9857 102.862 38.0887 104.363C38.039 105.836 37.9857 107.309 38.1029 108.781C38.3655 112.632 38.2732 117.696 38.6813 119.108C38.6848 119.137 38.6884 119.165 38.6919 119.193C38.3229 120.109 39.2668 121.298 40.3989 120.687C41.0554 120.326 41.1299 119.442 40.7254 118.902C40.7076 118.622 40.7076 118.338 40.7076 118.054Z" fill="black"></path></g><g opacity="0.1294"><path d="M57.3514 39.6624C57.3514 40.3189 57.2343 40.9541 57.0249 41.5645C57.2165 41.1635 57.3762 40.7802 57.4117 40.1556C57.394 39.8824 57.4366 39.822 57.3514 39.6624Z" fill="black"></path></g><g opacity="0.1294"><path d="M38.6104 59.5641C38.1561 60.1603 37.7409 60.7814 37.3576 61.413C37.2512 61.7111 37.1483 62.0092 37.0418 62.3109C36.6018 63.5494 36.403 64.8908 35.9665 66.7575C35.6684 69.0251 35.5975 71.3176 35.5904 73.603C35.5691 75.0296 35.5833 76.4882 35.562 78.4435C35.5904 79.5082 35.4484 80.626 35.6826 81.6623C36.0482 82.6275 37.5706 82.333 37.5528 81.2861C37.4002 79.5011 37.4819 77.7054 37.3364 75.9204C37.3789 74.4441 37.4712 73.5214 37.5386 71.6867C37.5386 71.6547 37.5422 71.6264 37.5422 71.5944C37.8296 71.5093 38.0674 71.2679 38.078 70.8634C38.181 68.4041 39.0504 66.0264 39.3237 63.159C39.3414 62.8822 39.3769 62.5735 39.2562 62.3251C39.8595 60.7068 40.5054 59.4151 41.6694 57.552C41.8894 57.2042 42.0775 56.8351 42.2833 56.4767C42.8405 55.8308 43.4438 55.2347 44.0471 54.6314C44.0861 54.5959 44.1251 54.5604 44.1642 54.5249C42.0491 55.8841 40.1505 57.5342 38.6104 59.5641Z" fill="black"></path></g><g opacity="0.1294"><path d="M52.9155 47.3918C53.1781 47.1576 53.4336 46.9127 53.682 46.6572C54.0014 46.2917 54.3066 45.8872 54.5763 45.511C54.115 46.0433 53.6252 46.5508 53.0965 47.0334C52.8658 47.2463 52.6245 47.4522 52.3867 47.6544C52.5642 47.5657 52.7416 47.477 52.9155 47.3918Z" fill="black"></path></g><g opacity="0.1294"><path d="M53.4725 41.4757C53.4867 41.4615 53.508 41.4473 53.5222 41.4296C53.579 41.3338 53.6038 41.2273 53.6003 41.1208C53.5754 41.1421 53.547 41.1599 53.5151 41.1705C52.7415 41.5112 51.8933 41.6993 51.0842 41.9406C50.2893 42.1784 49.4979 42.4232 48.7065 42.6752C47.099 43.1862 45.5127 43.7434 43.9335 44.336C43.8802 44.3573 43.8305 44.3644 43.7809 44.3715C43.7809 44.3821 43.7773 44.3928 43.7773 44.3999C43.7773 44.407 43.7809 44.4105 43.7809 44.4176C43.7844 44.4602 43.7738 44.4957 43.7631 44.5312C43.7667 44.556 43.7667 44.5809 43.7702 44.6057C43.7702 44.6093 43.7702 44.6164 43.7702 44.6199C43.7702 44.6235 43.7702 44.6235 43.7702 44.627C43.7702 44.6306 43.7702 44.6341 43.7702 44.6377C43.7702 44.6483 43.7738 44.6554 43.7738 44.666C43.7738 44.6589 43.7738 44.6554 43.7702 44.6483C43.788 44.7725 43.7809 44.879 43.7205 44.989C43.7028 45.0209 43.6779 45.0422 43.6531 45.0671C43.6602 45.2551 43.5608 45.4326 43.3798 45.5071C43.1563 45.6029 42.9433 45.5071 42.8085 45.319C42.5388 44.9464 42.5991 44.4034 42.6027 43.9669C42.6062 43.7327 42.6204 43.5021 42.6417 43.2714C42.6311 43.2146 42.624 43.1578 42.6133 43.101C42.6062 43.0585 42.6098 43.0194 42.6098 42.9804C42.5033 42.6184 42.3401 41.9406 42.3223 41.5325C42.3223 41.4225 42.2975 41.3267 42.2655 41.2415C42.2691 41.0286 42.2691 40.8156 42.2726 40.6027C42.372 39.0768 42.6311 37.5543 42.4678 36.0213C42.4146 35.4641 42.3436 34.907 42.3223 34.3463C42.2655 34.0446 42.3081 33.6862 42.1129 33.4342C41.7155 32.8771 40.7999 33.3349 40.9951 33.9914C41.1619 35.1909 41.0128 37.5898 40.736 38.7787C40.5444 40.0952 40.044 41.3692 39.9837 42.7C39.9766 43.3282 39.934 43.9598 39.973 44.588C39.9837 44.9358 40.0476 45.2977 40.3102 45.5426C40.8389 46.1068 41.7794 45.8584 42.0846 45.2303C42.301 45.2729 42.5281 45.2764 42.7553 45.2622C41.8148 45.6632 40.8354 46.121 39.8595 46.6959C39.8559 47.3596 39.8488 48.0267 39.8311 48.6903C39.8275 48.8003 39.8204 48.9104 39.8169 49.0204C40.1682 49.2227 40.6189 49.2617 41.0944 48.9991C43.8909 47.0969 47.0173 45.752 50.0267 44.2296C50.8926 43.7647 51.7869 43.3495 52.2553 43.1685C52.6776 42.9484 53.2276 42.8775 53.5435 42.5119C53.8451 42.1713 53.7422 41.7383 53.4725 41.4757Z" fill="black"></path></g><g opacity="0.1294"><path d="M59.0265 14.3384C58.6219 14.09 58.0541 14.3242 57.9334 14.782C57.8696 14.9878 57.937 15.1901 57.9725 15.3924C58.008 15.7331 57.9831 16.0773 57.9476 16.418C57.9192 16.6664 57.8873 17.0319 57.6886 17.6778C57.6744 17.7204 57.6566 17.7594 57.6389 17.802C57.6389 17.8055 57.6353 17.8091 57.6353 17.8126C57.4402 18.2349 57.1988 18.6395 56.9256 19.0157C56.7765 19.2144 56.7091 19.3031 56.9008 19.0511C56.0171 20.2826 55.1086 21.2088 53.242 22.0498C52.4116 22.3976 51.4428 22.4508 50.6585 22.8838C49.8884 23.4268 50.5236 24.6901 51.425 24.4204C52.5748 24.1152 53.7636 23.9271 54.8212 23.3558C56.8369 22.3018 58.629 20.5629 59.1932 18.3059C59.4168 17.4045 59.8817 14.9204 59.0265 14.3384Z" fill="black"></path></g><path d="M22.3006 81.8784C22.0629 81.8784 21.8677 81.6832 21.8677 81.4455C21.8677 78.6987 22.1267 75.8917 22.3964 72.9178C22.7087 69.5181 23.0281 66.0013 23.0494 61.977C23.053 61.4766 23.0246 60.7349 22.9926 59.8797C22.9146 57.7327 22.8152 55.0569 23.0884 53.7865C23.5356 51.7104 24.7244 51.4123 25.9807 51.0965C26.7969 50.8907 27.638 50.6777 28.518 49.9822C30.5195 48.3959 31.8361 44.9749 33.1101 41.671C34.2635 38.6759 35.4559 35.5813 37.1912 33.8282C37.9719 33.0404 39.0188 32.171 40.2183 32.4549C40.7826 32.5897 41.2049 32.8807 41.471 33.3208C41.9998 34.2009 41.7727 35.4465 41.5171 36.4366C40.9316 38.6936 40.8464 41.1103 40.7613 43.4454C40.6974 45.2517 40.6371 46.9586 40.3532 48.5166C40.3106 48.7508 40.0834 48.9069 39.8492 48.8643C39.615 48.8218 39.4589 48.5946 39.5015 48.3604C39.7747 46.8664 39.835 45.1878 39.8989 43.4134C39.9841 41.0322 40.0728 38.5658 40.6796 36.2166C40.9884 35.0242 41.0061 34.2222 40.7293 33.7644C40.5874 33.5266 40.3567 33.374 40.0196 33.2959C39.2424 33.1149 38.4297 33.807 37.8087 34.4351C36.2011 36.0604 35.0442 39.0698 33.9228 41.9797C32.6062 45.3936 31.247 48.9247 29.0575 50.66C28.0319 51.4727 27.0134 51.7282 26.1936 51.9376C24.9977 52.2392 24.2737 52.4202 23.9402 53.971C23.6882 55.135 23.7876 57.8604 23.8621 59.8477C23.894 60.7136 23.9224 61.4624 23.9189 61.9805C23.9011 66.0474 23.5746 69.5784 23.2623 72.9994C22.9926 75.952 22.7371 78.7413 22.7371 81.449C22.7336 81.6832 22.5384 81.8784 22.3006 81.8784Z" fill="black"></path><path d="M11.5477 55.7953C11.3703 55.7953 11.2071 55.6852 11.1432 55.5149C9.18427 50.2698 7.76831 45.8552 6.55819 41.1992C6.50141 40.9756 6.62916 40.745 6.84919 40.6775C8.68744 40.0991 10.9764 39.3822 12.3285 37.7321C12.7898 37.1678 13.1518 36.4865 13.4073 35.6986C14.0319 33.7788 13.7338 31.2201 11.9594 30.0455C11.4555 29.7119 10.806 29.4777 10.036 29.3535C7.77896 28.9915 5.24515 29.8006 3.74048 31.3692C3.62337 31.4898 3.44593 31.5324 3.28623 31.4792C3.12654 31.4224 3.01298 31.2804 2.99524 31.1101C2.43808 25.3043 1.43379 19.5837 0.0142828 14.108C-0.0424973 13.8915 0.0746098 13.668 0.283986 13.5934C6.69659 11.2371 12.2823 9.39526 17.8574 7.79831C18.0065 7.75573 18.1662 7.79476 18.2762 7.90123C18.3862 8.00769 18.4323 8.16738 18.3968 8.31643C17.6374 11.4429 19.2982 15.0165 22.1798 16.4466C23.319 17.0144 24.4439 17.1173 25.2672 16.7341C25.7215 16.5212 26.1473 16.1343 26.5377 15.5843C27.5065 14.2216 27.872 12.3904 27.5207 10.6905C27.1126 8.72099 25.8421 7.17018 24.8485 6.21557C24.7349 6.10555 24.6888 5.94231 24.7314 5.78617C24.774 5.63357 24.8982 5.51291 25.0543 5.47743C30.7536 4.17858 36.6446 2.83715 42.2516 0.12945C42.3722 0.069121 42.5177 0.0726678 42.6384 0.132997C42.7591 0.193326 42.8442 0.310435 42.8691 0.441739C43.3304 2.96845 44.9628 11.5919 46.794 17.1883C47.0921 17.3267 47.4257 17.348 47.7806 17.2522C48.5648 17.0393 49.4378 16.2515 49.9524 15.2933C50.0837 15.0484 50.2115 14.7929 50.3428 14.5339C50.978 13.2669 51.6984 11.8333 53.1356 11.3187C53.8134 11.0738 54.6261 11.0703 55.4885 11.3009C58.5617 12.1278 60.5951 15.6588 59.8428 18.8598C59.133 21.8798 56.0492 24.2397 52.8198 24.2433C52.6885 24.2433 52.5749 24.2397 52.4507 24.2362C51.9007 24.222 51.379 24.2113 50.9851 24.4491C50.144 24.9566 50.2753 26.3512 50.5344 27.4336C51.2512 30.4039 52.1313 32.629 53.0647 34.9818C53.7531 36.7207 54.4664 38.5199 55.1975 40.7911C55.2649 41.004 55.1584 41.2347 54.9526 41.3234C53.3982 41.9799 51.3896 42.7181 49.2639 43.4953C46.1943 44.6202 43.0181 45.7842 40.793 46.8595C40.5766 46.9624 40.3175 46.8737 40.2146 46.6572C40.1117 46.4407 40.2004 46.1817 40.4169 46.0788C42.681 44.9857 45.8749 43.8147 48.9658 42.6826C50.9177 41.9657 52.7701 41.2879 54.2499 40.6775C53.5721 38.6086 52.905 36.9301 52.2626 35.3012C51.3187 32.9164 50.4244 30.6665 49.6933 27.6359C49.2178 25.6557 49.5017 24.332 50.5379 23.7074C51.1448 23.3419 51.8474 23.3561 52.472 23.3703C52.5891 23.3738 52.7062 23.3774 52.8233 23.3738C55.6659 23.3738 58.3807 21.3049 59.0017 18.6611C59.6405 15.9463 57.859 12.8375 55.2684 12.1384C54.7893 12.0107 54.0831 11.9042 53.4337 12.1349C52.323 12.5324 51.7126 13.746 51.1235 14.9242C50.9886 15.1904 50.8573 15.453 50.7225 15.7049C50.0908 16.876 49.0262 17.8129 48.0148 18.0897C47.376 18.2636 46.755 18.1855 46.2155 17.8626C46.1268 17.8094 46.0594 17.7242 46.0275 17.6284C44.2744 12.3372 42.6952 4.26375 42.1203 1.15504C36.8326 3.62852 31.3427 4.93447 26.0054 6.15169C26.9671 7.19857 27.9962 8.6855 28.3759 10.5131C28.777 12.4436 28.3547 14.5268 27.251 16.0847C26.7719 16.7589 26.2325 17.2416 25.6399 17.5184C24.1849 18.1997 22.6092 17.6248 21.8001 17.2238C18.7908 15.7262 16.9667 12.142 17.4245 8.8239C12.1972 10.3392 6.93436 12.0781 0.954701 14.2677C2.26419 19.3992 3.21526 24.7436 3.77596 30.1661C5.49001 28.7999 7.95285 28.1398 10.1779 28.4947C11.0722 28.6366 11.8352 28.9134 12.442 29.318C14.5784 30.7339 14.9616 33.7326 14.2341 35.9648C13.9467 36.852 13.5315 37.6327 12.9992 38.2786C11.5832 40.0068 9.3759 40.784 7.50216 41.3767C8.65905 45.7594 10.004 49.9505 11.8316 54.869C15.0823 54.2799 18.3578 53.2437 21.5268 52.2394C22.3644 51.9732 23.8016 51.4658 25.1927 50.976C26.5909 50.4828 28.0353 49.9753 28.8834 49.7056C29.1105 49.6311 29.3554 49.7588 29.4264 49.9895C29.4974 50.2166 29.3731 50.4615 29.1425 50.5324C28.3085 50.7986 26.8713 51.3025 25.4766 51.7958C24.0784 52.2891 22.6341 52.7966 21.7859 53.0663C18.4714 54.1167 15.0468 55.2026 11.6187 55.7882C11.5974 55.7917 11.5726 55.7953 11.5477 55.7953Z" fill="black"></path><path d="M38.078 82.1768C37.8579 82.1768 37.6699 82.0135 37.6486 81.79C36.9211 75.0757 37.8828 65.8703 39.8914 60.3732C41.5309 55.8841 45.6723 52.7221 49.3275 49.9328C52.4398 47.5551 55.3817 45.3123 56.1731 42.7004C57.0283 39.8792 56.9751 39.7691 55.6301 36.9727C55.002 35.6703 54.0545 33.7008 52.823 30.6169C52.2304 29.13 52.2304 29.13 50.6725 29.5878C50.4418 29.6552 50.2005 29.5239 50.1331 29.2932C50.0657 29.0625 50.197 28.8212 50.4276 28.7538C52.4611 28.1576 52.8514 28.3457 53.6286 30.294C54.8494 33.353 55.7543 35.2267 56.4144 36.5966C57.7842 39.4391 57.9616 39.8046 57.007 42.9524C56.134 45.8304 53.0857 48.1584 49.8563 50.6212C46.2969 53.3396 42.2584 56.4199 40.7076 60.6678C38.7416 66.0548 37.7976 75.097 38.5145 81.6942C38.5393 81.9319 38.369 82.1449 38.1312 82.1732C38.1064 82.1768 38.0922 82.1768 38.078 82.1768Z" fill="black"></path><path d="M19.1281 120.269C19.121 120.269 19.1175 120.269 19.1104 120.269C18.869 120.262 18.6845 120.059 18.6916 119.818C19.0962 108.803 19.2381 97.6311 19.1139 86.6122C19.1104 86.4028 19.2594 86.2218 19.4652 86.1828C23.6102 85.3808 27.6735 85.5937 31.6055 85.796C34.5581 85.9486 37.5071 86.1012 40.4313 86.2467C40.552 86.2538 40.662 86.307 40.74 86.3993C40.8181 86.4915 40.8536 86.6086 40.8394 86.7293C40.268 91.7827 40.4597 96.9568 40.6442 101.961L41.3007 119.754C41.3078 119.992 41.1233 120.194 40.882 120.205C40.8749 120.205 40.8713 120.205 40.8642 120.205C40.6336 120.205 40.4384 120.02 40.4313 119.786L39.7748 101.993C39.5938 97.1059 39.4092 92.0595 39.9274 87.0877C37.1558 86.9493 34.3558 86.8038 31.5594 86.6583C27.7942 86.4631 23.9047 86.2644 19.9834 86.9635C20.1005 97.8795 19.955 108.941 19.554 119.846C19.554 120.088 19.3623 120.269 19.1281 120.269Z" fill="black"></path><path d="M20.3345 86.7616C20.331 86.7616 20.3274 86.7616 20.3239 86.7616C20.0861 86.7545 19.8945 86.5558 19.9016 86.318L20.0258 81.6833C20.0329 81.4562 20.2138 81.2717 20.4445 81.261C26.9423 81.0197 33.5217 81.1865 39.9982 81.7543C40.2217 81.772 40.3956 81.9637 40.3956 82.1872C40.3921 83.5855 40.2963 84.9943 40.1082 86.3783C40.0762 86.6161 39.8562 86.7829 39.6185 86.7509C39.3807 86.719 39.2139 86.499 39.2458 86.2612C39.4091 85.0475 39.5013 83.809 39.5226 82.5811C33.3478 82.0559 27.0807 81.8998 20.8846 82.1127L20.771 86.3357C20.7604 86.5735 20.5687 86.7616 20.3345 86.7616Z" fill="black"></path></svg>